<svg xmlns="http://www.w3.org/2000/svg" width="46" height="24" fill="none"><g clip-path="url(#a)"><path stroke="#2269f5" stroke-linecap="round" stroke-width="4" d="M2 16.147c.096-.435 1.832-3.331 3.52-5.657 1.72-2.37 2.07-2.8 2.167-2.875.678-.52-.192 3.068-.483 6.658-.143 1.757-.1 3.396.19 3.686.84.843 2.279-3.161 3.903-5.418 1.452-2.015 2.515-2.86 2.781-2.836.79.069.464 3.886.585 6.12.02.366.025.847.121 1.07.097.224.29.176.557-.21.267-.385.604-1.107 1.476-2.562.871-1.455 2.267-3.62 3.034-4.808s.863-1.333.937-1.335c1.79-.053.075 5.101.098 6.8.004.306.216.25.387.128.391-.277.802-.897 1.648-2.081 2.675-3.748 3.677-4.409 3.895-4.435.168-.02.266.503.244 2.338s-.215 5.107-.338 6.938c-.143 2.12-.22 2.946-.1 3.748.044.295.36.273 2.795-2.567S36.47 10.33 38.995 7.26c2.814-3.358 3.304-3.896 3.74-4.405.243-.269.532-.557.975-.855"/></g><defs><clipPath id="a"><path fill="#fff" d="M0 0h46v24H0z"/></clipPath></defs></svg>