<svg xmlns="http://www.w3.org/2000/svg" width="82" height="54" fill="none"><path fill="#f1f1f1" d="M32.249 21.407c-.162-.026-.034-.02.114-.007l.024.002c.191.004.334-.01.351-.007.063.006-.122.036-.352.029l-.024-.002zM19.272.634c-.258.018.18-.1.642-.036.207.025.557.082.778.212.133.071.243.162.322.244.226.245.217.273.343.427.091.114.177.225.253.307.218.24.43.485.64.718.228.253.38.537.472.683a2.7 2.7 0 0 1 .352.793c.007-.002.008-.01.014-.002a1 1 0 0 1 .05.116c.06.147.121.397.142.628.044.467-.006.93-.027 1.22l-.005.061c-.025.4-.052 1.012.028.418-.015.16-.03.338-.064.538-.017.057-.005.338-.069.67-.037.192-.061.38-.067.543a4 4 0 0 1-.052.483c-.024.135-.005-.053-.048.174-.004.019.006.05-.03.21v.003c-.022.127-.04.497-.1.704-.042.16-.069.216-.082.25-.015.03-.019.032-.02.027-.004-.012 0-.047-.038.047a2 2 0 0 0-.085.22c.016-.085.099-.251.18-.558.089-.4.08-.663.1-.708.084-.334.117-.637.125-.776-.018.097-.054.422-.143.77-.02.052-.012.332-.095.71-.105.376-.179.52-.184.584a5 5 0 0 1-.045.208c-.004.016-.011-.047-.015-.03-.016.071-.067.293-.117.503-.076.32-.151.653-.104.527.012-.035.064-.234.135-.517.043-.172.098-.39.146-.63-.031.172.017.05.012.081-.025.138-.076.35-.13.557l-.163.606-.076.287c-.016.067-.001.067-.004.078-.046.178-.068.188-.086.256a1 1 0 0 0-.02.16c-.075.219-.036.028.011-.162a9 9 0 0 0 .148-.628q0-.013-.006-.004l-.001.002c-.016.029-.071.257-.166.621-.052.172-.076.435-.245.828-.04.067-.07.35-.223.748-.049.106-.11.447-.307.743a1 1 0 0 0-.105.231c-.01.008-.032.041-.093.137-.036.052-.098.165-.233.316-.326.318-.435.435-.47.528l-.016.033c-.01.023.029.036.015.064-.016.01-.043.096-.125.23l.014.047c.087-.141.148-.263.185-.327l.018-.029-.012.033c-.03.066-.09.197-.183.352.067.231.123.457.158.57.019.064.088.2.134.28.12.208-.081-.194-.105-.291-.05-.177-.143-.53-.116-.47.058.18.106.362.14.461.02.078.157.309.298.672.064.178.164.398.26.688a5.3 5.3 0 0 1 .228 1.06c.002.01.007-.079.027.046.029.146.039.208.06.286.045.041.135.108.232.183.053.042.09.067.102.078a.3.3 0 0 1-.084-.021l-.037-.026c-.187-.135-.196-.177-.208-.192l.006.022-.015-.03-.023-.018-.008-.03q0 .002.004.005l-.005-.005-.023-.082c-.02-.075-.022.004-.039-.069a2 2 0 0 1-.01-.172c-.013-.185-.049-.383-.082-.408-.004-.003.028.153.055.412.012.115.025.212.084.376l.008.008c.043.041.127.104.248.197.126.096.221.15.361.195-.002.008.187.02.338-.005.155-.02.33-.061.43-.095.162-.054.356-.151.49-.209l.046-.023-.047.02c-.211.086-.37.158-.494.195v-.003c.127-.04.293-.125.488-.209.087-.039.117-.063.17-.102.05-.037.093-.07.113-.064l.04-.044c.193-.219.356-.434.457-.635.096-.19.193-.4.27-.594.137-.325.253-.507.271-.582.068-.2.108-.375.158-.628.067-.322.15-.586.197-.792.021-.085.035-.28.047-.508.014-.27.017-.547.023-.85l-.006-.044-.003.09-.02-.17-.008-.052.003.015.009.033a1 1 0 0 0 .026.081l.002-.102.023.164.023.047q.02.037.053.09l-.007-.081c-.023-.04-.034-.07-.046-.095l-.023-.06c-.018-.054-.02-.068-.023-.079l.01-.29.01-.095a1 1 0 0 1 .096-.282.8.8 0 0 1 .233-.27.72.72 0 0 1 .58-.118.75.75 0 0 1 .316.167c.098.088.137.155.167.204a1 1 0 0 1 .089.205 1.523 1.523 0 0 1 .023.092c.014.068.017.095.022.13l.018.132.004-.022v.015l-.002.031.003.018.012.11.015-.07.002.219.006.056.06.61q.046.473.084.935c.039.48-.027.253.06.993-.007-.169-.014-.39-.02-.594.008.111.028.395.05.608.02.157.08.408.142.669.041.182.085.3.135.401.012.023.017.03.033.047.015.016.039.037.056.05.012.009.027.002.124.06a.4.4 0 0 0-.084-.056c-.02-.009-.016-.007.024-.003.148.01.31.023.415.042.044.01.086.017.142.02.127.007.26-.016.29-.02.025-.003.04.014.093.005l.038-.008-.014.01c-.012.011-.03.023-.076.067l.04-.022-.018.018-.007.002c-.07.013-.142.02-.205.024a2 2 0 0 1-.289 0c-.24-.01-.195-.004 0 .011.085.009.21.014.345.003.067-.005.136-.015.195-.028h.003l-.035.032.042-.034.025-.007.026-.026.012-.006-.01.003a3 3 0 0 0 .183-.21c.051-.047.172-.187.317-.364a.5.5 0 0 0 .075-.14c.034-.08.08-.222.161-.383.053-.105.09-.256.096-.266.02-.05-.013.152.07-.101l.023-.1q.027-.106.05-.235l-.011-.06a4 4 0 0 1-.06.288c-.032.128-.05.183-.045.132l.026-.13-.012-.042-.008.03c-.025.098-.055.204-.073.277.004-.048.027-.154.054-.283l.015-.07c-.042-.17-.127-.554-.12-.865.02-.38-.002-.042.04.303.027.224.063.423.085.54l.054-.243c.01-.044.022-.034-.01.162a2 2 0 0 1-.034.136l.01.055v-.007c.022-.103.05-.22.067-.342a3 3 0 0 1-.05-.304c-.012-.241.032 0 .032-.025-.002-.072-.018-.226-.005-.452a1 1 0 0 1 .063-.3c.013-.034.027-.071.065-.135.02-.032.044-.072.102-.133.06-.048.162-.196.488-.19a.64.64 0 0 1 .465.27c.022.028.04.06.052.08.05.093.06.14.071.178.02.076.022.112.026.145.024.229.026.494.018.72l.034.205-.037-.147v.003l-.009.14c.011.063.028.167.042.304.006.066.016.146.028.23.036-.165.06-.309.063-.323l.016-.08c.002-.039.012-.145.017-.26.007-.125.014-.305.025-.333 0 .074-.005.233-.01.333a3 3 0 0 1-.026.26c.001.05-.03.26-.076.466.03.204.07.424.094.554.005.01.014.02.021.017l.025.092q.007.032.002.03c-.006.001-.022-.026-.018-.01.003.017.057.14.147.4.085.253.139.53.157.643.004.029-.038-.055-.034-.025l.028.143c.03.166.13.446.15.484h.002c-.003-.025-.018-.11.002-.069l.024.056c-.002-.006-.003-.007.007.008s.033.041.066.072c.064.061.163.138.176.146.023.012-.13-.11-.19-.178-.033-.035-.044-.056-.044-.06 0-.006.006-.004.01-.008.003.011.095.11.268.238.067.05.19.091.285.11a1 1 0 0 1-.152-.053.5.5 0 0 1-.114-.069c.019-.008.081.028.182.066.098.037.21.078.101.06l.051.008q.016-.005.017-.012c.002-.005.003-.01.022-.012.006 0 .04.007.09.013.048.006.106.012.125.01l-.087-.02c-.04-.011-.07-.022-.053-.023.029-.001.245.022.47.045h.106c.043-.002.077-.002.087-.002.051 0 .024.006-.034.013-.054.006-.149.013-.173.016l.036.003a1 1 0 0 0-.17-.003c-.003.001.071.015.167.032l-.034-.003c.05.014.24.016.239.018.022.017-.185.027-.24.026l.032.002c-.093-.008-.158-.011-.136.002l.134.02-.031-.003c.033.006.118.008.197.008a3 3 0 0 1-.198.014c-.224-.018-.484-.04-.584-.07-.224-.066-.313-.12-.365-.15l-.052-.036.05.04c.073.059.192.11.362.164.158.048.479.077.615.113l-.028-.002c.032.011.074.023.072.039 0 .011-.045.022-.075.029l.025.002c-.096.002-.208-.001-.201.004.016.012.09.022.178.03.082 0 .253-.02.259-.018q.02 0 .02.004c.004.007-.18.026-.282.028l.022.002c-.165-.012-.317-.023-.331-.022-.053.008.213.09.214.101-.016.003-.438-.035-.299.002.084.025.263.047.398.064.052.004.106.002.11.003.026.003-.047.012-.12.012l.015.002c-.191-.012-.465-.037-.475-.036-.015.004.337.067.35.074.008.007-.27-.006-.37-.003-.079.004.144.049.104.045-.012-.002-.176-.017-.305-.057a2 2 0 0 1-.316-.12c-.04-.016.075.06.057.056-.032-.002-.189-.102-.17-.085.004.011.196.146.409.227.146.061.304.091.3.1-.006.013-.21-.021-.311-.055-.082-.026-.12-.033-.007.028.045.025.123.058.242.093.005.003.199.018.204.019.102.029-.347.006.011.048-1.023-.106.049.06-.15.075a1.3 1.3 0 0 1-.354-.048c-.15-.04-.295-.101-.296-.101.045.049.227.095.283.123.015.008-.1-.018-.21-.052-.11-.033-.21-.079-.157-.041.03.023.21.102.36.147.143.044.257.056.267.06.214.045-.052.024-.006.042.033.015.354.05.362.052.015.005-.422-.01-.534-.032-.078-.007.205.06.151.053a1.3 1.3 0 0 1-.27-.054c-.276-.09-.554-.236-.085.01.012.006.041.016.076.028.1.033.22.052.225.054.096.028-.058.018-.232-.027-.069-.018-.138-.038-.166-.042-.086-.013.104.058.158.075.025.01.032.012-.001.004-.026-.007-.082-.02-.196-.058q.106.044.192.075c.314.098.5.097.795.128l.02.002-.02-.001c-.298-.028-.56-.036-.803-.1-.185-.046-.314-.092-.324-.084-.013.005.1.07.31.141.161.054.331.08.526.102-.35-.036-.34-.006-.491-.041l-.047-.015a5 5 0 0 1-.387-.157c-.133-.064-.215-.098-.07.033q.014.012.059.034c-.554-.254.167.122.253.145-.047-.002-.292-.047-.653-.325-.14-.131-.445-.283-.68-.82a4.4 4.4 0 0 1-.212-.73l-.05-.25q-.007.01-.017.021l.048.234c.023.114.048.208.064.264a3 3 0 0 1-.073-.262q-.026-.113-.05-.221c-.121.146-.24.28-.129.132l.124-.151-.047-.197c-.2.246-.401.509-.689.773-.103.09-.15.108-.198.134a1.734 1.734 0 0 1-.304.107c-.114.029-.22.045-.325.057q-.31.033-.612.01c-.109-.01-.222-.01-.375-.02-.147-.018-.387-.014-.686-.227-.173-.127-.469-.367-.635-.71a3 3 0 0 1-.144-.33l-.066.151q.05.123.11.24c.114.227.281.42.385.518.106.102.16.146.155.149a2 2 0 0 1-.552-.659 3 3 0 0 1-.106-.23l-.033.071c-.131.275-.032.002-.175.316q-.03.094-.056.161c-.125.3-.17.282-.235.387-.232.342-.37.51-.392.54l-.068.08c-.176.207-.515.517-.878.658-.15.063-.35.162-.566.238-.008.004.239-.066-.026.026l-.053.016a4 4 0 0 1-.494.088c-.272.02-.569.094-1.128-.058a3 3 0 0 1-.669-.316 2.6 2.6 0 0 0 .664.336 2.9 2.9 0 0 1-.838-.435c-.201-.137-.68-.498-.826-.91-.04-.09-.05-.103-.012.007l.003.009c.214.554.702.805.823.913.1.079.18.137.197.168a4 4 0 0 1-.208-.15c-.06-.048-.156-.115-.296-.233-.133-.124-.346-.281-.525-.705-.099-.24-.2-.6-.232-.917a3 3 0 0 0-.14-.62c-.053-.16-.15-.375-.239-.61-.04-.11-.14-.3-.222-.486a4 4 0 0 1-.124.126c-.203.194-.362.286-.218.164.03-.021.198-.176.33-.315l-.007-.018a3 3 0 0 1-.427.393c-.023.016-.048.037-.053.04-.038.024 0-.017.043-.057.152-.117.301-.271.422-.412l-.008-.02c-.113.126-.252.26-.435.397a2 2 0 0 0-.146.125c-.105.1-.12.146-.133.159-.196.205-.098.076-.164.145a10 10 0 0 0-.192.235c-.128.155-.24.255-.213.18-.163.17-.275.277-.343.355-.362.375-.426.408-.408.407.02-.016.162-.11.43-.382.103-.113.312-.285.543-.552.087-.102.185-.209.281-.307-.073.085-.174.198-.273.316-.208.247-.433.435-.542.554-.119.126-.222.215-.292.278-.096.085-.038.062-.17.185q-.028.026-.061.059a2.9 2.9 0 0 1-.8.543c-.03.022-.137.093-.236.147a1.7 1.7 0 0 1-.49.17c-.32.055-.589.028-.823-.006a3.1 3.1 0 0 1-.855-.263c-.06-.028-.14-.062-.21-.096.197.085.213.08.21.073-.008-.013-.065-.039-.225-.114-.166-.082-.2-.103-.177-.077.02.023.076.065.04.046-.017-.02-.219-.08-.474-.437-.105-.163-.273-.398-.414-.722-.038-.087-.132-.26-.19-.377l-.04.044c-.204.215-.374.468-.765.786-.178.135-.373.306-.533.438l-.276.228c-.061.05-.155.13-.255.215-.005.008-.123.15-.294.298a1.5 1.5 0 0 1-.534.288 1.2 1.2 0 0 1-.258.04c-.114.004-.27.012-.495-.008-.208-.017-.61-.094-.928-.37-.102-.092-.414-.284-.537-.39l-.02-.015c-.085-.066-.004.026-.103-.056-.107-.09.017-.014-.015-.042-.057-.084-.32-.146-.654-.85-.015-.056-.11-.2-.213-.478-.046.051-.082.09-.1.107-.096.093-.072.036-.276.213-.016.013-.055.052-.155.127a2 2 0 0 0-.173.154c-.09.085-.231.223-.4.348-.1.075-.201.139-.293.19-.106.06-.298.12-.147.012.093-.066.242-.157.395-.273.29-.228.455-.395.439-.399-.011-.02-.173.156-.451.379-.227.176-.43.288-.5.333l-.078.047c-.505.294-.563.258-.548.25.019-.02.15-.091.135-.09-.032.004-.144.048-.253.09-.209.08-.391.137-.404.142-.094.022.27-.126.283-.15 0-.01-.143.028-.254.054s-.202.049-.15.026c.089-.04.3-.098.49-.17.098-.036.182-.068.194-.074.346-.184-.019-.04-.215.012q-.075.023-.119.033c-.05.013.14-.075.1-.061-.6.193-.12.113-.479.238-.29.106.059-.06.065-.064a4 4 0 0 0-.195.07c-.057.021-.18.086-.212.097a3 3 0 0 1 .202-.126c.178-.09.461-.2.604-.281.045-.026.07-.043.061-.044l-.066.029c-.231.1-.432.161-.617.242-.058.025-.146.077-.243.129-.025-.008.15-.106.239-.14.087-.033.172-.06.19-.068.091-.04-.172.037-.162.024.001-.01.297-.145.021-.053l-.072.03c-.081.026-.232.168-.6.265.395-.14.522-.267.591-.29.127-.06.078-.05-.008-.023-.068.02-.2.086-.215.089-.019.004.11-.078.15-.105.036-.026.042-.036-.33.156-.06-.047.016-.026.207-.142.176-.103-.113.023.153-.103.078-.032.202-.076.404-.143-.03-.004-.226.052-.411.124-.174.074-.382.193-.404.195-.035.015.126-.079.065-.055a1.1 1.1 0 0 1-.362.09c-.177.006.065-.02-.097-.027-.019.006-.711.048-.185-.002q.146-.016.273-.036c.303-.054.5-.214.67-.28.263-.104.414-.16.48-.241-.162.05-.336.101-.504.17-.248.111-.45.26-.653.293a5 5 0 0 1-.532.075c-.329.018.01-.018-.03-.021-.014 0-.296.011-.3.008-.123-.044.36-.026.858-.09.241-.03.468-.19.657-.267l.132-.053q-.069.019-.137.04c-.08.026-.154.06-.226.09.07-.037.14-.077.22-.11a6 6 0 0 1 .26-.098q-.183.06-.263.09c-.13.053-.099.035-.004-.012.116-.056.33-.142.41-.2.039-.027-.45.17.101-.066-.352.122-.316.092-.538.188a2 2 0 0 0-.141.073.5.5 0 0 1 .137-.084c.146-.073.402-.163.606-.256.169-.077.314-.15.404-.209-.164.09-.303.142-.411.19-.386.151-.325.148-.604.26-.12.046-.262.137-.458.208-.074.043-.012.03.071-.005s.188-.093.17-.08a1.3 1.3 0 0 1-.403.173c-.125.024-.27.05-.424.085-.068.014.225.027-.205.052a3 3 0 0 1-.318-.023c.036-.018.305-.017.316-.027.01-.007-.29.005-.29 0-.01-.024.249-.012.211-.02-.088-.011-1.135-.07.244-.07-1.156.054-.148.063.305-.01.067-.01.104-.022.155-.035.027-.008.06-.018.112-.038.154-.056.356-.182.503-.242l.022-.01c.03-.012.009-.007-.025.003-.08.025-.206.074-.007-.021q.118-.052.44-.16c-.123.034-.276.08-.444.146-.266.117-.444.245-.609.267-.256.04-.512.057-.702.053-.823-.048.276-.035.693-.125a1 1 0 0 0 .091-.025c.016-.006-.005-.005-.025-.004-.02 0-.04-.002-.031-.004.023.003.192-.074.552-.253.227-.092.417-.155.45-.177.088-.048-.335.12-.378.12-.015-.007.373-.148.523-.22.13-.062.183-.09-.005-.015l-.044.018c-.133.051-.346.123-.566.217-.364.185-.503.268-.58.254a.2.2 0 0 1-.057-.005l.056-.009c.122-.015.267-.118.574-.261.223-.093.445-.16.61-.232.154-.066.286-.124.398-.193-.117.06-.251.108-.408.164-.143.05-.331.096-.527.16.199-.077.382-.134.517-.19.186-.077.332-.141.454-.222.208-.136.374-.226.502-.334q.08-.067.163-.151c-.07.06-.124.101-.173.135-.191.127-.291.166-.267.146.021-.02.14-.094.246-.18.155-.119.441-.427.61-.538l.018-.016-.022.01c-.092.053-.259.183-.373.278-.115.096-.2.154-.228.173.099-.079.245-.27.564-.515.125-.102.392-.41.486-.53.104-.132.083-.129-.16.107.088-.087.224-.255.321-.373l-.006-.025c-.218.225-.606.652-.535.545.1-.14.296-.302.506-.537l.024-.027c-.03-.12-.041-.192-.054-.24.013.04.025.11.059.235l.002-.002a1 1 0 0 0 .05-.067 4 4 0 0 0-.08-.281c-.016-.067-.121-.262-.206-.65a2 2 0 0 1-.03-.142c-.062-.35-.088-.952-.06-1.58.026-.38-.054-.781.05-1.52.054-.272.113-.502.156-.678.06-.262.146-.53.164-.59-.01-.002-.187.547-.086.17.128-.404.097-.217.181-.37.008-.004.024-.032.079-.158.01-.02.038-.106.144-.292a1.5 1.5 0 0 1 .277-.35c.141-.134.38-.268.618-.295.25-.037.543-.01.613-.006.146.005.288.022.303.024.317.04-.054-.055-.301-.067a3 3 0 0 0-.334-.025c-.12-.002-.208.006-.202.005.013-.004.097-.014.212-.016.108-.004.276.009.325.01.132.006.3.017.474.056.17.037.337.117.358.13.02.01-.074-.036-.176-.067a1.4 1.4 0 0 0-.265-.056c-.055-.005-.07-.004.016.014.043.01.113.023.238.066.121.046.33.117.57.375a1.43 1.43 0 0 0-.64-.42c.249.066.506.236.65.409.13.155.14.202.168.254a1.2 1.2 0 0 1 .105.324c.012.062.017.101.028.15.066.442.233.773.015 1.659l-.006.02c-.042.12-.031.05-.018-.028a1 1 0 0 0 .016-.11l-.029.106c-.065.244-.123.467-.189.571-.003.005.01-.053.017-.088.003-.016.002-.022-.008 0a1 1 0 0 0-.043.12c-.02.07-.043.177-.09.363l.066-.222c-.014.057-.04.254-.165.593a2 2 0 0 0-.114.391c-.036.231-.086.335-.102.382-.065.16-.093.201-.11.231-.017.028-.023.03-.028.035-.006.003-.012.008-.025.03a1 1 0 0 0-.05.104q.014-.016.017-.007.001.01-.002.028a3.8 3.8 0 0 1-.3.743c-.07.12-.113.183-.112.161-.018.068-.117.245-.179.386l-.03.068q.063.142.143.339c.015.066.157.243.298.695 0 .026.08.173.188.429l.031.03c.049.044.12.1.169.138l.02.013-.017-.018a2 2 0 0 1-.144-.145q.05.047.153.132c.06.057.223.155.438.318-.126-.086-.237-.15-.32-.197.085.06.223.147.381.273q.03.004.068.007c.024.002-.025.014-.002.02.053-.051.172-.175.284-.259.039-.027.054-.035.03-.013q-.003.004-.025.021c-.082.065-.18.166-.242.23a.3.3 0 0 0-.043.022l.02.002-.03.03.025-.017.013-.013h.013a.5.5 0 0 1 .165-.045c-.036 0-.054-.002-.044-.005l.044-.007a.4.4 0 0 0-.15.028 5 5 0 0 1 .235-.216 28 28 0 0 0 .53-.423c.176-.146.358-.309.586-.486.066-.047.293-.315.517-.566a8 8 0 0 0 .448-.52c.006-.011.03-.055.053-.111.035-.081.075-.187.13-.323l-.042-.242c-.074-.477-.097-.879-.076-.777.02.079.047.399.103.772l.032.205v.003l.01.06q0-.004.002-.007l.03-.074-.031-.196-.021-.125a.6.6 0 0 0 .008.128c.007.078.014.154-.003.083l-.01-.08c-.02-.152-.042-.422-.073-.668-.017-.122-.026-.046-.03-.077-.017-.116-.017-.146-.017-.19 0-.039-.001-.114-.022-.231l-.022-.13c-.06-.416-.092-.608-.152-1.04l-.005-.038.005.039c.116 1.135.057.573-.027.005-.028-.173-.05-.342-.068-.466-.006-.045-.014-.052-.026-.095-.012-.042-.026-.128-.054-.27a3 3 0 0 1-.042-.255c.015.082.033.17.054.252.048.167.062.256.064.233a1.5 1.5 0 0 0-.036-.24c-.066-.317-.08-.52-.11-.587-.05-.163-.071-.278-.085-.35-.003-.022.012-.039-.018-.238-.002-.016-.014.009-.038-.17-.16-1.635-.047-.588-.06-.9l-.004-.083c-.015-.242-.057-.826-.066-1-.002-.046.014-.026.005-.204-.016-.316-.046-.596-.059-.801-.001-.023.024-.03-.009-.411-.01-.107-.027-.223-.022-.074.015.5.095 1.494.103 2.093.006.544-.077-1.168-.082-1.251-.002-.033.026.297.012-.038-.01-.218-.051-.577-.084-.9q-.015-.143-.028-.29a8 8 0 0 1-.004-.358c.004.02.068.527.07.45 0-.007-.036-.33-.034-.376.003-.054.073-.212.068-.286-.015-.192-.022-.065-.033-.19-.026-.224-.053-1.021.043-1.366 0-.01 0-.023-.004-.026l-.006.024c-.05.199-.067.374-.075.536.007-.227.036-.408.067-.539.005-.027.012-.07.014-.092.003-.024.003-.032 0-.032-.002-.002-.01.024-.004-.024.01-.07.022-.103.042-.161.027-.06.034-.152.178-.412.011-.018.058-.103.152-.206.061-.065.146-.163.292-.286.135-.114.424-.312.782-.263.159.014.377.055.364.05-.215-.044-.308-.045-.364-.056-.27-.024-.31.015-.302 0 .008-.008.075-.024.046-.02-.308.049-.503.244-.638.368-.09.084-.146.146-.192.193-.175.194-.221.334-.248.387-.025.056-.025.05-.013.01.02-.08.142-.318.24-.42.029-.037.038-.051-.006-.007-.154.141-.284.502-.29.551-.056.191-.069.18-.086.272-.027.17.037-.016.038-.01-.005.05-.016.127-.023.152-.085.357-.1.689-.096.294-.042.33.005.356-.007.582-.008.434-.042-.205-.024-.425.007-.162.025-.316.062-.471.042-.06-.037-.436.402-.972.108-.104.186-.242.535-.453.138-.077.37-.156.612-.124.165.01.48.058.624.126.025.011.097.044.19.103.177.097.622.488.76.644q.03.022.046.014c.12.18.242.436.345.666.08.173.147.347.201.487.12.325.112.208.125.238l.01.032c.014.05.083.23.13.317.052.103.043.053.117.203l.01.018c.04.074.121.239.156.344.04.11.057.188.067.241.019.107.01.123.017.162.044.283.043.416.051.494.013.137.035.033.042.13.005.061.022.487.04.973.005.506.077.952-.042 1.531H15c.055-.244.05-.444.047-.587-.012.148-.02.377-.07.58-.016.069-.028.139-.05.136.03.033.013.19-.044.444-.01.02-.034.197-.043.288-.01.083.004.077-.014.196a2 2 0 0 1-.057.266c-.067.242-.158.475-.187.597-.048.187-.089.347-.104.418-.088.409.022.044.15-.403.036-.123.131-.36.2-.591.067-.24.079-.383.086-.423-.01.07-.023.215-.08.425-.065.242-.152.48-.176.598-.101.434-.171.766-.045.337.026-.089.046-.234.062-.332l.007-.05c.021-.08.042-.142.053-.17s.013-.027.011-.012c-.003.03-.019.103-.012.088.014-.036.082-.297.122-.452l.014-.055c.007-.023-.003.042.01.018.01-.017.06-.17.09-.459-.003.068-.008.235-.08.508-.066.247-.155.48-.183.595l-.154.608-.009.039c-.004.02.019-.025.02 0 0 .014-.003.04-.023.127-.024.09-.043.241-.178.578l-.08.177.026-.026c-.06.154-.11.297-.13.382-.095.353-.184.539-.196.612-.09.352-.211.588-.299.78.018-.062.154-.41-.034.007l-.002.004c.002-.001 0 .007.002.012q0 .007.007.007c.007-.002.015-.005.015-.003l-.022.078c-.024.07-.038.231-.195.561a5 5 0 0 0-.109.23c.01.047.02.087.053.194.003.008.003.003.009.012.01.014.015.023.123.293q.078.195.14.374a2 2 0 0 0 .056.124 2 2 0 0 1-.064-.12c-.085-.242-.16-.41-.167-.43-.012-.026 0 .04-.01.047-.006.013-.058-.073-.125-.271l-.047-.15-.008.019a2 2 0 0 1 .028.151c-.006.007.15.38.248.665a.4.4 0 0 0 .055.1c.01.013.011.009.01-.001-.002-.02-.013-.056-.002-.038.007.02.067.121.236.478.031.077.14.235.22.32l.07.03.123.056c.019.008.023.008.003-.006-.023-.015-.07-.04-.118-.07q.054.021.124.053c.133.059.17.071.201.084.027.01.03.014.023.015-.014.002-.072-.01-.058-.004.04.024.22.052.252.056.034.008-.077.004.023.025l.03.006c.028.005.25.002-.026-.042l-.015-.002.015.002c.202.03.256.013.29.012.032-.003.043 0 .066.018.01-.026.003-.032.011-.036a.1.1 0 0 1 .04 0c.018.002.036.008.06.006.025-.002.047-.01.136-.06q.038-.022.087-.046c.252-.118.14-.14.155-.149.026-.023.123-.087.194-.157.227-.219.414-.354.498-.447.207-.213.327-.317.379-.376-.016.051-.145.165-.367.39-.095.098-.338.276-.437.378l-.064.066c-.04.05-.026.043.012.014.12-.111.297-.249.379-.31.084-.063.123-.084.053.007a1 1 0 0 0 .092-.114c.104-.124.195-.223.27-.309.1-.075.105-.066.12-.07.011-.002.035-.016.113-.106a9 9 0 0 1 .32-.357c.067-.101-.196.184-.33.345-.037.043-.063.068-.043.034l.031-.045c.13-.171.428-.48.434-.493-.002-.018-.378.395-.326.322.066-.095.422-.496.796-.761.033-.021.066-.048.073-.05.008-.002-.017.03-.063.068-.101.075-.2.16-.314.267.104-.095.2-.172.324-.251.07-.029.174-.094.304-.264.056-.074-.085.056-.135.079-.045.014-.05.012.375-.494q.07-.084.16-.182l-.025-.134c-.034-.213-.05-.389-.068-.55a4 4 0 0 0-.048-.35 1.409 1.409 0 0 1-.03-.163l-.006-.061-.003-.044-.003-.036-.006-.124-.01-.217q-.01-.208-.02-.398c-.003-.422.053.624.046.145-.02-.984-.036-.26-.04-.29-.026-.244.004-1.077-.069-1.07-.013-.218-.011-.258-.022-.374a11 11 0 0 0-.043-.369l.007.2c-.046-.254-.077-.66-.107-.941-.053-.431-.065-.76-.054-.713.035.153.074.466.108.701.015.107.023.198.026.216.01.065.093.223.127.899q.006.106.008.23c.03.127.025-.028.01-.232-.025-.352-.08-.833-.005-.354-.02-.153-.049-.468-.098-.772-.048-.28-.09-.58-.129-.864-.094-.621-.157-1.27-.179-1.422-.005-.038-.041.149-.059-.42-.007-.271.04.378.042.254 0-.06-.01-.244-.022-.512-.031-.686-.094-1.93-.143-3.117q-.01-.24-.016-.477c0-.171-.018-.286.015-.578.03-.206.036-.505.113-.836.042-.182.089-.48.163-.711.023-.077.06-.223.096-.326.029-.08.031-.045.063-.125.04-.104.142-.33.287-.532.263-.327.448-.372.633-.45q.158-.054.292-.076m12.132 20.739q0 .003-.008 0zm-.149-.093q.04.017.076.03c.098.038.165.06.098.052zm-10.048.182c0-.009.124.054.36.127.298.09.596.094.93.06.036.003.48-.062.377-.034-.491.106-.896.136-1.315.006-.23-.078-.354-.154-.352-.16m-1.995-3.746c-.008-.013.02.06.047.132.028.072.051.139.062.164.025.058.022.014.038.042l.02.05c.094.24.17.424.213.566.05.161.083.301.11.456.006.029-.02-.195.022.048q.004.026.011.137c.013.171.056.462.16.748l.064.146c.33.655.645.724.807.88.223.173.515.343.817.438.471.133.783.077 1.152.01-.024 0-.246.04-.5.045a2.1 2.1 0 0 1-.627-.075l-.018-.006a2.7 2.7 0 0 1-.811-.433c-.154-.148-.48-.242-.777-.88a3.4 3.4 0 0 1-.22-.88 3 3 0 0 0-.145-.651 5 5 0 0 0-.12-.317c-.092-.227-.06-.112-.102-.216-.02-.052-.006-.039-.017-.083a.4.4 0 0 0-.048-.119c-.02-.038-.012-.008-.001.031.011.04.022.085.022.1q.004.019-.004.002l-.001-.003c-.008-.015-.025-.064-.056-.132a3 3 0 0 0-.098-.2m4.599 3.44c.218-.09.445-.26.127-.084l-.135.062c-.091.043-.059.048-.048.044zm6.178-1.024c-.013-.07.017.002.057.104.14.354.415.615.194.39a1.6 1.6 0 0 1-.25-.494m.82-1.598c.05.142.121.432.172.693.034.163.087.337.15.499-.008.027.204.22.303.295l.026.02c.011.006-.008-.016-.018-.032-.021-.025-.033-.04.007-.01.022.012.051.049.2.12a1.3 1.3 0 0 1-.19-.136c-.215-.173-.305-.276-.304-.268a2 2 0 0 1-.091-.217c-.02-.068.037.029.033.013-.004-.014-.046-.142-.076-.293a8 8 0 0 0-.158-.667c-.011-.033.008.144-.054-.017m-3.935 1.704c-.17-.038-.355-.15-.249-.105l-.003-.002c.288.127.427.115.524.13.096.01.149.017.186.025.073.015.08.032.062.032-.243.005-.366-.021-.327-.025.03-.004.134-.008.123-.01-.022-.005-.146-.004-.316-.045m1.508-.1c.078-.006-.158.053-.277.057-.212.006.03-.034.276-.056m2.632-.586q.03.09.07.196c-.003.037.166.204.26.254-.14-.108-.249-.242-.249-.26-.033-.081-.06-.15-.08-.19m-.413-1.613c-.033-.207-.078-.343-.033.006l.007.048-.012-.048-.035-.199-.01.033.028.169c.011.05.034.095.052.128.019.034.035.063.056.124.095.265.05.285.014.224q.017.034.041.097c.064.16.137.457.192.726.037.17.093.348.16.512.008.025.05.083.108.137a.4.4 0 0 1-.098-.142 3 3 0 0 1-.139-.515 6 6 0 0 0-.163-.74l-.04-.125c-.052-.15-.109-.26-.13-.34-.015-.061-.007-.06-.001-.053s.017.029.016.025zm-10.855 1.618c-.029-.035.105.503.192.658.032.075.059.12.07.137a2 2 0 0 1-.064-.14c-.08-.17-.2-.647-.198-.655m-9.07.427a5 5 0 0 0-.318.247c.019-.024-.079.095-.265.263-.178.172-.548.343-.8.343l-.141.012.142-.006c.267.001.637-.178.813-.346.183-.166.279-.28.259-.255.17-.137.308-.25.31-.258m5.117.328c.17-.093.24-.154.1-.07-.127.096-.6.229-.634.231.105-.007.359-.064.534-.16m-1.846.004c.18.077.459.137.604.15.123.013.175.01.05-.012l-.048-.007c-.143-.009-.595-.126-.606-.13m17.299-.653h-.001m-.3-1.232c.045.107.14.485.194.759.038.183.101.363.142.465l-.007-.013q-.003.006-.006.007c-.004 0-.006-.003-.001.013a2.6 2.6 0 0 1-.145-.468 8 8 0 0 0-.177-.763m.212.754c-.044-.232-.092-.464-.052-.342.017.05.048.192.078.336.03.15.085.335.13.46-.011-.022-.014-.017-.014-.013q-.002.004-.008.004l.006.017a2.6 2.6 0 0 1-.14-.462m-6.32-2.968c-.053.193-.119.409-.174.678-.051.254-.088.424-.152.622-.012.065-.124.246-.262.58a7 7 0 0 1-.128.308c.025-.101-.062.108-.142.28-.075.157-.145.291-.011.003-.031.07-.154.3-.438.623a1.3 1.3 0 0 1-.153.153.5.5 0 0 1-.138.083c-.21.09-.368.167-.488.207-.314.112-.779.122-.75.103-.108-.034-.159-.065-.182-.078-.037-.028.003-.077.172.017.023.013-.097-.009-.078.003a.429.429 0 0 0 .228.05c.08 0 .157-.01.166-.012.026-.005-.008-.026.019-.033.016-.003.273-.032.417-.076q.059-.017.113-.04c.161-.066.294-.135.372-.172.037-.022.039-.03.046-.034.037-.02.09-.03.194-.14q.022-.022.045-.049c.174-.198.342-.417.443-.621.092-.185.188-.397.265-.588.144-.342.256-.518.27-.576.07-.205.11-.38.16-.616.068-.303.137-.511.186-.675m6.056 2.559c-.066-.304.07.232.108.447.011.057.021.098.022.103.016.09-.01.016-.036-.1-.03-.14-.074-.36-.094-.45M13.2 19.844c-.118-.097-.15-.133-.133-.1.033.073.28.283.377.317a1.6 1.6 0 0 0 .266.082c-.173-.086-.397-.203-.51-.3m17.707-1.398c-.082-.244-.11-.323-.03-.162q.037.075.061.15c.044.133.051.223.057.243.04.16.086.392.11.521.014.08.022.128.005.096l-.02-.093a7 7 0 0 0-.183-.755m-11.252.58c.04.353-.006-.038-.031-.015.017.077.037.196.05.307.048.383.142.693.052.194-.006-.046-.017-.118-.025-.197a3 3 0 0 0-.046-.288m10.08.026q.022.09.045.198l.017-.021a5 5 0 0 0-.045-.2zm.81-.86c-.022.002-.031.047-.026.068.015.056.056.157.105.294.092.259.165.566.187.641-.08-.385-.138-.58-.154-.654-.025-.108.017-.034-.01-.136-.052-.18-.081-.212-.103-.212m-9.168 1.26q-.01-.015.023.009l.018.058a.3.3 0 0 0-.041-.067m-.105-.338c-.02-.148-.033-.214-.018-.06l.006.062c.004.114.081.363.104.38a2 2 0 0 1-.092-.382m.084.352.005.007zm.035-.035q0-.002 0 0m6.266-.485c-.168-.015-.122.004-.001.023.057.01.137.018.213.013a1 1 0 0 0-.082-.022zm3.307-.523c-.007-.03 0-.028.015-.004.026.043.075.17.093.29.01.078-.036-.057-.108-.285M3.168 19.688c.063-.016.016.01-.088.058-.155.07-.406.26-.663.298a2.6 2.6 0 0 1-.415.035c.102-.013.255-.028.413-.051.223-.033.435-.168.553-.23.022-.01-.1-.008.102-.083q.04-.013.098-.027m9.315-.786c.164.364.26.478.303.553.044.068.045.066.03.04-.03-.051-.128-.223-.067-.143a3 3 0 0 1-.278-.477zm14.7-.1.016.003-.014-.01.014.01q.02.004.048.006a.8.8 0 0 0 .177.003 2 2 0 0 1-.245-.023.1.1 0 0 0-.038-.022zm3.427-.243c-.067-.25-.186-.371-.041-.013l.012.024c.017.03.046.075.044.065zm-3.431.232q.003 0 .006.004l-.013-.007zm1.922-1.389c.005-.018-.008-.038-.011-.03-.006.014-.031.096-.07.173-.07.138-.117.276-.153.365a.6.6 0 0 1-.082.163c-.194.243-.385.48-.526.62l-.06.017-.001.001.053-.01-.044.042.056-.044.012-.003.01-.01.007-.004-.006.003c.143-.14.33-.366.514-.597a.6.6 0 0 0 .09-.17c.036-.09.084-.228.15-.36a1 1 0 0 0 .061-.156m-1.795 1.299c-.098-.005-.1-.007-.104-.005-.002.002.002.007.037.013.065.013.294.021.429.03.057.003.086.001.056-.006l-.056-.006c-.127-.013-.33-.024-.362-.026m.878.013.013-.002.001-.002zm.1-.028-.02.013h-.001l-.012.002.008-.007h.003l.024-.01zm-.11-.025-.017.014.014-.014zm.052 0c.02-.02.02-.013.023-.01l-.03.02-.006.001zm-21.71.308c-.002.004.053.122.068.165.09.227.199.366.207.378.163.204.172.189.113.122-.057-.072-.201-.246-.305-.508a1 1 0 0 0-.084-.157m21.726-.356c.145-.13.25-.233.037.015l-.009.008-.01.004-.068.017-.004.003.004-.003-.018.004c.037-.031.054-.04.068-.048m.024.027q-.015.015-.017.01zm-1.053-.029q.002.002.026.018.015.011.03.025h.008c.095.008.255.007.395.012.253-.001.39-.03.045-.026-.01 0 .073.023-.045.02l-.13-.008c-.014-.001-.036-.01-.1-.018l-.125-.013c-.046-.003-.107-.011-.104-.01m1.058.027-.003.001-.002.001.005-.004h.002zm-1.142-.062a1 1 0 0 0 .078.068l.005.005-.006-.001q.003 0 .007.002l.017.014.016.001.029.02-.025-.02.02.003-.03-.014-.007-.001-.004-.004h-.002.001c-.066-.05-.095-.075-.099-.073m-14.649.21c.016.033.033.069.043.095.127.3.286.533.278.486a3.4 3.4 0 0 1-.274-.488zm14.794-.128.01.01q-.02-.01-.018-.008l.009.008.068.004c.102.004.146.004.023-.007zm-.062-.009.021.004.017.013h-.004l-.033-.016m-.005-.005q.003 0 .02.005zm-23.294.974c.1-.08-.058-.005-.166.038l-.067.024c-.083.025-.144.02-.314.094.126-.032.254-.061.386-.103q.08-.025.161-.053M28.26 18.57q.003-.002.002.002c-.001.003.007.009-.023.017l.01-.008zM1 19.727c-.003-.005.05.03.115.062-.01-.005-.005-.003.003-.001l.032.006c.027.005.059.009.088.011l.126.009c.1.01.068.016-.015.017a1.3 1.3 0 0 1-.217-.018c-.018-.004-.036-.012-.024-.007a.4.4 0 0 1-.107-.08m1.638-.057a.7.7 0 0 1-.323.112c-.106.007-.041-.005.065-.023.076-.012.197-.061.258-.089m-1.581.036c-.002-.006.034.014.079.036-.023-.012-.006-.004.013-.002q.03.006.068.01l.102.008c.082.009.055.012-.013.011a1 1 0 0 1-.18-.02 1 1 0 0 1-.07-.043m27.666-1.809a.3.3 0 0 1-.032.084c-.133.17-.298.37-.396.481-.027.006.195-.249.387-.49a.3.3 0 0 0 .04-.075M1.126 19.75l.005.003c-.012-.006-.011-.005-.005-.003m27.827-1.537-.014.012c-.11.116-.168.268-.006.07a.2.2 0 0 0 .03-.046c.006-.024-.005-.04-.01-.036m-9.387.469c-.03-.056-.115-.22-.044-.033l.017.043c.039.094.087.179.038.012zM.85 19.353c-.004-.011.037-.031.159.08.099.087.156.127.193.155a.1.1 0 0 0-.032-.012q-.006 0-.003.002a.1.1 0 0 0 .024.01c.024.007.06.013.122.017.123.006.358.008.818-.057-.521.082-.026.03-.127.054-.082.02-.393.025-.211.04-.063-.004-.18-.003-.316-.006a3 3 0 0 1-.205-.012 1 1 0 0 1-.1-.014 1.4 1.4 0 0 1-.322-.257m.313.255.009.002.017.01zm.073-.054c-.019.006.857-.006 1.004-.041-.079.046-1.069.086-1.004.041m11.016-1.008c.126.252.182.335.2.373.085.172.083.155.014-.008-.011-.045-.073-.144-.19-.392zm6.832-.971c.1.237.198.406.228.5.17.428.24.6.2.462-.005-.02-.07-.179-.18-.47-.03-.097-.13-.269-.233-.51zm1.64-.439c-.096-.175-.036-.061.088.267.053.158.17.424.257.687.092.279.138.463.083.211a4 4 0 0 0-.064-.219c-.08-.25-.204-.54-.256-.688-.059-.157-.102-.244-.108-.258m9.854.415c.03.172.064.333.073.381q.003.005.004 0l-.001-.02a7 7 0 0 0-.064-.415zm-21.59 1.361-.01.008q-.005.008.01-.008m-.013-.025c-.016.01-.02.016-.01.008zm3.306-.373q.067.12.123.21c-.03-.056-.07-.125-.115-.218zm-3.304.37q-.001.002-.002.003zm.074-.037-.029.029h-.007l.022-.024zm.143-.004a.4.4 0 0 0-.12.024l-.01.004c.03-.008.048-.022.137-.028zm4.915-.215-.013-.02zm-1.802-.143a1 1 0 0 0 .058.135c.013.021.031.018.072.086q-.054-.1-.121-.23zm3.862-.445c.058-.065-.073.027-.347.288-.08.085-.231.186-.25.213.045-.021.189-.114.264-.195.206-.2.327-.296.333-.306m-2.474-.198c-.026-.032.034.074.155.349.024.07.109.211.117.224q.043.067.084.127.01-.003.014-.012l.005-.02a2.4 2.4 0 0 1-.203-.328c-.066-.149-.126-.252-.172-.34m16.776-.38q.02.146.038.26l.008-.03zm-11.853.508c.042-.026.037-.02.004.007-.029.015-.43.395-.262.213.013-.018.247-.224.243-.212zm-12.352.513c-.078.077-.187.189-.227.23-.068.078.12-.092.233-.21zm24.258-1.311c.006.086.023.203.043.32l.006-.023.007-.03a7 7 0 0 0-.053-.285zm-3.797-.457c-.006.02.025.469.049.675.011.092.032.188.035.2.05.176.006-.019-.019-.202-.024-.22-.06-.647-.065-.673m2.554.607c.002-.013-.04.042-.045.055-.053.138-.057.165-.038.151s.06-.087.083-.206M4.315 18.405c.02.003-.27.183-.404.27l-.018.012c-.068.036-.043.017.012-.022.146-.1.346-.217.41-.26m5.515-.174c.171-.136.395-.33.263-.234-.03.021-.16.127-.274.218-.08.065-.158.127-.197.16-.038.044.078-.041.208-.144m-3.529.218.006.017.007-.008-.005-.017zm12.759-.848c.073.172.178.336.118.185a3 3 0 0 0-.104-.2zm-12.76.85v-.002zm.01-.01q.003.006.002-.002zm-1.074-.972c.025 0-.005.042-.064.102-.055.056-.16.148-.197.162-.331.23-.511.419-.594.485-.012.01.032-.017.074-.046.042-.03.083-.058.047-.02q-.059.062-.142.122a3.4 3.4 0 0 1-.475.255c-.05.021-.048.01.03-.046.067-.049.194-.122.323-.208l.056-.038.029-.02c.145-.112.053-.017.061-.022.202-.16.352-.317.4-.364.054-.054.027-.046.089-.098a1 1 0 0 1 .104-.075q.022-.012.053-.033a1 1 0 0 0 .139-.128c-.272.31.042-.02.067-.028m24.053-.372-.023.058c-.005.113.012.09.041-.015l-.011-.062zm-.029-.203-.04.183-.022.09q.014-.04.029-.088.021-.075.04-.149zM4.1 18.116c.077-.04.005.017-.111.087s-.274.163-.13.061l.135-.082zm26.41-1.094q.005.017.008.014l-.005-.032zm-11.46.524-.009.01.008.018.011-.012zm.015-.016.008.019.016-.017-.008-.02zm-.035-.015q-.007-.009-.003.003.002 0 .003-.003m.027-.061-.015.018.008.02.015-.018zm-1.992-.298a3 3 0 0 0-.215.267.5.5 0 0 0-.06.114c0 .013.034-.01.092-.08l.018-.023c.033-.041.2-.303.165-.278m9.7-.914c-.008-.23.067.47.07.674-.014.103-.07-.643-.07-.674m3.811-.267c.016.17 0 .647-.013.632.014-.218.005-.566.013-.631M5.174 17.413c.025-.022-.21.273-.236.259l-.053.029c-.033.016-.012-.006.041-.049.002-.003.213-.204.248-.24m25.143-1.008-.002.002.005.027.01-.01-.005-.027zm-.869-.015c.005.063.01.057.012.012zm.903-.024c.004.013.006.011.008.002l.001-.013zm-.048-.076q-.002.016.005.069l.009-.01c-.008-.045-.012-.068-.014-.059m-.928.007-.006.044a1 1 0 0 0 .045.06l.002-.048zm1.028.001-.017.024.004.028.016-.023zm-.966-.142q.003.119.008.184l.016.019v-.159zm.919-.126c-.003.032-.003.047-.02.1l-.002.002a1.4 1.4 0 0 0 .01.184q.021-.03.032-.05l.02-.035a1 1 0 0 1-.006-.192c-.026.096-.036.07-.034-.01m.094.183-.029.056.003.03.03-.059zm-1.065-.234a2 2 0 0 1-.005.268q.015.027.037.057v-.192l-.014-.044c-.016-.057-.016-.074-.018-.09m1.106.062-.004.041q-.007.047-.025.101l.002.025v.008l.003-.007.023-.069zm-1.177.14.002.069.005.01-.004-.071q0-.004-.003-.008M5.336 17.37l-.02.019zm15.038-1.055c-.046-.132-.01.02.025.162s.067.247.055.157c0-.003-.073-.3-.08-.319m10.046-.281c-.003.023-.009.063-.004.152l.004-.01.017-.053a1 1 0 0 1-.007-.088.2.2 0 0 1-.011.049c-.002 0 0-.012.001-.05m-1.155-.043c.007.095-.012.013-.007.094l.002.021a1 1 0 0 0 .033.096l-.001-.082-.01-.039c-.014-.056-.014-.073-.017-.09m.17.131q.01.021.026.053v-.005l-.017-.031-.008-.02zm-.002-.078.012.035.014.036-.002-.032-.015-.05c-.008-.036-.01-.05-.01-.06q0 .036.002.07m.907-.017-.003.037q.003-.016.003-.037m-.94-.034c.003.016.002.032.017.078v-.001c-.015-.046-.014-.06-.018-.077m-.104-.005c.002.012.002.025.007.05zm-23.591.94c-.007 0-.023.015-.04.03l-.008.009.006.024.015-.018a.3.3 0 0 0 .027-.045m12.597-.942-.199.221c-.186.244.253-.245.2-.221m-6.752.22c-.073.196-.098.272-.115.317-.014.043-.015.05-.007.04q.023-.03.132-.302zm-4.001.53-.005.008.001.004.005-.012.005-.01zm10.896-1.09-.152.174c-.125.148-.252.29-.257.297-.015.023.117-.029.135-.045.013-.012.076-.085.172-.2q.052-.064.12-.142l-.014-.062a1 1 0 0 1-.07.064c0-.004.028-.035.068-.078zm7.945-.094q0 .036-.003.07c.006.035.008.031.006-.04zm-4.83-1.343c.066-.166.069-.174.054-.12-.022.057-.053.217-.229.49-.06.064-.12.311-.434.69-.183.194-.28.268-.339.332-.057.06-.084.096-.098.11-.011.012-.01 0 .023-.053.044-.066.075-.094.387-.419l.001.002c-.104.126-.184.207-.241.276.062-.059.153-.136.26-.255.26-.31.301-.478.303-.485l.028-.038c.009-.014.064-.123.097-.171.099-.146.155-.283.187-.36M7.874 16.204c.171-.288.31-.786.272-.688-.005.007-.156.455-.281.682-.028.055-.04.082-.029.065zm10.619-.508v-.001zm.051-.122.01.055.022-.023-.012-.052zm.011-.056-.017.02.003.016.018-.02zm-.01-.051c-.017-.072-.026-.09-.016.003l.003.028.004.027.017-.017zm6.603-.54.011.074q.02.022.043.045l-.01-.064-.01-.012zm1.289-.07-.03.046-.001.067.03-.04zm-1.34-.005.008.081.024.032-.007-.074zm-11.1.014a.6.6 0 0 0-.066.169c-.05.214-.103.371-.116.43-.013.057.011.042.094-.202.007-.023.032-.106.055-.218-.002-.038.036-.185.033-.179m12.549-.287a1 1 0 0 1-.054.171l-.001.089.001-.003.004-.007a1 1 0 0 0 .047-.108v-.013l.004-.138zm-17.784-.49a2 2 0 0 1-.07.235 2 2 0 0 0-.11.368q-.016.107-.037.188c-.126.441-.236.627-.22.655-.038.138-.07.225-.065.08l.033-.094c-.002-.063.165-.207.288-.829.008-.084.042-.211.103-.372a3 3 0 0 0 .078-.23m17.701.722q.002.013.006-.011zm-1.346-.209c-.003.002-.004.011-.003.035l.001.018.003.007c.004.008.01.034.036.082l-.018-.09-.01-.028c-.002.009-.005-.002-.01-.024h.002l-.006-.023zm1.327-.15-.004.04c-.003.015-.002.018-.014.074l-.013.048-.001.062.003-.008a1 1 0 0 0 .024-.077l.003-.012.003-.135zm-17.795.18c.002.02 0 .047-.002.072-.057.384-.185.587-.224.673a1 1 0 0 1-.04.069c-.004.002 0-.01.024-.064.014-.055.149-.224.229-.68.003-.023.01-.05.013-.07m17.947-.137-.003.028-.005.032v-.103zm-1.606.096.002.006v.014l-.004-.028zm-3.744.186q-.003.003-.004.002zm-2.972-.467q-.005-.015-.003.022a1.23 1.23 0 0 0 .015.156c.004.025.009.054.02.103.005.004.047.283.062.323a2.4 2.4 0 0 0-.048-.328c-.031-.13-.027-.14-.032-.173l-.007-.054zm8.324.191-.002-.006v-.005l.003-.028v-.01zm-.179-.059v.015-.015m.167.015v.004-.01zm-18.124.035a.5.5 0 0 0-.05.17c-.065.391-.194.575-.235.671.014-.037.148-.156.249-.67.008-.057.023-.124.036-.171m5.711-.08c0-.003-.009.008-.019.02-.02.053-.045.109-.05.127-.077.243-.075.253-.054.224a1.4 1.4 0 0 0 .123-.37m-5.608-.108a1 1 0 0 0-.117.364c-.022.155-.06.27-.091.354.022-.044.07-.146.103-.352.011-.078.05-.238.105-.366m-.02.096a1.4 1.4 0 0 0-.074.272c-.044.267-.087.347-.037.231.002-.009.029-.083.05-.229.005-.067.065-.266.06-.274m-3.291.225c.019-.386.058-.088.041.234 0 .037-.056.298-.041-.234m14.679-.48.008.047.001.012-.001-.024zm.001-.097-.02.033-.017.024.001.015.002-.001c.001.004.01.003.036-.03zm-5.446-.639c-.002-.097-.027.132-.155.483-.046.12-.083.223-.1.26-.008.017.021-.107.025-.145.002-.019-.005-.013-.027.045-.02.056-.063.175-.092.318.11-.311.009.012.015.018h.002c.011-.01.08-.228.186-.491.095-.248.127-.42.146-.488m5.462.611.002.045.013-.02-.002-.046zm.11-.15c.08-.162.012-.061-.06.066l-.03.051.001.047c.03-.05.067-.12.089-.164m-.159.098q-.004-.007-.006.011zm.012-.043v.021l.015-.027-.001-.022zm-8.622-.305c-.011-.011.06.575.06.605.06.353-.017-.37-.06-.605m8.666.22-.012.024v.024l.013-.022zm-.222-2.59c-.015-.163-.102-.791-.114-.716.07.429.108.823.153 1.238.076.726.12 1.484.138 2.113l.013-.025-.006-.161-.03-.64a28 28 0 0 0-.154-1.81m-.143-8.978a1 1 0 0 1-.065.077l-.01.02q-.007 0-.013.002c-.018.015-.028.02-.035.027.004.008.004.012.011.009l.023-.017.006-.005-.01.025c-.02.048-.037.121-.095.315-.044.138-.078.37-.132.59l-.012.053c-.035.165-.069.419-.102.593l-.003.016v.008q.005.031.03.034c-.069.126-.018.272-.017.34l.009.33c.018.559.023.658.058 1.305.01.168-.004.31.002.37.004.035.023-.031.038.138.013.152.038.807.055 1.267.008.24.018.427.016.462-.005.088-.037-.41-.05-.46q-.003-.008-.004 0l-.002.011c.026.49.072.947.136 1.427.027.2-.002.1.01.187l.053.314c.034.208.073.429.073.411s-.023-.183-.055-.414c-.107-.648-.19-1.663-.136-1.258.013.109.023.493.055.428.03.27.068.525.111.825.04.278.078.55.122.805.077.467.11.855.152 1.26a30 30 0 0 1 .127 1.923l.005.137.013-.022c-.004-.127-.008-.259-.012-.335.009.014.014.163.02.32.058-.103.122-.21.165-.259v.002h.002c-.026.03-.1.166-.167.293l.001.026q.07-.123.185-.304c-.03.092.111-.33.152-.43.014-.037-.013.01-.037.053-.023.042-.043.08-.032.046q.019-.057.054-.142c.014.003.036-.249.26-.779.026-.026.092-.271.137-.457l.02-.076c.083-.332.055-.303.06-.323.047-.19.023-.033.052-.152l.033-.133.153-.608c.07-.269.12-.499.14-.604q.018-.083.022-.1c.003-.016-.021.06-.032.086-.01.028-.015-.024.043-.23.008-.028.016-.038.047-.114l.06-.152c.025-.06.052-.133.058-.16a1 1 0 0 0 .02-.162c.013-.173.031-.337.034-.367.003-.037-.016.048-.031.148-.016.101-.03.21-.042.277s-.023.09-.028.09q-.008.008-.011-.003-.002-.002-.002-.007c.03-.059.047-.251.06-.372a3 3 0 0 1 .062-.4c.007-.031.072-.218.09-.41q.016-.222.046-.447a5 5 0 0 0-.037.448q-.004.202-.061.462c.035-.13.069-.314.074-.46.014-.309.06-.573.092-.73.014-.066.023-.078.033-.098a.04.04 0 0 0 .015-.02.3.3 0 0 0 .015-.084c.001-.017-.008-.069-.02-.068-.013-.004-.026.089-.037.165a5 5 0 0 0-.042.27c-.022.043.001-.11.035-.272a.6.6 0 0 0 .013-.11c.003-.029-.044-.048.015-.391.01-.053.015.34.083-.106.02-.08.037-.284.047-.776v-.004q0-.01-.004 0c-.007.021-.023.107-.022.072l.005-.074c.01-.108.023-.3.022-.326 0-.036-.023.118-.024.074-.006-.22.058-.497.044-.052.014-.153.023-.3.023-.431-.04.147-.022-.227-.055-.304-.017-.066-.022-.041-.116-.319a.8.8 0 0 0-.102-.198c-.027-.038-.03-.034-.026-.015.012.04.043.12.003.061a.7.7 0 0 1-.089-.154c-.018-.043-.022-.07-.05-.132a1.3 1.3 0 0 0-.158-.256c-.01-.012.028.054.039.083.012.035-.022-.029-.133-.165q-.134-.156-.353-.416.174.2.36.409l.035.041a.1.1 0 0 0-.023-.054c-.146-.188-.462-.503-.487-.529l-.14-.154c-.197-.216-.125-.178-.518-.58q-.005-.001-.01-.005l.008.003h-.001l-.012-.012h-.012a.3.3 0 0 1-.045-.036l.074.078c.138.149.26.306.271.331-.004.003-.136-.164-.307-.341a4 4 0 0 0-.241-.04c-.07-.01-.113-.008-.119-.01-.049-.006.03-.02.12-.009q.153.02.206.025l-.017-.017a4 4 0 0 0-.186-.03.7.7 0 0 0-.17-.002c-.036.065-.04.1-.12.374-.044.138-.074.35-.13.588a2 2 0 0 0-.037.214.5.5 0 0 1-.016.095c-.003 0 .007-.198.032-.315.056-.244.085-.454.13-.59.072-.25.085-.305.117-.36l.002-.003c.014-.024.032-.05.061-.093m1.355 8.257c.011-.025.016-.028.01.004l-.001.008c-.005.026-.104.368-.163.596l-.021.085c-.152.65-.087.468-.096.512l-.005.018c-.037.129-.131.492-.15.516l-.004.011c-.126.286-.149.443-.183.572a3 3 0 0 1-.058.218c-.113.283-.194.53-.167.445q-.033.045-.061.09.03-.049.057-.093c-.018.02-.017.012-.018.002a.3.3 0 0 1 .017-.116c.015-.047.033-.118.106-.295a3 3 0 0 0-.052.176q.03-.096.085-.226c-.003.01.026-.084.058-.214.037-.135.07-.309.19-.573.017-.015.07-.227.145-.524.05-.18.097-.382.153-.605l.008-.031c.05-.203-.034.022.04-.242.039-.137.087-.282.11-.334m-9.681 3.082c-.034-.196-.062-.356-.055-.271.003.035.016.148.035.275.03.188.058.398.056.287a2 2 0 0 0-.036-.29m7.02-.158c.006-.05-.086-1.318-.074-.879.01.131.075 1.289.073.879M5.277 13.37c.014.052.014.436.012.574-.013.001-.01-.392-.012-.574m3.752-.248c.043-.125.013.01-.036.155a9 9 0 0 1-.111.32q-.002 0 0-.021-.001-.026.055-.188c.037-.103.086-.248.092-.266m2.128-.458.017.096c.034.15.113.864.086.52a5 5 0 0 0-.078-.522q-.022-.094-.025-.094m-3.77-.569-.021.05a3 3 0 0 0-.118.422c-.05.21-.093.397-.124.57.003-.018-.004.05-.005.118v.017l.057-.233c.092-.342.188-.542.201-.61.01-.02.022-.177.01-.334m7.229-.231c.014-.083.024-.195.016-.16q-.008.036-.039.152c-.049.18-.149.452-.182.604-.058.248-.1.445-.07.368a7 7 0 0 0 .088-.362c.028-.129.094-.33.099-.347.009-.023.001.022.006.027.004.003.02-.02.08-.227-.006.007-.003-.019.002-.055m-2.462-6.156-.045.197a1.2 1.2 0 0 0-.03.321c.002.13.011.246.019.307.005.04.004-.072.012-.041.01.037.022.174.099.894.015.16-.008.102.002.188.002.019.014.07.028.148.024.131.053.327.045.529-.006.11-.074-.602.018.979.014-.351.05.365.089 1.124.026.6.107 1.231.132 1.283l.003.01-.002-.01c-.004-.037-.012-.102-.018-.177q.018.134.03.172c.11.413.105.48.122.569q.015.116.024.165.05.256.074.47l.001-.006c.007-.028.02-.094.051-.218l.156-.608c.084-.32.167-.522.198-.643a1 1 0 0 0 .013-.07c.015-.07-.01-.21.052-.573l.014-.086c.023-.122.043-.23.114-.538l.003-.011c0-.032.008-.172.003-.304a29 29 0 0 0-.02-.566q-.024-.583-.052-1.175a.9.9 0 0 0-.049-.297c.044.05.051.05.048.023-.009-.037-.01-.027-.131-.281-.04-.087-.09-.189-.096-.203-.046-.122.048.072.108.196.084.178.107.21.118.232q.008.014.007.008a.2.2 0 0 0-.017-.048c-.017-.036-.048-.093-.095-.199-.072-.164-.205-.427-.3-.742a2 2 0 0 0-.167-.4 7 7 0 0 0-.133-.23c.13.237-.035-.025-.196-.236l-.043-.04c-.02-.018-.045-.038-.06-.053 0 .013-.023 0-.124-.058zm2.488 6.674c.003-.008.016.016.013.026a1 1 0 0 1-.033.118c-.015.042-.024.036-.02-.006a.4.4 0 0 1 .04-.138m-3.532.12a.55.55 0 0 0-.059-.213c.002.037.018.127.035.208s.034.118.024.004m3.573-.622c.01-.05.004-.04-.012.003-.028.074-.089.242-.111.32-.01.031.089-.15.122-.317zm.107-.739c.006-.044 0-.04-.012-.003-.008.007-.023.053-.035.158-.012.101-.024.252-.037.372-.01.09.033-.097.051-.26a7 7 0 0 1 .033-.267m-7.576.886a1 1 0 0 0-.086.016.4.4 0 0 0 .087-.016m7.852-1.363c.011-.033.007.009.001.072-.006.062-.015.152-.01.133l.036-.165c-.021.116-.044.303-.084.496-.002.006-.016.143-.02.156-.014.07-.013.025-.008-.04a1 1 0 0 1 .014-.12l.018-.085c.002-.016-.035.077-.041.05a.6.6 0 0 1 .014-.134l-.031.159c-.005.01-.024.204-.029.208-.008.017.006-.2.011-.213.044-.21.067-.35.086-.365L15 10.95c.015-.081.038-.18.066-.285m4.583-.576c.023.079.05.24.079.404.033.19.055.375.072.517-.02-.076-.045-.277-.086-.514-.026-.145-.05-.302-.065-.407m-8.753 1.295c-.004-.167-.041-.604-.048-.472-.002.012.025.405.048.472m3.885-.48c.021-.13.018-.243.005-.194-.046.178-.067.34-.067.385 0 .049.034-.025.062-.192m6.431-.943c.014-.08.015-.099-.009-.002l-.005.02c-.005.031-.092.417-.08.41.029-.098.081-.337.094-.428m-6.067.137c.01-.33.01-.35.017-.262-.003.106.05.285-.054.792l-.004.016.003-.016c.045-.238.025-.303.038-.53m-.217.03c-.015-.14-.017.096-.042.215-.015.078-.034.15-.05.2q-.027.081-.02.08a.4.4 0 0 0 .037-.075c.037-.107.067-.283.075-.42m.088-.279c-.01.017-.004.166-.01.345-.003.177-.05.406-.02.294.019-.072.041-.28.04-.41a1 1 0 0 0-.01-.229m-8.485.34c.12-.048.102-.057-.12.083-.022.01-.231.172-.337.325-.113.153-.167.272-.172.28-.091.184-.044-.012.187-.323.115-.155.323-.313.442-.364m4.197.267c-.01-.176-.015-.38.003-.204l.011.203.008.138c0 .129-.013.007-.022-.137m.09-.434c-.02-.24-.012.189.007.428.004.06.01.107.014.128l-.005-.128c-.006-.153-.01-.347-.016-.428m8.662-.31c-.023-.135-.042-.21-.03-.071l.01.074c.019.132.058.362.065.367.013.01-.019-.213-.045-.37m-1.731-.437c.01-.164.083.367.12.678l.002.027c.006.095.008.287-.037.012q.003 0 .007-.007c.025-.048-.033-.485-.092-.71m-4.361.267c-.007-.25-.022-.512-.022-.283l.014.528c.01.22.015.008.008-.245m1.702-.717c.024.156.038.673.036.918-.023-.174-.027-.662-.036-.918m2.685.057c.029.112.066.47.1.708-.022-.05-.082-.537-.1-.708M10.72 7.359c.002.286.007.42.015.494.01.1.026.092.029.123.008.119.005.404.02.635a29 29 0 0 0-.073-.779l.002.023c.023.276.076 2.003.09 2.042.019.054-.014-.526-.013-.543 0-.024.042-.117.042-.17-.002-.06-.033-.819-.07-1.333-.015-.219-.037-.417-.042-.492m4.13 1.215c-.012-.042.002.152.003.284v-.001c0 .153.01.553.037.842-.008-.385-.024-.754-.04-1.125m2.798-.706c-.038-.623.01-.604.054-.003l.052.785-.025-.132c.162 1.647-.01.11-.035-.288-.013-.153-.02-.023-.032-.162zm-2.642.762c-.036-.382-.005.412.022.666-.005-.114-.02-.643-.022-.666m-.055-.67c-.011-.256-.06-.483-.047-.35.002.02.023.17.03.351.02.484.06 1.375.041.582 0-.033-.012-.34-.024-.582m4.503.551c.006.315-.078-.765-.033-.415zm-4.549-.548c-.013-.232-.059-.45-.039-.27.007.073.015.171.02.27.013.226.037.486.038.367 0-.046-.008-.213-.019-.367m-1.62-.113c.005.022.015.094.018.189.007.166.013.325.018.328.006.006.004-.159-.004-.33-.004-.105-.02-.178-.032-.187m4.347-.501c-.036-.221-.056-1.046-.023-.659.005.059.012.5.023.659m-3.249-1.607c.01.005.09.197.148.397.023.08.068.19.092.242.032.067.036.06.042.06.008.005.015.01.08.16l.018.047c0 .004.002.017 0 .024q0 .011-.007.014c-.008.004-.019.001-.014.013l.056.112c.037.073.089.19.124.297.07.215.092.366.028.173v.002c-.015-.04-.052-.17-.112-.315s-.131-.28-.132-.29l-.063-.15c-.003-.01.01.001.012-.01.004-.01-.006-.048-.044-.13-.028-.063-.028-.043-.034-.04-.005.006-.022-.012-.058-.116-.06-.197.045.054.045.04-.004-.01-.029-.07-.047-.128-.056-.187-.147-.41-.133-.402m4.887.226c.024-.06.037.65.053.896-.024.06-.039-.65-.053-.896m2.536.179c-.008.003-.02.128-.028.232-.01.105-.016.182-.008.159.006-.001.049-.39.036-.391m-11.247-.062c.013-.117.009.091.02.306.01.217.032.445.032.46 0 .157-.083-.561-.052-.766m-.183-.141c.004-.122.011.536.028.694-.018-.004-.047-.59-.028-.694m.016-.364a6.5 6.5 0 0 0-.019.907 3.2 3.2 0 0 1 .019-.907m8.738.031c-.008.17.039.412.045.256-.005-.155-.044-.273-.045-.256m-1.602-.176c.002-.061.025.113.028.189.014.305-.033-.026-.028-.19m.036-1.837a.3.3 0 0 1-.002.08c-.038.381-.011.68-.005 1.069.009.296.02.583.03.747-.032-.31-.052-.68-.062-.746q-.003-.022-.005 0a9 9 0 0 0 0 .463q-.014-.279-.02-.462c-.025-.808.012-.372.012-.42 0-.067-.013-.296-.008-.354a4 4 0 0 1 .023-.24 1 1 0 0 1 .011-.061c.014-.052.022-.08.026-.076m1.655 1.05.005.04c.012.121.024.49.033.633a6 6 0 0 1-.038-.673m-6.97.948a.1.1 0 0 0-.025.018q.029-.017.025-.018m-.075.02q.016-.043.009-.03zm5.423-.752c.01.125.005.413-.01.312-.018-.13.007-.344.01-.312m1.496-.241c-.01-.122-.02-.059-.019.07 0 .1.008.24.027.359a8 8 0 0 1-.008-.36zm2.477-.183c-.009-.044.02.007.035.057.06.19.085.23.093.261.01.03.013.046.016.062.004.033 0 .027-.025-.035l-.014-.04c-.01-.03-.035-.077-.086-.242-.007-.029-.018-.06-.019-.063m1.445-.8c.023.045.078.163.127.324a2.441 2.441 0 0 1 .194.765 2.837 2.837 0 0 0-.169-.676l-.034-.09a2.5 2.5 0 0 0-.118-.323m-1.746.357c-.04-.087.002-.019.135.198.121.188.155.302.16.317l.007.021q.006.03-.013-.02c-.009-.008-.018-.034-.043-.086a3 3 0 0 0-.125-.222 4 4 0 0 1-.12-.208m-7.554.722c-.199-.262-.117-.182.016-.013.041.054.087.12.123.18.008.017.027.082-.138-.165zm5.367-.213c.014-.364-.03-.34-.023-.075.004.095.023.087.023.075m-7.875-.389c.122-.084.364-.357.912-.308.15.022.506.054.828.25.287.154.62.472.686.575.025.053-.074-.082-.228-.224a3 3 0 0 0-.463-.342 1.4 1.4 0 0 0-.197-.1c-.043-.014-.092-.018-.316-.067-.083-.017-.171-.052-.193-.055l-.12-.016c-.227-.039-.524.048-.686.153-.17.105-.27.203-.343.272-.139.135-.194.19-.07.042.013-.013.065-.072.19-.18m11.926-.154.001.004zM17.706 2.74c.027-.096.021-.012.002.104-.063.287-.075.657-.1.842l-.005.043a2 2 0 0 0-.012.157c-.002.054-.002.094-.002.131l-.003.168a.5.5 0 0 1-.01-.112c-.001-.078-.015-.173.01-.39.018-.183.034-.577.1-.846zm1.45 1.22v.015-.015m3.46-.988c.012.01.079.117.13.198.102.153.224.393.24.45a5 5 0 0 0-.248-.443c-.036-.058-.08-.135-.123-.205m-2.648-.56.016.01h-.002c-.013-.005-.021-.009-.014-.01m-.058-.018.019.017q.042.004.013-.01zm-.418-.213a1 1 0 0 1-.055.063.6.6 0 0 0-.05.096c-.02.046-.03.095-.016.084a.8.8 0 0 1 .121-.243m.04.185-.002.002-.02.017.008-.017.01-.002zM49.997 20.845q-.913 0-1.482-.296-.558-.298-.854-.724a2.4 2.4 0 0 1-.367-.83l1.375-.45q.094.367.403.664.308.284.925.284.557 0 .758-.166.214-.177.214-.38 0-.236-.25-.414-.248-.178-.995-.237-.984-.083-1.577-.522-.593-.438-.593-1.268v-.072q0-.58.32-.984.32-.403.83-.604.51-.214 1.08-.214.746 0 1.232.238.486.225.759.569.285.343.403.687l-1.351.546a.94.94 0 0 0-.368-.498q-.261-.19-.676-.19-.367 0-.569.142-.19.13-.19.332 0 .285.297.403.296.119 1.079.214.9.095 1.47.545.57.439.569 1.233v.071q0 .866-.64 1.4-.64.52-1.802.52M42.038 20.845q-.7 0-1.293-.356a2.56 2.56 0 0 1-.948-1.031q-.356-.676-.356-1.624v-.19q0-.937.344-1.613.345-.675.913-1.031.58-.368 1.269-.368.628 0 1.007.214.392.213.617.664h.213v-.712h1.494v4.103q0 .355.32.355h.225v1.423h-1.02a.95.95 0 0 1-.663-.237.84.84 0 0 1-.25-.617h-.212q-.226.546-.664.783a2 2 0 0 1-.996.237m.332-1.423q.651 0 1.043-.427.39-.438.391-1.185v-.142q0-.748-.391-1.174-.391-.44-1.043-.439-.653 0-1.044.439-.39.426-.39 1.174v.142q0 .747.39 1.185.392.427 1.044.427M35.407 20.845a3.5 3.5 0 0 1-1.565-.344 2.77 2.77 0 0 1-1.115-1.02q-.403-.675-.403-1.624v-.142q0-.949.415-1.636a2.8 2.8 0 0 1 1.114-1.067q.7-.38 1.554-.38 1.233 0 2.003.64.771.641.96 1.684l-1.47.38a1.54 1.54 0 0 0-.45-.901q-.38-.38-1.067-.38-.64 0-1.103.45-.462.451-.462 1.245v.072q0 .794.462 1.197.463.403 1.103.403.687 0 1.043-.344.367-.343.474-.924l1.47.367q-.189 1.044-.948 1.684t-2.015.64M47.126 36.257v-5.88h1.494v.877h.213a1.56 1.56 0 0 1 .652-.77q.45-.274 1.055-.274.57 0 1.032.25.474.236.747.758.284.51.284 1.316v3.723H51.11v-3.343q0-.63-.308-.984-.296-.368-.865-.368-.652 0-.984.45-.332.44-.332 1.186v3.059zM42.7 29.76q-.462 0-.794-.32a1.1 1.1 0 0 1-.332-.806q0-.475.332-.795.332-.332.794-.332t.794.332q.332.321.332.795 0 .473-.332.806-.331.32-.794.32m-2.727 6.497v-1.423h1.992V31.8h-1.85v-1.423h3.344v4.458h1.707v1.423zM34.694 36.423q-.582 0-1.056-.249a1.9 1.9 0 0 1-.758-.782q-.273-.534-.273-1.34v-3.676h1.494v3.367q0 .617.296.973.309.355.89.355.675 0 .983-.426.32-.44.32-1.186v-3.083h1.494v5.881h-1.493v-.854h-.214q-.39 1.02-1.683 1.02M28.05 36.423q-.806 0-1.505-.356a2.83 2.83 0 0 1-1.126-1.031q-.427-.675-.427-1.648v-.142q0-.96.427-1.637.427-.687 1.126-1.043a3.3 3.3 0 0 1 1.506-.355q.806 0 1.506.355.699.355 1.126 1.044.426.675.427 1.636v.142q0 .972-.427 1.648t-1.126 1.031a3.3 3.3 0 0 1-1.506.356m0-1.423q.653 0 1.103-.415.463-.426.463-1.15v-.237q0-.735-.463-1.15a1.57 1.57 0 0 0-1.102-.415 1.6 1.6 0 0 0-1.115.415q-.45.415-.45 1.15v.237q0 .724.45 1.15.463.415 1.115.415M21.657 29.76q-.462 0-.794-.32a1.1 1.1 0 0 1-.332-.806q0-.475.332-.795.331-.332.794-.332.462 0 .794.332.332.321.332.795 0 .473-.332.806-.332.32-.794.32m-3.213 8.868v-1.423h2.134q.356 0 .356-.39v-5.016h-2.277v-1.423h3.77v7.043q0 .615-.331.913-.333.296-.866.296zM78.926 54q-.878 0-1.553-.367a2.67 2.67 0 0 1-1.055-1.08q-.38-.699-.38-1.683V50.8q0-.9.403-1.577.404-.675 1.067-1.055a3 3 0 0 1 1.494-.38q.758 0 1.304.261t.89.676q.355.415.521.913.178.486.178.949v.794H77.48q.023.522.438.865.415.332.984.332.558 0 .854-.201a1.1 1.1 0 0 0 .427-.463l1.28.712a2.2 2.2 0 0 1-.438.616 2.4 2.4 0 0 1-.807.546q-.51.213-1.292.213m-1.423-3.9h2.775a1.05 1.05 0 0 0-.451-.688q-.367-.273-.937-.273-.557 0-.924.296-.356.285-.463.664M71.678 54a3.5 3.5 0 0 1-1.564-.344 2.77 2.77 0 0 1-1.115-1.02q-.403-.675-.403-1.624v-.142q0-.949.415-1.636a2.8 2.8 0 0 1 1.114-1.067q.7-.38 1.553-.38 1.233 0 2.004.64.771.642.96 1.684l-1.47.38a1.54 1.54 0 0 0-.45-.901q-.38-.38-1.067-.38-.64 0-1.103.45-.462.451-.462 1.246v.07q0 .795.462 1.198t1.103.403q.687 0 1.043-.343.368-.345.474-.925l1.47.367q-.189 1.044-.948 1.684t-2.016.64M61.645 53.834v-5.88h1.494v.877h.213a1.56 1.56 0 0 1 .652-.77q.45-.274 1.055-.273.57 0 1.032.248.474.238.747.76.284.51.284 1.315v3.723h-1.494v-3.343q0-.63-.308-.984-.296-.368-.865-.368-.652 0-.984.45-.333.44-.332 1.186v3.059zM56.531 54q-.7 0-1.292-.356a2.56 2.56 0 0 1-.948-1.031q-.357-.675-.356-1.624v-.19q0-.937.344-1.612.344-.676.912-1.032.581-.367 1.27-.367.627 0 1.007.213.39.213.616.664h.214v-.712h1.494v4.103q0 .355.32.355h.225v1.423h-1.02a.95.95 0 0 1-.664-.237.84.84 0 0 1-.248-.617h-.214q-.225.546-.664.783a2 2 0 0 1-.996.237m.332-1.423q.653 0 1.044-.426.39-.44.39-1.186v-.142q0-.747-.39-1.174-.392-.44-1.044-.439-.651 0-1.043.439-.391.426-.391 1.174v.142q0 .747.39 1.185.393.427 1.044.427M47.09 53.834v-1.423h2.063v-5.453h-1.992v-1.423h3.486v6.876h1.92v1.423zM42.629 54q-.878 0-1.553-.367a2.67 2.67 0 0 1-1.055-1.08q-.38-.699-.38-1.683V50.8q0-.9.403-1.577.405-.675 1.067-1.055.676-.38 1.494-.38.759 0 1.304.261t.89.676q.355.415.521.913.178.486.178.949v.794h-4.315q.023.522.438.865.415.332.984.332.557 0 .854-.201a1.1 1.1 0 0 0 .427-.463l1.28.712a2.2 2.2 0 0 1-.439.616 2.4 2.4 0 0 1-.806.546q-.51.213-1.292.213m-1.423-3.9h2.774a1.05 1.05 0 0 0-.45-.688q-.367-.273-.937-.273-.557 0-.924.296-.356.285-.463.664M35.37 54q-.878 0-1.554-.367a2.67 2.67 0 0 1-1.055-1.08q-.38-.699-.38-1.683V50.8q0-.9.404-1.577.403-.675 1.067-1.055a3 3 0 0 1 1.494-.38q.758 0 1.304.261.545.261.89.676.354.415.52.913.18.486.179.949v.794h-4.316q.024.522.439.865.414.332.984.332.557 0 .853-.201a1.1 1.1 0 0 0 .427-.463l1.28.712a2.2 2.2 0 0 1-.438.616 2.4 2.4 0 0 1-.806.546q-.51.213-1.292.213m-1.423-3.9h2.774a1.05 1.05 0 0 0-.45-.688q-.368-.273-.937-.273-.558 0-.925.296-.356.285-.462.664M24.92 53.834v-1.423h1.21v-3.035h-1.067v-1.422h2.49v.853h.213q.165-.486.57-.747.402-.273.948-.273.878 0 1.41.558.534.545.534 1.671v.261l-1.541.142v-.165q0-.487-.25-.771-.248-.297-.746-.296-.498 0-.782.343-.285.345-.285.984v1.897h1.352v1.423zM19.713 53.834v-4.458H18.04v-1.422h1.671v-1.21q0-.51.344-.853a1.14 1.14 0 0 1 .854-.356h2.395v1.423h-1.779q-.32 0-.32.355v.64h2.312v1.423h-2.312v4.458z"/></svg>