<svg width="79" height="21" viewBox="0 0 79 21" fill="none" xmlns="http://www.w3.org/2000/svg">
<g clip-path="url(#clip0_43_282)">
<path fill-rule="evenodd" clip-rule="evenodd" d="M10.6152 9.78383C10.5791 9.81948 10.5497 12.3028 10.5497 15.3024V20.7558H11.9707H13.3917L13.4182 18.6803L13.4447 16.6047L15.1408 16.5778L16.8368 16.5512L16.8091 15.4546L16.7814 14.3582L15.1388 14.3313C13.2207 14.3 13.3691 14.4155 13.4158 12.9907L13.4447 12.1117L15.2357 12.085L17.0267 12.0584V10.8885V9.71863H13.8537C12.1083 9.71863 10.651 9.74793 10.6152 9.78383ZM26.1208 9.8815C26.0847 9.91715 26.0553 12.3785 26.0553 15.3513V20.7558H29.346H32.6368L32.6091 19.657L32.5814 18.5582L30.8149 18.5037C29.8433 18.4737 29.0374 18.4407 29.0239 18.4305C29.0104 18.42 28.9994 17.9291 28.9994 17.3397V16.2675L30.6432 16.2408L32.287 16.214L32.3147 15.1151L32.3424 14.0163L30.8917 14.0151C28.8735 14.0131 28.9994 14.0788 28.9994 13.0281C28.9994 11.9893 28.7167 12.1383 30.8149 12.0709L32.5814 12.014L32.6103 11.1349C32.626 10.6514 32.6142 10.1569 32.5838 10.0361L32.5286 9.8163H29.3573C27.6132 9.8163 26.1566 9.8456 26.1208 9.8815ZM33.9955 10.4365C34.3672 11.0411 35.3184 12.5109 36.0799 13.6569C36.2877 13.9697 36.4578 14.2473 36.4578 14.2742C36.4578 14.301 36.589 14.513 36.7495 14.745L37.0412 15.1672L36.3147 16.2765C35.3886 17.6908 34.2546 19.4443 33.7894 20.1818L33.4275 20.7558H35.0718H36.7161L36.947 20.3407C37.0741 20.1124 37.3405 19.6839 37.539 19.3884C37.7375 19.0929 37.9178 18.8033 37.9394 18.745C38.0495 18.4483 38.777 17.4408 38.8621 17.4671C38.9546 17.496 40.3202 19.5625 40.4541 19.8768C40.4885 19.9573 40.6251 20.1881 40.7574 20.3896L40.998 20.7558H42.6624H44.3268L44.146 20.4697C43.9682 20.1883 42.8734 18.6085 41.409 16.5204C41 15.9368 40.6889 15.3979 40.7179 15.3229C40.7679 15.1928 41.538 13.9389 42.5403 12.3558C42.7954 11.9529 43.251 11.2277 43.5528 10.7442L44.1019 9.86514L42.6104 9.8373C41.1124 9.80897 40.6776 9.84609 40.6776 10.0016C40.6776 10.1525 38.9632 13.0745 38.8545 13.1089C38.7964 13.1272 38.6303 12.9324 38.4855 12.6757C38.3405 12.4193 38.1011 12.0057 37.9534 11.7566C37.8054 11.5075 37.4857 10.9693 37.2429 10.5606L36.8012 9.81728L35.2075 9.81679L33.614 9.8163L33.9955 10.4365Z" fill="#F1F1F1"/>
<path fill-rule="evenodd" clip-rule="evenodd" d="M9.29945 1.14295C8.7727 1.58371 8.31955 1.97075 8.29257 2.00347C8.26558 2.03594 7.60316 2.60441 6.82052 3.26664C6.03788 3.92887 5.26431 4.58549 5.10165 4.7259C4.93899 4.8663 4.34281 5.3769 3.77681 5.86038C3.21081 6.34387 2.69878 6.78341 2.63867 6.83713C2.57881 6.89085 2.01575 7.36799 1.38743 7.89763L0.245361 8.86045V14.7593V20.6581H1.2758H2.30623V15.2496V9.84111L2.72871 9.46237C3.20026 9.03944 3.31876 8.9381 4.71058 7.76479C5.25033 7.30987 6.0261 6.6513 6.43435 6.30138C6.84284 5.95147 7.43902 5.44038 7.75919 5.16568C9.626 3.56504 10.2136 3.07764 10.2766 3.07715C10.3321 3.07666 11.7112 4.21921 11.9236 4.44166C11.9506 4.46975 12.2597 4.73347 12.6106 5.02771C12.9614 5.32171 13.2705 5.58714 13.2975 5.61766C13.3245 5.64819 14.3182 6.50552 15.5056 7.5228C16.6931 8.53984 17.7183 9.43917 17.7841 9.52098C17.8749 9.63379 17.9046 11.0059 17.9068 15.2127L17.91 20.7557H21.6863H25.4628L25.5182 20.5357C25.5487 20.4146 25.5607 19.9641 25.5447 19.5346L25.5155 18.7534L22.7432 18.7275L19.9708 18.7016V13.6797V8.65778L18.9159 7.74794C17.3626 6.40809 17.2247 6.2882 16.7367 5.85648C16.4914 5.63939 16.0037 5.22208 15.6528 4.92906C15.302 4.63628 14.9928 4.37427 14.9659 4.34692C14.9389 4.31957 14.5856 4.0119 14.1808 3.66271C13.776 3.31352 13.4227 3.00561 13.3957 2.97826C13.3687 2.95091 12.7283 2.40271 11.9727 1.76001C11.217 1.11756 10.5404 0.535664 10.469 0.466804C10.2909 0.295141 10.3632 0.25314 9.29945 1.14295ZM62.44 9.85405C62.3077 9.98566 61.9078 11.1546 60.1475 16.5557C59.6835 17.9793 59.1808 19.5077 59.0302 19.9521L58.7566 20.7604L60.3855 20.7335L62.0145 20.7069L62.0857 20.4139C62.1249 20.2527 62.2069 19.945 62.2677 19.7302C62.3286 19.5153 62.4105 19.2076 62.4498 19.0464L62.5209 18.7534L64.3254 18.7268C66.3816 18.6963 66.2447 18.6411 66.478 19.5939C66.7977 20.8981 66.5673 20.7557 68.3588 20.7557C69.2842 20.7557 69.9224 20.7176 69.9224 20.6627C69.9224 20.6114 69.8809 20.4686 69.8301 20.3453C69.7796 20.2217 69.0026 17.8792 68.1037 15.1395C67.2047 12.3997 66.4218 10.0592 66.3637 9.93829C66.2317 9.66358 62.7071 9.58813 62.44 9.85405ZM49.6081 15.2769V20.7557L52.2823 20.7545C55.1099 20.7533 55.5618 20.6998 56.408 20.2669C58.4863 19.2037 58.6494 16.165 56.6759 15.2774C56.0751 15.0071 56.0746 15.0012 56.6322 14.7068C58.1489 13.9058 58.266 11.4877 56.8334 10.5456C55.9455 9.96149 55.4813 9.88799 52.3805 9.84062L49.6081 9.79813V15.2769ZM70.3745 9.97077C70.2882 10.1947 70.3041 11.8947 70.3939 12.0351C70.4457 12.1162 70.8753 12.1631 71.7418 12.1816L73.0137 12.2092L73.0392 16.4825L73.0647 20.7557H74.5113H75.9578L75.931 16.5926C75.9119 13.5772 75.9355 12.3926 76.0167 12.2949C76.1018 12.1929 76.4463 12.1604 77.4418 12.1604H78.7547V10.9883V9.8162H74.5944C70.8912 9.8162 70.4275 9.83329 70.3745 9.97077ZM64.4716 11.8608C64.5028 11.9111 64.5739 12.1638 64.6296 12.4224C64.7771 13.109 64.9564 13.8057 65.4503 15.6115C65.6566 16.3665 65.6655 16.3604 64.3615 16.3604H63.2285L63.2751 15.9941C63.3009 15.7927 63.4758 15.0345 63.664 14.3092C63.8524 13.584 64.0658 12.7159 64.1387 12.3802C64.2655 11.7946 64.3494 11.6637 64.4716 11.8608ZM54.1322 12.0737C54.9671 12.3457 55.0939 13.4707 54.3341 13.8619C53.943 14.0631 52.9239 14.162 52.6646 14.0238C52.4516 13.9102 52.3444 12.5584 52.5137 12.1196C52.5861 11.9318 53.6079 11.9028 54.1322 12.0737ZM54.5215 16.3863C55.198 16.84 55.2345 17.8731 54.5907 18.3471C54.2455 18.6013 52.682 18.7163 52.5429 18.4975C52.443 18.3407 52.4224 16.3269 52.5196 16.2302C52.7004 16.05 54.1938 16.1665 54.5215 16.3863Z" fill="#F1F1F1"/>
<path fill-rule="evenodd" clip-rule="evenodd" d="M9.80779 0.549637C9.54111 0.767695 9.19027 1.06291 9.02835 1.20552C8.86617 1.34837 7.8063 2.25527 6.67306 3.22103C5.53959 4.18703 4.50204 5.07221 4.3671 5.18844C4.23216 5.30443 3.74639 5.7171 3.2876 6.10511C2.82881 6.49312 2.32046 6.92655 2.15804 7.06818C1.99563 7.20981 1.57609 7.5673 1.22599 7.86276C0.875889 8.15823 0.489721 8.48935 0.367541 8.59874L0.145752 8.79751L0.171021 14.8011L0.196292 20.8046L1.2125 20.8325C2.64922 20.872 2.5025 21.5086 2.5025 15.2386V9.84311L3.11586 9.30273C3.4532 9.00555 4.52412 8.08986 5.49567 7.26768C6.46722 6.44575 7.28421 5.74885 7.3112 5.71906C7.33819 5.68951 7.64732 5.42335 7.99815 5.12788C8.34899 4.83241 8.74645 4.49617 8.88138 4.38091C10.3667 3.11066 10.2725 3.15412 10.6969 3.54238C10.8588 3.6906 11.4771 4.22757 12.0708 4.73596C12.6646 5.24436 13.1724 5.6834 13.1994 5.71173C13.2264 5.74006 13.7122 6.15859 14.2789 6.64208C14.8456 7.12532 15.3584 7.56486 15.4183 7.61858C15.6148 7.79463 16.0834 8.19535 16.7323 8.74183C17.0829 9.0373 17.4472 9.3628 17.5417 9.46487C17.7012 9.63726 17.7137 10.0473 17.7152 15.13C17.7159 18.1437 17.752 20.6647 17.7954 20.7326C17.857 20.829 18.713 20.8503 21.7439 20.8303L25.6137 20.8046L25.6417 19.738C25.677 18.3999 25.9429 18.5125 22.7432 18.5107L20.069 18.5093V13.5337V8.55796L18.7196 7.40565C17.9774 6.77199 17.1936 6.09168 16.9777 5.89389C16.7618 5.69634 16.4526 5.43287 16.2907 5.30858C16.1288 5.18404 15.8417 4.9445 15.6528 4.77576C15.4639 4.60703 14.8898 4.10621 14.377 3.66228C13.8643 3.21859 13.1798 2.62546 12.8559 2.34416C12.5321 2.06286 12.1125 1.7061 11.9239 1.55129C11.735 1.39647 11.4879 1.18183 11.3745 1.07439C11.1586 0.869518 10.6991 0.473693 10.443 0.271996C10.3188 0.174077 10.2079 0.222428 9.80779 0.549637ZM10.469 0.466857C10.5404 0.535717 11.217 1.11761 11.9727 1.76006C12.7283 2.40276 13.3687 2.95096 13.3957 2.97831C13.4227 3.00566 13.776 3.31358 14.1808 3.66276C14.5856 4.01195 14.9389 4.31962 14.9659 4.34697C14.9928 4.37432 15.302 4.63633 15.6528 4.92911C16.0037 5.22214 16.4914 5.63945 16.7367 5.85653C17.2247 6.28825 17.3626 6.40815 18.9159 7.74799L19.9708 8.65783V13.6798V18.7017L22.7432 18.7276L25.5155 18.7535L25.5447 19.5346C25.5607 19.9641 25.5487 20.4147 25.5182 20.5358L25.4628 20.7558H21.6863H17.91L17.9068 15.2128C17.9046 11.0059 17.8749 9.63384 17.7841 9.52103C17.7183 9.43923 16.6931 8.53989 15.5056 7.52286C14.3182 6.50558 13.3245 5.64824 13.2975 5.61772C13.2705 5.58719 12.9614 5.32176 12.6106 5.02776C12.2597 4.73352 11.9506 4.4698 11.9236 4.44172C11.7112 4.21926 10.3321 3.07672 10.2766 3.07721C10.2136 3.07769 9.626 3.56509 7.75919 5.16573C7.43902 5.44044 6.84284 5.95152 6.43435 6.30144C6.0261 6.65136 5.25033 7.30993 4.71058 7.76484C3.31875 8.93816 3.20025 9.0395 2.72871 9.46243L2.30623 9.84116V15.2496V20.6581H1.2758H0.24536V14.7593V8.86051L1.38743 7.89768C2.01574 7.36804 2.5788 6.8909 2.63867 6.83718C2.69878 6.78346 3.2108 6.34393 3.77681 5.86044C4.34281 5.37695 4.93899 4.86636 5.10165 4.72595C5.26431 4.58554 6.03788 3.92893 6.82052 3.2667C7.60316 2.60446 8.26558 2.036 8.29257 2.00352C8.38334 1.89388 10.257 0.341832 10.2985 0.341832C10.321 0.341832 10.3978 0.397997 10.469 0.466857ZM62.2451 9.84067C62.1661 9.96154 62.0778 10.1703 62.0484 10.3046C62.0192 10.4389 61.885 10.8565 61.7505 11.2325C61.5155 11.8901 60.0044 16.5155 59.5967 17.8256C59.488 18.1747 59.3602 18.5369 59.3123 18.6301C59.2645 18.7234 59.2255 18.8668 59.2255 18.9488C59.2255 19.0309 59.1865 19.1742 59.1389 19.2675C58.9409 19.656 58.6499 20.7104 58.7216 20.7817C58.7638 20.8237 59.5407 20.8461 60.4478 20.8315L62.0972 20.8046L62.2373 20.3163C62.3146 20.0476 62.4191 19.6928 62.4699 19.528C62.5207 19.363 62.5621 19.1542 62.5621 19.0641C62.5621 18.7667 66.069 18.8206 66.1826 19.1197C66.3544 19.5715 66.4876 20.0423 66.4876 20.1966C66.4876 20.2843 66.5389 20.4679 66.6014 20.6046L66.7153 20.8535H68.3679H70.0205V20.5663C70.0205 20.4083 69.9763 20.2518 69.9224 20.2186C69.8684 20.1854 69.8242 20.0723 69.8242 19.9673C69.8242 19.8623 69.784 19.7002 69.7349 19.6069C69.6859 19.5136 69.1729 17.9867 68.5951 16.2139C66.8365 10.8186 66.4773 9.77279 66.3573 9.69685C66.0276 9.48782 62.3921 9.61504 62.2451 9.84067ZM25.9245 9.78378C25.8338 9.87412 25.8416 20.7336 25.9326 20.7895C25.9731 20.8144 26.0062 18.3337 26.0062 15.2767C26.0062 12.2198 26.0025 9.71858 25.9981 9.71858C25.9935 9.71858 25.9604 9.74788 25.9245 9.78378ZM49.4584 9.83652C49.4317 9.90587 49.4214 12.4022 49.4354 15.3837L49.4609 20.8046L52.3068 20.8334C54.2576 20.8532 55.2762 20.8266 55.5454 20.749C56.6695 20.4242 57.5469 19.7478 57.9159 18.9217C58.1622 18.3698 58.2554 16.7323 58.0478 16.6046C57.9939 16.5714 57.9497 16.4669 57.9497 16.3722C57.9497 16.1033 57.3214 15.4396 56.8785 15.2408C56.3891 15.0213 56.3859 14.9888 56.8305 14.7505C57.5069 14.3881 57.9497 13.5154 57.9497 12.5455C57.9497 11.16 57.1744 10.2646 55.6435 9.88194C55.0051 9.72248 49.5178 9.68219 49.4584 9.83652ZM66.3637 9.93834C66.4218 10.0592 67.2047 12.3997 68.1037 15.1395C69.0026 17.8793 69.7796 20.2218 69.8301 20.3453C69.8809 20.4686 69.9224 20.6115 69.9224 20.6628C69.9224 20.7177 69.2842 20.7558 68.3588 20.7558C66.5673 20.7558 66.7977 20.8981 66.478 19.594C66.2447 18.6411 66.3816 18.6963 64.3254 18.7268L62.5209 18.7535L62.4498 19.0465C62.4105 19.2076 62.3286 19.5153 62.2677 19.7302C62.2069 19.9451 62.1249 20.2528 62.0857 20.4139L62.0145 20.707L60.3855 20.7336L58.7566 20.7604L59.0302 19.9522C59.1808 19.5078 59.6835 17.9794 60.1475 16.5558C61.9078 11.1546 62.3077 9.98572 62.44 9.8541C62.7071 9.58818 66.2317 9.66364 66.3637 9.93834ZM70.2384 10.9639L70.2659 12.2093L71.5907 12.2581L72.9156 12.3069L72.9411 16.5802L72.9666 20.8535H74.5348H76.103L76.1285 16.5802L76.1541 12.3069L77.4789 12.2581L78.8037 12.2093L78.8312 10.9639L78.8587 9.71858H74.5348H70.2109L70.2384 10.9639ZM55.7416 10.049C58.1008 10.7136 58.6595 13.6363 56.6322 14.7068C56.0746 15.0013 56.0751 15.0072 56.6759 15.2775C58.6494 16.1651 58.4863 19.2037 56.408 20.2669C55.5618 20.6999 55.1099 20.7533 52.2823 20.7546L49.6081 20.7558V15.277V9.79818L52.3805 9.84067C54.5947 9.87461 55.2713 9.91661 55.7416 10.049ZM78.7547 10.9883V12.1604H77.4418C76.4463 12.1604 76.1018 12.1929 76.0167 12.295C75.9355 12.3927 75.9119 13.5772 75.931 16.5927L75.9578 20.7558H74.5112H73.0647L73.0392 16.4825L73.0137 12.2093L71.7418 12.1817C70.8753 12.1631 70.4457 12.1162 70.3939 12.0352C70.3041 11.8948 70.2882 10.1947 70.3745 9.97082C70.4275 9.83334 70.8912 9.81625 74.5944 9.81625H78.7547V10.9883ZM17.1602 10.8907C17.1602 11.401 17.1769 11.6098 17.197 11.3546C17.2171 11.0995 17.2171 10.6819 17.197 10.4267C17.1769 10.1715 17.1602 10.3803 17.1602 10.8907ZM64.1387 12.3802C64.0658 12.716 63.8524 13.584 63.664 14.3093C63.4758 15.0345 63.3009 15.7927 63.2751 15.9942L63.2285 16.3604H64.3615C65.6655 16.3604 65.6566 16.3665 65.4503 15.6115C64.9564 13.8058 64.7771 13.1091 64.6296 12.4225C64.4446 11.5624 64.3183 11.5517 64.1387 12.3802ZM52.5137 12.1197C52.3444 12.5585 52.4516 13.9103 52.6646 14.0238C52.9239 14.162 53.943 14.0631 54.3341 13.8619C55.0939 13.4707 54.9671 12.3458 54.1322 12.0738C53.6079 11.9028 52.586 11.9319 52.5137 12.1197ZM54.0733 12.1998C55.3216 12.6263 54.7502 13.9174 53.3127 13.9183L52.6503 13.9186V12.9907V12.0628L53.1655 12.0642C53.4489 12.065 53.8574 12.126 54.0733 12.1998ZM14.4997 12.2332C14.972 12.251 15.7448 12.251 16.2171 12.2332C16.6894 12.2154 16.303 12.2007 15.3584 12.2007C14.4138 12.2007 14.0274 12.2154 14.4997 12.2332ZM64.8281 13.7799C65.0492 14.635 65.2643 15.4726 65.306 15.6408C65.348 15.8091 65.4128 15.9959 65.45 16.0559C65.4984 16.1338 65.2045 16.1651 64.4211 16.1651C63.3298 16.1651 63.3246 16.1639 63.3892 15.9453C63.4542 15.7251 64.1863 12.8036 64.2854 12.3687C64.3644 12.0222 64.3929 12.096 64.8281 13.7799ZM13.5095 13.1069C13.5009 13.6006 13.5269 14.0253 13.5674 14.0502C13.6079 14.0753 13.6287 13.8033 13.614 13.4456C13.5667 12.3126 13.5257 12.1797 13.5095 13.1069ZM29.1311 12.9907C29.1316 13.4204 29.1488 13.584 29.1694 13.3543C29.1903 13.1247 29.19 12.7731 29.1689 12.5729C29.1478 12.3729 29.1309 12.5609 29.1311 12.9907ZM52.5196 16.2303C52.4224 16.327 52.443 18.3408 52.5429 18.4976C52.682 18.7163 54.2455 18.6013 54.5907 18.3471C55.2345 17.8732 55.198 16.84 54.5215 16.3863C54.1938 16.1666 52.7004 16.0501 52.5196 16.2303ZM30.8149 16.3604L29.2447 16.4168L30.7845 16.4374C31.7283 16.4501 32.3478 16.4203 32.3851 16.3604C32.4185 16.3067 32.4322 16.272 32.4155 16.2835C32.3988 16.2948 31.6785 16.3294 30.8149 16.3604ZM54.364 16.4667C54.9681 16.7492 55.1091 17.6055 54.6396 18.1384C54.4575 18.3447 53.6165 18.5378 53.0919 18.4936L52.6994 18.4604L52.6717 17.3616L52.644 16.2628H53.286C53.7325 16.2628 54.061 16.3248 54.364 16.4667ZM29.1329 17.3372C29.1329 17.8475 29.1495 18.0563 29.1697 17.8011C29.1898 17.546 29.1898 17.1284 29.1697 16.8732C29.1495 16.6181 29.1329 16.8268 29.1329 17.3372ZM13.6116 16.7707C13.5262 16.8556 13.4997 17.4285 13.5152 18.8463L13.5367 20.8046L13.5888 18.8023L13.641 16.8L15.1621 16.7472L16.6832 16.6945L15.2063 16.674C14.1641 16.6596 13.6947 16.6879 13.6116 16.7707Z" fill="#F1F1F1"/>
<path fill-rule="evenodd" clip-rule="evenodd" d="M10.5735 9.70195C10.4761 9.76349 10.4553 10.9471 10.4754 15.2924L10.5007 20.8046L11.9973 20.8315L13.4938 20.8586V18.8655C13.4938 16.4532 13.3201 16.6661 15.3162 16.6317L16.8795 16.6046L16.907 15.4713C16.9419 14.0424 17.0506 14.1256 15.1062 14.0922L13.5429 14.0651L13.5142 13.1943C13.4784 12.1028 13.3655 12.1638 15.432 12.1619C16.4904 12.1609 17.1269 12.1238 17.1303 12.0627C17.1656 11.4293 17.1315 9.80818 17.081 9.72686C17.003 9.60135 10.7705 9.57742 10.5735 9.70195ZM17.0268 10.8885V12.0584L15.2358 12.085L13.4448 12.1116L13.4158 12.9907C13.3692 14.4155 13.2208 14.3 15.1389 14.3312L16.7814 14.3581L16.8091 15.4545L16.8369 16.5511L15.1408 16.5777L13.4448 16.6046L13.4183 18.6802L13.3918 20.7558H11.9708H10.5497V15.3024C10.5497 12.3028 10.5792 9.81941 10.6152 9.78376C10.6511 9.74786 12.1084 9.71856 13.8538 9.71856H17.0268V10.8885ZM26.0028 9.83943C25.9766 9.90731 25.9668 12.4022 25.9807 15.3837L26.0063 20.8046H29.3429H32.6795L32.7083 19.779C32.7529 18.1786 32.9296 18.3229 30.8873 18.2917L29.1466 18.2651L29.1184 17.3643C29.0846 16.2842 28.9327 16.3692 30.9622 16.3353L32.3851 16.3116L32.4126 15.1178C32.4455 13.6968 32.6312 13.8302 30.5696 13.7957L29.1466 13.772L29.1179 13.0151L29.0892 12.2581H30.8581C32.9347 12.2581 32.7532 12.4019 32.7083 10.793L32.6795 9.7674L29.3647 9.74176C26.7658 9.72149 26.0399 9.74249 26.0028 9.83943ZM33.5137 9.81062C33.5137 9.89706 33.7505 10.277 35.2304 12.5685C36.6543 14.773 36.8585 15.1241 36.8015 15.2721C36.7476 15.412 35.9627 16.6298 34.0387 19.5585C33.642 20.1626 33.3174 20.7011 33.3174 20.755C33.3174 20.8173 33.9455 20.8534 35.0302 20.8534H36.7427L37.1892 20.1668C37.4345 19.789 37.6354 19.4569 37.6354 19.4289C37.6354 19.4005 37.8057 19.1273 38.0138 18.8213C38.2218 18.5154 38.4659 18.1222 38.556 17.9476C38.6463 17.773 38.7623 17.6302 38.8143 17.6302C38.9137 17.6302 38.9282 17.6517 40.1477 19.6042L40.923 20.8454L42.6591 20.8495C43.6139 20.8517 44.415 20.8205 44.439 20.7802C44.4773 20.716 42.5479 17.8863 41.3141 16.1975C40.7559 15.4335 40.7672 15.2894 41.4628 14.3093C41.558 14.175 41.7238 13.9112 41.8308 13.7232C41.938 13.5352 42.491 12.6493 43.0597 11.7543C44.5004 9.48707 44.5668 9.71831 42.4753 9.71929L40.7268 9.71978L40.3342 10.4247C39.9144 11.1785 39.4522 12.0002 39.1418 12.5445C38.868 13.0248 38.7981 13.0085 38.4421 12.3807C38.267 12.0715 37.9907 11.5988 37.8283 11.3302C37.6656 11.0616 37.5044 10.7759 37.4696 10.6953C37.4348 10.6147 37.279 10.362 37.1234 10.1337L36.841 9.71856H35.1774C34.2004 9.71856 33.5137 9.75665 33.5137 9.81062ZM32.5839 10.036C32.6143 10.1569 32.6261 10.6514 32.6104 11.1348L32.5814 12.0139L30.815 12.0708C28.7168 12.1382 28.9994 11.9892 28.9994 13.028C28.9994 14.0787 28.8736 14.0131 30.8917 14.015L32.3424 14.0162L32.3147 15.1151L32.287 16.2139L30.6432 16.2408L28.9994 16.2674V17.3396C28.9994 17.9291 29.0105 18.4199 29.024 18.4304C29.0375 18.4406 29.8434 18.4736 30.815 18.5036L32.5814 18.5581L32.6091 19.6569L32.6369 20.7558H29.3461H26.0553V15.3512C26.0553 12.3785 26.0848 9.91708 26.1208 9.88143C26.1566 9.84553 27.6132 9.81623 29.3574 9.81623H32.5287L32.5839 10.036ZM37.2429 10.5605C37.4858 10.9693 37.8055 11.5075 37.9534 11.7565C38.1011 12.0056 38.3406 12.4193 38.4856 12.6757C38.6303 12.9323 38.7964 13.1272 38.8546 13.1088C38.9632 13.0744 40.6777 10.1525 40.6777 10.0016C40.6777 9.84602 41.1124 9.80891 42.6105 9.83723L44.1019 9.86507L43.5528 10.7441C43.2511 11.2276 42.7955 11.9529 42.5403 12.3558C41.5381 13.9388 40.768 15.1927 40.7179 15.3229C40.689 15.3978 41.0001 15.9368 41.409 16.5204C42.8735 18.6084 43.9682 20.1883 44.1461 20.4696L44.3269 20.7558H42.6625H40.9981L40.7574 20.3895C40.6252 20.188 40.4885 19.9573 40.4542 19.8767C40.3202 19.5624 38.9546 17.4959 38.8622 17.4671C38.777 17.4407 38.0496 18.4482 37.9394 18.7449C37.9178 18.8033 37.7375 19.0929 37.539 19.3883C37.3405 19.6838 37.0741 20.1123 36.947 20.3407L36.7162 20.7558H35.0719H33.4276L33.7895 20.1817C34.2546 19.4442 35.3886 17.6907 36.3148 16.2764L37.0412 15.1671L36.7495 14.7449C36.5891 14.5129 36.4578 14.301 36.4578 14.2741C36.4578 14.2472 36.2878 13.9696 36.08 13.6568C35.3184 12.5108 34.3673 11.0411 33.9956 10.4365L33.6141 9.81623L35.2075 9.81672L36.8013 9.81721L37.2429 10.5605Z" fill="#F1F1F1"/>
</g>
<defs>
<clipPath id="clip0_43_282">
<rect width="79" height="21" fill="white"/>
</clipPath>
</defs>
</svg>
