<svg width="34" height="49" viewBox="0 0 34 49" fill="none" xmlns="http://www.w3.org/2000/svg">
<g clip-path="url(#clip0_43_206)">
<path d="M25.1131 29.6106L24.9335 28.8941L24.8752 28.6551L24.8158 28.4147L24.7541 28.1695L24.667 27.8292L24.2838 26.3665L24.2223 26.1271L24.1674 25.9091L24.1281 25.7487L24.0926 25.5997L24.0608 25.4612L24.0325 25.3322L24.0134 25.2411L23.9961 25.1543L23.9804 25.0714L23.9709 25.0182L23.9579 24.941L23.95 24.8912L23.9393 24.8185C23.8591 24.2426 23.849 23.5906 23.8962 22.9029C23.8301 22.895 23.7682 22.8576 23.7314 22.7961C23.4415 22.3125 23.3767 21.6469 23.5238 20.8019L23.5332 20.7488C23.6671 20.0168 23.5394 19.523 23.1661 19.2318L23.1487 19.2185L22.9576 19.0891L22.7074 18.9182L22.5265 18.7933L22.2941 18.6313L22.1264 18.513L21.9644 18.3976L21.8596 18.3222L21.707 18.2114L21.5601 18.1034L21.4188 17.998L21.2831 17.8954L21.1957 17.8285L21.1108 17.7627L21.0284 17.6982L20.9485 17.6348L20.8711 17.5726L20.7961 17.5115L20.7236 17.4516L20.6535 17.3929L20.5859 17.3353C20.5748 17.3258 20.5638 17.3163 20.553 17.3069L20.489 17.251L20.4275 17.1962C20.4175 17.1872 20.4076 17.1782 20.3977 17.1693L20.3399 17.1162L20.2845 17.0642L20.2315 17.0133L20.1809 16.9636C20.1727 16.9553 20.1646 16.9472 20.1565 16.9391L20.1096 16.8909C20.0791 16.8592 20.0503 16.8282 20.023 16.7979L19.9833 16.753C19.9769 16.7456 19.9706 16.7383 19.9644 16.731L19.9283 16.6876C19.9224 16.6805 19.9167 16.6734 19.9111 16.6664L19.8786 16.6247C19.8734 16.6178 19.8683 16.611 19.8632 16.6042L19.8343 16.564L19.8078 16.5249C19.7444 16.4284 19.7033 16.3416 19.6843 16.264L19.6807 16.2483C19.6614 16.1566 19.6693 16.0468 19.7053 15.9155L19.7169 15.8755C19.7211 15.8619 19.7255 15.8481 19.7302 15.8341L19.7452 15.7915C19.7479 15.7842 19.7506 15.777 19.7534 15.7696L19.7709 15.7249C19.7801 15.7022 19.79 15.679 19.8004 15.6553L19.8222 15.6071L19.8457 15.5575L19.871 15.5065C19.8753 15.4978 19.8797 15.4892 19.8842 15.4804L19.9121 15.4271L19.9416 15.3724L19.9729 15.3161L20.0059 15.2583L20.0406 15.199L20.0771 15.138L20.1154 15.0755L20.1554 15.0114L20.1971 14.9456L20.2631 14.8438L20.3093 14.7738L20.3819 14.6657L20.4325 14.5915L20.4849 14.5155L20.5669 14.3981L20.6529 14.2767L20.7125 14.1935L20.8053 14.0652L20.969 13.8419L21.1442 13.6065L21.2926 13.4093L21.4484 13.204L21.6045 12.9997L22.0579 12.4123L22.6176 11.6892L22.8095 11.4392L23.0169 11.1655L23.1569 10.9781L23.2403 10.8678L23.2935 10.7981L23.3702 10.6993L23.4193 10.6372L23.4668 10.5779L23.5129 10.5213L23.5576 10.4674C23.5649 10.4587 23.5722 10.45 23.5794 10.4415L23.6222 10.3915L23.6637 10.344L23.7041 10.2989L23.7435 10.2562L23.7819 10.2157L23.8194 10.1774L23.8561 10.1411C23.8621 10.1353 23.8682 10.1295 23.8742 10.1238L23.9098 10.0905L23.9448 10.0592L23.9792 10.0296L24.0132 10.0018L24.0468 9.97566L24.0801 9.95108C24.0856 9.94711 24.0911 9.94321 24.0966 9.93936L24.1296 9.917L24.1624 9.89601L24.1952 9.87632L24.228 9.85784L24.2609 9.84051C24.3505 9.79487 24.4379 9.76194 24.5582 9.72571L24.6601 9.69627L24.7658 9.6664L24.848 9.64246C24.8871 9.63082 24.9239 9.61943 24.9615 9.60725C25.1252 9.55431 25.2903 9.49089 25.478 9.4061C26.2025 9.07872 26.4405 8.37019 26.1764 7.20514C26.1504 7.09042 26.218 6.97633 26.3289 6.94256C26.1331 6.79463 25.9329 6.62818 25.7283 6.44352C25.6368 6.36093 25.6296 6.21987 25.7123 6.12846C25.795 6.03705 25.9362 6.0299 26.0277 6.11249C26.1255 6.2008 26.2218 6.2844 26.3165 6.36333L26.3973 6.42983C26.4107 6.44073 26.4241 6.45152 26.4375 6.46223L26.5171 6.5253C27.6803 7.43362 28.5999 7.60524 29.3016 7.09113L29.3105 7.08453L29.3274 7.07083C29.3302 7.06849 29.3329 7.06612 29.3356 7.06372L29.3513 7.04895C29.3564 7.0439 29.3614 7.03872 29.3662 7.0334L29.3803 7.01703C29.3849 7.01142 29.3893 7.00567 29.3936 6.99977L29.406 6.98158C29.41 6.97535 29.4139 6.96896 29.4177 6.9624L29.4285 6.94219C29.4337 6.93181 29.4386 6.92103 29.4432 6.9098L29.452 6.88677L29.46 6.86251L29.4672 6.83698C29.4683 6.83261 29.4695 6.82819 29.4705 6.82372L29.4765 6.79618C29.4775 6.79148 29.4784 6.78671 29.4793 6.78189L29.4841 6.75223C29.4849 6.74716 29.4856 6.74203 29.4862 6.73684L29.4899 6.70494L29.4928 6.67148L29.4949 6.6364C29.4952 6.63042 29.4955 6.62436 29.4957 6.61824L29.4967 6.58065L29.4969 6.54132L29.4964 6.50019L29.4951 6.45722L29.4917 6.38918L29.4885 6.34136L29.4846 6.29151L29.4773 6.21282L29.4715 6.15768L29.465 6.10031L29.4538 6.01001L29.4455 5.9469L29.4267 5.81343L29.4107 5.70679L29.3931 5.59435L29.3531 5.35138L29.2936 5.00059L29.2745 4.88387L29.263 4.81097L29.2473 4.70728L29.2331 4.60835L29.2161 4.47983L29.2121 4.44774C29.141 3.87012 28.8169 3.24444 28.2323 2.57322C28.1513 2.48028 28.1611 2.33938 28.2542 2.25852C28.3472 2.17765 28.4883 2.18745 28.5692 2.28039C29.2077 3.01348 29.5721 3.71695 29.6553 4.39333L29.6672 4.48586L29.68 4.57959L29.6994 4.71033L29.7218 4.85251L29.7482 5.01146L29.828 5.4791L29.858 5.66088L29.8787 5.79148L29.8987 5.92739L29.9119 6.02667L29.9184 6.08142L29.9239 6.13331L29.9285 6.18296L29.9335 6.24674L29.9372 6.30908L29.9386 6.34084C29.9401 6.37798 29.9411 6.41553 29.9417 6.45489C29.9488 6.91759 29.8422 7.24839 29.5658 7.45089C29.3276 7.62541 29.0737 7.73868 28.8046 7.7917C28.8676 8.07281 28.9731 8.30233 29.1197 8.48256C29.2858 8.68681 29.5036 8.82661 29.7793 8.90417C29.898 8.93757 29.9671 9.06078 29.9337 9.17936C29.9002 9.29795 29.7769 9.367 29.6582 9.3336C29.2954 9.23151 28.9983 9.04087 28.773 8.76389C28.5688 8.5128 28.43 8.19887 28.3551 7.82493C27.8275 7.80312 27.2489 7.57708 26.6223 7.1531C26.9112 8.47974 26.5962 9.39052 25.662 9.81259C25.4589 9.90435 25.2783 9.97372 25.0991 10.0317C25.0444 10.0494 24.9919 10.0654 24.9335 10.0824L24.7171 10.144C24.6034 10.1772 24.5321 10.2032 24.4637 10.238L24.4514 10.2444L24.4267 10.258L24.4018 10.2728C24.3935 10.2779 24.385 10.2832 24.3766 10.2888L24.351 10.3062C24.3467 10.3093 24.3423 10.3123 24.338 10.3155L24.3117 10.3351L24.2849 10.3562C24.2804 10.3598 24.2758 10.3635 24.2712 10.3673L24.2435 10.3909L24.215 10.4161C24.2102 10.4205 24.2054 10.4249 24.2005 10.4295L24.1709 10.4574C24.1659 10.4623 24.1609 10.4672 24.1558 10.4721L24.1249 10.503L24.093 10.5359L24.0601 10.5709L24.0262 10.608L23.991 10.6474L23.9547 10.6891L23.8979 10.7562L23.8583 10.804L23.7962 10.8806L23.7306 10.9632L23.6614 11.052L23.6132 11.1149L23.5631 11.1808L23.4846 11.2853L23.3745 11.4329L23.1903 11.6761L22.9416 12.0001L22.0769 13.1176L21.884 13.369L21.7785 13.5075L21.5765 13.7752L21.4801 13.9043L21.3565 14.0714L21.2384 14.2327L21.1259 14.3882L21.0191 14.5378L20.9428 14.6461L20.8227 14.8192L20.755 14.9185L20.6906 15.0143L20.6098 15.1367L20.5532 15.2244L20.4998 15.3086L20.4499 15.3893L20.4033 15.4664L20.3741 15.5158L20.3465 15.5636L20.3079 15.6322L20.2841 15.676L20.2618 15.7181L20.241 15.7586L20.2219 15.7974L20.2042 15.8346L20.1882 15.8701L20.1737 15.9039L20.1608 15.9361L20.1494 15.9665L20.1397 15.9953C20.1382 16 20.1368 16.0046 20.1354 16.0091L20.1281 16.0353C20.1149 16.086 20.1114 16.1265 20.1177 16.1565C20.1277 16.204 20.158 16.2631 20.2082 16.3333L20.231 16.3641L20.2561 16.3962C20.265 16.4072 20.2742 16.4184 20.2838 16.4298L20.3139 16.4646L20.3464 16.5008C20.352 16.507 20.3577 16.5132 20.3635 16.5194L20.3997 16.5577C20.4059 16.5641 20.4122 16.5707 20.4186 16.5773L20.4584 16.6175L20.5006 16.659L20.5452 16.7018L20.5922 16.746L20.6416 16.7914L20.6934 16.8381C20.7022 16.846 20.7112 16.854 20.7202 16.862L20.7756 16.9106L20.8333 16.9606L20.9245 17.0379L21.0209 17.118L21.1227 17.2009L21.1936 17.2578L21.2667 17.3159L21.3809 17.4053L21.5004 17.4975L21.6251 17.5924L21.7551 17.69L21.8904 17.7902L21.9834 17.8586L22.0788 17.9281L22.2262 18.0345L22.4308 18.1805L22.6446 18.3311L22.811 18.447L22.9825 18.5654L23.1591 18.6863L23.3409 18.8097L23.4032 18.8519L23.4114 18.8577C23.9464 19.2547 24.1307 19.9092 23.9804 20.7851L23.9726 20.829C23.8707 21.3862 23.8691 21.8421 23.9628 22.1979C23.9711 22.1279 23.9799 22.0577 23.9893 21.9873L24.0009 21.9022L24.0191 21.7752L24.0383 21.6493L24.0582 21.5249L24.0719 21.4432L24.1 21.2833L24.1216 21.1671L24.1435 21.0546L24.1655 20.9465L24.1802 20.877L24.1948 20.8099L24.2094 20.7452L24.2239 20.6831L24.2452 20.5953L24.2662 20.5142L24.2798 20.4642L24.2931 20.4176L24.3061 20.3746L24.3186 20.3353C24.3207 20.3291 24.3227 20.3231 24.3248 20.3172L24.3367 20.2838C24.3406 20.2733 24.3444 20.2636 24.3481 20.2545C24.4815 19.9307 24.7659 19.4931 25.0605 19.1313L25.1053 19.077L25.2208 18.9401L25.963 18.0692L26.0458 17.9707L26.0912 17.9157L26.1182 17.8822L26.1699 17.8172L26.2183 17.7547C26.2261 17.7446 26.2338 17.7345 26.2413 17.7245L26.285 17.6657L26.3257 17.6094L26.3632 17.5552L26.3979 17.5032C26.4034 17.4947 26.4088 17.4863 26.4141 17.4779L26.4444 17.4289C26.5118 17.3166 26.5561 17.2195 26.5809 17.1313C26.7111 16.668 26.7026 16.4021 26.5825 16.0856L26.5668 16.0456L26.5476 16.0001L26.3902 15.6405L26.3864 15.6316C26.3315 15.5011 26.2866 15.3797 26.2468 15.2493L26.2288 15.1919L26.2095 15.1319L26.1886 15.0696L26.1662 15.0048L26.13 14.903L26.0904 14.7957L26.0475 14.683L26.0012 14.5647L25.9517 14.441L25.9169 14.3555L25.8618 14.2227L25.8035 14.0845L25.7418 13.9407L25.6769 13.7916L25.6086 13.637L25.5124 13.4224L25.4365 13.2551L25.3301 13.0236L25.2464 12.8437C25.2369 12.8234 25.2274 12.803 25.2178 12.7825C25.1655 12.671 25.2137 12.5382 25.3254 12.486C25.4371 12.4337 25.57 12.4819 25.6223 12.5934L25.7364 12.8384L25.7912 12.9572L25.8706 13.131L25.9468 13.2993L26.0196 13.4622L26.0891 13.6197L26.1552 13.7718L26.2181 13.9185L26.2777 14.0597L26.3339 14.1956L26.3868 14.3261L26.4365 14.4513L26.4828 14.571L26.5118 14.6479L26.5526 14.7587L26.578 14.8296L26.6019 14.8981L26.6243 14.9642L26.6452 15.0279L26.6647 15.0893C26.6679 15.0993 26.6709 15.1093 26.6739 15.1191C26.7031 15.2147 26.7356 15.3053 26.7742 15.4008L26.8005 15.4643L26.9441 15.7919L26.9774 15.8701L26.9865 15.8923C27.1534 16.3131 27.1713 16.6809 27.0109 17.2518C26.9546 17.4521 26.8426 17.6582 26.6579 17.9123L26.6081 17.9797C26.5738 18.0254 26.5372 18.0727 26.4983 18.1217L26.4284 18.2085L26.3441 18.3097L25.5078 19.2918L25.4489 19.362L25.4371 19.3762C25.1572 19.7135 24.8796 20.1366 24.7611 20.4243L24.7519 20.4481L24.7421 20.476L24.7318 20.5078L24.721 20.5434L24.7039 20.6035L24.6861 20.6712L24.6738 20.7203L24.6612 20.7724L24.6418 20.8559L24.6221 20.9452L24.6021 21.0398L24.5819 21.1393L24.5618 21.243L24.5418 21.3506L24.522 21.4614L24.5027 21.5749L24.4839 21.6907L24.4657 21.8081L24.4484 21.9267L24.432 22.046C24.3011 23.0302 24.2729 23.976 24.3817 24.757L24.3882 24.8023L24.3992 24.8726L24.4073 24.9211L24.4208 24.9967L24.4412 25.1034L24.4586 25.1883L24.4777 25.2779L24.5137 25.4385L24.5465 25.5782L24.5927 25.7684L24.645 25.9776L24.7165 26.2562L25.0292 27.4473L25.122 27.8055L25.1871 28.0603L25.2693 28.3881L25.309 28.549L25.3693 28.7961L25.4281 29.0321L25.5318 29.4441L25.5751 29.6189L25.6149 29.7829L25.6516 29.9376L25.6852 30.0843L25.7062 30.1784L25.726 30.2699L25.7448 30.3594L25.7626 30.4473L25.7877 30.5768L25.8034 30.6622L25.8185 30.7474C25.8646 31.014 25.8974 31.264 25.9162 31.5026C25.927 31.6397 25.9226 31.7932 25.9037 31.9816L25.8948 32.0646L25.8841 32.1521C25.8822 32.1671 25.8802 32.1823 25.8781 32.1977L25.8678 32.2716L25.8185 32.5877L25.722 33.1812L25.7105 33.2546L25.6888 33.3963L25.6688 33.5329C25.6656 33.5554 25.6625 33.5777 25.6594 33.6L25.6415 33.7326C25.6389 33.7518 25.6367 33.7724 25.6347 33.7944L25.6311 33.8404L25.6283 33.8901L25.6262 33.9437C25.6259 33.9529 25.6256 33.9623 25.6254 33.9719L25.6243 34.031C25.6242 34.0412 25.6242 34.0515 25.6241 34.062L25.6242 34.1268L25.625 34.1953L25.6266 34.2675L25.6289 34.3435L25.632 34.423L25.6358 34.5063L25.6425 34.6325L25.7132 35.2563L25.7732 35.7711L25.8147 36.1175L25.871 36.5726L25.9174 36.9348L25.9623 37.2714L25.9984 37.5323L26.0333 37.7754L26.0605 37.957L26.0869 38.1272L26.1063 38.2474L26.1252 38.3611L26.1497 38.5022L26.1654 38.5891L26.1978 38.7631C26.2364 38.9665 26.2782 39.1721 26.3243 39.3863L26.3648 39.5721L26.4075 39.7629L26.4781 40.0691L26.7782 41.333L26.8138 41.4888L26.8382 41.5984L26.8611 41.7039L26.8827 41.8054L26.9028 41.9032L26.9215 41.9977L26.9389 42.089L26.955 42.1774L26.9699 42.2632L26.9835 42.3466L26.996 42.4278L27.0073 42.5073C27.0091 42.5204 27.0108 42.5334 27.0125 42.5464L27.0208 42.6126L27.027 42.667C27.0279 42.6761 27.0288 42.685 27.0297 42.694L27.0346 42.7475L27.0387 42.8006L27.0419 42.8536C27.0424 42.8624 27.0428 42.8712 27.0432 42.8801L27.0452 42.9332C27.0455 42.9421 27.0457 42.951 27.0459 42.9599L27.0466 43.0138C27.0467 43.0228 27.0467 43.0319 27.0467 43.041L27.0462 43.0959C27.046 43.1052 27.0458 43.1145 27.0456 43.1238L27.0438 43.1805L27.0412 43.2385L27.0377 43.298L27.0308 43.3909L27.0252 43.4553L27.0187 43.5222L27.0113 43.5915L26.9986 43.7008L26.9839 43.8171L26.9672 43.941L26.9485 44.0733L26.9278 44.2148L26.8909 44.4614L26.8653 44.6405L26.8486 44.7636L26.834 44.8783L26.8255 44.9505L26.8178 45.0199L26.8111 45.0866L26.8051 45.151L26.8001 45.2133L26.7959 45.274L26.7924 45.3333L26.7898 45.3915L26.7873 45.4775L26.7866 45.5345L26.7866 45.5915L26.7874 45.6488L26.7888 45.7068L26.7913 45.777L26.7947 45.8485L26.799 45.9213L26.8041 45.9951L26.81 46.0699L26.8166 46.1453L26.8239 46.2214L26.832 46.298L26.8453 46.4132L26.8549 46.4902L26.8705 46.6054L26.8816 46.6819L26.8931 46.7578L26.9114 46.8705L26.9241 46.9446L26.9372 47.0177L26.9508 47.0896L26.9646 47.1601L26.986 47.2632L27.008 47.3623L27.0304 47.4571L27.0533 47.547L27.0688 47.6039L27.0843 47.6583C27.0869 47.6672 27.0895 47.6759 27.0921 47.6845L27.1077 47.7348C27.1129 47.751 27.1182 47.7668 27.1234 47.7821L27.1391 47.8263L27.1547 47.8672L27.1703 47.9048C27.1987 47.9704 27.2267 48.018 27.2534 48.0434L27.2797 48.0682L27.3299 48.1146C27.5579 48.3218 27.6973 48.3974 27.8785 48.4165C28.1959 48.4498 28.3775 48.3797 28.4169 48.1648C28.4181 48.1581 28.4192 48.1507 28.4202 48.1426L28.4228 48.1163C28.4232 48.1116 28.4235 48.1068 28.4239 48.1017L28.4254 48.0698L28.4263 48.0341L28.4264 47.974L28.4256 47.9296L28.4233 47.857L28.4196 47.7775L28.4164 47.7209L28.4126 47.6614L28.4008 47.5014L28.3889 47.3627L28.3788 47.253L28.3636 47.1001L28.3467 46.9403L28.3281 46.7746L28.3028 46.5608L28.2754 46.3412L28.2521 46.1625L28.2277 45.9823L28.2059 45.8265L28.1722 45.5946L28.1337 45.3423L28.1101 45.1934L28.0861 45.0471L28.062 44.904L28.0294 44.7193L28.005 44.5859L27.9805 44.4577L27.948 44.2958L27.9318 44.2191L27.9157 44.1455L27.8919 44.0412L27.8761 43.976L27.8606 43.9145C27.858 43.9046 27.8554 43.8948 27.8529 43.8852L27.8376 43.8295C27.8351 43.8206 27.8326 43.8118 27.8301 43.8032L27.8152 43.7537L27.802 43.7125L27.7908 43.6756L27.78 43.638L27.7697 43.5994L27.7599 43.5599L27.7506 43.5193L27.7417 43.4774L27.7333 43.4342L27.7254 43.3896L27.7178 43.3435L27.7107 43.2956L27.704 43.246L27.6978 43.1946L27.6891 43.1136L27.6838 43.057L27.6789 42.9981L27.6723 42.9053L27.6683 42.8403L27.663 42.7378L27.6584 42.629L27.6535 42.4735L27.6507 42.3485L27.6479 42.1701L27.6466 42.027L27.6458 41.8231L27.646 41.5765L27.6477 41.2764L27.6508 40.9485L27.665 39.7962L27.6685 39.3681L27.6692 39.1249L27.6689 38.8881L27.668 38.7216L27.6662 38.5294L27.6635 38.3425L27.6599 38.1604L27.6555 37.983C27.6538 37.9246 27.652 37.8669 27.65 37.8099L27.6436 37.641C27.6425 37.6131 27.6413 37.5854 27.6401 37.5579L27.6321 37.3945L27.6216 37.1998C27.6198 37.1678 27.618 37.136 27.6161 37.1044L27.6049 36.9174L27.5931 36.7351L27.5808 36.557L27.568 36.3826L27.5546 36.2117L27.5406 36.0437L27.5261 35.8783L27.5109 35.715L27.4871 35.4733L27.4722 35.3319L27.421 34.881L27.3061 33.8857L27.2982 33.811C27.269 33.5203 27.2501 33.2581 27.2396 32.982C27.2361 32.889 27.2455 32.7957 27.27 32.6744L27.2824 32.6164C27.2846 32.6063 27.287 32.5961 27.2894 32.5857L27.3051 32.5206L27.3296 32.4248L27.4091 32.1261C27.4463 31.9841 27.4772 31.8591 27.5067 31.7272C27.588 31.3645 27.6507 30.9859 27.6947 30.5538L27.7075 30.4185L27.7137 30.3346L27.7179 30.2622L27.7214 30.1833L27.7255 30.049L27.7279 29.9189L27.7296 29.7687L27.7308 29.4372L27.7292 28.4629L27.7295 28.1531L27.7308 27.8297L27.7319 27.6759L27.7351 27.3814L27.7373 27.2399L27.7412 27.0334L27.746 26.8326L27.7497 26.7011L27.7539 26.571L27.7611 26.3773L27.7694 26.184L27.7756 26.0546L27.7823 25.9243L27.7933 25.726L27.7998 25.6195L27.8056 25.5385L27.8126 25.4546L27.8207 25.368L27.8299 25.2784C27.8315 25.2633 27.8332 25.248 27.8349 25.2326L27.8459 25.1388L27.8579 25.0421C27.86 25.0258 27.8621 25.0093 27.8643 24.9927L27.8781 24.8918L27.8929 24.7879L27.9089 24.6813L27.935 24.5159L27.9538 24.4021L27.9737 24.2854L27.9948 24.1658L28.017 24.0433L28.0403 23.918L28.0647 23.7898L28.0903 23.6588L28.1308 23.4568L28.1592 23.3185C28.164 23.2952 28.1689 23.2718 28.1738 23.2483C28.199 23.1277 28.3173 23.0503 28.438 23.0755C28.5587 23.1007 28.6362 23.2189 28.6109 23.3395L28.5825 23.4766L28.542 23.6767L28.504 23.8704L28.4685 24.0576L28.4462 24.1788L28.4251 24.2971L28.3954 24.469L28.377 24.5801L28.3597 24.6882L28.3436 24.7934L28.3285 24.8958L28.3146 24.9952L28.3018 25.0917L28.2901 25.1853L28.2795 25.276C28.2778 25.2908 28.2762 25.3056 28.2746 25.3202L28.2656 25.4065L28.2578 25.4899L28.2511 25.5704C28.2501 25.5836 28.2491 25.5966 28.2482 25.6096L28.2431 25.6857C28.2301 25.9018 28.2194 26.1089 28.2106 26.3158L28.2034 26.5L28.1972 26.6809L28.1919 26.8644L28.1875 27.0516L28.185 27.1791L28.1818 27.3755L28.1788 27.6487L28.1765 28.0128L28.1758 28.3259L28.1764 28.8146L28.1774 29.2972L28.1764 29.7513L28.1748 29.9093L28.1729 30.0204L28.169 30.1662L28.1656 30.2519L28.1615 30.3306L28.1566 30.4042L28.151 30.4743L28.1479 30.5086C28.1017 30.9964 28.0332 31.4199 27.9425 31.8247C27.9168 31.9394 27.8903 32.0488 27.8598 32.1671L27.7553 32.5619L27.7404 32.6206L27.7274 32.6741L27.7163 32.7229C27.7146 32.7307 27.7129 32.7382 27.7114 32.7456L27.703 32.788C27.6942 32.8352 27.689 32.8747 27.6868 32.9095L27.6856 32.9383C27.6855 32.9475 27.6856 32.9564 27.6859 32.9651C27.6949 33.2019 27.7103 33.4282 27.7335 33.6736L27.7452 33.7923L27.7862 34.1555L27.9053 35.1847L27.923 35.347L27.9396 35.5092L27.9555 35.6727L27.9708 35.8379L27.9855 36.0053L27.9997 36.1753L28.0132 36.3483L28.0262 36.5246L28.0387 36.7048L28.0506 36.8892C28.0525 36.9203 28.0544 36.9516 28.0563 36.9831L28.0675 37.1745L28.0781 37.3713L28.0862 37.5375C28.0912 37.6495 28.0955 37.7639 28.0992 37.8811L28.1043 38.0589L28.1083 38.2412C28.1089 38.2719 28.1095 38.3029 28.11 38.3341L28.1127 38.5235C28.1131 38.5555 28.1135 38.5877 28.1138 38.6202L28.1152 38.8175L28.1158 39.0228L28.1157 39.2048L28.1132 39.6324L28.1082 40.0952C28.1478 40.0041 28.1857 39.9148 28.2218 39.8274L28.2747 39.6977L28.3249 39.5707C28.4961 39.1312 28.6189 38.7428 28.6934 38.4061L28.7061 38.3472L28.7187 38.2854L28.7312 38.2207L28.7436 38.153L28.7622 38.0462L28.7805 37.9329L28.7927 37.8537L28.8048 37.7717L28.8227 37.6432L28.8346 37.554L28.8523 37.4147L28.8697 37.269L28.887 37.1168L28.9042 36.9582L28.9211 36.7931L28.9434 36.5629L28.9544 36.4435L28.9762 36.1962L28.9924 36.0032L29.013 35.7426L29.0157 35.5596L29.0204 35.3147L29.0247 35.1393L29.0315 34.9165L29.0374 34.7577L29.0417 34.6558L29.0511 34.4614L29.0591 34.3239L29.0647 34.2362L29.0707 34.1516L29.0802 34.0306C29.0813 34.0175 29.0824 34.0046 29.0835 33.9918L29.0904 33.9166L29.1012 33.8097C29.1025 33.7982 29.1037 33.7869 29.105 33.7756L29.1168 33.6781L29.125 33.617L29.1292 33.5883C29.1551 33.4123 29.195 33.2133 29.2488 32.9913L29.2746 32.8872L29.3024 32.7799C29.3072 32.7617 29.3121 32.7434 29.317 32.7249L29.3478 32.6126C29.3584 32.5747 29.3693 32.5361 29.3805 32.497L29.4152 32.3782C29.4212 32.3581 29.4272 32.3378 29.4333 32.3175L29.471 32.1936L29.5107 32.0665L29.5523 31.936L29.5959 31.8022C29.6269 31.7083 29.7142 31.6488 29.8081 31.6488C29.761 31.5861 29.7485 31.5004 29.7829 31.4238L29.8511 31.2712L29.9177 31.1209L30.0144 30.8999L30.1075 30.6843L30.1675 30.5435L30.2258 30.4052L30.2825 30.2692L30.3645 30.0696L30.4171 29.9396L30.493 29.749L30.5415 29.6249L30.5884 29.5032L30.6336 29.3839L30.6772 29.267L30.7191 29.1525L30.7594 29.0404L30.7981 28.9306L30.8351 28.8233C30.8411 28.8056 30.8471 28.788 30.853 28.7705L30.8876 28.6668C30.8932 28.6497 30.8987 28.6327 30.9042 28.6158L30.9363 28.5156L30.9668 28.4179L30.9956 28.3225L31.0228 28.2296L31.0483 28.139L31.0938 27.9746L31.3458 27.1066L31.3721 27.0104L31.3971 26.9143L31.4131 26.8501L31.4285 26.7857L31.4434 26.7208L31.4648 26.6225L31.4785 26.556L31.4917 26.4886L31.5044 26.4202L31.5167 26.3507L31.5286 26.2798L31.54 26.2074L31.551 26.1335L31.5617 26.0578L31.5719 25.9803L31.5818 25.9008L31.5914 25.8191L31.6051 25.6922L31.6181 25.5597L31.6264 25.4681L31.6344 25.3735L31.6459 25.2261L31.6569 25.0715L31.6673 24.9092L31.6773 24.7389L31.6901 24.4982L31.6962 24.3718L31.7049 24.1749L31.7124 23.9842L31.7166 23.8605L31.7202 23.7395L31.7233 23.6211L31.7267 23.4484L31.7283 23.3364L31.7297 23.1731L31.7299 23.0672L31.729 22.9129L31.7278 22.8129L31.7249 22.6672L31.7223 22.5728L31.7191 22.4806L31.7153 22.3905L31.711 22.3025L31.7062 22.2165L31.6979 22.0913L31.6917 22.0102L31.685 21.931L31.6777 21.8537L31.6699 21.7782L31.6616 21.7044L31.6527 21.6324L31.6434 21.562L31.6334 21.4933C31.6318 21.482 31.63 21.4707 31.6283 21.4596L31.6176 21.3932L31.6006 21.2965L31.5886 21.2339L31.5762 21.1728L31.5632 21.113C31.561 21.1031 31.5587 21.0933 31.5565 21.0836L31.5427 21.0257L31.5285 20.9692L31.5138 20.9139L31.4985 20.8598L31.4828 20.8068L31.4666 20.755L31.4499 20.7042L31.4327 20.6544L31.4165 20.6097L31.4005 20.5676L31.3827 20.5229L31.3525 20.45L31.3174 20.3687L31.291 20.3092L31.1943 20.0975L30.9822 19.6366L30.9641 19.5966L30.937 19.536L30.8852 19.4184C30.8685 19.3799 30.8523 19.3422 30.8366 19.3051L30.791 19.1956C30.7247 19.0339 30.6679 18.8831 30.6181 18.7351C30.5383 18.4983 30.4803 18.278 30.4455 18.0707C30.3138 17.2859 30.4022 16.3469 30.5934 15.5887C30.6312 15.4385 30.6993 15.2916 30.8 15.1272C30.8109 15.1095 30.822 15.0917 30.8337 15.0735L30.8701 15.0176C30.8765 15.008 30.883 14.9983 30.8897 14.9884L30.9319 14.9266L31.0923 14.6986L31.1363 14.635L31.1768 14.5752L31.2139 14.519L31.2478 14.4657L31.2788 14.415C31.2887 14.3985 31.2981 14.3823 31.3071 14.3664L31.3329 14.3194C31.3699 14.25 31.3992 14.1847 31.4243 14.1167C31.6487 13.5085 31.7454 13.0316 31.6978 12.6653C31.6647 12.4102 31.4671 12.0423 31.1005 11.5767C31.0242 11.4799 31.041 11.3396 31.1379 11.2635C31.2349 11.1873 31.3753 11.2041 31.4515 11.3009C31.8636 11.8243 32.0948 12.2549 32.1407 12.6079C32.1997 13.0625 32.0906 13.6008 31.8434 14.271C31.7838 14.4325 31.7099 14.574 31.5963 14.75L31.5545 14.8136L31.5092 14.8807C31.5013 14.8922 31.4933 14.9038 31.4851 14.9157L31.2581 15.2397L31.2358 15.2729L31.2179 15.3004L31.1809 15.3602C31.1018 15.4892 31.0518 15.5973 31.0265 15.6977C30.8491 16.4013 30.7661 17.2826 30.886 17.997C30.9165 18.179 30.9687 18.377 31.0414 18.5929C31.0934 18.7473 31.1541 18.9066 31.2269 19.081L31.272 19.1877C31.2798 19.2058 31.2877 19.224 31.2957 19.2425L31.3454 19.3555L31.4839 19.6594L31.6365 19.9897L31.6854 20.0974L31.7283 20.1938L31.7657 20.2806L31.7879 20.334L31.8082 20.3844L31.8268 20.4322L31.8438 20.478L31.8628 20.5316L31.8812 20.5862L31.8991 20.6418L31.9165 20.6984L31.9333 20.7562L31.9496 20.815L31.9653 20.8751L31.9805 20.9364L31.9951 20.999L32.0092 21.0629L32.0227 21.1281C32.0249 21.1391 32.0271 21.1501 32.0293 21.1612L32.0419 21.2286L32.0541 21.2974L32.0656 21.3678L32.0766 21.4396L32.0871 21.5131L32.0969 21.5883L32.1062 21.6651L32.115 21.7436C32.1164 21.7568 32.1177 21.7701 32.1191 21.7835L32.127 21.8647L32.1343 21.9477L32.141 22.0326L32.1471 22.1194L32.1527 22.2082L32.1577 22.299C32.1584 22.3143 32.1592 22.3297 32.1599 22.3451L32.1659 22.4867L32.1691 22.5838L32.1728 22.7334L32.1745 22.836L32.1757 22.9409L32.1762 23.048L32.1759 23.2133L32.175 23.3264L32.1724 23.5009L32.1699 23.6203L32.1669 23.7423L32.1632 23.867L32.1589 23.9943L32.1513 24.1904L32.1423 24.3928L32.1296 24.6472L32.1196 24.8276L32.1055 25.0551L32.0943 25.2166L32.0866 25.3202L32.0744 25.4697L32.0659 25.5657L32.0571 25.659L32.048 25.7496L32.0337 25.881L32.0237 25.9657L32.0134 26.0482L32.0027 26.1288L31.9915 26.2075L31.98 26.2845L31.9618 26.397L31.9492 26.4703L31.936 26.5424L31.9224 26.6134L31.9083 26.6835L31.8937 26.7527L31.8786 26.8213L31.8629 26.8893L31.8467 26.957L31.8299 27.0244L31.8125 27.0917L31.7853 27.1927L31.5375 28.0466L31.4915 28.2112C31.4833 28.2415 31.4748 28.2723 31.466 28.3034L31.4389 28.398L31.4101 28.4949C31.4052 28.5113 31.4002 28.5277 31.3951 28.5443L31.3638 28.6447L31.3309 28.7476L31.2964 28.8527L31.2602 28.9602L31.2224 29.0701L31.1829 29.1823L31.1417 29.2969L31.099 29.4139L31.0545 29.5332L31.0085 29.6548L30.9607 29.7788L30.9114 29.9052L30.8604 30.034L30.7807 30.2315L30.6974 30.4344L30.6398 30.5726L30.5806 30.7131L30.5197 30.8561L30.4571 31.0014L30.3929 31.149L30.3271 31.2991L30.2596 31.4515L30.1905 31.6063C30.1533 31.689 30.0719 31.7381 29.9866 31.7382C30.0289 31.7943 30.0439 31.8697 30.0202 31.9417L29.9779 32.0714L29.9375 32.1978L29.8991 32.3208C29.8929 32.3411 29.8867 32.3612 29.8806 32.3811L29.8451 32.4992C29.8336 32.538 29.8225 32.5762 29.8116 32.6139L29.78 32.7252C29.7749 32.7435 29.7699 32.7616 29.7649 32.7796L29.7363 32.8859L29.7095 32.9889C29.7052 33.0057 29.701 33.0225 29.6969 33.0391L29.6731 33.137C29.6693 33.153 29.6655 33.1689 29.6619 33.1846L29.641 33.2775C29.6144 33.399 29.593 33.5115 29.5768 33.6149L29.5671 33.6804L29.5595 33.7371L29.5521 33.7968L29.5416 33.8922L29.5316 33.9944L29.5223 34.1035L29.5135 34.2195L29.508 34.3007L29.4978 34.4721L29.4887 34.6557L29.4826 34.8014L29.4771 34.9539L29.4722 35.1132L29.4679 35.2794L29.4642 35.4524L29.4612 35.6321L29.4595 35.7558L29.4589 35.7701L29.4427 35.9748L29.4264 36.1731L29.4043 36.4274L29.3819 36.6703L29.3648 36.8449L29.3475 37.0131L29.3299 37.1749L29.3181 37.2792L29.3003 37.4303L29.2822 37.575L29.27 37.6679L29.2515 37.8019L29.2391 37.8877L29.2266 37.9707L29.2076 38.0898L29.1948 38.1656L29.182 38.2386L29.169 38.3088L29.1493 38.4088L29.1361 38.4719L29.1295 38.5024C29.0548 38.8398 28.9366 39.2207 28.7747 39.6455L28.7248 39.7743L28.6723 39.9057C28.6544 39.95 28.636 39.9947 28.6172 40.0398L28.5595 40.1765C28.5103 40.2915 28.4583 40.4093 28.4037 40.5298C28.3528 40.642 28.2205 40.6918 28.1082 40.641L28.1011 40.6377L28.0956 41.1381L28.0934 41.4583L28.0927 41.6935L28.0931 41.9288L28.0944 42.1155L28.0961 42.2464L28.0993 42.4095L28.1036 42.5601L28.109 42.699L28.1139 42.796L28.1175 42.8573L28.1215 42.9162L28.128 42.9999L28.1327 43.0529L28.1378 43.1037L28.1433 43.1525L28.1491 43.1992L28.1552 43.244L28.1617 43.287L28.1686 43.3283L28.1759 43.368L28.1835 43.4061L28.1915 43.4429L28.2043 43.4955L28.2133 43.529L28.2228 43.5615L28.2404 43.6172L28.256 43.6689C28.2586 43.6779 28.2613 43.687 28.2639 43.6963L28.2799 43.754L28.296 43.8155L28.3123 43.8806L28.3288 43.9493L28.3453 44.0212L28.3703 44.1349L28.3954 44.2551L28.4122 44.3386L28.4374 44.4685L28.4708 44.6495L28.5041 44.8382L28.5287 44.984L28.5691 45.2335L28.6006 45.4375L28.6236 45.5922L28.6538 45.803L28.6854 46.0338L28.7095 46.2174L28.7323 46.3991L28.7589 46.6222L28.7786 46.7963L28.7966 46.9655L28.813 47.129L28.824 47.2472L28.8371 47.3984L28.8481 47.5413L28.8549 47.6424L28.8621 47.7686L28.8659 47.8562L28.8677 47.911L28.8689 47.9629L28.8694 48.0117L28.8689 48.0787L28.8678 48.1192C28.8676 48.1257 28.8673 48.132 28.867 48.1382L28.8648 48.1734C28.8639 48.1845 28.863 48.195 28.8619 48.2049L28.8583 48.2327C28.8576 48.237 28.8569 48.2411 28.8562 48.2451C28.7626 48.7562 28.3517 48.9148 27.8318 48.8602C27.5112 48.8265 27.2855 48.6898 26.9455 48.3665C26.8695 48.2943 26.7962 48.1585 26.7283 47.9796L26.7071 47.9217C26.7001 47.902 26.6931 47.8818 26.6863 47.8611L26.6658 47.7979C26.6624 47.7872 26.6591 47.7764 26.6558 47.7654L26.636 47.6986L26.6166 47.6296L26.5978 47.5586C26.5915 47.5345 26.5854 47.5102 26.5794 47.4855L26.5615 47.4108L26.5442 47.3343L26.5275 47.2564L26.5113 47.1771L26.4957 47.0966L26.4807 47.015C26.4783 47.0013 26.4759 46.9876 26.4735 46.9738L26.4595 46.8909L26.4461 46.8073C26.4439 46.7933 26.4418 46.7793 26.4397 46.7652L26.4274 46.6808L26.4158 46.596L26.405 46.511L26.3949 46.4259L26.3855 46.3409C26.384 46.3268 26.3826 46.3126 26.3812 46.2985L26.373 46.2139L26.3658 46.1297C26.3646 46.1157 26.3635 46.1017 26.3624 46.0878L26.3564 46.0045L26.3513 45.9221C26.3505 45.9084 26.3497 45.8948 26.349 45.8812L26.3452 45.8002L26.3424 45.7203L26.3408 45.6571L26.34 45.5948L26.3399 45.5331L26.3406 45.4716L26.3421 45.4101L26.3445 45.348L26.3476 45.2853L26.3516 45.2214L26.3564 45.1561L26.3621 45.089L26.3687 45.0199L26.3763 44.9483L26.3893 44.8356L26.3991 44.7564L26.4218 44.5871L26.4485 44.4006L26.4993 44.0588L26.5181 43.928L26.54 43.767L26.5496 43.6919L26.5584 43.62L26.5699 43.5177L26.5795 43.4216L26.5872 43.3309L26.5913 43.2731L26.5946 43.2172L26.597 43.163L26.5986 43.1101C26.5988 43.1015 26.599 43.0928 26.5991 43.0842L26.5996 43.0332L26.5992 42.9831L26.598 42.9337L26.596 42.8848C26.5956 42.8767 26.5951 42.8686 26.5947 42.8605L26.5915 42.8119L26.5876 42.7634C26.5868 42.7553 26.5861 42.7471 26.5853 42.739L26.5774 42.6653L26.5696 42.6037L26.5594 42.5291L26.5481 42.4526C26.5461 42.4397 26.5441 42.4267 26.542 42.4136L26.5289 42.3338C26.5266 42.3203 26.5243 42.3067 26.5219 42.293L26.507 42.2094L26.4908 42.1229L26.4641 41.9874L26.4447 41.8927L26.4128 41.7436L26.3778 41.5854L26.3433 41.4344L26.0174 40.0602C26.0018 39.9927 25.9866 39.9263 25.9717 39.8608L25.9285 39.6673C25.9144 39.6037 25.9007 39.541 25.8874 39.4789L25.8484 39.2946C25.804 39.0816 25.7636 38.8752 25.726 38.6689L25.704 38.5461L25.6729 38.364L25.6473 38.206L25.6143 37.993L25.5939 37.8569L25.5662 37.6658L25.5307 37.4115L25.4865 37.0835L25.4486 36.7913L25.4016 36.4179L25.3531 36.0196L25.2859 35.45L25.216 34.8362L25.1981 34.6758L25.1971 34.6643L25.1919 34.57L25.1874 34.4795L25.1838 34.3926L25.181 34.3093L25.179 34.2297L25.1778 34.1537C25.1777 34.1414 25.1776 34.1292 25.1775 34.1171L25.1776 34.0465C25.1777 34.0351 25.1778 34.0238 25.178 34.0126L25.1793 33.9474C25.1796 33.9369 25.1799 33.9264 25.1803 33.9162L25.1829 33.8563C25.1834 33.8467 25.1839 33.8371 25.1845 33.8277L25.1883 33.7732C25.1905 33.7468 25.193 33.7218 25.1957 33.698L25.1986 33.6747C25.2194 33.5167 25.2423 33.3584 25.2692 33.1858L25.3963 32.3992L25.4231 32.2261L25.4294 32.1829L25.4406 32.0992L25.4503 32.0205C25.474 31.8168 25.4808 31.6628 25.471 31.5376C25.4533 31.3136 25.4223 31.077 25.3784 30.8234L25.3639 30.741L25.3486 30.6583L25.3243 30.5327L25.3069 30.4474L25.2791 30.316L25.2489 30.1793L25.2272 30.0845L25.1801 29.8845L25.141 29.7237L25.1131 29.6106Z" fill="#F1F1F1" fill-opacity="0.3"/>
<path d="M6.47858 13.8798C6.59566 13.8421 6.72109 13.9063 6.75885 14.0234C6.91869 14.5189 7.04949 14.9786 7.15143 15.4023L7.18463 15.539L7.2149 15.6718C7.39006 16.4577 7.45221 17.0598 7.42194 17.999C7.40554 18.5076 7.35706 18.8079 7.24713 19.1708L7.22174 19.2529C7.21732 19.2667 7.21266 19.2808 7.20807 19.2949L7.17682 19.3896C7.07551 19.694 7.0338 19.8633 7.00592 20.1552L6.99713 20.2636L6.99225 20.3339C6.9915 20.3457 6.98999 20.3583 6.98932 20.3701L6.98639 20.4404C6.98588 20.4522 6.98487 20.4646 6.98444 20.4765L6.98248 20.5478L6.98151 20.621C6.98137 20.6334 6.98059 20.6466 6.98053 20.6591L6.98151 20.7353V20.8144L6.98346 20.8974L6.98737 21.0283L6.99323 21.1699L7.00104 21.3242L7.01666 21.6269L7.02252 21.7724L7.02643 21.874L7.0274 21.9423L7.02838 22.0048L7.0274 22.0634L7.02643 22.1171L7.02448 22.1523L7.0235 22.1865L7.01959 22.2353L7.00983 22.3329L7.00299 22.3837L6.99713 22.4199L6.98932 22.4579C6.98801 22.4645 6.98684 22.4716 6.98541 22.4785L6.97565 22.5224L6.9649 22.5683L6.95319 22.6181L6.93854 22.6708L6.92291 22.7275L6.90631 22.788L6.87701 22.8867L6.84088 23.0097L6.57135 23.8691L6.53522 23.9882L6.50104 24.1005L6.46881 24.2089L6.43854 24.3144L6.40729 24.4247L6.37701 24.5312L6.34967 24.6347L6.3233 24.7353L6.29889 24.832L6.27643 24.9257C6.26922 24.9564 6.26253 24.9869 6.25592 25.0165L6.23737 25.1035C6.1834 25.3603 6.15337 25.5743 6.15045 25.746V25.8242L6.1485 25.9433L6.14459 26.0839L6.14069 26.204L6.13287 26.3828L6.12115 26.6337L6.10358 26.9745L6.08209 27.3554L6.0528 27.8466L6.01276 28.4638L5.97858 28.9619L5.94049 29.4882L5.89948 30.038L5.87115 30.416L5.82526 30.9999L5.76862 31.7021L5.71588 32.3183L5.6524 33.0497L5.62408 33.3661C5.60345 33.5945 5.57728 33.8285 5.54498 34.079L5.51959 34.2724L5.50592 34.372L5.48346 34.5292L5.42682 34.9052L5.30865 35.6786L5.28229 35.8486L5.25787 36.0126L5.23541 36.1718L5.20319 36.4003L5.18268 36.5478L5.16412 36.6923L5.14655 36.8339C5.14369 36.8571 5.14053 36.8802 5.13776 36.9033L5.12213 37.0419L5.10651 37.1777L5.09186 37.3134C5.08953 37.336 5.08728 37.3592 5.08502 37.3818L5.07233 37.5165L5.05963 37.6523L5.04791 37.789L5.03717 37.9277C5.03537 37.9509 5.03306 37.9745 5.03131 37.998L5.0274 38.0654L5.0235 38.1367C5.02299 38.1486 5.02295 38.1606 5.02252 38.1728L5.01959 38.248L5.01862 38.3271V38.4931C5.0188 38.5073 5.01934 38.5216 5.01959 38.5361L5.02155 38.6259L5.02448 38.7177L5.02838 38.8134L5.03326 38.912L5.03912 39.0136L5.04596 39.1181L5.05377 39.2255L5.06158 39.3359L5.07135 39.4501L5.08209 39.5663L5.09283 39.6865L5.10553 39.8095L5.12604 39.999L5.13776 40.1054L5.16315 40.1826C5.56239 41.4169 5.76687 42.6743 5.7774 43.9531L5.77838 44.0566L5.7774 44.205C5.77725 44.2294 5.77763 44.2541 5.7774 44.2783L5.77545 44.4218C5.77469 44.4694 5.77359 44.5167 5.77252 44.5634L5.76862 44.7021C5.76792 44.725 5.76744 44.7478 5.76666 44.7704L5.76178 44.9052L5.75592 45.037L5.74811 45.166C5.74685 45.1872 5.74554 45.2085 5.7442 45.2294L5.73639 45.3544L5.72662 45.4775C5.72495 45.4975 5.72252 45.5173 5.72076 45.537L5.71002 45.6552C5.66913 46.0628 5.60836 46.4175 5.52643 46.7148C5.49187 46.8401 5.45275 46.9627 5.40729 47.0878L5.37506 47.1757L5.31061 47.3369L5.17975 47.6611L5.15338 47.7294L5.14557 47.7509L5.13287 47.789C5.12928 47.8005 5.1259 47.8112 5.12311 47.8212L5.11627 47.8495C5.11419 47.8583 5.11181 47.8666 5.11041 47.874L5.10748 47.8935C5.1044 47.9178 5.10633 47.9325 5.11041 47.9394C5.14569 47.9985 5.24568 48.0655 5.39166 48.1298L5.43756 48.1484L5.48541 48.1679C5.49347 48.171 5.50157 48.1746 5.50983 48.1777L5.56158 48.1962L5.6153 48.2138C5.62438 48.2168 5.63337 48.2206 5.64264 48.2236L5.70026 48.2411C5.70986 48.2441 5.71978 48.2471 5.72955 48.2499L5.78912 48.2665C5.80946 48.2722 5.8307 48.2777 5.85162 48.2831L5.9151 48.2997L5.98053 48.3154L6.04694 48.33L6.1153 48.3437C6.35393 48.3905 6.59379 48.4188 6.78619 48.4238C6.87792 48.4261 6.95551 48.423 7.01276 48.415C7.03209 48.4123 7.0485 48.4094 7.06061 48.4062L7.06647 48.4042C7.06989 48.3997 7.0734 48.3933 7.07721 48.3857L7.086 48.3681L7.09381 48.3466L7.1026 48.3212L7.11237 48.2929L7.12115 48.2597L7.13092 48.2245L7.14069 48.1855L7.15045 48.1435L7.16022 48.0986L7.16998 48.0507L7.17975 48.0009L7.18854 47.9472L7.20221 47.8642L7.211 47.8056L7.21979 47.7451L7.2276 47.6826L7.23541 47.6191L7.24225 47.5556C7.29383 47.0456 7.29525 46.4765 7.24225 46.0595C7.21714 45.8621 7.18067 45.6939 7.12115 45.497L7.09576 45.416L7.06842 45.332C7.06358 45.3176 7.05885 45.3028 7.05377 45.288L7.02155 45.1962L6.92291 44.9218L6.91705 44.9033C6.77614 44.5 6.71298 44.2079 6.71295 43.8456C6.71295 43.8235 6.71297 43.8002 6.71393 43.7763L6.71686 43.7275L6.72076 43.6757L6.72565 43.622C6.72659 43.613 6.72753 43.6039 6.72858 43.5947L6.73541 43.537C6.73794 43.5177 6.74029 43.4977 6.74323 43.4775L6.75299 43.415L6.76373 43.3505L6.77643 43.2831L6.78912 43.2138L6.80377 43.1415L6.8194 43.0663L6.84479 42.9501L6.87408 42.8281L6.89459 42.7431L6.92682 42.6103L6.96295 42.4726L6.98834 42.3779L7.01471 42.2792L7.07135 42.0761L7.11627 41.916L7.16412 41.7499L7.2276 41.5361L7.34869 41.1318L7.61627 40.2558L7.6944 39.9911L7.73444 39.8505L7.76666 39.7333L7.77643 39.6913L7.78619 39.6474C7.7909 39.625 7.79566 39.6019 7.79987 39.5781L7.81158 39.5048L7.81842 39.4531L7.82526 39.3994L7.83112 39.3437L7.83698 39.2851L7.84088 39.2245L7.84479 39.162L7.84869 39.0976L7.85162 39.0302L7.85358 38.9609L7.85651 38.8515L7.85748 38.7363V38.5742L7.85553 38.4443L7.8526 38.3085L7.84869 38.1669L7.84381 38.0175L7.83795 37.8622L7.83014 37.6992L7.77936 36.6777L7.76862 36.4199L7.76471 36.29L7.76178 36.2119L7.75983 36.082L7.75885 35.9726V35.9169L7.75983 35.8593L7.76178 35.8007L7.76569 35.7206L7.76959 35.6591L7.77448 35.5966L7.78229 35.5097L7.79303 35.4189L7.80182 35.3486L7.81549 35.2499L7.82721 35.1728L7.84576 35.0644L7.8653 34.9511L7.88776 34.83L7.91315 34.7011L7.9483 34.5302L7.98737 34.3456L8.04889 34.0624L8.13092 33.7001L8.3653 32.6874L8.41803 32.456L8.49127 32.1269L8.53033 31.9423L8.55865 31.8056L8.59576 31.6161L8.61823 31.499L8.63287 31.415L8.64655 31.3339L8.65924 31.2548L8.66705 31.204L8.6778 31.1288L8.68756 31.0546L8.69928 30.957L8.70221 30.9335C8.78236 30.2308 8.96858 29.6597 9.33112 28.8691L9.38971 28.7421L9.66412 28.164L9.68561 28.1181L9.74518 27.9863C9.75146 27.9722 9.75767 27.958 9.76373 27.9443L9.79889 27.8642L9.83112 27.787C9.83632 27.7746 9.84169 27.7622 9.84674 27.7499L9.87701 27.6757C9.9004 27.6166 9.92154 27.559 9.94147 27.5029C10.1769 26.8396 10.4108 26.1552 10.6426 25.4501C10.681 25.3334 10.8071 25.2693 10.9239 25.3076C11.0407 25.3459 11.1048 25.472 11.0665 25.5888C10.8335 26.2972 10.598 26.9847 10.3614 27.6513C10.3396 27.7127 10.3164 27.7758 10.2911 27.8398L10.2755 27.8788L10.2432 27.9579L10.2081 28.039L10.1719 28.123L10.1319 28.2109L10.0899 28.3036L9.97076 28.5566L9.8233 28.8671L9.79401 28.9286L9.73834 29.0497C9.72015 29.0894 9.70188 29.1285 9.68463 29.1669L9.63483 29.2812C9.36551 29.8981 9.22022 30.3749 9.15143 30.9326L9.1358 31.0595L9.12311 31.1611L9.10846 31.2656L9.09576 31.3456L9.08698 31.4003L9.0733 31.4833L9.0528 31.5995L9.02936 31.7216L9.00397 31.8505L8.96881 32.0234L8.91998 32.2499L8.86432 32.5019L8.7901 32.831L8.57721 33.7451L8.52545 33.9755L8.4776 34.1894L8.41803 34.4628L8.37994 34.6415L8.3526 34.7744L8.32819 34.8994L8.30182 35.0458L8.28229 35.1552L8.26569 35.2578L8.25397 35.331L8.2442 35.4023L8.23346 35.4911L8.22565 35.5556L8.21979 35.6181L8.21588 35.6581L8.21295 35.6972L8.20905 35.7734L8.20612 35.829L8.20514 35.8828L8.20416 35.9179L8.20514 36.0244L8.20709 36.1845L8.21002 36.3007L8.21979 36.5527L8.24323 37.0283L8.27252 37.622L8.28033 37.7949L8.28717 37.9609L8.29303 38.1191L8.29889 38.3183L8.30084 38.414L8.3028 38.5517L8.30377 38.6396L8.3028 38.7665V38.8476L8.30084 38.9267L8.29889 39.0029L8.29596 39.0771L8.29303 39.1484L8.28815 39.2177C8.28743 39.2289 8.28697 39.2399 8.28619 39.2509L8.28131 39.3173C8.28042 39.3281 8.27933 39.339 8.27838 39.3495L8.27252 39.412L8.26569 39.4726L8.25787 39.5312C8.25658 39.5407 8.25532 39.5501 8.25397 39.5595L8.24518 39.6152C8.2437 39.6242 8.24281 39.6336 8.24127 39.6425L8.23151 39.6962L8.22076 39.747L8.20905 39.7978L8.19733 39.8456L8.16998 39.9462L8.13776 40.0615L8.09967 40.1943L8.03229 40.4169L7.73639 41.3906L7.65436 41.662L7.59186 41.8749L7.53131 42.0849L7.48932 42.2363L7.44928 42.3808L7.41119 42.5204L7.38776 42.6103L7.35455 42.7402L7.3233 42.8652L7.30377 42.9443L7.28619 43.0214L7.2608 43.1318L7.24615 43.2031L7.23248 43.2704L7.21979 43.3359L7.20807 43.3984L7.19733 43.4589L7.18854 43.5165L7.18073 43.5712C7.17951 43.5801 7.17794 43.589 7.17682 43.5976L7.17096 43.6484C7.16911 43.6649 7.16752 43.6815 7.16608 43.6972L7.16217 43.7431C7.16166 43.7504 7.16063 43.7575 7.16022 43.7646L7.15826 43.8066C7.15785 43.82 7.15826 43.8331 7.15826 43.8456C7.15829 44.1364 7.20696 44.3745 7.32135 44.7099L7.36334 44.831L7.42389 44.998C7.56816 45.4002 7.6412 45.6622 7.68463 46.0038L7.69244 46.0742L7.70026 46.1464C7.7026 46.1706 7.70504 46.1951 7.70709 46.2197L7.71295 46.2939C7.71472 46.3189 7.71635 46.3447 7.71783 46.3701L7.72174 46.4462C7.72234 46.4591 7.72317 46.4724 7.72369 46.4853L7.72858 46.6806L7.72955 46.7597L7.7276 46.9199L7.72565 46.999C7.72528 47.0122 7.7251 47.0257 7.72467 47.039L7.72174 47.1191L7.71783 47.1982L7.71393 47.2763L7.70807 47.3554L7.70221 47.4326C7.70113 47.4454 7.70042 47.4588 7.69928 47.4716L7.69147 47.5478L7.68365 47.623C7.68228 47.6354 7.68119 47.6478 7.67975 47.6601L7.66998 47.7343L7.66022 47.8066L7.65045 47.8769L7.63873 47.9462L7.62701 48.0136C7.62498 48.0247 7.62325 48.0359 7.62115 48.0468L7.60748 48.1113C7.60307 48.1325 7.59845 48.1533 7.59381 48.1738L7.58014 48.2343C7.57771 48.2442 7.57481 48.2539 7.57233 48.2636L7.55768 48.3203C7.49801 48.5333 7.42403 48.6913 7.33795 48.7597C7.22458 48.8498 6.99277 48.8809 6.6983 48.8671L6.63385 48.8632C6.60162 48.8611 6.56872 48.8586 6.53522 48.8554L6.46686 48.8486L6.39655 48.8408L6.32526 48.831C6.31332 48.8293 6.30116 48.8269 6.28912 48.8251L6.21588 48.8144L6.14166 48.8017L6.06744 48.788C6.05492 48.7856 6.04195 48.7827 6.02936 48.7802C5.98854 48.7722 5.94784 48.7645 5.90826 48.7558L5.83014 48.7372L5.75397 48.7187C5.70364 48.706 5.65423 48.6934 5.60651 48.6796L5.53619 48.6581L5.46686 48.6367C5.10757 48.5171 4.84263 48.3605 4.7276 48.1679C4.63672 48.0157 4.64391 47.8528 4.7149 47.6347L4.7276 47.5947L4.73932 47.5644L4.76276 47.5029L4.95221 47.0312L4.96295 47.0058C5.0159 46.8659 5.06017 46.7328 5.09772 46.5966C5.17185 46.3276 5.22728 46 5.26569 45.621L5.27643 45.5117C5.2781 45.4932 5.27972 45.4747 5.28131 45.456L5.2901 45.3417C5.29298 45.3035 5.29533 45.2647 5.29791 45.2255L5.30573 45.1054L5.31158 44.9833L5.31744 44.8593C5.31915 44.8173 5.32091 44.7743 5.32233 44.7314L5.32623 44.6015C5.32679 44.5798 5.32672 44.558 5.32721 44.5361L5.33014 44.4023C5.33049 44.3798 5.33084 44.3566 5.33112 44.3339L5.33209 44.1972L5.33307 44.0566C5.33303 42.7896 5.13552 41.5449 4.7403 40.3222L4.70026 40.2011L4.68268 40.0449L4.66803 39.914L4.65533 39.7861L4.64362 39.6611L4.6319 39.54L4.62213 39.4208L4.61237 39.3056L4.60455 39.1923C4.60327 39.174 4.60186 39.1557 4.60065 39.1376L4.59381 39.0292C4.59276 39.0116 4.59185 38.9939 4.59088 38.9765L4.58502 38.872L4.58112 38.7714L4.57721 38.6738L4.57428 38.5331L4.5733 38.4433V38.3134L4.57428 38.2304C4.57459 38.217 4.57584 38.2036 4.57623 38.1904L4.57819 38.1122C4.5793 38.0867 4.58066 38.0616 4.58209 38.037L4.58698 37.9648L4.59869 37.8222L4.60944 37.6826L4.62213 37.5439L4.63483 37.4062C4.63705 37.3834 4.63938 37.3606 4.64166 37.3378L4.67096 37.0624L4.68756 36.9228L4.70416 36.7822L4.72174 36.6386L4.74127 36.4921L4.76178 36.3427L4.78229 36.1894L4.81744 35.9501L4.84186 35.7841L5.00006 34.748L5.04205 34.4658L5.07135 34.2607L5.09088 34.1152C5.12405 33.8655 5.15147 33.6341 5.17291 33.4101L5.19928 33.1152L5.25494 32.4882L5.3067 31.871L5.33209 31.5663L5.38873 30.8701L5.44147 30.1972L5.48248 29.6415L5.5274 29.0244L5.57233 28.3632L5.59772 27.9765L5.61627 27.6845L5.6485 27.1464L5.66217 26.9023L5.67584 26.624L5.68561 26.4218L5.69342 26.2402L5.69733 26.1181L5.70221 25.9726L5.70416 25.8505L5.70514 25.7978V25.7744C5.70514 25.6443 5.71784 25.4981 5.74225 25.3349L5.75494 25.2519C5.76913 25.1673 5.78664 25.078 5.8067 24.9843L5.82721 24.8896C5.83086 24.8735 5.83512 24.8571 5.83893 24.8408L5.86237 24.7402L5.88873 24.6376L5.91608 24.5302L5.94537 24.4208L5.9776 24.3076L6.0108 24.1904L6.04205 24.0839L6.07428 23.9736L6.12701 23.7988L6.40924 22.8974L6.43951 22.7978L6.46686 22.704L6.49127 22.6201L6.50494 22.5683L6.51764 22.5204L6.52936 22.4765L6.54303 22.4169L6.55084 22.3808L6.5567 22.3495L6.56158 22.3203L6.56744 22.2783L6.57233 22.2363L6.57623 22.1933L6.57916 22.1484L6.58014 22.1181L6.58112 22.0859L6.58209 22.0351V21.9794L6.58112 21.9189L6.57916 21.829L6.57623 21.7538L6.57135 21.6406L6.55377 21.291L6.54596 21.1347L6.54108 20.9911L6.53815 20.9003L6.53619 20.8144C6.53598 20.8004 6.53634 20.7861 6.53619 20.7724L6.53522 20.6904C6.53522 20.677 6.53514 20.6635 6.53522 20.6503L6.53619 20.5712L6.53815 20.4941L6.54108 20.4189C6.54274 20.3812 6.54452 20.3433 6.54694 20.3056L6.5528 20.2294L6.55865 20.1523C6.55981 20.1394 6.56132 20.1263 6.56256 20.1132C6.5924 19.8006 6.63789 19.6047 6.73639 19.3027L6.77155 19.1972C6.78023 19.1711 6.78794 19.1452 6.79596 19.1201L6.8194 19.0458L6.84088 18.9736C6.91543 18.7124 6.95325 18.4811 6.97076 18.1337L6.97467 18.0361C6.97531 18.0193 6.97606 18.0017 6.97662 17.9843C7.00138 17.2158 6.96167 16.6899 6.84479 16.0829L6.82037 15.9609C6.81189 15.9196 6.8032 15.8772 6.79401 15.8349L6.76569 15.706C6.75086 15.6409 6.73525 15.5741 6.71881 15.5058C6.61966 15.0937 6.4915 14.6452 6.33502 14.1601C6.29729 14.0431 6.36162 13.9176 6.47858 13.8798ZM14.4639 14.6533C14.5878 14.6533 14.6767 14.7133 14.7676 14.8759L14.7842 14.9081C14.79 14.9191 14.7961 14.9305 14.8018 14.9423L14.8194 14.9794L14.837 15.0185L14.8546 15.0605L14.8731 15.1054L14.9014 15.1777L14.9297 15.2568L14.9503 15.3134L14.9922 15.4355L15.0372 15.5703L15.1104 15.7978L15.1514 15.9257L15.1924 16.0585L15.2286 16.1796L15.2813 16.3574L15.3526 16.6025L15.3907 16.7382L15.4219 16.8564L15.4317 16.8984C15.4412 16.941 15.445 16.9954 15.4424 17.0624L15.4405 17.1035L15.4366 17.1494L15.4317 17.1972L15.4249 17.249L15.4171 17.3046L15.4083 17.3642L15.3975 17.4267L15.3858 17.4931L15.3653 17.6005C15.3418 17.721 15.2241 17.7995 15.1026 17.7763C14.9811 17.753 14.9015 17.637 14.9249 17.5165L14.9356 17.457L14.9551 17.3486L14.9708 17.2519L14.9805 17.1894L14.9854 17.1513L14.9913 17.1015L14.9932 17.0732L14.9952 17.0488L14.9962 17.0283V17.0117C14.996 17.0069 14.9956 17.0024 14.9952 16.999L14.9922 16.9863L14.9776 16.9296L14.9444 16.8046L14.8975 16.6396L14.8331 16.4199L14.7803 16.2451L14.7354 16.0995L14.6915 15.9599L14.6524 15.8378L14.6221 15.747L14.5928 15.6601L14.5645 15.5781L14.5372 15.5009L14.5098 15.4277C14.5054 15.4159 14.5015 15.4039 14.4971 15.3925L14.4717 15.3271L14.4551 15.287L14.4503 15.3036C14.4289 15.3818 14.4088 15.4758 14.3887 15.5849L14.3721 15.6806L14.3672 15.6943C14.3108 15.8761 14.2833 16.0507 14.2833 16.2177C14.2833 16.2271 14.2832 16.2375 14.2842 16.249L14.2872 16.2734L14.2921 16.3017L14.2979 16.332C14.299 16.3373 14.3006 16.343 14.3018 16.3486L14.3096 16.3847L14.3194 16.4228L14.3301 16.4648L14.3506 16.5341L14.3741 16.6122L14.4005 16.6982L14.543 17.1298L14.5655 17.2021L14.584 17.2626L14.5987 17.3134L14.6075 17.3476L14.6143 17.3788L14.6212 17.4081L14.6309 17.4648C14.6434 17.543 14.6453 17.6215 14.6387 17.707L14.6339 17.7548L14.6319 17.7792L14.6241 17.8388L14.6153 17.8994C14.5836 18.1156 14.5823 18.2158 14.6241 18.3525L14.629 18.3661L14.6407 18.3954L14.6573 18.4345L14.7042 18.5361L14.9219 18.999L14.9952 19.1572L15.0479 19.2724L15.0967 19.3808L15.126 19.4492C15.1447 19.493 15.1609 19.5341 15.1749 19.5703C15.2418 19.744 15.3037 19.9254 15.3604 20.1191C15.6033 20.9484 15.7427 21.6445 15.8663 22.5497L15.9415 23.1015L15.9551 23.2089L15.963 23.2734L15.9698 23.3349L15.9786 23.4218C15.9809 23.4458 15.9834 23.4702 15.9854 23.4941L15.9913 23.5654L15.9962 23.6376L16.002 23.7841L16.0049 23.8984V23.9765L16.004 24.0576L16.003 24.1415L16.0001 24.2285L15.9962 24.3193L15.9913 24.414L15.9854 24.5136C15.9844 24.5303 15.9836 24.5473 15.9825 24.5644L15.9708 24.7265C15.9488 25.0216 15.9179 25.2797 15.8731 25.5497L15.8565 25.6484L15.8155 25.8554L15.5909 26.9706L15.5245 27.3076L15.4659 27.6142L15.4337 27.791L15.4044 27.955L15.376 28.1074L15.3575 28.2031L15.3399 28.2949L15.3047 28.4667L15.2794 28.5869L15.2569 28.6894L15.2335 28.7919L15.1622 29.0927L15.1475 29.1572L15.127 29.249L15.1046 29.3544L15.0831 29.4677L15.0567 29.6152L15.0342 29.7499L15.0069 29.9286L14.9776 30.1298L14.9405 30.3954L14.8946 30.749L14.8663 30.9726L14.8555 31.0615L14.8458 31.1513L14.8321 31.291L14.8194 31.4394L14.8077 31.6005L14.795 31.7792L14.7784 32.0693L14.7344 32.8828L14.7159 33.1708L14.7012 33.372L14.6915 33.4872L14.6778 33.6464L14.6641 33.7949L14.6397 34.04L14.6104 34.3124L14.5704 34.666L14.5176 35.1171L14.4493 35.6835L14.4327 35.8173L14.4307 35.83C14.3545 36.2455 14.3049 36.6422 14.2823 37.0185C14.2748 37.1428 14.2751 37.2484 14.2813 37.3749L14.2852 37.4462L14.2901 37.5234L14.3096 37.7714L14.3145 37.8378L14.3165 37.8935L14.3184 37.9443V37.997C14.3177 38.1081 14.3078 38.212 14.2872 38.3163L14.2735 38.3788L13.9073 39.9355L13.4385 41.9091L13.4356 41.9199L13.379 42.1152L13.3272 42.2988L13.2901 42.4286L13.2569 42.5527L13.2247 42.6699L13.1866 42.8163L13.1524 42.9511L13.1299 43.0449L13.1094 43.1318L13.0919 43.2128L13.0762 43.287L13.0674 43.3329L13.0567 43.3964L13.0499 43.4345L13.045 43.4697L13.0313 43.5771L12.9962 43.831L12.9893 43.8984C12.9694 44.1137 12.9895 44.2888 13.0753 44.5165L13.1133 44.6161L13.1339 44.6699L13.1456 44.704L13.1563 44.7392L13.1671 44.7753L13.1778 44.8154L13.1905 44.8603L13.2315 45.0214L13.2393 45.0488L13.254 45.0956L13.2657 45.1269C13.2761 45.153 13.2887 45.1795 13.3028 45.207L13.3204 45.2411C13.3299 45.2581 13.3404 45.2759 13.3516 45.2939L13.3751 45.331L13.4024 45.3701C13.4117 45.3833 13.4215 45.3971 13.4317 45.4111L13.4815 45.4775L13.5196 45.5253L13.5606 45.5761L13.6065 45.6298C13.6143 45.639 13.6219 45.6486 13.6299 45.6581C13.8296 45.8929 14.0228 46.0555 14.2217 46.1747L14.2471 46.1894L14.293 46.2148L14.3467 46.2421L14.461 46.2988L14.6075 46.372L14.6221 46.3788C14.6238 46.3798 14.625 46.3811 14.626 46.3818C14.6496 46.3959 14.671 46.4106 14.6905 46.4267L14.712 46.4453L14.7188 46.4501L14.7305 46.457L14.7579 46.4716L14.7764 46.4814C15.0363 46.6134 15.1398 46.7938 15.0137 47.1122L14.9952 47.1572L14.9883 47.1767L14.9825 47.1953C14.9806 47.2015 14.9784 47.2079 14.9766 47.2148L14.9717 47.2382L14.963 47.2812L14.9551 47.3193C14.9124 47.551 14.7967 47.6557 14.4903 47.7245L14.4405 47.7353L14.3858 47.746L14.3262 47.7568L14.2598 47.7675L14.1866 47.7792C13.5139 47.8811 13.0891 47.8061 12.587 47.5712C12.4086 47.4878 12.328 47.382 12.2579 47.1972L12.2325 47.1279C12.2298 47.1209 12.2273 47.114 12.2247 47.1074L12.2081 47.0683C12.1447 46.9209 12.0786 46.8538 11.8936 46.748C11.6296 46.597 11.4261 46.5585 11.1016 46.5585H10.9542L10.919 46.5576L10.8878 46.5556C10.8198 46.5508 10.7797 46.5385 10.7315 46.5107L10.709 46.498L10.6846 46.4892L10.6807 46.4882C10.4399 46.4054 10.3437 46.2379 10.3555 45.8437L10.3575 45.788L10.3614 45.7304L10.3663 45.6689C10.3672 45.6586 10.3682 45.6482 10.3692 45.6376C10.3998 45.3198 10.4603 45.1205 10.5958 44.8163L10.6485 44.6992L10.6788 44.6308C10.7438 44.4801 10.7775 44.3778 10.8028 44.246L10.8077 44.2167C10.8238 44.126 10.8405 44.0536 10.8594 43.9892C10.8643 43.9728 10.8698 43.9574 10.8751 43.9413L10.9005 43.8661L10.9053 43.8476L10.9102 43.8281L10.9151 43.8076L10.919 43.7831C10.9196 43.7791 10.9204 43.7748 10.921 43.7704L10.9239 43.7421L10.9268 43.7109L10.9288 43.6767L10.9317 43.6161V43.5703L10.9327 43.5185V43.4423L10.9307 43.3544L10.9268 43.2011L10.921 43.0165L10.9092 42.7197L10.9024 42.5624L10.8956 42.4208C10.8944 42.3979 10.8939 42.3749 10.8926 42.3525L10.8848 42.2206L10.876 42.0937L10.8672 41.9716L10.8575 41.8515C10.8558 41.832 10.8534 41.8123 10.8516 41.7929L10.8409 41.6767C10.8389 41.6575 10.837 41.6382 10.835 41.6191L10.8223 41.5038C10.8201 41.4847 10.8178 41.4654 10.8155 41.4462L10.8008 41.329C10.7984 41.3094 10.7956 41.2893 10.793 41.2695L10.7774 41.1494L10.7276 40.7968C10.7207 40.7486 10.7142 40.7021 10.7081 40.6572L10.6905 40.5263C10.6822 40.4627 10.674 40.4014 10.6671 40.3417L10.6544 40.2236C10.6461 40.1457 10.6384 40.0686 10.6319 39.9902L10.6231 39.8701C10.6187 39.8093 10.6142 39.7469 10.6104 39.6816L10.6036 39.5507L10.5889 39.3144L10.5411 38.6357L10.5372 38.5595L10.5333 38.4697L10.5313 38.3788L10.5303 38.2851V38.2128L10.5323 38.1367L10.5342 38.0576L10.5381 37.9453L10.543 37.8554L10.5479 37.7597L10.5518 37.6923L10.5645 37.5117L10.5801 37.3095L10.6036 37.0351L10.6075 36.9853C10.6983 35.9411 10.8507 35.0648 11.0665 34.3554C11.1022 34.238 11.2273 34.1718 11.3458 34.207C11.4642 34.2424 11.5317 34.3659 11.4962 34.4833C11.2963 35.1405 11.1517 35.9582 11.0626 36.9345L11.0421 37.1699L11.0264 37.3505L11.0118 37.5517L10.9991 37.7314L10.9932 37.83L10.9874 37.9511L10.9835 38.0361L10.9815 38.1161L10.9796 38.1913L10.9786 38.2636V38.3076C10.9789 38.3674 10.9804 38.425 10.9825 38.4814L10.9864 38.5683L11.0411 39.3642L11.0479 39.4619L11.0587 39.6562L11.0655 39.7783C11.0668 39.7982 11.069 39.8183 11.0704 39.8378L11.0792 39.9531C11.0886 40.0666 11.0998 40.1764 11.1133 40.2919L11.127 40.4101C11.1295 40.4302 11.1321 40.451 11.1348 40.4716L11.1524 40.5986C11.1554 40.6203 11.158 40.6425 11.1612 40.665L11.2042 40.9628L11.2208 41.0859L11.2374 41.205L11.252 41.3222L11.2657 41.4365L11.2784 41.5517C11.2804 41.5706 11.2823 41.5894 11.2842 41.6083L11.296 41.7236C11.2978 41.7427 11.2991 41.7619 11.3008 41.7812L11.3106 41.8984L11.3204 42.0185L11.3292 42.1425C11.3305 42.1634 11.3318 42.1847 11.3331 42.206L11.3409 42.3369C11.3421 42.3591 11.3426 42.3815 11.3438 42.4042L11.3506 42.5439L11.3643 42.872L11.3731 43.124L11.378 43.3046L11.3799 43.3847L11.3809 43.4804V43.5224L11.3799 43.5839L11.379 43.6386L11.377 43.6894L11.3741 43.7363L11.3712 43.7783L11.3663 43.8173C11.3648 43.8298 11.3631 43.8419 11.3614 43.8535L11.3565 43.8867C11.3536 43.9026 11.3502 43.9179 11.3467 43.9326L11.3389 43.9619C11.3377 43.9665 11.3363 43.971 11.335 43.9755L11.3223 44.0156L11.3018 44.0781C11.2978 44.0903 11.2936 44.1021 11.2901 44.1142C11.2866 44.1261 11.2827 44.1383 11.2794 44.1513L11.2696 44.1943C11.268 44.2015 11.2663 44.2091 11.2647 44.2167L11.2549 44.2665L11.2501 44.2939C11.2175 44.4773 11.1752 44.6104 11.0948 44.7978L11.0596 44.8759L11.0255 44.9521C10.8936 45.2425 10.8421 45.4032 10.8155 45.6796L10.8106 45.7382L10.8067 45.791L10.8038 45.8398L10.8028 45.8847C10.8023 45.9127 10.8029 45.9377 10.8038 45.9599L10.8047 45.9911C10.8066 46.0155 10.8099 46.0359 10.8135 46.0517L10.8165 46.0634L10.8389 46.0712C10.8686 46.0815 10.8928 46.0915 10.9161 46.1035L10.9317 46.1113L10.9512 46.1132L10.9815 46.1142H11.0606C11.4801 46.1107 11.7594 46.1576 12.1172 46.3622C12.4383 46.5459 12.5498 46.6976 12.6602 46.9941L12.6778 47.04L12.6895 47.0712C12.7139 47.1301 12.732 47.1472 12.7784 47.1689C13.2038 47.3679 13.5399 47.4276 14.1192 47.3398L14.209 47.3251L14.2862 47.3124L14.3321 47.3036L14.3721 47.2949L14.3917 47.291C14.4045 47.2881 14.4167 47.285 14.4278 47.2822L14.459 47.2744C14.4637 47.273 14.4684 47.2718 14.4727 47.2704L14.4962 47.2626L14.5108 47.2568L14.5235 47.1913C14.5278 47.1687 14.5321 47.1479 14.5372 47.1269C14.5477 47.0834 14.5604 47.0407 14.5772 46.997L14.5909 46.9638C14.5992 46.9441 14.6054 46.9269 14.6094 46.913L14.6133 46.8984L14.5938 46.8876L14.5655 46.874C14.4888 46.835 14.4492 46.8102 14.4024 46.7665L14.3936 46.7617L14.2491 46.6913L14.1866 46.6611L14.1251 46.6298L14.0753 46.6035L14.0294 46.5781C14.015 46.57 14.0015 46.5619 13.9893 46.5546C13.7489 46.4106 13.5186 46.2174 13.2872 45.9453L13.2335 45.8808C13.2074 45.8494 13.1824 45.8191 13.1592 45.79L13.1153 45.7333L13.0743 45.6786C12.9375 45.4931 12.8636 45.3499 12.8155 45.1953L12.8087 45.1728C12.8053 45.1614 12.8021 45.1496 12.7989 45.1376L12.7833 45.0781L12.7637 45.0009L12.7491 44.9462L12.7364 44.9003L12.7247 44.8593C12.7227 44.853 12.7199 44.847 12.7178 44.8408L12.7051 44.8027L12.6905 44.7626L12.6729 44.7177C12.5538 44.4183 12.5185 44.1759 12.5391 43.8984L12.5469 43.8124L12.5567 43.7324L12.5928 43.4745L12.6026 43.3954L12.6094 43.3544L12.6163 43.3105L12.6241 43.2646L12.6339 43.2148L12.6505 43.1367L12.669 43.0507L12.6895 42.9589L12.7051 42.8945L12.7393 42.7568L12.7676 42.6464L12.8096 42.4892L12.8555 42.3203L12.9063 42.1396L12.961 41.9482L13.003 41.8027L13.8399 38.2636C13.8569 38.1892 13.8665 38.1153 13.8692 38.0351L13.8702 37.9941L13.8682 37.9062L13.8663 37.8691L13.8633 37.8124L13.8458 37.5947L13.8389 37.5019C13.8379 37.4873 13.8369 37.473 13.836 37.4589L13.8321 37.3769C13.8261 37.2439 13.8269 37.128 13.835 36.9921C13.8569 36.6279 13.9025 36.247 13.9717 35.8505L13.9883 35.7568L14.043 35.3095L14.0928 34.8925L14.1251 34.6181L14.1592 34.3144L14.1885 34.039L14.2061 33.871L14.2276 33.6425L14.2403 33.5058L14.2491 33.3945L14.2637 33.205L14.2813 32.9404L14.3106 32.4208L14.3331 32.0058L14.3448 31.7997L14.3594 31.5829L14.3731 31.3906L14.3858 31.2441L14.3975 31.1328L14.4024 31.0771L14.4161 30.9589L14.4434 30.7402L14.4913 30.3749L14.5235 30.1357L14.5538 29.9228L14.5733 29.7929L14.588 29.7021L14.6114 29.5615L14.6339 29.4316L14.6524 29.3349L14.67 29.2431L14.6885 29.1552L14.709 29.0595L14.796 28.6913L14.8184 28.5927L14.8409 28.4931L14.8663 28.3759L14.8829 28.2939L14.9005 28.2079L14.9268 28.0722L14.963 27.8749L15.0157 27.5869L15.0411 27.4472L15.1114 27.0849L15.1475 26.9013L15.4073 25.6093L15.418 25.5546C15.4679 25.2686 15.5005 25.0032 15.5235 24.6933L15.5352 24.539L15.5411 24.4413L15.546 24.3495L15.5499 24.2617C15.5505 24.2473 15.5513 24.2327 15.5518 24.2187L15.5538 24.1367L15.5557 24.0576L15.5567 23.9814C15.5567 23.9689 15.5567 23.9565 15.5567 23.9443L15.5557 23.872L15.5538 23.8017L15.5518 23.7324L15.544 23.5976L15.5391 23.5312C15.5382 23.5201 15.5372 23.509 15.5362 23.498L15.5303 23.4374L15.5206 23.3535L15.5137 23.2939L15.501 23.1953L15.4346 22.706C15.3105 21.773 15.1743 21.0781 14.9297 20.2431C14.8764 20.0611 14.8185 19.891 14.7559 19.7285L14.7403 19.6874L14.7208 19.6425L14.6895 19.5683L14.6534 19.4872L14.5997 19.3701L14.5137 19.1845L14.3174 18.7665L14.2823 18.6904L14.2432 18.6015L14.2198 18.5468L14.2071 18.5165L14.1983 18.4921C14.1971 18.4887 14.1963 18.4853 14.1954 18.4824C14.1354 18.2865 14.131 18.1399 14.1612 17.9072L14.171 17.8349L14.1846 17.7411L14.1895 17.7011L14.1915 17.6728C14.1949 17.6285 14.1944 17.5907 14.1905 17.5556L14.1885 17.5341L14.1827 17.5038L14.1758 17.4716L14.1631 17.4238L14.1544 17.3906L14.1378 17.3369L14.1055 17.2353L13.9815 16.8574L13.96 16.79L13.9307 16.6962L13.9131 16.6386L13.8985 16.5839L13.8848 16.5331L13.8721 16.4853L13.8624 16.4404L13.8536 16.3984C13.8407 16.3301 13.8351 16.2715 13.835 16.2177C13.835 16.0216 13.864 15.8202 13.9229 15.6152L13.9346 15.5781L13.9444 15.5224L13.9561 15.455L13.9688 15.3906L13.9825 15.3281L13.9952 15.2685L14.0089 15.2128L14.0235 15.1591C14.1152 14.8279 14.2375 14.6623 14.4473 14.6542L14.4639 14.6533ZM10.4258 2.039C10.734 0.636603 11.618 -0.010234 13.0089 0.155212C13.9392 0.265917 14.5233 0.832741 14.8174 1.68646C14.9141 1.96717 14.974 2.26458 15.0049 2.5683C15.0238 2.75351 15.0308 2.90558 15.0303 3.06342L15.0294 3.15326L15.0284 3.16986L15.0264 3.18646L15.0225 3.21478L15.0196 3.23529L15.0147 3.25677L15.0069 3.29193L14.9962 3.33002L14.9835 3.37299L14.962 3.43549L14.9376 3.5058L14.9083 3.58588L14.8643 3.69818L14.8135 3.82611L14.7276 4.03607L14.3311 4.98431L14.2842 5.09857L14.2462 5.19525C14.2386 5.21468 14.2318 5.23486 14.2237 5.25482L14.1973 5.31537L14.17 5.3808L14.1143 5.50385L14.0215 5.70502C13.7487 6.30503 13.6507 6.70417 13.7081 7.25677L13.7159 7.32611L13.7237 7.39056L13.7315 7.45111L13.7393 7.50775L13.7471 7.56049L13.7559 7.61029L13.7647 7.65717C13.7662 7.66446 13.768 7.67159 13.7696 7.67865L13.7794 7.72064L13.7901 7.7597C13.8314 7.90383 13.8872 7.99064 13.9717 8.06927L13.9942 8.08978C13.998 8.09307 14.002 8.09628 14.0059 8.09955L14.0294 8.1181L14.1592 8.21381L14.3155 8.32709L14.4532 8.42865L14.5196 8.47943L14.6026 8.54486L14.6534 8.58392L14.7012 8.62006L14.7325 8.64252L14.7628 8.664L14.8087 8.69525L14.8399 8.71576L14.9229 8.76556L14.9776 8.79681L15.0372 8.82904L15.1026 8.8642L15.1758 8.90228L15.3506 8.9892L15.4542 9.04095C15.7083 9.16698 15.8684 9.26397 16.0303 9.40521L16.1085 9.47455L16.3829 9.71185L16.4141 9.7392C16.6969 9.99794 16.84 10.2495 16.9366 10.7128L16.9503 10.7783C16.9524 10.7892 16.9541 10.8006 16.9561 10.8115L16.9678 10.8759L16.9786 10.9404L16.9874 11.0038L16.9952 11.0673C17.0162 11.2465 17.0235 11.4245 17.0157 11.6201L17.0098 11.7255L17.0049 11.7978C17.004 11.81 17.0031 11.8225 17.002 11.8349L16.9952 11.9101L16.9864 11.9882L16.9766 12.0683L16.9659 12.1503C16.964 12.1643 16.963 12.1791 16.961 12.1933L16.9483 12.2802L16.9346 12.3701L16.919 12.4628L16.8946 12.6093L16.876 12.7119L16.8565 12.8173L16.8253 12.9843C16.7127 13.5723 16.7091 14.0377 16.8087 14.3769L16.8214 14.4179L17.3653 16.8593L17.3995 17.0439L17.421 17.162L17.4405 17.2773L17.46 17.3876L17.4854 17.5478L17.502 17.6494L17.5167 17.747L17.5303 17.8417L17.5421 17.9326L17.5587 18.0615L17.5674 18.1435L17.5782 18.246L17.588 18.3476L17.5967 18.457L17.6085 18.6171L17.6133 18.7021L17.627 18.9316L17.6378 19.1318L17.6495 19.4042L17.6592 19.6396L17.6612 19.7001V22.081L17.6524 22.2578L17.6456 22.4267L17.6417 22.5351L17.6378 22.6923L17.6348 22.8408L17.6329 22.9824V23.1591L17.6339 23.2421L17.6348 23.3222L17.6368 23.3984L17.6397 23.4706L17.6436 23.54L17.6475 23.6064L17.6514 23.6689C17.6531 23.6892 17.6555 23.7093 17.6573 23.7285L17.6602 23.7568C17.6624 23.7776 17.6639 23.7977 17.6661 23.8163L17.6729 23.8691C17.6924 24.0126 17.716 24.0932 17.7579 24.1816L17.7735 24.2138L17.8223 24.3085L17.8438 24.3535C17.8675 24.4062 17.8884 24.4619 17.9073 24.5244L17.9288 24.5995C17.9404 24.638 17.9523 24.6722 17.9659 24.707L17.9864 24.7568L18.0342 24.8671C18.0953 25.0181 18.1162 25.1563 18.1046 25.3886C18.093 25.6183 18.054 25.758 17.9698 25.9257L17.9102 26.039C17.9084 26.0425 17.907 26.0463 17.9053 26.0497C17.8781 26.1041 17.858 26.1527 17.8399 26.2099C17.8243 26.2593 17.8108 26.307 17.7979 26.3564L17.7833 26.415L17.7462 26.5742C17.7139 26.7097 17.6839 26.7963 17.6319 26.8886C17.5036 27.1156 17.2397 27.2862 16.8546 27.4042C16.5048 27.5113 16.1868 27.4952 15.9864 27.3876C15.8446 27.3114 15.7682 27.1428 15.7071 26.8544L15.6944 26.791C15.6923 26.7801 15.6896 26.7689 15.6876 26.7578C15.6652 26.6369 15.746 26.5203 15.8672 26.498C15.9884 26.4758 16.1045 26.556 16.127 26.6767L16.1329 26.7079L16.1456 26.7656C16.1476 26.7748 16.1494 26.7841 16.1514 26.7929L16.1631 26.8437C16.1754 26.8914 16.1878 26.9318 16.2003 26.9638C16.2035 26.9721 16.2071 26.9797 16.21 26.9863L16.2188 27.0048C16.2483 27.0159 16.2904 27.025 16.3409 27.0292L16.3624 27.0302C16.4663 27.0356 16.5884 27.0199 16.7237 26.9785C17.0098 26.8908 17.181 26.7802 17.2432 26.6699C17.2613 26.6377 17.275 26.6035 17.2891 26.5556L17.2999 26.5175C17.3017 26.5105 17.3029 26.5026 17.3047 26.4951L17.3506 26.3007C17.3696 26.2232 17.3901 26.1511 17.4141 26.0751C17.4398 25.9942 17.4689 25.9245 17.5059 25.8505L17.5587 25.749C17.6249 25.6221 17.6495 25.5409 17.6583 25.3661C17.6592 25.3472 17.6598 25.3291 17.6602 25.3124V25.2656C17.6599 25.1695 17.649 25.1108 17.6251 25.0478L17.6163 25.0263L17.5684 24.913C17.543 24.8521 17.5213 24.7942 17.501 24.7275L17.4942 24.705L17.4874 24.6806C17.4742 24.6334 17.4606 24.5941 17.4454 24.5576L17.4278 24.5185L17.4171 24.496L17.3858 24.4355C17.2907 24.2535 17.2468 24.1091 17.2149 23.8027L17.209 23.7392C17.2081 23.7283 17.207 23.7171 17.2061 23.706L17.2012 23.6376L17.1973 23.5654C17.1967 23.553 17.196 23.5399 17.1954 23.5273L17.1915 23.4501L17.1895 23.3691C17.1891 23.3553 17.1889 23.3411 17.1885 23.3271L17.1866 23.2411L17.1856 23.1513V23.0585L17.1866 22.912L17.1876 22.8095L17.1905 22.704L17.1944 22.539L17.1983 22.4238L17.2032 22.3056L17.211 22.122L17.2139 22.0644V19.7089L17.2051 19.4755L17.1964 19.2578L17.1866 19.0536L17.1758 18.8652L17.1651 18.6913L17.1573 18.5712L17.1456 18.4228L17.1368 18.3222L17.127 18.2294L17.1182 18.1494L17.1085 18.0654L17.0977 17.9775L17.085 17.8847L17.0714 17.789L17.0557 17.6894L17.0391 17.5859L17.0215 17.4775L16.9932 17.3095L16.9727 17.1923L16.9503 17.0712L16.9278 16.9492L16.3897 14.5341L16.3809 14.5068C16.2609 14.1019 16.261 13.5865 16.3751 12.9599L16.4161 12.7421L16.4434 12.5927L16.46 12.498L16.4825 12.3622L16.4962 12.2753L16.5089 12.1923L16.5206 12.1122L16.5352 11.998C16.5367 11.9856 16.5387 11.9731 16.5401 11.9609L16.5479 11.8886L16.5547 11.8193L16.5596 11.7509C16.5605 11.7399 16.5618 11.7286 16.5626 11.7177L16.5665 11.6533L16.5694 11.5898L16.5704 11.5283C16.5706 11.5181 16.5713 11.5071 16.5714 11.497V11.4374C16.5705 11.3482 16.5659 11.262 16.5577 11.1767L16.5518 11.1201L16.5362 11.0068L16.5274 10.9492L16.5167 10.8915L16.5049 10.8329C16.503 10.8231 16.5012 10.8126 16.4991 10.8027C16.4216 10.4311 16.3253 10.263 16.1114 10.0673L16.043 10.0078L15.794 9.79193L15.7579 9.7597C15.6299 9.64433 15.5038 9.56509 15.2911 9.45795L15.0479 9.33685L14.9073 9.26459L14.8116 9.21381L14.7462 9.17865L14.7061 9.15619L14.668 9.13373L14.6133 9.10052L14.5792 9.07806L14.544 9.0556L14.5098 9.03217L14.4756 9.00775L14.4415 8.98236L14.3878 8.94232L14.3301 8.89838L14.2413 8.82806L14.1544 8.76263L13.9854 8.63861L13.7833 8.49115L13.7422 8.4599L13.7364 8.45502C13.499 8.26236 13.3831 8.05837 13.3116 7.65521L13.3008 7.59174C13.2991 7.58095 13.2976 7.56959 13.296 7.55853L13.2862 7.49017C13.2846 7.47859 13.2828 7.46689 13.2813 7.45502L13.2725 7.3808L13.2637 7.30267C13.1985 6.67451 13.3057 6.21284 13.5899 5.57611L13.7305 5.26849L13.7598 5.20306L13.7852 5.14349C13.7893 5.13392 13.7931 5.12442 13.7969 5.11517L13.8194 5.06146L13.8848 4.89545L13.9893 4.64154L14.2237 4.08295L14.3419 3.79681L14.4278 3.5849L14.4952 3.41302L14.5274 3.32611L14.543 3.28119L14.5567 3.2431L14.5704 3.20111L14.5772 3.1767L14.5801 3.16302L14.5821 3.15326C14.5823 3.15176 14.582 3.14965 14.5821 3.14838L14.5831 3.10638C14.5847 2.94624 14.5794 2.79792 14.5606 2.61322C14.5329 2.34131 14.4801 2.07653 14.3956 1.83099C14.1528 1.12657 13.6979 0.685959 12.9561 0.597595C11.7967 0.45968 11.1219 0.952733 10.8624 2.13373C10.836 2.25387 10.7163 2.32996 10.5958 2.30365C10.4755 2.27725 10.3997 2.15895 10.4258 2.039ZM10.6348 2.94525C10.7569 2.96305 10.8418 3.07579 10.8243 3.1972C10.7854 3.46223 10.7849 3.71683 10.8233 3.96088C10.8471 4.11201 10.8783 4.21795 10.92 4.31049L10.9376 4.34662L11.001 4.46967L11.0137 4.49603C11.0263 4.52256 11.0373 4.54786 11.0469 4.57416C11.0786 4.66067 11.1042 4.82934 11.1212 5.03217L11.127 5.10931C11.1279 5.12249 11.1291 5.13596 11.1299 5.14935L11.1348 5.23041L11.1378 5.31439C11.1383 5.3283 11.1393 5.34238 11.1397 5.35638L11.1417 5.44135L11.1426 5.52728V5.65521C11.1382 5.99459 11.1065 6.31252 11.0362 6.45013C10.9726 6.57438 10.8256 6.69408 10.5899 6.81635L10.5381 6.84271L10.4835 6.86908C10.4555 6.88223 10.4265 6.89587 10.3965 6.90912L10.335 6.93549L10.2706 6.96185L10.2032 6.9892L10.1339 7.01654C10.122 7.02106 10.1098 7.02567 10.0977 7.03021L10.0235 7.05756L9.94635 7.0849L9.86627 7.11322L9.78326 7.14154L9.69733 7.16986L9.60846 7.19818L9.51666 7.22748L9.42194 7.25677L9.32428 7.28705L9.24323 7.31146L9.21198 7.32709C8.90607 7.47497 8.54598 7.59187 8.13287 7.67865L8.06354 7.69232C7.89413 7.72604 7.77099 7.73347 7.59674 7.72455L7.51862 7.71967L7.39752 7.71088C7.38305 7.70993 7.36868 7.70948 7.35455 7.70892L7.31256 7.70795C7.06944 7.70555 6.86405 7.76982 6.51666 7.99213L6.45514 8.03217L6.39166 8.07513C6.38076 8.08254 6.36963 8.08992 6.35846 8.0976C5.76534 8.5053 5.44432 9.30839 5.41315 10.5273L5.41119 10.6396L5.32526 10.7949L5.26862 10.8994L5.21295 11.0029L5.13385 11.1523L5.08405 11.249L5.03619 11.3437L4.98932 11.4355L4.94537 11.5253L4.90338 11.6122C4.8965 11.6266 4.88959 11.6411 4.88287 11.6552L4.84381 11.7392L4.8067 11.8203L4.77057 11.8994C4.76487 11.9123 4.7595 11.9257 4.75397 11.9384L4.72174 12.0136C4.71131 12.0383 4.70124 12.063 4.69147 12.0869L4.66315 12.1572L4.63678 12.2255L4.61237 12.291L4.5899 12.3544C4.58633 12.3648 4.58258 12.3755 4.57916 12.3857L4.55963 12.4453C4.55041 12.4745 4.54198 12.5028 4.53424 12.5302C4.42899 12.9028 4.37356 13.4175 4.37018 14.0712V14.1992L4.37115 14.3144L4.32233 14.4218L4.26764 14.5429L4.2149 14.6611C4.20638 14.6806 4.19784 14.7004 4.18951 14.7197L4.14069 14.8339C4.12489 14.8714 4.10978 14.9087 4.09479 14.9453L4.05084 15.0536L4.00885 15.1591C3.87495 15.5053 3.7816 15.8028 3.72858 16.0507C3.7221 16.081 3.71613 16.1127 3.71002 16.1454L3.6983 16.2119C3.69635 16.2233 3.69436 16.2353 3.69244 16.247L3.68073 16.3193C3.67892 16.3314 3.67761 16.344 3.67584 16.3564L3.6651 16.4326L3.65533 16.5126L3.64557 16.5956L3.63678 16.6816L3.62799 16.7714L3.62018 16.8642L3.61237 16.9599L3.60553 17.0595L3.59869 17.162L3.59283 17.2675L3.58795 17.3759L3.58014 17.5449L3.57428 17.7216L3.57135 17.8427L3.56647 18.0234L3.59869 18.9042L3.62213 19.5917L3.63385 20.0312L3.63873 20.2695L3.63971 20.3515V20.4062L3.63873 20.4492L3.6358 20.5195L3.62994 20.6259L3.62311 20.7148L3.6153 20.8124L3.60358 20.955L3.59186 21.0722L3.57526 21.2411L3.56549 21.331L3.54694 21.5263L3.53033 21.7138L3.51471 21.8954L3.49615 22.1269L3.48834 22.2382L3.47662 22.3994L3.46783 22.5536L3.46198 22.6523L3.45709 22.748L3.45221 22.8867L3.44733 23.0175L3.44537 23.1015L3.4444 23.1816L3.44342 23.2597L3.4444 23.3339V23.4052L3.44635 23.4745C3.44665 23.4854 3.44697 23.4962 3.44733 23.5068L3.45026 23.5712C3.45242 23.6181 3.4535 23.6633 3.45514 23.7089L3.46393 23.9931L3.46783 24.0771L3.46979 24.1113L3.47369 24.1552L3.4776 24.1943L3.48151 24.2177L3.48541 24.2392L3.4903 24.2597L3.4942 24.2802L3.50006 24.3007L3.50983 24.3339L3.52252 24.371L3.53229 24.3974L3.55475 24.4579L3.57623 24.5087L3.60944 24.5888L3.66217 24.7089L3.71393 24.8242L3.74518 24.8925C3.8619 25.1427 3.94664 25.2689 4.07916 25.3994L4.11432 25.4335L4.15338 25.4687L4.1944 25.5048L4.25299 25.5556L4.28424 25.5839C4.28912 25.5883 4.29424 25.5923 4.29889 25.5966L4.32623 25.622C4.33075 25.6264 4.33533 25.6312 4.3399 25.6357C4.37495 25.6703 4.40703 25.7064 4.43854 25.7451C4.48332 25.8 4.52238 25.8528 4.56061 25.9101L4.59772 25.9667L4.67584 26.0917L4.68073 26.0986C4.71767 26.1534 4.7387 26.1728 4.77936 26.1874L4.79108 26.1913C4.90872 26.2285 4.97376 26.3536 4.93658 26.4706C4.89931 26.5879 4.77321 26.6532 4.65533 26.6161C4.50861 26.57 4.41245 26.4929 4.32428 26.3691L4.30377 26.3388L4.27545 26.2949L4.21198 26.1923C4.17263 26.1308 4.13505 26.0795 4.09088 26.0253C4.06977 25.9994 4.04848 25.9748 4.02448 25.9511L4.00397 25.9316L3.98151 25.9111L3.95514 25.8886L3.92389 25.8613C3.87253 25.8174 3.82618 25.7755 3.78326 25.7343L3.74127 25.6933C3.57853 25.5283 3.46622 25.3569 3.3233 25.0458L3.2901 24.9726L3.23639 24.8515L3.20123 24.7714L3.16119 24.6777L3.13678 24.6171L3.1153 24.5615L3.09674 24.5117L3.08698 24.4804L3.07721 24.4501L3.06158 24.3935L3.05475 24.3661L3.04889 24.3378L3.04303 24.3105L3.03815 24.2763C3.03728 24.2709 3.03602 24.2651 3.03522 24.2597L3.03033 24.2265L3.02643 24.1913L3.0235 24.1533L3.02057 24.1113L3.01862 24.0654L3.01569 23.9843L3.0108 23.7929L3.00592 23.6591L3.00104 23.5585L2.99908 23.4892L2.99713 23.4179L2.99615 23.3437V23.2656L2.99713 23.1435L2.99908 23.0585L3.00201 22.9247L3.00592 22.8329L3.00983 22.7372L3.01471 22.6386L3.0235 22.4843L3.02936 22.3779L3.03717 22.2695L3.04498 22.1572L3.05768 21.9824L3.0733 21.8017L3.0899 21.6142L3.10748 21.4199L3.12018 21.2861L3.13385 21.1562L3.14948 20.9951L3.16315 20.8495L3.17389 20.7187L3.18268 20.6035L3.18854 20.5029L3.19049 20.4579L3.19244 20.3867V20.3232L3.18951 20.1816L3.1817 19.8486L3.16705 19.3788L3.1192 18.0331V18.0214L3.12311 17.8281L3.12701 17.7021L3.13092 17.581L3.1358 17.4619L3.14069 17.3466L3.14655 17.2343L3.1524 17.1249L3.15924 17.0185L3.16705 16.916L3.17487 16.8163L3.18365 16.7197C3.18509 16.7039 3.18608 16.6883 3.18756 16.6728L3.19733 16.581L3.20709 16.4921C3.20877 16.4776 3.21025 16.4625 3.21198 16.4482L3.22272 16.3642C3.2245 16.3507 3.22578 16.3374 3.2276 16.3242L3.23932 16.2441L3.25104 16.1679C3.25308 16.1555 3.25579 16.1429 3.25787 16.1308L3.27057 16.0595L3.28424 15.9911C3.28651 15.9801 3.28876 15.9688 3.29108 15.9579C3.34303 15.7151 3.42821 15.4347 3.54694 15.1161L3.58795 15.0078L3.63092 14.8974L3.67682 14.7841C3.71602 14.6885 3.75843 14.5898 3.8028 14.4882L3.85651 14.3652L3.91412 14.2382L3.92291 14.2197L3.92194 14.2001C3.91839 13.4706 3.97456 12.888 4.09186 12.4501L4.1026 12.4101C4.11679 12.3599 4.13308 12.3069 4.15143 12.2519L4.17487 12.1845C4.17883 12.1732 4.18343 12.1618 4.18756 12.1503L4.21295 12.08C4.22195 12.0561 4.2316 12.0314 4.24127 12.0068L4.27155 11.9316C4.27664 11.919 4.28191 11.9062 4.28717 11.8935L4.32037 11.8154L4.35455 11.7343L4.39166 11.6513L4.43073 11.5654L4.47174 11.4785L4.51471 11.3876L4.55963 11.2958L4.60651 11.2011L4.65631 11.1035L4.70709 11.0048L4.75983 10.9033L4.81451 10.7988L4.87213 10.6923L4.93073 10.5839L4.96588 10.5204V10.5185C4.99956 9.18822 5.3631 8.25991 6.0733 7.75287L6.10358 7.73138C6.66357 7.34645 6.98806 7.24298 7.39948 7.26459L7.48444 7.27045L7.54596 7.27533L7.61139 7.27924C7.75484 7.28692 7.84658 7.28149 7.97565 7.2558C8.38223 7.17485 8.72868 7.06484 9.01471 6.9267L9.07721 6.89545L9.20514 6.85736L9.31061 6.82513L9.41217 6.79388L9.50983 6.76263L9.60358 6.73138C9.61876 6.72632 9.63363 6.72079 9.6485 6.71576L9.73639 6.68549L9.82135 6.65619L9.90143 6.62689L9.97858 6.5976L10.0518 6.56927L10.1202 6.54095L10.1856 6.51361C10.1961 6.50909 10.2067 6.50442 10.2169 6.49994L10.2735 6.47552L10.3223 6.45209C10.3301 6.44837 10.3373 6.44404 10.3448 6.44037L10.3887 6.41888C10.3956 6.41533 10.4026 6.41164 10.4092 6.40814L10.4483 6.38763L10.4835 6.36713L10.5147 6.3476L10.543 6.33002L10.5674 6.31342C10.6055 6.2862 10.6289 6.2633 10.6368 6.24799C10.6488 6.22441 10.6594 6.18511 10.668 6.13275L10.6739 6.09564C10.6756 6.08288 10.6772 6.06952 10.6788 6.0556L10.6827 6.01166L10.6866 5.96381L10.6905 5.91302L10.6924 5.85931L10.6944 5.80365L10.6964 5.74506V5.62006L10.6954 5.55463L10.6944 5.48822L10.6905 5.3974L10.6866 5.31439L10.6807 5.20404L10.6749 5.12494L10.6661 5.02435L10.6573 4.93353L10.6505 4.87299L10.6465 4.83783L10.6397 4.79193L10.6339 4.7558L10.6299 4.73822C10.6287 4.7334 10.6272 4.72955 10.626 4.7265C10.6228 4.71778 10.6195 4.70874 10.6153 4.69916L10.5997 4.66791L10.5606 4.59271C10.5413 4.55582 10.5268 4.52536 10.5118 4.49213C10.4536 4.363 10.4108 4.21975 10.3809 4.03021C10.3354 3.74125 10.3358 3.44214 10.3809 3.13373C10.3987 3.01208 10.5125 2.92753 10.6348 2.94525Z" fill="#F1F1F1" fill-opacity="0.3"/>
<path fill-rule="evenodd" clip-rule="evenodd" d="M7.94047 22.4465V16.7222H6.57706V22.4465H7.94047ZM10.6438 22.4465V20.6123C10.508 20.8721 10.3617 21.1193 10.205 21.3536C10.0692 21.5523 9.91115 21.7549 9.73093 21.9612C9.5507 22.1676 9.35873 22.3293 9.155 22.4465H10.6438ZM14.6126 22.3892C14.3279 22.5038 14.021 22.5611 13.6919 22.5611C13.368 22.5611 13.0637 22.5064 12.779 22.3968C12.4943 22.2873 12.2462 22.137 12.0346 21.9459C11.8231 21.7549 11.6559 21.5307 11.5331 21.2734C11.4104 21.0161 11.349 20.7422 11.349 20.4518C11.349 20.1716 11.4012 19.9092 11.5057 19.6646C11.6102 19.4201 11.7525 19.2048 11.9327 19.0188C12.113 18.8329 12.3258 18.6825 12.5714 18.5679C12.8169 18.4533 13.0781 18.3883 13.3549 18.373C13.1616 18.587 13.0206 18.8265 12.9318 19.0914C12.843 19.3564 12.7986 19.6544 12.7986 19.9856C12.7986 20.2811 12.8521 20.5512 12.9592 20.7957C13.0663 21.0403 13.2139 21.2504 13.4019 21.4262C13.59 21.602 13.8094 21.7383 14.0601 21.8351C14.3109 21.9319 14.5799 21.9803 14.8672 21.9803C15.05 21.9803 15.2146 21.9625 15.3609 21.9268C15.1467 22.1204 14.8972 22.2746 14.6126 22.3892ZM15.972 20.5435V20.5282C15.972 20.2378 15.9198 19.9665 15.8153 19.7143C15.7109 19.4621 15.5685 19.2392 15.3883 19.0456C15.2081 18.852 14.9952 18.6953 14.7497 18.5756C14.5042 18.4558 14.243 18.3883 13.9661 18.373C14.1594 18.5921 14.3004 18.8405 14.3892 19.1182C14.478 19.3959 14.5224 19.7054 14.5224 20.0467C14.5224 20.1334 14.5172 20.2174 14.5068 20.2989C14.4963 20.3805 14.4833 20.462 14.4676 20.5435H15.972ZM20.9046 22.3013C20.6878 22.4032 20.4123 22.4542 20.0779 22.4542H19.4276C19.5529 22.393 19.6679 22.3102 19.7724 22.2058C19.8768 22.1013 19.9669 21.9803 20.0427 21.8427C20.1184 21.7052 20.1772 21.5536 20.219 21.388C20.2608 21.2224 20.2817 21.0479 20.2817 20.8645C20.2817 20.4926 20.2007 20.1652 20.0388 19.8824C19.8768 19.5997 19.6731 19.3997 19.4276 19.2825C19.6209 19.1704 19.7763 19.001 19.8938 18.7743C20.0113 18.5475 20.0701 18.289 20.0701 17.9985C20.0701 17.7081 20.0113 17.4483 19.8938 17.219C19.7763 16.9897 19.6209 16.8241 19.4276 16.7222H19.9056C20.1563 16.7222 20.377 16.7553 20.5677 16.8216C20.7583 16.8878 20.9164 16.9783 21.0417 17.0929C21.1671 17.2075 21.2611 17.3426 21.3238 17.4979C21.3865 17.6533 21.4178 17.8202 21.4178 17.9985C21.4178 18.1769 21.393 18.3437 21.3434 18.4991C21.2938 18.6545 21.2233 18.7895 21.1318 18.9042C21.0404 19.0188 20.9281 19.1105 20.7949 19.1793C20.6617 19.2481 20.5115 19.2825 20.3444 19.2825H20.4384C20.6317 19.2825 20.8106 19.3322 20.9751 19.4315C21.1397 19.5309 21.2807 19.6582 21.3983 19.8136C21.5158 19.969 21.6072 20.1397 21.6725 20.3257C21.7378 20.5117 21.7704 20.6913 21.7704 20.8645C21.7704 21.0326 21.7443 21.211 21.6921 21.3995C21.6399 21.588 21.5497 21.76 21.4218 21.9154C21.2938 22.0707 21.1214 22.1994 20.9046 22.3013ZM18.1033 22.4312V16.7375H16.7243V22.4312H18.1033ZM26.2877 22.2822C26.05 22.3866 25.798 22.4389 25.5316 22.4389H25.4062C25.5002 22.3573 25.5851 22.2503 25.6609 22.1179C25.7366 21.9854 25.8019 21.8326 25.8568 21.6593C25.9116 21.4861 25.9547 21.2963 25.986 21.09C26.0174 20.8836 26.0331 20.6683 26.0331 20.4442C26.0331 20.22 26.0174 20.0034 25.986 19.7945C25.9547 19.5856 25.9116 19.3946 25.8568 19.2213C25.8019 19.0481 25.7366 18.894 25.6609 18.759C25.5851 18.624 25.5002 18.5157 25.4062 18.4342H25.5316C25.798 18.4342 26.05 18.4864 26.2877 18.5908C26.5254 18.6953 26.733 18.8379 26.9107 19.0188C27.0883 19.1997 27.228 19.4124 27.3299 19.657C27.4317 19.9015 27.4827 20.1639 27.4827 20.4442C27.4827 20.7193 27.4317 20.9779 27.3299 21.2199C27.228 21.4619 27.0883 21.6733 26.9107 21.8542C26.733 22.0351 26.5254 22.1777 26.2877 22.2822ZM24.5364 22.4389C24.4424 22.3573 24.3575 22.2503 24.2818 22.1179C24.206 21.9854 24.1407 21.8326 24.0859 21.6593C24.031 21.4861 23.9879 21.2963 23.9566 21.09C23.9253 20.8836 23.9096 20.6683 23.9096 20.4442C23.9096 20.22 23.9253 20.0034 23.9566 19.7945C23.9879 19.5856 24.031 19.3946 24.0859 19.2213C24.1407 19.0481 24.206 18.894 24.2818 18.759C24.3575 18.624 24.4424 18.5157 24.5364 18.4342H24.4111C24.1447 18.4342 23.8926 18.4864 23.6549 18.5908C23.4172 18.6953 23.2096 18.8379 23.032 19.0188C22.8544 19.1997 22.7146 19.4124 22.6128 19.657C22.5109 19.9015 22.46 20.1639 22.46 20.4442C22.46 20.7193 22.5109 20.9779 22.6128 21.2199C22.7146 21.4619 22.8544 21.6733 23.032 21.8542C23.2096 22.0351 23.4172 22.1777 23.6549 22.2822C23.8926 22.3866 24.1447 22.4389 24.4111 22.4389H24.5364ZM5.60152 26.0882C5.51533 26.1213 5.42391 26.1391 5.32727 26.1417C5.31922 26.1419 5.3112 26.142 5.30321 26.1419C5.21521 26.1409 5.13051 26.1217 5.0491 26.0844C4.95508 26.0487 4.87541 25.9965 4.81012 25.9277C4.74482 25.8589 4.69519 25.7825 4.66124 25.6984C4.62728 25.6144 4.609 25.5265 4.60639 25.4348C4.60378 25.343 4.62337 25.2539 4.66516 25.1673C4.72262 25.0348 4.74743 24.9189 4.7396 24.8195C4.73176 24.7202 4.71217 24.6374 4.68083 24.5711C4.64426 24.4947 4.59464 24.4285 4.53195 24.3724C4.64687 24.3724 4.76963 24.3826 4.90023 24.403C5.00993 24.4234 5.13007 24.4578 5.26067 24.5062C5.39126 24.5546 5.52447 24.6297 5.66029 24.7316C6.03118 25.0271 6.14349 25.3532 5.99722 25.7099C5.95543 25.7965 5.90058 25.8729 5.83267 25.9392C5.76476 26.0054 5.68771 26.0551 5.60152 26.0882ZM3.25473 30.0509C3.15026 29.9388 3.05492 29.7872 2.96873 29.5961C2.88254 29.4051 2.8081 29.186 2.74541 28.9389C2.68273 28.6918 2.63441 28.4217 2.60045 28.1288C2.5665 27.8358 2.54952 27.5288 2.54952 27.2078C2.54952 26.8868 2.5665 26.5799 2.60045 26.2869C2.63441 25.9939 2.68273 25.7239 2.74541 25.4768C2.8081 25.2297 2.88254 25.0119 2.96873 24.8233C3.05492 24.6348 3.15026 24.4871 3.25473 24.3801H3.19988C2.89168 24.3801 2.60045 24.454 2.32621 24.6017C2.05196 24.7495 1.80905 24.9507 1.59749 25.2055C1.38592 25.4602 1.21876 25.7596 1.096 26.1035C0.973245 26.4474 0.911865 26.8155 0.911865 27.2078C0.911865 27.6001 0.975857 27.9683 1.10384 28.3122C1.23182 28.6561 1.4016 28.9567 1.61316 29.214C1.82472 29.4713 2.07024 29.6751 2.34971 29.8254C2.62919 29.9757 2.92302 30.0509 3.23123 30.0509H3.25473ZM5.85618 28.1173V30.0814H4.30472C4.50844 29.9388 4.70695 29.7706 4.90023 29.577C5.06739 29.414 5.23847 29.2102 5.41346 28.9656C5.58846 28.7211 5.73603 28.4383 5.85618 28.1173ZM7.63096 27.6282C7.71715 27.6282 7.79943 27.6103 7.87779 27.5747C7.96137 27.539 8.03189 27.4906 8.08935 27.4295C8.14681 27.3683 8.19121 27.2995 8.22256 27.2231C8.2539 27.1467 8.26826 27.0664 8.26565 26.9824C8.26304 26.8983 8.24345 26.8181 8.20688 26.7416C8.14942 26.6244 8.1233 26.5213 8.12853 26.4321C8.13375 26.3429 8.14942 26.2678 8.17554 26.2066C8.20688 26.1353 8.25129 26.0742 8.30875 26.0232C8.20427 26.0232 8.09457 26.0334 7.97965 26.0538C7.8804 26.0742 7.772 26.1086 7.65447 26.157C7.53693 26.2054 7.4207 26.2754 7.30578 26.3671C6.97668 26.6372 6.88265 26.9327 7.0237 27.2537C7.06026 27.3352 7.10989 27.404 7.17257 27.46C7.23526 27.5161 7.30578 27.5581 7.38414 27.5861C7.46249 27.6142 7.54477 27.6282 7.63096 27.6282ZM10.965 27.9339V30.0891H9.53111V26.0691L9.60164 26.0844C9.78447 26.1302 9.95816 26.2105 10.1227 26.3251C10.2873 26.4397 10.4322 26.5786 10.5576 26.7416C10.683 26.9047 10.7822 27.0881 10.8553 27.2919C10.9285 27.4957 10.965 27.7097 10.965 27.9339ZM8.64568 30.0738C8.43151 30.0025 8.25651 29.8751 8.12069 29.6917C7.98487 29.5082 7.91696 29.2993 7.91696 29.065C7.91696 28.8306 7.98487 28.6217 8.12069 28.4383C8.25651 28.2549 8.43151 28.1275 8.64568 28.0562H7.95614C7.68973 28.0562 7.46641 28.0893 7.28619 28.1555C7.10597 28.2217 6.96362 28.3045 6.85915 28.4039C6.75467 28.5032 6.68023 28.6115 6.63583 28.7287C6.59143 28.8459 6.56923 28.958 6.56923 29.065C6.56923 29.1771 6.58882 29.2917 6.628 29.4089C6.66717 29.5261 6.739 29.6343 6.84348 29.7337C6.94795 29.833 7.0903 29.9146 7.27052 29.9783C7.45074 30.0419 7.67928 30.0738 7.95614 30.0738H8.64568ZM13.3784 24.1814V30.0891H12.0072V26.0462C12.0072 25.8525 11.9902 25.6946 11.9563 25.5723C11.9223 25.45 11.8844 25.3532 11.8426 25.2819C11.7904 25.2004 11.7356 25.1418 11.6781 25.1061C11.9184 25.0042 12.143 24.8985 12.352 24.789C12.5609 24.6794 12.7411 24.5788 12.8926 24.4871C13.0702 24.3852 13.2322 24.2833 13.3784 24.1814ZM14.4284 30.0509C14.7157 30.0509 14.9861 30.0012 15.2394 29.9018C15.4928 29.8025 15.7135 29.6675 15.9015 29.4968C16.0896 29.3261 16.2385 29.1274 16.3482 28.9007C16.4579 28.6739 16.5127 28.4306 16.5127 28.1708C16.5127 27.9109 16.4579 27.6664 16.3482 27.4371C16.2385 27.2078 16.0896 27.0091 15.9015 26.841C15.7135 26.6728 15.4928 26.5391 15.2394 26.4397C14.9861 26.3404 14.7157 26.2907 14.4284 26.2907H14.303C14.4023 26.3671 14.4924 26.4678 14.5734 26.5926C14.6543 26.7174 14.7236 26.8614 14.781 27.0244C14.8385 27.1874 14.8842 27.3658 14.9181 27.5594C14.9521 27.753 14.9691 27.9568 14.9691 28.1708C14.9691 28.3848 14.9521 28.5886 14.9181 28.7822C14.8842 28.9758 14.8385 29.1541 14.781 29.3172C14.7236 29.4802 14.6543 29.6241 14.5734 29.749C14.4924 29.8738 14.4023 29.9744 14.303 30.0509H14.4284ZM18.311 25.3469C18.2196 25.3851 18.1242 25.4042 18.025 25.4042C17.9205 25.4042 17.8226 25.3851 17.7312 25.3469C17.6397 25.3086 17.5614 25.2564 17.4961 25.1902C17.4308 25.124 17.3785 25.0475 17.3394 24.9609C17.3002 24.8743 17.2806 24.78 17.2806 24.6781C17.2806 24.5813 17.3002 24.4883 17.3394 24.3992C17.3785 24.31 17.4308 24.2323 17.4961 24.1661C17.5614 24.0999 17.6397 24.0476 17.7312 24.0094C17.8226 23.9712 17.9205 23.9521 18.025 23.9521C18.1242 23.9521 18.2196 23.9712 18.311 24.0094C18.4024 24.0476 18.4821 24.0999 18.55 24.1661C18.6179 24.2323 18.6714 24.31 18.7106 24.3992C18.7498 24.4883 18.7694 24.5813 18.7694 24.6781C18.7694 24.78 18.7498 24.8743 18.7106 24.9609C18.6714 25.0475 18.6179 25.124 18.55 25.1902C18.4821 25.2564 18.4024 25.3086 18.311 25.3469ZM18.6597 30.0891V25.9009C18.5134 26.0028 18.3515 26.1048 18.1739 26.2067C18.0224 26.2984 17.8422 26.399 17.6332 26.5085C17.4243 26.6181 17.1996 26.7238 16.9593 26.8257C17.0168 26.8614 17.0717 26.92 17.1239 27.0015C17.1657 27.0728 17.2036 27.1696 17.2375 27.2919C17.2715 27.4142 17.2884 27.5721 17.2884 27.7657V30.0891H18.6597ZM24.035 27.9262V30.0814H22.601V26.0614C22.6115 26.0665 22.6232 26.0691 22.6363 26.0691C22.6494 26.0691 22.6611 26.0716 22.6716 26.0767C22.8544 26.1226 23.0281 26.2028 23.1926 26.3175C23.3572 26.4321 23.5021 26.5709 23.6275 26.734C23.7529 26.897 23.8521 27.0805 23.9253 27.2843C23.9984 27.4881 24.035 27.702 24.035 27.9262ZM21.363 30.0814V26.0691C21.2324 26.1455 21.0914 26.2143 20.9399 26.2754C20.804 26.3315 20.6486 26.3863 20.4736 26.4397C20.2986 26.4932 20.1119 26.5327 19.9134 26.5582V30.0814H21.363ZM27.9881 30.0318C27.7034 30.1464 27.3965 30.2037 27.0674 30.2037C26.7435 30.2037 26.4392 30.1489 26.1545 30.0394C25.8698 29.9299 25.6217 29.7795 25.4101 29.5885C25.1986 29.3974 25.0314 29.1732 24.9086 28.9159C24.7859 28.6586 24.7245 28.3848 24.7245 28.0944C24.7245 27.8141 24.7767 27.5517 24.8812 27.3072C24.9857 27.0626 25.128 26.8474 25.3083 26.6614C25.4885 26.4754 25.7013 26.3251 25.9469 26.2105C26.1924 26.0958 26.4536 26.0309 26.7304 26.0156C26.5372 26.2296 26.3961 26.469 26.3073 26.734C26.2185 26.9989 26.1741 27.297 26.1741 27.6282C26.1741 27.9237 26.2276 28.1937 26.3347 28.4383C26.4418 28.6828 26.5894 28.893 26.7774 29.0688C26.9655 29.2446 27.1849 29.3809 27.4356 29.4777C27.6864 29.5745 27.9554 29.6229 28.2427 29.6229C28.4256 29.6229 28.5901 29.605 28.7364 29.5694C28.5222 29.763 28.2728 29.9171 27.9881 30.0318ZM29.3476 28.1861V28.1708C29.3476 27.8804 29.2953 27.6091 29.1908 27.3569C29.0864 27.1047 28.944 26.8817 28.7638 26.6881C28.5836 26.4945 28.3707 26.3378 28.1252 26.2181C27.8797 26.0984 27.6185 26.0309 27.3416 26.0156C27.5349 26.2347 27.6759 26.4831 27.7647 26.7607C27.8535 27.0384 27.898 27.3479 27.898 27.6893C27.898 27.7759 27.8927 27.86 27.8823 27.9415C27.8718 28.023 27.8588 28.1046 27.8431 28.1861H29.3476ZM32.5915 30.0738C32.4087 30.0891 32.2115 30.0942 31.9999 30.0891C31.7884 30.084 31.5886 30.0585 31.4005 30.0126C31.2177 29.9668 31.0466 29.8827 30.8873 29.7604C30.7279 29.6382 30.5895 29.4891 30.472 29.3134C30.3544 29.1376 30.2617 28.9427 30.1938 28.7287C30.1259 28.5147 30.0919 28.2956 30.0919 28.0714V26.8563C30.0919 26.5964 30.0671 26.3926 30.0175 26.2449C29.9679 26.0971 29.9143 25.985 29.8569 25.9086C29.789 25.8169 29.7132 25.7557 29.6296 25.7252C29.8281 25.6233 30.0319 25.5061 30.2408 25.3736C30.4184 25.2564 30.6143 25.115 30.8285 24.9494L30.8779 24.9108C31.0752 24.7545 31.2703 24.5776 31.4632 24.3801V25.9927H32.9911V27.6511H32.9598C32.9232 27.6001 32.8645 27.5148 32.7835 27.3951C32.7025 27.2753 32.5954 27.139 32.4622 26.9862C32.329 26.8333 32.1671 26.6728 31.9764 26.5047L31.9379 26.4712C31.8078 26.36 31.6633 26.2534 31.5043 26.1513L31.4632 26.1253V28.1784C31.4632 28.3568 31.488 28.5185 31.5376 28.6637C31.5873 28.8089 31.6539 28.9414 31.7374 29.0611C31.821 29.1809 31.915 29.2866 32.0195 29.3783C32.124 29.47 32.2311 29.549 32.3408 29.6152C32.5967 29.7783 32.8893 29.9031 33.2184 29.9897C33.0094 30.0254 32.8005 30.0534 32.5915 30.0738Z" fill="#F1F1F1"/>
</g>
<defs>
<clipPath id="clip0_43_206">
<rect width="34" height="49" fill="white"/>
</clipPath>
</defs>
</svg>
