<svg width="75" height="49" viewBox="0 0 75 49" fill="none" xmlns="http://www.w3.org/2000/svg">
<path d="M9.56882 9.54332C9.57051 9.54332 9.57219 9.54084 9.57219 9.54084C9.58564 9.53086 9.5991 9.51842 9.61088 9.50349C9.60921 9.50349 9.60751 9.50349 9.60584 9.50098C9.59405 9.51344 9.5806 9.52837 9.56882 9.54332Z" fill="#F1F1F1"/>
<path d="M11.433 8.91394L11.4035 8.93933C11.4204 8.93512 11.433 8.93087 11.433 8.91394Z" fill="#F1F1F1"/>
<path fill-rule="evenodd" clip-rule="evenodd" d="M10.8303 9.55678C10.8843 9.50235 10.9383 9.44464 10.9923 9.38525H10.9906C11.0921 9.26984 11.1903 9.15932 11.308 9.05873C11.3441 9.02575 11.3784 8.99772 11.4111 8.97462C11.4159 8.9698 11.4184 8.96256 11.4208 8.9555C11.4233 8.94811 11.4258 8.9409 11.4308 8.93669C11.4074 8.94563 11.3888 8.95972 11.3702 8.97391C11.3508 8.98858 11.3314 9.00333 11.3064 9.01255C11.2966 9.01255 11.2868 9.00267 11.2966 8.99277C11.331 8.96804 11.3653 8.94164 11.398 8.91526H11.3915C11.3817 8.91526 11.3817 8.90536 11.3817 8.89548C11.2599 8.87609 11.1663 8.95956 11.0826 9.03428L11.0773 9.03895C11.0643 9.0455 11.052 9.03901 11.0423 9.03388C11.0374 9.03129 11.0332 9.02905 11.0299 9.02905C10.9558 9.05393 10.8919 9.09984 10.8276 9.14604C10.7683 9.18859 10.7087 9.2314 10.6405 9.25829V9.23848C10.6173 9.24651 10.5944 9.25694 10.5714 9.2674C10.5377 9.28281 10.5037 9.29825 10.4687 9.30612C10.4047 9.321 10.3452 9.31909 10.2877 9.31721C10.2688 9.3166 10.25 9.31599 10.2314 9.31599C10.1266 9.3264 10.0232 9.3489 9.91984 9.37137L9.88619 9.37868C9.88454 9.37949 9.88292 9.3799 9.88127 9.38033C9.87965 9.38074 9.87801 9.38114 9.87638 9.38198C9.8142 9.39846 9.75694 9.42156 9.69965 9.45454L9.69311 9.45784C9.69086 9.46086 9.68863 9.46353 9.68653 9.46602C9.68404 9.46896 9.68179 9.47165 9.68002 9.47432C9.6604 9.49742 9.64239 9.5172 9.61457 9.53205C9.57349 9.55274 9.538 9.58468 9.50306 9.61609C9.48793 9.6297 9.47283 9.64328 9.4575 9.65572C9.45423 9.65902 9.44769 9.66067 9.44278 9.66067C9.39205 9.71015 9.34132 9.75963 9.28898 9.80744C9.28571 9.81074 9.27099 9.81239 9.25953 9.81074C9.25953 9.81074 9.26116 9.81074 9.26116 9.80909L9.26607 9.79919L9.29062 9.75964C9.29551 9.7522 9.30002 9.74478 9.30451 9.73737C9.30902 9.72993 9.31353 9.72252 9.31842 9.7151C9.33149 9.69533 9.34462 9.6755 9.35934 9.65737C9.36261 9.65242 9.36261 9.64749 9.35934 9.64419C9.35607 9.64089 9.35116 9.63924 9.34624 9.63924C9.3937 9.59306 9.44931 9.55348 9.50658 9.51885V9.5172C9.50004 9.51885 9.49023 9.5139 9.49512 9.5073C9.49994 9.50126 9.50387 9.49432 9.50754 9.4878L9.51149 9.48092C9.5123 9.47927 9.51273 9.47802 9.51314 9.47681C9.51355 9.47556 9.51395 9.47432 9.51476 9.47267C9.51395 9.47102 9.51273 9.46977 9.51149 9.46855C9.51028 9.46731 9.50904 9.46607 9.50822 9.46442L9.49829 9.47099C9.48643 9.47876 9.47425 9.48676 9.46406 9.49577C9.45681 9.50199 9.45007 9.51055 9.44318 9.51931C9.42816 9.53832 9.4123 9.55843 9.38878 9.55843C9.38714 9.55843 9.37898 9.55843 9.37406 9.55678C9.36914 9.55678 9.36588 9.55513 9.36423 9.55348C9.36423 9.55267 9.36443 9.55203 9.36443 9.55203C9.36443 9.55203 9.36507 9.55183 9.36588 9.55183C9.36588 9.55183 9.36752 9.55018 9.36752 9.54853C9.36752 9.54853 9.36752 9.54688 9.36914 9.54688C9.36996 9.54523 9.37079 9.54401 9.3716 9.54277C9.37241 9.54152 9.37325 9.54028 9.37406 9.53863C9.37487 9.53698 9.37568 9.53576 9.37652 9.53451C9.37733 9.53327 9.37814 9.53205 9.37898 9.5304C9.37979 9.52956 9.38019 9.52832 9.3806 9.5271C9.381 9.52586 9.38141 9.52461 9.38224 9.5238L9.38409 9.5204C9.38572 9.5175 9.38764 9.51405 9.38878 9.5106C9.38959 9.50895 9.39043 9.50773 9.39124 9.50649C9.39205 9.50524 9.39289 9.504 9.3937 9.50235C9.39615 9.49905 9.39818 9.49534 9.40024 9.49163C9.40229 9.48793 9.40434 9.48422 9.40677 9.48092C9.40842 9.47762 9.41007 9.47432 9.41333 9.47102C9.41496 9.46772 9.4166 9.46485 9.41822 9.46195C9.41987 9.45906 9.42152 9.45619 9.42314 9.45289C9.42806 9.44464 9.42314 9.43804 9.4166 9.43639C9.43459 9.41331 9.45588 9.39351 9.48205 9.37868H9.47878C9.50136 9.36728 9.52459 9.35395 9.54768 9.34072C9.56128 9.3329 9.57507 9.32498 9.58839 9.31764C9.59331 9.31269 9.59822 9.30777 9.60476 9.30447C9.55077 9.3226 9.50169 9.34735 9.45423 9.38033C9.45423 9.38033 9.44113 9.38525 9.43786 9.38856C9.43786 9.38856 9.42806 9.39186 9.41496 9.38033C9.41333 9.37868 9.41333 9.37703 9.41333 9.37373C9.41901 9.36225 9.43074 9.35466 9.44341 9.34646C9.45263 9.3405 9.46234 9.33422 9.4706 9.3259C9.4804 9.3259 9.48859 9.3259 9.48859 9.3358C9.67702 9.18773 9.9094 9.15348 10.1425 9.11911C10.2859 9.09796 10.4296 9.07678 10.5636 9.02905C10.5775 9.01915 10.5918 9.00968 10.6061 9.00019C10.6204 8.99072 10.6347 8.98122 10.6487 8.97132C10.6725 8.96137 10.6939 8.94433 10.7166 8.92628C10.7389 8.90843 10.7625 8.88962 10.791 8.87568C10.8663 8.81797 10.9235 8.75199 10.953 8.6547C10.953 8.6448 10.9432 8.6349 10.9432 8.6349C10.8188 8.76849 10.6765 8.87403 10.5243 8.95154C10.3792 9.02827 10.2237 9.03964 10.0698 9.05089C10.012 9.0551 9.9544 9.05932 9.89764 9.06698C9.90745 9.04718 9.92708 9.04718 9.9451 9.04718C9.9451 9.02377 9.9563 9.01369 9.97066 9.00077C9.97449 8.99732 9.97857 8.99364 9.98273 8.98947H10.0105C10.0154 8.98947 10.0179 8.98452 10.0204 8.97957C10.0228 8.97462 10.0253 8.96969 10.0302 8.96969C10.0498 8.96969 10.0776 8.95979 10.0678 8.95979C10.0528 8.94045 10.031 8.94811 10.0069 8.95654C9.98379 8.96467 9.95855 8.97353 9.93527 8.95979C9.94393 8.95027 9.94652 8.93885 9.9489 8.92846C9.95146 8.91724 9.95374 8.90721 9.96309 8.90206H10.0007C10.0007 8.88228 10.0204 8.86413 10.0204 8.86413C10.1057 8.81272 10.1881 8.76783 10.2689 8.72378C10.323 8.69435 10.3763 8.66529 10.4294 8.6349C10.4187 8.6349 10.4092 8.63934 10.3999 8.64363C10.3852 8.65046 10.3712 8.65696 10.3542 8.6448C10.364 8.6448 10.364 8.63779 10.364 8.63078C10.364 8.62377 10.364 8.61677 10.3738 8.61677C10.4352 8.60034 10.4898 8.57371 10.5456 8.54649C10.585 8.5273 10.625 8.5078 10.6683 8.49142C10.6554 8.49142 10.6435 8.4949 10.6319 8.49828C10.6096 8.50478 10.5884 8.51097 10.5636 8.49142C10.5701 8.48815 10.5753 8.48398 10.5805 8.47985C10.591 8.47152 10.6011 8.46339 10.6208 8.46339V8.43537C10.6208 8.42546 10.6307 8.42546 10.6405 8.42546C10.6307 8.42546 10.6208 8.41556 10.6208 8.41556C10.6261 8.4051 10.6363 8.40294 10.6477 8.40053C10.6578 8.3984 10.6689 8.39606 10.6781 8.38753C10.6683 8.38753 10.6503 8.38753 10.6503 8.37763C10.6781 8.3397 10.7256 8.32983 10.773 8.31992C10.7681 8.31002 10.7587 8.31002 10.7505 8.31002C10.7423 8.31002 10.7354 8.31002 10.7354 8.30012C10.7354 8.29024 10.7452 8.29024 10.755 8.29024H10.7354C10.72 8.28248 10.7227 8.26861 10.7246 8.25902C10.7251 8.25638 10.7256 8.25409 10.7256 8.25231C10.764 8.20692 10.7766 8.15337 10.7892 8.10011C10.7954 8.07404 10.8015 8.04801 10.8106 8.02308C10.8008 8.02308 10.791 8.02308 10.791 8.01318C10.699 8.11549 10.5532 8.15426 10.4147 8.1911L10.4016 8.19458H10.3542C10.3067 8.21438 10.2396 8.21438 10.1922 8.18468C10.1696 8.17282 10.1535 8.158 10.1361 8.14197C10.1245 8.13129 10.1123 8.12006 10.0973 8.10882C10.0204 8.06101 9.9451 8.02308 9.86001 7.99338C9.62275 7.91754 9.37568 7.87796 9.12864 7.88784C9.19761 7.8498 9.27088 7.8347 9.34512 7.81936C9.38356 7.81144 9.42225 7.80344 9.46077 7.7922C9.48507 7.78501 9.50914 7.77762 9.53308 7.77026C9.66879 7.72857 9.80045 7.68813 9.9451 7.69653C9.92617 7.6898 9.90192 7.69224 9.8796 7.69448C9.86914 7.69554 9.85908 7.69653 9.85018 7.69653C9.74083 7.68838 9.63035 7.71278 9.51507 7.73825C9.49064 7.74363 9.46601 7.74906 9.44113 7.75427C9.396 7.76368 9.35306 7.77719 9.31008 7.79075C9.2627 7.80565 9.21524 7.82061 9.16462 7.83013C9.14268 7.83772 9.12504 7.85062 9.10789 7.86321C9.08027 7.88344 9.05382 7.90281 9.01246 7.89774V7.86806C9.10735 7.75262 9.22188 7.63882 9.37406 7.62892C9.52115 7.60493 9.65985 7.62202 9.80453 7.63986C9.82882 7.64286 9.8533 7.64588 9.878 7.64873C9.99661 7.65827 10.1076 7.68478 10.2272 7.71336L10.2396 7.71634C10.2658 7.71634 10.2805 7.73941 10.2948 7.76178C10.3064 7.77996 10.3176 7.79765 10.3345 7.8021C10.3578 7.81015 10.3811 7.81164 10.4044 7.81314C10.4384 7.81533 10.4723 7.81751 10.5063 7.84003C10.5063 7.83335 10.5052 7.82688 10.5041 7.82048C10.5019 7.80784 10.4998 7.79542 10.5063 7.78229C10.5274 7.76102 10.5516 7.76673 10.5755 7.77234C10.5941 7.77673 10.6125 7.7811 10.629 7.77239C10.6809 7.74012 10.6322 7.69059 10.5835 7.64103C10.56 7.61712 10.5366 7.5932 10.5243 7.57121C10.5243 7.56131 10.5341 7.55141 10.5341 7.55141C10.5556 7.57073 10.5756 7.59069 10.5955 7.61049C10.6452 7.66005 10.6938 7.70854 10.7616 7.74271C10.809 7.76252 10.9235 7.79055 10.9039 7.73281C10.8703 7.65807 10.8129 7.59325 10.7549 7.5278C10.7311 7.50084 10.7071 7.47377 10.6847 7.44587V7.40794C10.6697 7.40794 10.6662 7.40223 10.6617 7.39514C10.6603 7.39291 10.6588 7.39052 10.6568 7.38816V7.35023C10.6328 7.33761 10.6275 7.31763 10.6221 7.29752C10.619 7.2861 10.6159 7.27462 10.6094 7.26447C10.593 7.23784 10.5918 7.20506 10.5906 7.17129C10.5896 7.14441 10.5886 7.11688 10.5799 7.09129C10.5603 7.03359 10.5521 6.98575 10.5423 6.92804C10.5316 6.86899 10.5199 6.81253 10.5085 6.75726C10.4882 6.65969 10.4687 6.56583 10.4572 6.46793C10.4421 6.32801 10.5126 6.20967 10.5847 6.0887C10.6061 6.05282 10.6276 6.01675 10.647 5.97978C10.7141 5.86434 10.7894 5.75055 10.9137 5.67304C10.9409 5.56044 11.0147 5.46668 11.0881 5.37337L11.0937 5.36629C11.1662 5.27575 11.2873 5.22041 11.3765 5.17961L11.3866 5.17499C11.5191 5.11563 11.6386 5.0777 11.6402 5.0777H5.06757V10.1554H9.73074C9.85545 10.0648 9.97941 10.0077 10.1269 9.93962C10.1943 9.90859 10.2665 9.87528 10.346 9.8355C10.3628 9.82702 10.3828 9.81714 10.405 9.8062C10.5382 9.74054 10.7503 9.63594 10.8303 9.55678ZM9.3506 8.87172C9.3321 8.87357 9.31249 8.87555 9.31989 8.86065C9.32676 8.82729 9.36086 8.81726 9.39418 8.80751C9.40844 8.80332 9.42256 8.79918 9.43431 8.79327L9.43969 8.79048L9.44364 8.78839C9.46208 8.77857 9.48466 8.76653 9.50133 8.77354C9.51258 8.78956 9.52652 8.7937 9.54005 8.79771C9.55013 8.80071 9.55999 8.80363 9.56835 8.81135C9.533 8.84692 9.49173 8.85042 9.44987 8.85397C9.42208 8.85633 9.39405 8.85872 9.3673 8.87053C9.36248 8.87053 9.3566 8.87111 9.3506 8.87172ZM7.90302 8.63982C7.90302 8.6497 7.91283 8.6596 7.91283 8.6596C8.14191 8.40068 8.3497 8.1797 8.64423 7.99665C8.65211 7.99332 8.64917 7.99746 8.64527 8.00295C8.63947 8.01115 8.63151 8.02234 8.65403 8.01643C8.75153 7.99416 8.79534 7.91046 8.83794 7.82904C8.84896 7.80796 8.85988 7.78707 8.87166 7.76742C8.91633 7.69458 8.9798 7.64794 9.04376 7.60092C9.08987 7.56702 9.13624 7.53293 9.17599 7.4887C9.17599 7.4986 9.17599 7.5085 9.16616 7.51838C9.17599 7.52828 9.1858 7.52828 9.19563 7.52828C9.21289 7.51523 9.23174 7.50982 9.24978 7.50465C9.27281 7.49807 9.29458 7.49182 9.31016 7.47057C9.23488 7.44087 9.13837 7.43099 9.06309 7.46067C8.86348 7.55631 8.69331 7.70968 8.53132 7.88286C8.43314 7.98675 8.33171 8.08404 8.20735 8.15165C8.12227 8.32317 8.02738 8.47655 7.90302 8.63982ZM8.70182 8.02646C8.69668 8.03679 8.69156 8.04215 8.68667 8.04728C8.68221 8.05195 8.67793 8.05644 8.67403 8.06429C8.66422 8.08399 8.65441 8.09221 8.63643 8.10209C8.62662 8.10209 8.61681 8.10209 8.61681 8.09221C8.62662 8.05441 8.65442 8.01661 8.69202 8.00673C8.70182 8.00838 8.70182 8.01826 8.70182 8.02646ZM9.12023 9.49102C9.12838 9.48277 9.13819 9.47287 9.14311 9.46297C9.15129 9.44319 9.10061 9.44814 9.09243 9.45309C9.08501 9.45906 9.08029 9.46505 9.07459 9.47229L9.07282 9.47452C9.066 9.48239 9.05802 9.48965 9.04991 9.49704C9.04441 9.50207 9.03887 9.50712 9.0336 9.51245C9.01069 9.53555 8.98781 9.55863 8.96328 9.58006C8.94694 9.59491 8.99926 9.60152 9.01069 9.59161C9.02376 9.58171 9.03522 9.57019 9.04667 9.55863C9.05103 9.55863 9.05539 9.5579 9.05828 9.55742L9.06028 9.55708L9.06137 9.55698C9.08848 9.54787 9.10865 9.52895 9.12826 9.51057L9.1333 9.50585C9.13984 9.49925 9.13165 9.49267 9.12023 9.49102ZM8.97228 9.38378L8.97187 9.38393C8.97187 9.38393 8.97167 9.38457 8.97167 9.38538C8.96164 9.39229 8.95173 9.39932 8.94185 9.40633C8.91626 9.42445 8.89082 9.44248 8.86368 9.45794C8.83773 9.47259 8.81113 9.48526 8.78427 9.49803C8.76879 9.50539 8.75326 9.51278 8.7377 9.52063C8.7377 9.52063 8.7377 9.51898 8.73605 9.51898C8.73278 9.51403 8.72625 9.51238 8.71971 9.51568C8.68371 9.53545 8.65262 9.56186 8.6248 9.58989C8.61991 9.59319 8.61499 9.59814 8.61172 9.60306L8.59697 9.61792V9.61957C8.59044 9.62617 8.5839 9.63277 8.57572 9.64264C8.57402 9.64437 8.5727 9.64607 8.57146 9.64772C8.56908 9.65082 8.5669 9.65369 8.56262 9.65585C8.55608 9.65915 8.53971 9.65915 8.54136 9.64925V9.6476C8.53644 9.6509 8.52991 9.6542 8.52499 9.65585C8.52253 9.6575 8.52007 9.65874 8.51764 9.65996C8.51518 9.6612 8.51273 9.66245 8.51027 9.6641C8.50862 9.66245 8.50535 9.66245 8.50373 9.66245C8.50208 9.66245 8.49882 9.66245 8.49717 9.6641C8.49337 9.6674 8.48954 9.6705 8.48572 9.67362C8.47809 9.67986 8.47046 9.68608 8.46281 9.69378C8.44317 9.71193 8.42518 9.73171 8.40719 9.75314C8.40719 9.75314 8.40719 9.75479 8.40555 9.75479C8.40555 9.75562 8.40514 9.75603 8.40474 9.75644C8.40433 9.75687 8.40393 9.75727 8.40393 9.75809L8.40063 9.76139C8.40002 9.76202 8.39962 9.76266 8.39929 9.76319C8.39876 9.76405 8.39838 9.76469 8.39736 9.76469L8.39574 9.76634C8.39409 9.76964 8.39247 9.77294 8.38918 9.77624C8.38756 9.77789 8.38429 9.77954 8.38099 9.77954C8.37937 9.77789 8.37773 9.77624 8.37773 9.77459C8.37691 9.77375 8.37651 9.77294 8.3761 9.7721C8.3757 9.77129 8.37527 9.77045 8.37446 9.76964C8.37284 9.76718 8.37159 9.76469 8.37038 9.76223C8.36914 9.75974 8.36792 9.75727 8.36627 9.75479V9.75314C8.36627 9.75232 8.36587 9.75149 8.36546 9.75067C8.36506 9.74986 8.36465 9.74902 8.36465 9.74821L8.39409 9.71356L8.39574 9.71193C8.39736 9.71028 8.39901 9.70822 8.40063 9.70614C8.40228 9.70408 8.40393 9.70203 8.40555 9.70038C8.408 9.69708 8.41087 9.69378 8.41373 9.69048C8.41659 9.68718 8.41946 9.68388 8.42192 9.68057C8.42273 9.67892 8.42354 9.67771 8.42437 9.67646C8.42518 9.67522 8.42599 9.674 8.42683 9.67235C8.43664 9.65915 8.44647 9.64594 8.45627 9.63112V9.62947C8.45792 9.62782 8.45954 9.62617 8.45954 9.62287C8.46446 9.61627 8.46937 9.60966 8.47264 9.60306L8.48245 9.58329V9.58164L8.48409 9.57999C8.48409 9.57917 8.4845 9.57874 8.48491 9.57834C8.48531 9.57793 8.48572 9.57752 8.48572 9.57668C8.48736 9.57257 8.48898 9.56886 8.49063 9.56516C8.49225 9.56145 8.4939 9.55772 8.49555 9.55361V9.55196L8.49717 9.54536C8.498 9.5437 8.49841 9.54205 8.49882 9.5404C8.49922 9.53875 8.49963 9.5371 8.50046 9.53545V9.5338C8.50127 9.53134 8.50168 9.52885 8.50208 9.52639C8.50249 9.52393 8.5029 9.52144 8.50373 9.51898C8.50373 9.51733 8.50373 9.51403 8.50208 9.51238C8.51192 9.49422 8.52499 9.47775 8.53971 9.46124C8.5389 9.46124 8.53809 9.46165 8.53725 9.46208C8.5368 9.46231 8.53586 9.46272 8.53586 9.46272L8.53482 9.46289C8.52752 9.46749 8.52127 9.47361 8.51488 9.47983C8.50979 9.4848 8.50462 9.48983 8.49882 9.49422C8.48898 9.50247 8.46937 9.48927 8.48245 9.4794C8.49063 9.47279 8.49717 9.46619 8.50371 9.45959C8.50371 9.45959 8.50373 9.45794 8.50535 9.45794C8.51189 9.45203 8.51815 9.44532 8.52446 9.43857C8.53398 9.42839 8.54361 9.41806 8.55443 9.41014C8.56591 9.40188 8.57407 9.39528 8.5839 9.38703C8.58552 9.38538 8.58717 9.38373 8.58882 9.38373C8.59535 9.37548 8.60189 9.36725 8.61007 9.359C8.61007 9.359 8.61172 9.359 8.61172 9.35735C8.66789 9.30274 8.74685 9.28347 8.82745 9.26382C8.87828 9.25143 8.92976 9.23886 8.97659 9.21718C9.00304 9.20614 9.03253 9.21048 9.0617 9.21477C9.08483 9.21817 9.10776 9.22155 9.12876 9.21718C9.15656 9.21718 9.18603 9.21718 9.21382 9.23696C9.14914 9.27149 9.08739 9.31097 9.0263 9.35002C9.00861 9.36134 8.99095 9.37264 8.97332 9.38373L8.97228 9.38378ZM9.17676 8.71162C9.1691 8.71251 9.16414 8.71307 9.16839 8.71736C9.19619 8.74541 9.25348 8.73551 9.29273 8.71406C9.32055 8.69428 9.35002 8.69428 9.38764 8.69428C9.39745 8.69428 9.39745 8.67613 9.39745 8.66625C9.42527 8.67613 9.44491 8.67613 9.47273 8.67613C9.70016 8.62832 9.91941 8.58049 10.1288 8.47495C9.91692 8.31086 9.65567 8.23777 9.39978 8.1662C9.35731 8.15431 9.315 8.14248 9.27309 8.13027C9.28231 8.13027 9.29153 8.13334 9.30081 8.13644C9.31951 8.14269 9.33849 8.14903 9.35817 8.13027C9.33223 8.10953 9.30332 8.10554 9.27469 8.10163C9.25099 8.09836 9.22751 8.09513 9.20602 8.08244C9.20825 8.08244 9.21094 8.08297 9.21382 8.08353C9.22363 8.08541 9.23607 8.08782 9.24365 8.07256C9.19396 8.0475 9.14425 8.039 9.09408 8.03042C9.06826 8.026 9.04234 8.02156 9.01621 8.01483C9.06367 8.00493 9.09311 7.967 9.09311 7.91919C9.09311 7.90929 9.07348 7.90929 9.06367 7.90929C8.95077 7.967 8.87387 8.07256 8.82641 8.19623C8.8692 8.22147 8.91529 8.21855 8.9605 8.21568C8.98616 8.21405 9.01155 8.21243 9.03585 8.21603C9.01439 8.23645 8.9834 8.24201 8.95358 8.24734C8.94248 8.24932 8.93154 8.25127 8.92132 8.25396C8.89186 8.26057 8.86406 8.28199 8.87387 8.30177C8.8804 8.31002 8.88697 8.31332 8.89515 8.31497C8.87387 8.32157 8.85423 8.33148 8.83624 8.3496C8.86317 8.37085 8.89094 8.36677 8.91836 8.3627C8.92925 8.3611 8.94007 8.3595 8.95077 8.3595C8.95077 8.37149 8.95862 8.37555 8.96678 8.37979C8.97096 8.38195 8.97524 8.38418 8.97859 8.38753C8.93113 8.40569 8.8935 8.44527 8.88367 8.4733C8.87197 8.50186 8.8503 8.52042 8.82884 8.53882C8.81437 8.55124 8.79998 8.56355 8.78878 8.57884V8.60852C8.75719 8.6366 8.72468 8.66168 8.69265 8.68641C8.62682 8.73721 8.5629 8.78657 8.51227 8.85755C8.52208 8.85755 8.52208 8.86743 8.52208 8.87733C8.51303 8.89102 8.50016 8.90051 8.48795 8.9095C8.47366 8.92001 8.46028 8.92983 8.45501 8.94494C8.45501 8.95484 8.45501 8.96474 8.46481 8.96474C8.52486 8.94486 8.57681 8.91138 8.62773 8.87855C8.67395 8.84877 8.71933 8.81952 8.76914 8.80147C8.80986 8.79167 8.84531 8.77316 8.8799 8.75511C8.90924 8.7398 8.93797 8.7248 8.96876 8.71571C8.9925 8.71078 9.01867 8.70377 9.04485 8.69674C9.07102 8.68973 9.09722 8.68273 9.12094 8.67778C9.12094 8.68768 9.12094 8.69758 9.13074 8.69758H9.20602C9.20138 8.7088 9.18676 8.71048 9.17676 8.71162Z" fill="#F1F1F1"/>
<path d="M19.0034 5.0777H13.5528C13.5528 5.0777 13.5627 5.07935 13.6039 5.1008C13.6484 5.12393 13.7061 5.15529 13.7406 5.17344C13.8115 5.20977 13.8791 5.25598 13.9236 5.32696C13.9433 5.35502 13.9713 5.4128 13.9532 5.45076C13.9334 5.49864 13.9236 5.57623 13.8758 5.59438C13.8181 5.62409 13.7423 5.62409 13.6747 5.61418C13.6369 5.61418 13.599 5.60428 13.5594 5.59438C13.7028 5.65217 13.8379 5.71985 13.9334 5.85355C13.9433 5.87335 13.9812 5.88163 14.0191 5.88163C14.029 5.88163 14.029 5.90143 14.029 5.90968C14.0092 5.92949 13.9911 5.93939 14.001 5.96747H14.029C14.0768 5.94764 14.0669 5.8519 14.1344 5.88163C14.1822 5.90968 14.202 5.97737 14.1724 6.02523C14.1344 6.06321 14.0966 6.09291 14.057 6.12097C14.0471 6.14079 14.0471 6.16885 14.057 6.18865C14.085 6.22663 14.0949 6.26459 14.1048 6.3042C14.1344 6.37188 14.1427 6.44782 14.1724 6.51551C14.2103 6.65913 14.2481 6.80273 14.2399 6.948C14.2399 7.02394 14.202 7.09162 14.23 7.16921C14.2498 7.24515 14.2976 7.30291 14.3355 7.37059C14.3734 7.42838 14.4113 7.46633 14.4409 7.52412C14.4986 7.61986 14.6041 7.7156 14.5563 7.83117C14.5282 7.89883 14.4228 7.88893 14.3552 7.92691C14.2976 7.97477 14.3454 8.05235 14.375 8.10024C14.4228 8.18607 14.3173 8.24383 14.2498 8.27356C14.2696 8.30327 14.3075 8.29337 14.3173 8.31152C14.3272 8.3594 14.375 8.38746 14.3454 8.43699C14.3075 8.49475 14.1921 8.52283 14.2498 8.61032C14.2877 8.678 14.263 8.75227 14.2399 8.8216C14.2119 8.90744 14.1344 8.94542 14.0669 8.96523C14.0092 8.98503 13.9417 8.98503 13.8857 8.97513C13.8659 8.96523 13.8477 8.95532 13.828 8.95532C13.6649 8.93552 13.5017 8.88929 13.3403 8.88929C13.2925 8.89919 13.2447 8.90744 13.2068 8.92724C13.164 8.95862 13.1244 8.99328 13.0915 9.02961C13.0915 9.02961 13.0915 9.02961 13.0898 9.03126C13.0832 9.03951 13.075 9.04611 13.0684 9.05437C13.0651 9.05932 13.0601 9.06427 13.0569 9.06922C13.0536 9.07252 13.0519 9.07582 13.0486 9.07912C13.0206 9.1138 12.9959 9.15176 12.9728 9.18974C12.9712 9.19304 12.9695 9.19469 12.9679 9.19634C12.9662 9.20129 12.963 9.20459 12.9597 9.20954C12.9283 9.2673 12.9053 9.32673 12.8871 9.38617C12.8212 9.60573 12.8509 9.79391 12.897 9.84012C12.9102 9.85332 13.2134 9.94743 13.4243 10.0415C13.5232 10.0861 13.5924 10.1191 13.65 10.1554H19.0017V5.0777H19.0034Z" fill="#F1F1F1"/>
<path d="M13.8766 6.92971C13.9146 6.93959 13.9722 6.93959 13.9722 6.95937C13.9525 7.0352 13.8387 7.05501 13.781 7.13249H13.7514C13.7234 7.15227 13.7316 7.20008 13.7036 7.20008C13.6756 7.19018 13.6459 7.20008 13.6179 7.20998C13.6558 7.24788 13.7036 7.27756 13.7613 7.26766C13.7712 7.26766 13.7893 7.28744 13.7893 7.30559C13.7893 7.30559 13.7992 7.30559 13.8091 7.29569C13.819 7.29569 13.8289 7.29569 13.8289 7.30559V7.3435C13.8008 7.38143 13.7514 7.36328 13.7135 7.37153C13.791 7.3913 13.8668 7.3913 13.9343 7.37153C13.992 7.35175 13.9343 7.25613 13.9722 7.20833C13.9525 7.20833 13.9722 7.17865 13.9525 7.17865C13.9722 7.15887 13.9904 7.13084 14.0101 7.12094C14.0299 7.12094 14.0579 7.11104 14.0678 7.09126C14.0678 7.07148 14.0299 7.06323 14.0381 7.04345C14.0958 7.00555 14.1436 6.94784 14.1238 6.89013C14.114 6.86045 14.0381 6.86045 13.9904 6.84233C13.9426 6.8242 13.8849 6.84233 13.8272 6.85223C13.7794 6.85223 13.7316 6.88191 13.6838 6.89013C13.6162 6.90991 13.5586 6.94784 13.5025 6.98575C13.5701 6.95774 13.636 6.94784 13.7135 6.92806C13.7712 6.92971 13.819 6.91651 13.8766 6.92971Z" fill="#F1F1F1"/>
<path d="M5.58953 16.5026V12.9482H6.48649L7.35304 14.441L8.2196 12.9482H9.11656V16.5026H8.39696V13.9536L7.60642 15.2839H7.09967L6.30913 13.9536V16.5026H5.58953ZM10.1826 16.5026V12.9482H10.9022V16.5026H10.1826ZM11.9697 16.5026V12.9482H12.892L14.4782 15.5175V12.9482H15.1978V16.5026H14.2755L12.6893 13.9332V16.5026H11.9697ZM16.2659 16.5026V12.9482H16.9855V16.5026H16.2659ZM17.7337 16.01L18.2557 15.5276C18.4685 15.8018 18.7523 15.9643 19.0412 15.9643C19.3249 15.9643 19.4972 15.812 19.4972 15.5581C19.4972 14.9031 17.8858 15.0808 17.8858 13.8774C17.8858 13.3138 18.352 12.8466 19.031 12.8466C19.5631 12.8466 19.9685 13.0853 20.2726 13.4458L19.7456 13.9231C19.5378 13.654 19.3047 13.4762 19.0361 13.4762C18.7827 13.4762 18.6155 13.6387 18.6155 13.852C18.6155 14.4969 20.227 14.3141 20.227 15.5327C20.2168 16.203 19.6999 16.6041 19.0462 16.6041C18.4483 16.6041 18.0479 16.3858 17.7337 16.01ZM20.6679 13.6032V12.9482H23.5767V13.6032H22.4821V16.5026H21.7625V13.6032H20.6679ZM24.9992 12.6435L24.3455 11.958H25.0854L25.6581 12.6435H24.9992ZM24.2847 16.5026V12.9482H26.3524V13.5473H25.0043V14.3902H26.1497V14.9894H25.0043V15.9034H26.3524V16.5026H24.2847ZM27.2645 16.5026V12.9482H28.349C29.1294 12.9482 29.6108 13.3493 29.6108 14.0094C29.6108 14.441 29.403 14.7609 29.0382 14.9285L30.148 16.5026H29.3017L28.3541 15.0656H27.9841V16.5026H27.2645ZM28.3895 13.5473H27.9841V14.4664H28.3895C28.6936 14.4664 28.871 14.2887 28.871 13.9993C28.871 13.7301 28.6936 13.5473 28.3895 13.5473ZM30.6798 16.5026V12.9482H32.7474V13.5473H31.3994V14.3902H32.5447V14.9894H31.3994V15.9034H32.7474V16.5026H30.6798ZM5.58953 21.8342V18.2798H6.98311C8.10811 18.2798 8.86825 19.0973 8.86825 20.057C8.86825 21.0167 8.10811 21.8342 6.98311 21.8342H5.58953ZM6.99325 18.9348H6.30913V21.1791H6.99325C7.65203 21.1791 8.12838 20.6866 8.12838 20.057C8.12838 19.4223 7.65203 18.9348 6.99325 18.9348ZM9.63824 21.8342V18.2798H11.7058V18.8789H10.3578V19.7218H11.5031V20.321H10.3578V21.235H11.7058V21.8342H9.63824ZM14.0092 21.8342V18.2798H14.7288V21.1791H16.0768V21.8342H14.0092ZM16.597 19.7422H15.999L16.4551 18.2798H17.1848L16.597 19.7422ZM16.9692 21.8342L18.3121 18.2798H19.2547L20.5976 21.8342H19.8324L19.4929 20.91H18.074L17.7344 21.8342H16.9692ZM18.2969 20.2956H19.2699L18.7834 18.9602L18.2969 20.2956ZM22.774 21.2604C23.1084 21.2604 23.3973 21.1436 23.6 20.9507V20.3312H22.6979V19.7168H24.3196V21.2096C23.9902 21.6514 23.4378 21.9357 22.774 21.9357C21.6236 21.9357 20.8381 21.0725 20.8381 20.057C20.8381 19.0414 21.6033 18.1782 22.7233 18.1782C23.3669 18.1782 23.8939 18.4676 24.2182 18.8993L23.6506 19.341C23.4479 19.0516 23.1287 18.8536 22.7233 18.8536C22.0544 18.8536 21.578 19.3766 21.578 20.057C21.578 20.7374 22.0797 21.2604 22.774 21.2604ZM25.1959 21.8342V18.2798H26.2804C27.0608 18.2798 27.5422 18.6809 27.5422 19.341C27.5422 19.7726 27.3345 20.0925 26.9696 20.2601L28.0794 21.8342H27.2331L26.2855 20.3972H25.9155V21.8342H25.1959ZM26.321 18.8789H25.9155V19.798H26.321C26.625 19.798 26.8024 19.6203 26.8024 19.3309C26.8024 19.0617 26.625 18.8789 26.321 18.8789ZM28.6112 21.8342V18.2798H29.3308V21.8342H28.6112ZM31.9794 21.2604C32.3848 21.2604 32.7041 21.0624 32.9068 20.7729L33.4743 21.2096C33.15 21.6514 32.623 21.9357 31.9794 21.9357C30.8595 21.9357 30.0943 21.0725 30.0943 20.057C30.0943 19.0414 30.8595 18.1782 31.9794 18.1782C32.623 18.1782 33.15 18.4676 33.4743 18.8993L32.9068 19.341C32.7041 19.0516 32.3848 18.8536 31.9794 18.8536C31.3105 18.8536 30.8341 19.3766 30.8341 20.057C30.8341 20.7374 31.3105 21.2604 31.9794 21.2604ZM36.227 20.5038V18.2798H36.9466V20.4429C36.9466 21.3772 36.3993 21.9357 35.5074 21.9357C34.6206 21.9357 34.0733 21.3772 34.0733 20.4429V18.2798H34.7929V20.5038C34.7929 20.9811 35.0615 21.2604 35.5125 21.2604C35.9534 21.2604 36.227 20.9811 36.227 20.5038ZM37.9166 21.8342V18.2798H38.6362V21.1791H39.9841V21.8342H37.9166ZM39.9129 18.9348V18.2798H42.8217V18.9348H41.7271V21.8342H41.0075V18.9348H39.9129ZM45.6218 20.5038V18.2798H46.3414V20.4429C46.3414 21.3772 45.7941 21.9357 44.9022 21.9357C44.0154 21.9357 43.4681 21.3772 43.4681 20.4429V18.2798H44.1877V20.5038C44.1877 20.9811 44.4563 21.2604 44.9073 21.2604C45.3481 21.2604 45.6218 20.9811 45.6218 20.5038ZM47.3113 21.8342V18.2798H48.3958C49.1762 18.2798 49.6576 18.6809 49.6576 19.341C49.6576 19.7726 49.4498 20.0925 49.085 20.2601L50.1948 21.8342H49.3485L48.4009 20.3972H48.0309V21.8342H47.3113ZM48.4363 18.8789H48.0309V19.798H48.4363C48.7404 19.798 48.9177 19.6203 48.9177 19.3309C48.9177 19.0617 48.7404 18.8789 48.4363 18.8789ZM50.7266 21.8342V18.2798H52.7942V18.8789H51.4462V19.7218H52.5915V20.321H51.4462V21.235H52.7942V21.8342H50.7266ZM5.58953 27.1658V23.6114H7.6571V24.2105H6.30913V25.0534H7.4544V25.6526H6.30913V26.5666H7.6571V27.1658H5.58953ZM8.27866 24.2664V23.6114H11.1874V24.2664H10.0929V27.1658H9.37326V24.2664H8.27866ZM13.2867 27.1658V23.6114H14.6803C15.8053 23.6114 16.5654 24.4289 16.5654 25.3886C16.5654 26.3483 15.8053 27.1658 14.6803 27.1658H13.2867ZM14.6904 24.2664H14.0063V26.5108H14.6904C15.3492 26.5108 15.8255 26.0182 15.8255 25.3886C15.8255 24.7539 15.3492 24.2664 14.6904 24.2664ZM17.3354 27.1658V23.6114H19.403V24.2105H18.055V25.0534H19.2003V25.6526H18.055V26.5666H19.403V27.1658H17.3354ZM21.7064 27.1658V23.6114H22.426V26.5108H23.7739V27.1658H21.7064ZM24.1907 27.1658L25.5337 23.6114H26.4763L27.8192 27.1658H27.054L26.7144 26.2416H25.2955L24.9559 27.1658H24.1907ZM25.5185 25.6272H26.4915L26.005 24.2918L25.5185 25.6272ZM29.5148 26.6732L30.0367 26.1909C30.2496 26.4651 30.5334 26.6275 30.8222 26.6275C31.106 26.6275 31.2783 26.4752 31.2783 26.2213C31.2783 25.5663 29.6668 25.744 29.6668 24.5406C29.6668 23.977 30.133 23.5098 30.8121 23.5098C31.3442 23.5098 31.7496 23.7485 32.0536 24.109L31.5266 24.5863C31.3188 24.3172 31.0857 24.1395 30.8172 24.1395C30.5638 24.1395 30.3965 24.3019 30.3965 24.5152C30.3965 25.1601 32.008 24.9773 32.008 26.1959C31.9979 26.8662 31.481 27.2673 30.8273 27.2673C30.2293 27.2673 29.829 27.049 29.5148 26.6732ZM34.3751 23.5098C35.49 23.5098 36.2552 24.373 36.2552 25.3886C36.2552 26.4041 35.49 27.2673 34.3751 27.2673C33.2552 27.2673 32.49 26.4041 32.49 25.3886C32.49 24.373 33.2552 23.5098 34.3751 23.5098ZM34.3751 26.592C35.0389 26.592 35.5153 26.069 35.5153 25.3886C35.5153 24.7082 35.0389 24.1852 34.3751 24.1852C33.7062 24.1852 33.2298 24.7082 33.2298 25.3886C33.2298 26.069 33.7062 26.592 34.3751 26.592ZM39.1128 25.8354V23.6114H39.8324V25.7745C39.8324 26.7088 39.2851 27.2673 38.3932 27.2673C37.5063 27.2673 36.959 26.7088 36.959 25.7745V23.6114H37.6786V25.8354C37.6786 26.3127 37.9472 26.592 38.3982 26.592C38.8391 26.592 39.1128 26.3127 39.1128 25.8354ZM40.3563 23.6114H41.1215L42.1705 26.3889L43.2195 23.6114H43.9847L42.6418 27.1658H41.6992L40.3563 23.6114ZM44.6085 27.1658V23.6114H46.6761V24.2105H45.3281V25.0534H46.4734V25.6526H45.3281V26.5666H46.6761V27.1658H44.6085ZM47.5883 27.1658V23.6114H48.6727C49.4531 23.6114 49.9345 24.0125 49.9345 24.6726C49.9345 25.1042 49.7268 25.4241 49.3619 25.5917L50.4717 27.1658H49.6254L48.6778 25.7288H48.3079V27.1658H47.5883ZM48.7133 24.2105H48.3079V25.1296H48.7133C49.0173 25.1296 49.1947 24.9519 49.1947 24.6625C49.1947 24.3933 49.0173 24.2105 48.7133 24.2105ZM50.7112 27.1658L52.0541 23.6114H52.9966L54.3395 27.1658H53.5743L53.2348 26.2416H51.8159L51.4764 27.1658H50.7112ZM52.0389 25.6272H53.0118L52.5253 24.2918L52.0389 25.6272ZM54.9633 27.1658V23.6114H55.6829V27.1658H54.9633ZM56.7504 27.1658V23.6114H57.6727L59.2589 26.1807V23.6114H59.9785V27.1658H59.0562L57.47 24.5965V27.1658H56.7504ZM61.0465 27.1658V23.6114H63.114V24.2105H61.7661V25.0534H62.9113V25.6526H61.7661V26.5666H63.114V27.1658H61.0465ZM63.7356 24.2664V23.6114H66.6444V24.2664H65.5498V27.1658H64.8302V24.2664H63.7356ZM68.7056 23.3067H68.0519L68.6245 22.6212H69.3644L68.7056 23.3067ZM67.3525 27.1658V23.6114H69.4201V24.2105H68.0721V25.0534H69.2174V25.6526H68.0721V26.5666H69.4201V27.1658H67.3525ZM5.14359 32.4974L6.48649 28.943H7.42906L8.77196 32.4974H8.00676L7.66723 31.5732H6.24832L5.90879 32.4974H5.14359ZM6.47129 30.9588H7.44426L6.95777 29.6234L6.47129 30.9588ZM9.39576 32.4974V28.943H10.1154V31.8424H11.4633V32.4974H9.39576ZM12.1726 32.4974V28.943H12.8922V32.4974H12.1726ZM13.9597 32.4974V28.943H14.8567L15.7232 30.4358L16.5898 28.943H17.4868V32.4974H16.7672V29.9484L15.9766 31.2787H15.4699L14.6793 29.9484V32.4974H13.9597ZM18.5528 32.4974V28.943H20.6204V29.5422H19.2724V30.3851H20.4177V30.9842H19.2724V31.8982H20.6204V32.4974H18.5528ZM21.5326 32.4974V28.943H22.4549L24.041 31.5123V28.943H24.7606V32.4974H23.8383L22.2522 29.9281V32.4974H21.5326ZM25.4638 29.598V28.943H28.3726V29.598H27.278V32.4974H26.5584V29.598H25.4638ZM28.2932 32.4974L29.6362 28.943H30.5787L31.9216 32.4974H31.1564L30.8169 31.5732H29.398L29.0585 32.4974H28.2932ZM29.621 30.9588H30.5939L30.1074 29.6234L29.621 30.9588ZM32.5454 32.4974V28.943H33.265V32.4974H32.5454ZM34.3325 32.4974V28.943H35.417C36.1974 28.943 36.6788 29.3441 36.6788 30.0042C36.6788 30.4358 36.471 30.7557 36.1062 30.9233L37.216 32.4974H36.3697L35.422 31.0604H35.0521V32.4974H34.3325ZM35.4575 29.5422H35.0521V30.4612H35.4575C35.7616 30.4612 35.9389 30.2835 35.9389 29.9941C35.9389 29.725 35.7616 29.5422 35.4575 29.5422ZM37.7478 32.4974V28.943H39.8154V29.5422H38.4674V30.3851H39.6127V30.9842H38.4674V31.8982H39.8154V32.4974H37.7478Z" fill="#F1F1F1"/>
<path fill-rule="evenodd" clip-rule="evenodd" d="M18.2331 41.5612L17.7618 41.9928H17.6402L17.9189 41.5002H18.2331V41.5612ZM17.8936 43.2315H17.7922C17.6655 43.3838 17.5236 43.5057 17.3868 43.5057C17.2449 43.5057 17.174 43.4194 17.174 43.2315C17.174 43.1553 17.1841 43.0741 17.1993 43.003L18.0253 42.7288C18.1875 42.3429 17.9949 42.1753 17.7669 42.1753C17.3767 42.1753 16.9307 42.8608 16.9307 43.4092C16.9307 43.6682 17.0524 43.8104 17.2449 43.8104C17.4679 43.8053 17.701 43.5869 17.8936 43.2315ZM17.6101 42.399C17.7216 42.399 17.8179 42.4853 17.7672 42.6833L17.2554 42.8205C17.3365 42.5767 17.4885 42.399 17.6101 42.399ZM15.9988 42.4089H16.2725L15.8367 43.6072C15.7961 43.7088 15.8519 43.8104 15.9583 43.8104C16.2674 43.8104 16.6374 43.5463 16.7792 43.1706H16.7032C16.5917 43.328 16.3485 43.5006 16.1661 43.5311L16.5664 42.4089H16.9769L17.0276 42.2363H16.6272L16.7792 41.8047H16.6222L16.3384 42.2363L15.9988 42.282V42.4089ZM15.6185 42.1807C15.6742 42.1807 15.7503 42.2416 15.7148 42.3533L15.2232 43.5466C15.3499 43.5263 15.4816 43.4044 15.5577 43.2927H15.6387C15.5222 43.5923 15.2587 43.8106 15.0306 43.8106C14.9749 43.8106 14.8938 43.7497 14.9343 43.638L15.3904 42.4447C15.2637 42.465 15.132 42.5869 15.056 42.6986H14.98C15.0965 42.3939 15.3803 42.1807 15.6185 42.1807ZM15.7607 41.876C15.8621 41.876 15.9482 41.7947 15.9482 41.6881C15.9482 41.5866 15.8621 41.5002 15.7607 41.5002C15.6543 41.5002 15.5732 41.5866 15.5732 41.6881C15.5732 41.7897 15.6594 41.876 15.7607 41.876ZM13.5461 42.8661C13.6576 42.6224 13.617 42.5107 13.5461 42.5107C13.4853 42.5107 13.4143 42.5767 13.3434 42.6986H13.2673C13.3839 42.4396 13.536 42.1807 13.7032 42.1807C13.8451 42.1807 13.8958 42.3228 13.8958 42.4802V42.7037C13.9186 42.6773 13.9408 42.6511 13.9624 42.6255L13.9628 42.625L13.9632 42.6247C14.1773 42.3729 14.3407 42.1807 14.5292 42.1807C14.6762 42.1807 14.7522 42.2721 14.7522 42.4092C14.7522 42.4904 14.7268 42.592 14.6711 42.6986L14.2505 43.5466C14.3772 43.5263 14.5089 43.4044 14.5849 43.2927H14.661C14.5444 43.5973 14.2606 43.8106 14.0224 43.8106C13.916 43.8106 13.8552 43.6989 13.9008 43.6075L14.3873 42.6681C14.443 42.5615 14.4532 42.4904 14.367 42.4904C14.2505 42.4904 13.9768 42.6834 13.8299 42.8611L13.5106 43.704C13.4751 43.7903 13.4397 43.8106 13.3586 43.8106C13.2268 43.8106 13.1609 43.7243 13.2217 43.5872L13.5461 42.8661ZM13.2163 42.5409C13.2721 42.348 13.2417 42.1753 13.0947 42.1753C12.9114 42.1753 12.854 42.2967 12.6764 42.6719L12.6639 42.6983V42.4749C12.6639 42.3175 12.6133 42.1753 12.4714 42.1753C12.3041 42.1753 12.1521 42.4343 12.0355 42.6933H12.1116C12.1926 42.5765 12.2687 42.5054 12.3295 42.5054C12.4004 42.5054 12.441 42.6171 12.3295 42.8608L12.0051 43.5819C11.9443 43.719 12.0102 43.8053 12.142 43.8053C12.223 43.8053 12.2585 43.785 12.294 43.6986L12.6133 42.8557C12.7045 42.744 12.7855 42.6476 12.8869 42.5409H13.2163ZM11.615 42.6833C11.6657 42.4853 11.5694 42.399 11.4579 42.399C11.3363 42.399 11.1843 42.5767 11.1032 42.8205L11.615 42.6833ZM11.7414 43.2315H11.6401C11.5134 43.3838 11.3715 43.5057 11.2346 43.5057C11.0928 43.5057 11.0218 43.4194 11.0218 43.2315C11.0218 43.1553 11.0319 43.0741 11.0471 43.003L11.8732 42.7288C12.0353 42.3429 11.8428 42.1753 11.6147 42.1753C11.2245 42.1753 10.7786 42.8608 10.7786 43.4092C10.7786 43.6682 10.9002 43.8104 11.0928 43.8104C11.3158 43.8053 11.5489 43.5869 11.7414 43.2315ZM10.1203 42.4089H9.84666V42.282L10.1862 42.2363L10.47 41.8047H10.6271L10.4751 42.2363H10.8754L10.8247 42.4089H10.4143L10.0139 43.5311C10.1964 43.5006 10.4396 43.328 10.5511 43.1706H10.6271C10.4852 43.5463 10.1152 43.8104 9.80612 43.8104C9.6997 43.8104 9.64396 43.7088 9.6845 43.6072L10.1203 42.4089ZM8.39757 43.3381C8.39757 42.9675 8.80806 42.4701 9.0361 42.4701C9.08678 42.4701 9.13746 42.4752 9.178 42.4904L8.93982 43.1299C8.803 43.2975 8.59016 43.5006 8.48878 43.5006C8.43304 43.5006 8.39757 43.4498 8.39757 43.3381ZM9.52779 42.0994L9.65448 42.1096L9.2136 43.1249C9.10718 43.3686 9.15279 43.4803 9.2136 43.4803C9.27441 43.4803 9.35042 43.4092 9.4315 43.2924H9.50751C9.39096 43.5514 9.23893 43.8104 9.0717 43.8104C8.92981 43.8104 8.84366 43.658 8.869 43.3838L8.87914 43.2873L8.85154 43.3262C8.67 43.5803 8.50573 43.8104 8.33688 43.8104C8.18992 43.8104 8.11391 43.719 8.11391 43.5819C8.11391 42.9931 8.75752 42.2416 9.36056 42.2416H9.38589L9.52779 42.0994ZM8.36698 42.5409C8.42273 42.348 8.39232 42.1753 8.24536 42.1753C8.06207 42.1753 8.00468 42.2967 7.82708 42.6719L7.81462 42.6983V42.4749C7.81462 42.3175 7.76394 42.1753 7.62203 42.1753C7.4548 42.1753 7.30277 42.4343 7.18621 42.6933H7.26223C7.34331 42.5765 7.41932 42.5054 7.47507 42.5054C7.54601 42.5054 7.58655 42.6171 7.47507 42.8608L7.15074 43.5869C7.08993 43.724 7.15581 43.8104 7.28757 43.8104C7.36865 43.8104 7.40412 43.79 7.43959 43.7037L7.75888 42.8608C7.85009 42.7491 7.93117 42.6526 8.03252 42.546H8.36698V42.5409ZM6.27874 43.6578L6.24833 43.7492H5.06757L5.09797 43.6527C5.46284 43.5867 5.52365 43.5562 5.67567 43.1449L6.00509 42.2614C6.15205 41.8501 6.12165 41.8196 5.80236 41.7536L5.83277 41.6622H7.36827L7.27705 42.1548H7.16556C7.16556 41.8603 7.13516 41.7841 6.85644 41.7841H6.7855C6.51185 41.7841 6.47637 41.8247 6.40036 42.038L6.18246 42.6321H6.50171C6.71455 42.6321 6.79563 42.5 6.89192 42.3274H7.0034L6.73989 43.0484H6.6284C6.65374 42.8301 6.65374 42.7438 6.4561 42.7438H6.13685L5.98989 43.15C5.83102 43.5727 5.87643 43.5813 6.25469 43.6532C6.26257 43.6547 6.27058 43.6562 6.27874 43.6578Z" fill="#F1F1F1"/>
<path fill-rule="evenodd" clip-rule="evenodd" d="M7.28202 37.6767L6.81073 38.0169V38.0219H6.68911L6.96783 37.6157H7.28202V37.6767ZM10.5764 40.0581L11.3314 38.0473L11.3061 38.0169L10.7842 38.0778V38.1387L10.8855 38.2149C10.972 38.2822 10.9491 38.3451 10.8773 38.5422L10.8652 38.5754L10.2875 40.119C10.2419 40.2104 10.3027 40.3221 10.4092 40.3221C10.6473 40.3221 10.9007 40.1038 11.0173 39.8042H10.9413C10.8602 39.9159 10.698 40.0378 10.5764 40.0581ZM14.0372 38.5094L14.5084 38.0778V38.0169H14.1943L13.9155 38.5094H14.0372ZM14.0672 39.7433H14.1686C13.9811 40.1038 13.748 40.3221 13.525 40.3221C13.3324 40.3221 13.2108 40.18 13.2108 39.921C13.2108 39.3726 13.6568 38.6871 14.047 38.6871C14.2699 38.6871 14.4676 38.8547 14.3054 39.2406L13.4743 39.5148C13.4591 39.5859 13.449 39.6671 13.449 39.7433C13.449 39.9312 13.5199 40.0175 13.6618 40.0175C13.7987 40.0175 13.9405 39.8956 14.0672 39.7433ZM14.0416 39.1949C14.0923 39.0019 13.996 38.9156 13.8846 38.9156C13.768 38.9156 13.616 39.0933 13.5298 39.332L14.0416 39.1949ZM12.5518 38.9255H12.2781V38.7986L12.6177 38.7529L12.9014 38.3213H13.0585L12.9065 38.7529H13.3068L13.2562 38.9255H12.8457L12.4454 40.0477C12.6278 40.0172 12.871 39.8446 12.9825 39.6872H13.0585C12.9166 40.0629 12.5467 40.327 12.2376 40.327C12.1312 40.327 12.0754 40.2254 12.116 40.1239L12.5518 38.9255ZM11.9943 38.8646C12.0247 38.7529 11.9538 38.6919 11.893 38.6919C11.6548 38.6919 11.371 38.9103 11.2545 39.2099H11.3305C11.4065 39.0982 11.5382 38.9763 11.6649 38.956L11.2088 40.1493C11.1683 40.261 11.2494 40.3219 11.3051 40.3219C11.5332 40.3219 11.7967 40.1036 11.9132 39.804H11.8372C11.7612 39.9157 11.6295 40.0375 11.5028 40.0579L11.9943 38.8646ZM12.2278 38.2047C12.2278 38.3063 12.1417 38.3926 12.0403 38.3926C11.939 38.3926 11.8528 38.3063 11.8528 38.2047C11.8528 38.1032 11.9339 38.0169 12.0403 38.0169C12.1417 38.0169 12.2278 38.1032 12.2278 38.2047ZM9.66922 38.9867C9.44118 38.9867 9.03071 39.4843 9.03071 39.855C9.03071 39.9667 9.06618 40.0175 9.12699 40.0175C9.22328 40.0175 9.43611 39.8144 9.57294 39.6468L9.81111 39.007C9.76551 38.9918 9.7199 38.9867 9.66922 38.9867ZM10.2876 38.6262L10.1609 38.616L10.019 38.7582H9.99367C9.39063 38.7582 8.74705 39.5097 8.74705 40.0987C8.74705 40.2358 8.82306 40.3272 8.97002 40.3272C9.13888 40.3272 9.30314 40.0972 9.48466 39.8428L9.51225 39.8042L9.50212 39.9007C9.47678 40.1749 9.56293 40.3272 9.70482 40.3272C9.87205 40.3272 10.0241 40.0683 10.1406 39.8093H10.0646C9.98354 39.9261 9.90752 39.9972 9.84671 39.9972C9.7859 39.9972 9.74029 39.8855 9.84671 39.6417L10.2876 38.6262ZM7.73326 40.2714C7.51535 40.3577 7.36333 40.4592 7.36333 40.6167C7.36333 40.7639 7.50015 40.8248 7.78393 40.8248C8.164 40.8248 8.37177 40.7131 8.37177 40.5659C8.37177 40.4999 8.28562 40.4694 8.05758 40.3932C7.91062 40.3475 7.8042 40.3069 7.73326 40.2714ZM7.98631 39.6468C7.88496 39.6468 7.84948 39.5605 7.84948 39.4691C7.84948 39.1746 7.99138 38.809 8.21942 38.809C8.32077 38.809 8.35624 38.8953 8.35624 38.9867C8.35117 39.2863 8.20928 39.6468 7.98631 39.6468ZM8.17938 40.1241C8.4581 40.2104 8.6304 40.2764 8.6304 40.4694C8.6304 40.7182 8.17431 41.0127 7.62195 41.0076C7.30269 41.0076 7.02904 40.9213 7.02904 40.7131C7.02904 40.5151 7.21148 40.3526 7.65742 40.2206C7.59661 40.18 7.57127 40.1292 7.57127 40.0581C7.57127 39.9362 7.68276 39.8398 7.87533 39.7484C7.68783 39.723 7.56621 39.5808 7.56621 39.3726C7.56621 39.0527 7.82972 38.6871 8.24526 38.6871C8.33141 38.6871 8.40742 38.7074 8.46823 38.7481H8.92431L8.87364 38.9207H8.60506C8.62026 38.9664 8.6304 39.0172 8.6304 39.073C8.6304 39.3828 8.38208 39.7382 7.98681 39.7585C7.88546 39.8144 7.83479 39.8905 7.83479 39.9515C7.83479 40.0231 7.91769 40.0474 8.10089 40.101C8.12526 40.1081 8.15141 40.1157 8.17938 40.1241ZM6.57263 39.2558C6.77027 39.2558 6.77534 39.3421 6.74493 39.5605H6.85642L7.11993 38.8395H7.00844C6.91216 39.0121 6.83108 39.1441 6.61824 39.1441H6.18243L6.39527 38.55C6.47128 38.3368 6.50676 38.2961 6.7804 38.2961H6.97297C7.25169 38.2961 7.28209 38.3723 7.28209 38.6668H7.39358L7.4848 38.1743H5.83277L5.80236 38.2657C6.12162 38.3317 6.15203 38.3621 6.00507 38.7734L5.67567 39.662C5.52365 40.0733 5.46284 40.1038 5.0929 40.1698L5.06757 40.2663H6.90203L7.23142 39.7433H7.10473C6.89189 39.9515 6.67905 40.1444 6.26351 40.1444C5.80644 40.1444 5.81458 40.1221 5.95173 39.7446C5.96055 39.7202 5.96992 39.6945 5.97973 39.6671L6.13176 39.2609H6.57263V39.2558Z" fill="#F1F1F1"/>
<path fill-rule="evenodd" clip-rule="evenodd" d="M8.08738 34.9042C8.18873 34.9042 8.27488 34.8179 8.27488 34.7163C8.27488 34.6148 8.18873 34.5284 8.08738 34.5284C7.98096 34.5284 7.89988 34.6148 7.89988 34.7163C7.89988 34.823 7.98096 34.9042 8.08738 34.9042ZM9.58791 35.5437C9.58791 35.3 9.5271 35.2086 9.3548 35.2086C9.14197 35.2086 8.94433 35.4371 8.7467 35.7113L9.17237 34.5688L9.14703 34.5333L8.62507 34.5942V34.6551L8.72643 34.7313C8.81468 34.8001 8.78909 34.8689 8.71393 35.071L8.70616 35.0918L8.24501 36.3003C8.20447 36.4019 8.15886 36.5237 8.15886 36.5542C8.15886 36.6964 8.35143 36.8335 8.52879 36.8335C8.92406 36.8385 9.58791 36.1074 9.58791 35.5437ZM13.9814 35.0258L14.4527 34.5942V34.5333H14.1385L13.8598 35.0258H13.9814ZM14.0119 36.2597H14.1133C13.9207 36.6202 13.6876 36.8385 13.4647 36.8335C13.2721 36.8335 13.1505 36.6964 13.1505 36.4374C13.1505 35.889 13.5964 35.2035 13.9866 35.2035C14.2096 35.2035 14.4072 35.3711 14.2451 35.757L13.419 36.0312C13.4038 36.1023 13.3937 36.1835 13.3937 36.2597C13.3937 36.4476 13.4647 36.5339 13.6065 36.5339C13.7434 36.5339 13.8853 36.412 14.0119 36.2597ZM13.9861 35.7113C14.0368 35.5183 13.9405 35.432 13.829 35.432C13.7074 35.432 13.5554 35.6097 13.4743 35.8484L13.9861 35.7113ZM12.4906 35.4424H12.217V35.3155L12.5565 35.2698L12.8403 34.8384H12.9974L12.8454 35.2698H13.2457L13.195 35.4424H12.7846L12.3842 36.5646C12.5667 36.5341 12.8099 36.3615 12.9214 36.2041H12.9974C12.8555 36.5798 12.4856 36.8439 12.1765 36.8439C12.07 36.8439 12.0143 36.7423 12.0548 36.6408L12.4906 35.4424ZM12.0761 35.5745C12.1318 35.3815 12.1014 35.2089 11.9544 35.2089C11.7712 35.2089 11.7138 35.3302 11.5362 35.7057L11.5237 35.7319V35.5084C11.5237 35.351 11.473 35.2089 11.3311 35.2089C11.1639 35.2089 11.0119 35.4678 10.8953 35.7268H10.9714C11.0524 35.61 11.1285 35.5389 11.1842 35.5389C11.2551 35.5389 11.2957 35.6506 11.1842 35.8944L10.8599 36.6154C10.7991 36.7525 10.8649 36.8388 10.9967 36.8388C11.0778 36.8388 11.1133 36.8185 11.1487 36.7322L11.468 35.8893C11.5592 35.7776 11.6403 35.6811 11.7416 35.5745H12.0761ZM10.4698 35.7113C10.5205 35.5183 10.4242 35.432 10.3127 35.432C10.1911 35.432 10.0441 35.6097 9.95797 35.8484L10.4698 35.7113ZM10.5962 36.2597H10.4948C10.3681 36.412 10.2262 36.5339 10.0894 36.5339C9.94751 36.5339 9.87659 36.4476 9.87659 36.2597C9.87659 36.1835 9.88672 36.1023 9.90192 36.0312L10.7279 35.757C10.8901 35.3711 10.6975 35.2035 10.4695 35.2035C10.0793 35.2035 9.63334 35.889 9.63334 36.4374C9.63334 36.6964 9.75496 36.8335 9.94751 36.8335C10.1705 36.8385 10.4036 36.6202 10.5962 36.2597ZM8.46818 36.4529C8.46818 36.5189 8.58474 36.5951 8.66582 36.5951C8.99521 36.5951 9.30433 36.001 9.29926 35.6709C9.29926 35.5592 9.24352 35.5135 9.16751 35.5135C9.04589 35.5135 8.82291 35.6963 8.68102 35.869L8.54926 36.2244C8.50366 36.3412 8.46818 36.4326 8.46818 36.4529ZM7.93619 35.2089C7.997 35.2089 8.06795 35.2698 8.03754 35.3815L7.55105 36.5748C7.67774 36.5545 7.8095 36.4326 7.88551 36.3209H7.96153C7.84497 36.6205 7.58146 36.8388 7.35342 36.8388C7.29261 36.8388 7.21153 36.7779 7.25207 36.6662L7.70815 35.4729C7.58146 35.4932 7.4497 35.6151 7.37369 35.7268H7.29768C7.41423 35.4272 7.69801 35.2089 7.93619 35.2089ZM5.83277 34.681H6.92227L6.89186 34.7775C6.52193 34.8433 6.46112 34.8737 6.30909 35.285L5.98477 36.1787C5.8277 36.6052 5.86824 36.656 6.14693 36.656C6.4913 36.656 6.71708 36.4052 6.91424 36.1863C6.92888 36.1701 6.94338 36.1538 6.95774 36.1381H7.08443L6.72464 36.7779H5.06757L5.09797 36.6865C5.46284 36.6205 5.52365 36.59 5.67567 36.1787L6.00504 35.2799C6.152 34.8687 6.12159 34.8382 5.80236 34.7724L5.83277 34.681Z" fill="#F1F1F1"/>
</svg>
