<svg width="46" height="48" viewBox="0 0 46 48" fill="none" xmlns="http://www.w3.org/2000/svg">
<path d="M44.9636 25.3309C44.9636 37.278 35.2424 46.9636 23.2508 46.9636C11.2592 46.9636 1.53829 37.278 1.53829 25.3309C1.53829 13.3837 11.2594 3.69932 23.2508 3.69932C35.2422 3.69932 44.9636 13.3844 44.9636 25.3309ZM44.3886 22.5951C44.3886 34.5425 34.6677 44.2274 22.6761 44.2274C10.6844 44.2274 0.963562 34.5425 0.963562 22.5951C0.963562 10.6477 10.6847 0.963562 22.6761 0.963562C34.6675 0.963562 44.3886 10.6486 44.3886 22.5951V22.5951Z" stroke="#F1F1F1" stroke-width="1.92712"/>
<path d="M26.3751 29.3739C26.3938 29.4825 26.3805 29.5886 26.3497 29.6991C26.3314 29.7646 26.3085 29.8297 26.2852 29.8973C26.2671 29.9499 26.2496 30.0045 26.2344 30.0594C26.2289 30.0603 26.2226 30.0615 26.2159 30.0624C26.2076 30.0635 26.198 30.0648 26.1885 30.0663C26.1714 30.0691 26.1437 30.0737 26.1202 30.0868C26.1179 30.085 26.1146 30.0852 26.1133 30.0839C26.1088 30.0791 26.1046 30.0715 26.1006 30.0536C26.096 30.0326 26.0947 30.0094 26.0899 29.9696C26.0885 29.9576 26.0842 29.9451 26.0821 29.9315C26.0929 29.9291 26.1049 29.9298 26.1153 29.9257L26.171 29.9032L26.1612 29.8436C26.1531 29.793 26.1384 29.7644 26.129 29.746C26.1477 29.7342 26.1635 29.7198 26.1758 29.702C26.1966 29.672 26.2059 29.6357 26.211 29.619C26.2178 29.597 26.2217 29.5919 26.2237 29.5897C26.224 29.5894 26.2248 29.5879 26.2276 29.5868C26.2309 29.5855 26.2378 29.5836 26.2501 29.5829L26.3096 29.58L26.3204 29.5223C26.3274 29.4865 26.3305 29.4507 26.3331 29.4276C26.336 29.4013 26.3389 29.3898 26.3419 29.3837C26.3426 29.3821 26.343 29.3798 26.3506 29.3768C26.3559 29.3748 26.364 29.3754 26.3751 29.3739Z" fill="#F1F1F1" stroke="#F1F1F1" stroke-width="0.151028"/>
<path d="M23.2507 4.59052C34.2369 4.59052 43.1432 13.4636 43.1432 24.4089C43.1431 35.3547 34.2369 44.2272 23.2507 44.2272C12.2646 44.2271 3.35821 35.3547 3.35809 24.4089C3.35809 13.463 12.2645 4.59063 23.2507 4.59052ZM24.7956 25.9431C24.1018 26.1054 24.0953 26.5489 23.6432 26.821C23.6466 26.9565 23.5742 27.0312 23.6638 27.1491C23.3487 27.5237 23.0576 28.4803 23.0554 28.5817C22.851 28.9826 22.8222 29.5341 22.6784 29.8932C22.6784 29.9836 22.7581 29.9611 22.7585 30.0524C22.5524 30.2018 22.5175 30.5215 22.6091 30.6677C22.564 30.6767 22.5496 30.6454 22.4987 30.6677C22.5905 30.9345 22.537 31.2203 22.5729 31.5261C22.6031 31.8355 22.5537 32.1954 22.5876 32.4636C22.6003 32.5635 21.7115 33.6935 21.6286 33.777C21.4958 33.9139 21.5597 33.9567 21.4567 34.0778C21.3112 34.0331 21.2415 34.218 21.2067 34.3249C21.1719 34.3288 21.163 34.2983 21.1198 34.3112C21.0129 34.5725 20.7041 34.691 20.613 34.9645C20.3375 35.0678 19.106 36.0802 18.6706 36.0641C18.6656 36.2049 18.6452 36.1205 18.5593 36.1423C18.4782 36.2327 18.4177 36.3909 18.3669 36.4977C18.4801 36.5162 20.4702 35.9314 20.4997 35.5856C20.706 35.5264 20.916 35.2717 21.0202 35.0632C21.1659 34.9826 21.3242 34.8524 21.3161 34.7321C21.6395 34.6573 21.586 34.3153 21.8659 34.2048C21.8355 34.3129 22.68 33.097 22.696 33.1481C22.6392 33.821 22.671 34.8208 23.0661 35.2761C23.0666 35.2575 23.0802 35.2429 23.1061 35.2429C23.1391 35.3903 23.2894 35.515 23.3766 35.4675C23.358 35.4675 23.3451 35.4552 23.3434 35.4274C23.3938 35.45 23.4797 35.4186 23.5358 35.4304C23.8867 35.1929 24.1391 34.8129 24.3356 34.4255C24.5216 34.3501 24.6872 34.0996 24.7077 33.8571C24.8709 33.8391 24.84 33.7048 24.9479 33.655C24.9147 33.6015 24.8822 33.5353 24.9333 33.4909C24.9761 33.4752 24.9915 33.5051 25.0319 33.4909C25.0415 33.4008 25.0929 33.3338 25.1765 33.2868C25.4165 33.7676 25.0687 34.3139 25.3503 34.736C25.528 34.8076 25.667 34.7398 25.8474 34.6911C25.9311 34.4948 26.1426 34.3798 26.236 34.1911C26.2288 34.1019 26.1442 33.9644 26.2224 33.9294C26.2676 33.9789 26.2945 34.0653 26.3552 34.0905C26.3541 33.9858 26.4648 33.9487 26.5251 33.8806C26.586 33.9273 26.6388 33.9896 26.7038 34.0319C26.6776 34.2916 26.9366 34.3967 27.1081 34.5134C27.2622 34.4749 27.2984 34.4105 27.4518 34.4333C27.5966 34.3374 27.5907 34.0811 27.8659 34.0456C27.8946 33.9478 27.9984 33.8942 28.0231 33.7946C28.1686 33.7492 28.169 33.6325 28.2321 33.5524C28.2849 33.4819 28.3972 33.4308 28.4499 33.3571C28.5202 33.2581 28.5061 33.0739 28.6481 33.07C28.6319 33.0328 28.6298 32.9905 28.6423 32.9518C28.8481 32.7398 29.1402 32.5004 29.1188 32.2126C29.5002 31.91 29.4376 31.2639 29.8288 30.9235C30.0032 31.1724 29.8277 31.2903 29.9694 31.527C29.9429 31.5554 29.8881 31.5647 29.863 31.5915C29.8628 31.8577 29.6234 32.098 29.7438 32.321C29.627 32.3809 29.4992 32.5233 29.5886 32.6794C29.4477 32.6735 29.547 32.8385 29.4274 32.8493C29.5207 32.9766 29.4125 33.0808 29.4128 33.2067C29.5324 33.1653 29.5562 33.2545 29.6198 33.2927C29.6006 33.1951 29.6214 33.2332 29.6618 33.2585C29.6526 33.1522 29.7078 33.0896 29.821 33.069C29.8254 32.9768 29.8488 32.8983 29.9284 32.861C29.9178 32.8 29.9089 32.7371 29.8972 32.6765C29.9364 32.6699 29.9754 32.6626 30.0153 32.6569C29.9513 32.4478 30.1286 32.2999 30.0378 32.0837C30.0986 32.0568 30.0937 32.1235 30.1393 32.1149C30.291 31.6709 30.206 31.3989 30.5446 31.0934C30.5441 31.0001 30.433 31.0186 30.4831 30.9382C30.5493 30.9182 30.6559 30.9441 30.6979 30.9606C30.8165 30.7617 31.1027 30.6667 31.319 30.527C31.3561 30.6468 31.3478 30.6487 31.4138 30.7214C31.1694 31.1191 31.2947 31.6291 31.1276 32.0622C31.1705 32.4108 31.0736 32.5924 31.0837 32.8903C31.117 33.0133 31.2214 33.0269 31.2634 33.1364C31.526 33.1437 31.7062 32.9965 31.7468 32.7331C31.9668 32.6752 31.904 32.4435 32.1491 32.3991C32.1289 32.2253 32.233 32.127 32.3825 32.0554C32.3713 31.7169 32.9028 31.7154 32.8415 31.3454C32.9539 31.3354 32.9175 31.2749 32.9743 31.195C33.1738 31.2279 33.0471 30.9234 33.2692 30.9099C33.2731 30.6659 33.5045 30.5626 33.6003 30.3747C33.5852 30.2304 33.6635 30.1402 33.7692 30.071C33.7417 30.0735 33.7956 29.9004 33.9431 29.8854C33.9689 29.8307 33.9795 29.7689 33.9733 29.7087C33.9681 29.6459 34.2538 29.5004 34.3307 29.2897C34.5191 29.6984 34.4006 30.0171 34.363 30.4343C33.9478 30.3564 33.8912 30.7775 33.7556 31.0358C33.6357 31.0654 33.6091 31.1508 33.5876 31.2429C33.6359 31.2281 33.6648 31.2448 33.6735 31.2956C33.6168 31.2992 33.634 31.3476 33.5641 31.3444C33.3511 31.7799 33.2121 32.5892 33.7556 32.863C33.6882 32.7405 33.792 32.7205 33.8718 32.739C33.9036 32.6502 33.9483 32.5657 34.0046 32.4899C34.2403 32.3626 34.1841 32.0544 34.4001 31.9147C34.6223 32.1638 35.3346 32.2231 35.489 31.8278C35.7485 31.7972 36.142 31.5613 36.2136 31.322C36.2961 31.2898 36.3315 31.3413 36.3893 31.3513C36.5457 31.256 36.5964 30.9939 36.8259 31.0573C36.8284 30.9998 36.9166 30.9978 36.863 30.904C36.9282 30.88 36.9856 30.8375 37.027 30.7819C37.1715 30.655 37.3971 30.4378 37.53 30.4313C37.6188 30.3294 37.7016 30.2212 37.777 30.1091C37.7985 30.0759 37.9718 29.8272 38.0075 29.8307C38.0495 29.7633 38.0965 29.7473 38.0573 29.6696C38.1278 29.7163 38.0972 29.6212 38.1579 29.5544C38.1891 29.4201 38.2556 29.3428 38.3112 29.28C38.3128 29.2961 38.3413 29.224 38.2692 29.1179C38.3943 29.0689 38.3535 27.9118 38.2028 27.9421C38.1669 27.977 38.1844 28.0004 38.1872 28.0036C38.3299 28.2081 38.1474 29.1271 38.0329 29.362C37.9905 29.6318 37.6817 29.839 37.5153 30.03C37.2255 30.185 36.952 30.3587 36.6198 30.5612C36.6039 30.5703 36.5881 30.5808 36.5739 30.5925C36.57 30.5944 36.5664 30.597 36.5632 30.5983C36.5025 30.6455 36.4451 30.6978 36.3923 30.7536C35.9261 30.8864 35.6673 31.4161 35.0993 31.4499C35.0456 31.3682 34.9444 31.3608 34.82 31.3942C34.3255 31.0412 34.9566 30.2535 34.8347 29.7731C34.8778 29.7682 34.8777 29.7357 34.9196 29.7282C34.8136 29.2982 34.9968 28.6775 34.6247 28.5729C34.613 28.4862 34.7274 28.5659 34.652 28.4948C34.4931 28.5853 34.3562 28.8575 34.2526 29.0456C34.0583 29.1238 33.8993 29.3959 33.819 29.5554C33.6561 29.6886 33.5735 29.8717 33.5036 30.0632C33.3132 30.1708 33.312 30.3977 33.1276 30.5124C33.0974 30.7453 32.8268 30.831 32.8024 31.069C32.4045 31.3091 32.286 31.7257 31.9352 31.9938C31.9336 32.0773 31.9002 32.1422 31.864 32.2038C31.7652 32.1619 31.7309 32.2941 31.652 32.3268C31.4733 32.2403 31.5391 31.9253 31.6579 31.8434C31.5496 31.6353 31.6691 31.4989 31.5925 31.2585C31.8055 30.8263 31.8096 30.3711 31.8561 29.8259C31.8025 29.8193 31.7939 29.7351 31.7556 29.7057C31.6802 29.7421 31.6499 29.7062 31.6247 29.6638C31.1249 29.7466 30.9512 30.2047 30.5876 30.485C30.2962 30.3689 30.5572 29.8449 30.2077 29.7556C30.0814 29.942 30.0328 30.1145 29.7956 30.2614C29.7761 30.4505 29.6241 30.5579 29.6237 30.7595C29.5941 30.7452 29.5969 30.6784 29.5397 30.7067C29.5552 31.0332 29.1887 31.128 29.2663 31.4929C29.0826 31.6585 29.039 31.9825 28.8395 32.1384C28.849 32.1763 28.8577 32.2129 28.8669 32.2516C28.5025 32.4732 28.2579 32.9062 28.0231 33.2682C27.9884 33.2705 27.9746 33.2394 27.9431 33.238C27.9613 33.2873 27.9574 33.3258 27.9177 33.3405C27.6908 33.4601 27.5715 33.7197 27.277 33.7477C27.1276 33.572 26.9783 33.1317 27.3083 33.0046C27.317 32.9434 27.3886 32.7816 27.404 32.7272C27.4418 32.7512 27.5094 32.7267 27.569 32.7106C27.7656 32.3192 28.0763 32.0219 28.2604 31.6266C28.2668 31.614 28.3211 31.6235 28.3288 31.61C28.3511 31.5545 28.3303 31.4302 28.3835 31.3327C28.4371 31.2349 28.5798 31.0975 28.4977 30.9929C28.5182 30.9927 28.5387 30.9888 28.5573 30.9802C28.5759 30.9715 28.5929 30.9587 28.6061 30.9431C28.6475 30.7642 28.5507 30.6057 28.5827 30.445C28.4791 30.3799 28.4554 30.3197 28.4733 30.1833C28.3862 30.1556 28.3157 30.0979 28.2126 30.0993C28.0123 30.2667 27.7415 30.3943 27.7204 30.6725C27.6401 30.7432 27.5173 30.8085 27.5856 30.9186C27.5073 30.9489 27.4984 31.0212 27.4255 31.0544C27.4853 31.1741 27.3514 31.1762 27.4108 31.2985C27.1962 31.4651 27.2616 31.8029 27.0368 31.9636C27.0581 32.1252 27.0242 32.2536 26.8786 32.3132C26.8213 32.7777 26.606 33.1431 26.362 33.4919C26.325 33.5009 26.2869 33.5104 26.2468 33.5192C26.2656 33.6365 26.0913 33.6861 26.1647 33.779C25.977 33.855 25.8267 34.1004 25.6345 33.9753C25.6266 33.8806 25.7245 33.9411 25.7018 33.864C25.6945 33.7619 25.6115 33.7771 25.5905 33.6989C25.6027 33.6145 25.6967 33.5807 25.6833 33.4841C25.5596 33.2195 25.7656 33.1443 25.654 32.8425C25.833 32.7132 25.6537 32.3628 25.8483 32.2429C25.8404 32.2053 25.831 32.1671 25.822 32.1296C26.0712 31.94 26.0183 31.564 26.2419 31.3581C26.1822 31.1763 26.2123 31.1435 26.07 31.0378C26.1299 31.0231 26.2014 31.0149 26.2243 30.9772C26.2282 30.8788 26.156 30.8996 26.1413 30.8298C26.1883 30.7978 26.2563 30.8848 26.2604 30.8249C26.2261 30.828 26.2275 30.7747 26.2155 30.738C26.0546 30.7606 26.0125 30.8612 25.9225 30.9284C25.9555 31.1018 25.6628 31.3345 25.6989 31.5104C25.6951 31.497 25.6878 31.4852 25.6716 31.4938C25.7183 31.6683 25.5598 31.7428 25.5182 31.864C25.4878 31.9485 25.5392 32.0796 25.4518 32.0974C25.4745 32.5633 25.0062 32.7296 24.8981 33.1159C24.7888 33.1783 24.7418 33.2809 24.7233 33.3981C24.4552 33.5288 24.3733 34.0311 24.0807 34.1501C24.0807 34.2529 23.9173 34.2575 23.9704 34.3923C23.7795 34.5531 23.5349 34.6648 23.3591 34.4645C23.3652 34.5002 23.3819 34.5418 23.3298 34.5427C23.3006 34.3144 23.211 34.1134 23.0622 34.029C23.1272 34.061 23.1355 34.0586 23.1784 34.0007C23.1791 33.8946 23.1118 33.8978 23.0876 33.8307C23.2081 33.7264 23.0776 33.5714 23.1423 33.4411C23.0113 33.1099 23.1118 32.925 23.1579 32.3669C23.3797 32.0182 23.5712 31.5268 23.613 31.5212C23.7263 31.3358 23.7513 30.8338 23.9538 30.7682C24.4274 29.9939 24.7244 29.1337 25.1052 28.3141C25.0497 28.2203 25.1398 28.1592 25.0485 28.1179C25.1082 28.1038 25.1518 28.0832 25.1745 28.0534C25.093 27.601 25.2617 27.2624 25.2682 26.8483C24.9538 26.679 25.1998 26.0541 24.7956 25.9431ZM18.9782 27.1872C18.9709 27.1548 18.9591 27.127 18.9333 27.1188C18.9424 27.2011 18.8707 27.3089 18.7741 27.3581C18.6885 27.6379 18.3994 29.0052 18.3347 29.2556C18.3296 29.2413 18.3297 29.2203 18.3122 29.2214C18.3119 29.234 18.3145 29.2476 18.319 29.2595C18.3237 29.2712 18.3308 29.2826 18.3395 29.2917C18.1861 29.4502 18.342 29.7647 18.0778 29.8327C18.0395 29.8324 18.0329 29.79 18.0104 29.7692C17.9353 29.8199 17.8766 29.8682 17.777 29.8268C17.7626 29.8536 17.7535 29.8855 17.7331 29.9079C17.6561 29.9592 17.5564 29.982 17.4929 30.0397C17.3509 30.1703 17.25 30.5063 17.0397 30.5798C17.0465 30.6226 17.0176 30.6407 17.0397 30.6931C16.9128 30.7089 16.9635 30.8505 16.8249 30.8581C16.7798 30.8364 16.7789 30.7592 16.7145 30.7643C16.5406 30.9772 16.4675 31.269 16.3034 31.447C16.3362 31.6728 16.303 31.7644 16.2321 31.9245C16.2471 31.9692 16.2958 31.9701 16.3054 32.0241C16.3016 32.0297 16.2963 32.035 16.2907 32.0388C16.2851 32.0424 16.2787 32.0453 16.2722 32.0466C16.2655 32.0478 16.2583 32.0471 16.2516 32.0456C16.2451 32.0441 16.2386 32.0416 16.2331 32.0378C16.1986 32.1839 16.1221 32.3924 16.1794 32.5114C16.1515 32.5128 16.1576 32.4672 16.1198 32.4841C16.1212 32.5391 16.1254 32.5971 16.0847 32.6198C16.0848 32.6871 16.1557 32.6553 16.1589 32.7194C16.134 32.7207 16.129 32.7004 16.1003 32.7097C16.0858 32.956 16.07 33.1187 16.1794 33.3132C16.2928 33.2814 16.3342 33.3524 16.4147 33.3679C16.4651 33.3343 16.4017 33.3165 16.4567 33.2858C16.5345 33.2633 16.6068 33.2675 16.7038 33.3024C16.7495 33.2449 16.8787 33.201 16.9499 33.2057C16.9959 33.0569 17.2586 32.9986 17.1833 32.8132C17.2207 32.7757 17.296 32.7662 17.3386 32.7321C17.2932 32.7371 17.3249 32.6724 17.3483 32.6745C17.5383 32.6742 17.5181 32.2401 17.7575 32.3278C17.789 32.5511 17.8628 32.7674 17.9743 32.9636C18.164 32.9635 18.1893 32.9213 18.3083 32.8337C18.3883 32.491 18.616 32.4552 18.7429 32.1227C18.8924 32.3976 19.0252 32.866 19.4929 32.7341C19.5543 32.662 19.6105 32.5841 19.7663 32.5866C19.7777 32.4409 20.0161 32.4726 20.0065 32.3083C20.0145 32.3404 20.0446 32.3493 20.0876 32.3395C20.0653 32.2273 20.1329 32.2879 20.2145 32.2663C20.2451 32.1236 20.4272 32.0984 20.5554 32.0339C20.5501 31.8608 20.6587 31.765 20.7751 31.737C20.7835 31.686 20.7428 31.6968 20.7204 31.6833C20.7362 31.6716 20.7535 31.6604 20.7731 31.6472C20.8087 31.6394 20.8419 31.6217 20.8688 31.5974C20.9111 31.5756 20.9591 31.5667 21.0065 31.571C21.0057 31.5462 21.0433 31.5408 21.0163 31.5026C21.0441 31.4896 21.0682 31.4689 21.0847 31.4431C21.1423 31.381 21.2436 31.244 21.2985 31.2253C21.3338 31.158 21.3886 31.0477 21.3835 31.0671C21.391 31.0435 21.4838 30.7439 21.5016 30.7126C21.5042 30.7195 21.5091 30.6862 21.4675 30.6462C21.5175 30.6162 21.5038 30.5875 21.53 30.5251V30.5241C21.5123 30.515 21.4926 30.5145 21.446 30.5339L21.3317 30.7643C21.3688 30.8792 21.2478 30.9363 21.2272 31.0202C21.1617 31.0758 21.099 31.1593 21.0261 31.238C21.0269 31.2344 21.0275 31.2299 21.028 31.2263C20.7134 31.5234 20.1194 31.9701 19.6423 32.238C19.6396 32.219 19.6379 32.2006 19.6335 32.1813C19.4005 32.2507 19.2853 32.1788 19.1696 32.0964C19.1695 31.9587 19.121 31.6301 19.2009 31.5544C19.2676 31.544 19.3195 31.4809 19.3864 31.4694C19.4318 31.4708 19.4293 31.5319 19.489 31.5182C19.6022 31.4884 19.5161 31.4098 19.6081 31.3679C19.6481 31.3771 19.6253 31.4633 19.6931 31.4352C19.7436 31.4235 19.7182 31.3525 19.7585 31.3317C19.9687 31.3886 20.0656 31.0711 20.2858 31.0192C20.3185 30.9243 20.403 30.8707 20.3893 30.737C20.4435 30.7288 20.4446 30.6789 20.5573 30.6804C20.595 30.616 20.5681 30.5889 20.5788 30.5212C20.8487 30.4104 20.7703 30.1221 20.8513 29.8542C20.7595 29.743 20.8088 29.7069 20.7565 29.5358C20.6975 29.5329 20.6176 29.4902 20.6882 29.445C20.651 29.4148 20.6326 29.4598 20.5954 29.4753C20.5575 29.4416 20.5409 29.3849 20.5026 29.3513C20.4331 29.3886 20.3251 29.3586 20.2331 29.362C20.1222 29.5272 19.8731 29.585 19.8386 29.8132C19.6282 29.796 19.7107 30.1039 19.4684 30.1452C19.5013 30.3553 19.3113 30.3893 19.2604 30.5349C19.3092 30.7701 19.0669 30.7752 19.1013 30.9987C19.0764 31.0014 19.0504 31.0041 19.0251 31.0065C19.0731 31.142 18.9671 31.1593 18.9343 31.2302C18.895 31.4771 18.6603 31.6204 18.6794 31.8766C18.4331 31.9775 18.488 32.1282 18.2907 32.2585C18.1046 32 18.1408 31.5867 18.2565 31.3698C18.2689 31.2869 18.1814 31.2957 18.2175 31.2438C18.3156 31.2483 18.4118 31.1204 18.3571 30.9606C18.3991 30.9473 18.3817 30.8927 18.4401 30.8913C18.4098 30.6748 18.5153 30.4153 18.5573 30.238C18.5837 30.1209 18.5571 30.0015 18.5817 29.9362C18.5917 29.9093 18.6385 29.8969 18.6462 29.8708C18.6686 29.7845 18.642 29.644 18.6686 29.5485C18.6866 29.4877 18.7201 29.482 18.7243 29.4294C18.7311 29.3303 18.689 29.2325 18.7136 29.1364C18.717 29.1311 18.7632 29.1216 18.7663 29.112C18.7907 29.056 18.7735 28.965 18.8366 28.9177C18.7438 28.7256 19.0692 27.5585 19.0925 27.3766C19.0899 27.3532 19.0604 27.3629 19.0515 27.3454C19.0672 27.3006 19.1195 27.2845 19.1335 27.2419C19.0604 27.1919 19.147 27.0472 19.0182 27.0524C19.0079 27.0978 18.994 27.1434 18.9782 27.1872ZM17.4235 30.5192C17.6525 30.5867 17.8248 30.2471 18.0231 30.4196C17.9955 30.5504 18.0651 30.7194 18.0231 30.8688C17.8714 30.9805 17.8524 31.1842 17.7839 31.3552C17.756 31.3644 17.751 31.343 17.7272 31.3454C17.7294 31.4917 17.429 31.7225 17.486 31.9089C17.4823 31.9144 17.477 31.919 17.4714 31.9225C17.4656 31.9262 17.4586 31.9293 17.4518 31.9304C17.4454 31.9313 17.4386 31.931 17.4323 31.9294C17.4257 31.9276 17.4191 31.9239 17.4138 31.9196C17.3184 32.1628 17.0482 32.3439 17.0173 32.5817C16.9248 32.5944 16.9231 32.6744 16.8923 32.7321C16.8111 32.6731 16.7523 32.7803 16.7038 32.8376C16.6866 32.8185 16.6644 32.8036 16.6403 32.7946C16.6161 32.7857 16.5897 32.7825 16.5641 32.7858C16.5562 32.6933 16.5362 32.6176 16.4616 32.6169C16.3561 32.1673 16.8117 31.7486 16.8503 31.3571C17.0061 31.272 17.0476 31.1064 17.1208 30.9606C17.1584 30.9447 17.1526 30.99 17.1813 30.988C17.2526 30.9396 17.2627 30.8888 17.2243 30.7936C17.3895 30.7921 17.3364 30.5588 17.4704 30.5856C17.4825 30.5247 17.4108 30.5815 17.4235 30.5192ZM28.0222 30.8395C28.5334 31.1657 27.7736 31.6904 27.6638 32.0456C27.4823 32.1272 27.4892 32.1853 27.4108 32.3307C27.3395 32.3249 27.3349 32.3274 27.2751 32.364C27.2502 32.3497 27.2454 32.3028 27.2126 32.3044C27.455 31.8399 27.6157 31.3714 27.863 30.8786V30.8776C27.8752 30.8872 27.8898 30.8938 27.905 30.8972C27.9203 30.9005 27.9366 30.8998 27.9518 30.8962C27.9671 30.8925 27.9817 30.8856 27.9938 30.8757C28.0057 30.8659 28.0156 30.8534 28.0222 30.8395ZM33.9782 31.2458C34.2299 31.5006 34.06 32.0079 33.7839 32.1559C33.6848 32.106 33.6462 31.911 33.6657 31.7917C33.6435 31.6559 33.7544 31.4592 33.8698 31.2643C33.9052 31.2576 33.9419 31.2517 33.9782 31.2458ZM24.6061 26.6306C24.8862 26.6956 24.6733 27.342 24.8239 27.4509C24.8305 27.5203 24.7379 27.5423 24.7194 27.6003C24.949 27.6813 24.6484 27.9497 24.7604 28.2546C24.5699 28.2873 24.6587 28.4532 24.6725 28.5817C24.5892 28.591 24.6138 28.6491 24.5134 28.654C24.5288 29.0538 24.0398 29.3454 24.2038 29.7341C23.9185 29.8247 24.0214 30.0913 23.7917 30.2048C23.8246 30.2649 23.9152 30.338 23.8073 30.3845C23.6992 30.4308 23.7366 30.34 23.7516 30.3093C23.5683 30.353 23.4655 30.6947 23.53 30.7829C23.2842 30.9642 23.2707 31.533 22.9714 31.7761C22.8727 31.6793 22.9055 31.289 22.9255 31.1022L22.9235 31.1013C22.972 30.6886 22.8885 30.2766 23.0847 29.7556C23.309 29.4179 23.2126 28.9962 23.3581 28.6237C23.4396 28.6076 23.7728 27.8535 23.7682 27.5143C24.0759 27.2919 24.1779 26.8175 24.6061 26.6306ZM20.7214 31.6491L20.7136 31.6686C20.7096 31.6632 20.7065 31.6558 20.7067 31.6491H20.7214ZM19.8181 30.1462C20.1947 29.7827 20.4122 29.9745 20.4479 30.2302C20.477 30.4414 20.2115 30.4421 20.1638 30.6286C20.0203 30.6544 19.9411 30.7301 19.9391 30.8669C19.8437 30.8669 19.4884 31.1027 19.4216 31.0554C19.356 31.0071 19.5749 30.6796 19.5759 30.5798V30.5807C19.5766 30.4062 19.8569 30.335 19.8181 30.1462ZM11.6042 20.5925C10.9889 21.6265 11.3837 21.5982 11.0241 22.7575C9.78444 23.1602 10.1377 23.2722 9.71356 23.2604C9.6863 23.2604 9.67454 23.2866 9.64911 23.2878C9.6237 23.2888 9.59727 23.2637 9.57391 23.2614C9.41493 23.2483 9.25247 23.2975 9.13934 23.3122C9.09878 23.4228 9.01729 23.5075 9.01727 23.6442C9.07621 23.6948 9.11396 23.6466 9.18231 23.6374C9.51612 23.5921 9.84925 23.5516 10.1931 23.4782C10.4609 23.421 10.3462 23.3771 11.0358 23.28C10.9712 23.9414 10.6787 25.1468 10.7116 25.8708C10.5456 25.9086 10.5429 26.0523 10.5573 26.2057C10.2495 26.595 10.0861 27.0813 9.85809 27.5231C9.47428 27.9057 9.38937 28.4802 8.83954 28.7585C8.80893 28.8626 8.76679 28.9994 8.7077 29.0895C8.68143 29.1286 8.6798 29.1665 8.64423 29.195C8.57012 29.2522 8.4319 29.2516 8.35126 29.2175C8.3578 29.2377 8.36232 29.2599 8.36493 29.2809C8.33861 29.2741 8.31329 29.2633 8.28973 29.2497C8.28038 29.3437 8.21385 29.4939 8.10028 29.4518C8.10365 29.5392 8.05475 29.5947 7.97137 29.5515C7.95685 29.5912 7.92859 29.6252 7.89227 29.6472C7.88343 29.6359 7.87488 29.6244 7.86493 29.613C7.84043 29.6306 7.81108 29.6411 7.78094 29.6432C7.75084 29.6454 7.72075 29.6387 7.69403 29.6247C7.69156 29.6457 7.67904 29.6672 7.67743 29.6911C7.6157 29.6705 7.55143 29.701 7.49579 29.7429C7.4472 29.6629 7.35809 29.6443 7.30927 29.7321C7.29604 29.717 7.28102 29.7019 7.2663 29.6882C7.25296 29.7035 7.24516 29.7236 7.24384 29.7438C7.24978 29.7095 7.25033 29.6739 7.24579 29.6393C7.18756 29.635 6.9553 29.5861 6.99579 29.7126C6.98903 29.6926 6.96054 29.6609 6.9538 29.6315C6.89289 29.6804 6.55632 29.8337 6.62177 29.6374C6.60702 29.6826 6.57842 29.7042 6.53876 29.7038C6.52472 29.5722 6.38805 29.6599 6.3288 29.6345C6.25582 29.5438 6.17998 29.3403 6.03876 29.3679C6.04597 29.3507 6.05764 29.3349 6.07196 29.3229C6.00116 29.3564 5.98728 29.363 5.98407 29.278C5.99334 29.4942 5.76746 29.225 5.73407 29.1901C5.66265 29.2401 5.59623 29.2993 5.51825 29.3366C5.51637 29.2735 5.47531 29.1909 5.48505 29.1286C5.36363 29.2507 5.23159 29.1808 5.17352 29.3434C5.19474 29.3286 5.21756 29.3154 5.24091 29.3044L5.29364 29.2849C5.2301 29.3494 5.76914 29.7678 5.82587 29.7819C5.89934 29.8007 6.14193 29.8623 6.09442 29.9089C6.27623 29.9188 6.73261 30.1208 6.74579 30.1081C6.78984 30.0679 7.03455 30.1427 7.2702 30.1794C7.42064 30.2036 7.76538 30.2099 7.8913 30.0417C7.89178 30.0757 8.08423 29.9507 8.10614 29.9772C8.11785 29.8584 8.22425 29.9118 8.237 29.8434C8.39595 29.8419 8.69139 29.6896 8.87958 29.5807C8.93209 29.5591 8.98184 29.5286 9.02509 29.4919C9.04221 29.481 9.05296 29.4731 9.05341 29.4675C9.25157 29.2811 9.35088 28.9798 9.57391 28.8268C9.69625 28.5024 9.94047 28.2559 10.0173 27.904C10.2762 27.7289 10.2644 27.3798 10.5075 27.194C10.5436 27.0733 10.5385 26.9261 10.6179 26.8317C10.9664 27.5688 10.7143 28.5716 11.4284 29.1823C11.9823 29.1506 12.2165 28.7138 12.4684 28.3932L13.1247 27.5807C13.2125 27.7794 13.3196 27.9522 13.3874 28.113C13.4537 28.1884 13.7152 28.4349 14.0622 28.3493C14.0673 28.3099 14.005 28.2289 14.0573 28.2214C14.0904 28.2477 14.1032 28.3063 14.155 28.3024C14.4676 28.1666 14.828 27.9458 14.7126 27.5593C14.776 27.611 14.8713 27.6183 14.9997 27.572C15.0077 27.3321 15.2354 27.2295 15.3181 27.0368C15.58 27.0171 15.5594 26.665 15.8073 26.5681C15.807 26.4783 15.7508 26.4809 15.7458 26.4001C16.0043 26.2415 16.3132 25.9555 16.3034 25.5554C16.3966 25.4888 16.3896 25.3571 16.5358 25.322C16.5394 25.0684 16.785 24.9429 17.0339 25.0065C17.4595 25.4697 16.9339 25.8787 17.1589 26.3679C16.9546 26.4542 17.0886 26.6562 17.1061 26.82C17.1331 27.0843 17.0999 27.4054 17.3688 27.5339C17.6705 27.5128 17.6268 27.2866 17.7028 27.1765C18.0737 27.1191 18.0545 26.6422 18.3737 26.4841C18.578 26.1498 18.6781 25.7481 18.9753 25.4743C18.9802 25.4158 19.0047 25.3669 18.986 25.2917C19.2313 25.0953 19.1601 24.7009 19.3425 24.4655C19.3756 24.5672 19.4982 24.5296 19.5534 24.5974C19.5038 24.6798 19.5531 24.8215 19.5817 24.9528C19.3752 25.4786 19.432 26.3119 19.7692 26.8171C19.9223 26.7974 19.9812 26.7763 20.0944 26.7692C20.1261 26.6434 20.2803 26.5938 20.3102 26.4655C20.6689 26.2678 20.7725 25.8455 21.0417 25.5807C21.1236 25.5388 21.1013 25.5631 21.1833 25.5222C21.2003 25.4137 21.2542 25.4007 21.3561 25.3454C21.3946 25.3643 21.4401 25.3702 21.4724 25.3972C21.5582 25.6708 21.7339 25.7912 21.8532 25.8903C21.9406 25.9657 22.0354 26.1145 22.1716 26.1559C22.2231 26.1704 22.3533 26.1277 22.4284 26.1481C22.5405 26.1807 22.8557 26.2216 22.9968 26.1501C23.0395 26.1289 23.0792 26.039 23.1423 25.989C23.3293 25.8356 23.4004 25.9156 23.4343 25.7311C23.4796 25.7746 23.5139 25.6894 23.5866 25.7224C24.0301 25.247 24.4953 24.78 24.7087 24.1599C24.6732 24.1493 24.6505 24.1172 24.6374 24.0729C24.3281 24.1011 24.4084 24.3745 24.152 24.4372C24.0873 24.5229 24.0905 24.6511 24.0134 24.7263C23.6758 24.8043 23.6385 25.0781 23.4489 25.2116C23.4469 25.213 23.0137 25.5132 22.9655 25.6149C22.497 25.6658 21.9779 25.6116 22.0358 24.9128C22.1005 24.7819 22.2864 24.474 22.488 24.4987C22.7989 24.1057 23.3149 23.8421 23.4724 23.3522C23.6475 23.3152 23.8044 23.0724 23.6921 22.8386C23.7257 22.832 23.7584 22.8246 23.7907 22.8181C23.8043 22.7084 23.6545 22.8538 23.6686 22.7419C23.8046 22.7143 23.731 22.556 23.822 22.5016C23.8366 22.545 23.8246 22.6287 23.8942 22.5876C23.8997 22.1772 23.5573 21.9547 23.3337 21.7077C23.0462 21.753 22.6938 21.8016 22.6013 22.1306C22.3528 22.2267 22.1667 22.541 22.112 22.8327C21.95 22.906 21.893 23.0437 21.8884 23.2175C21.5042 23.5061 21.5699 24.0829 21.405 24.5114C21.4444 24.6018 21.4441 24.6072 21.4479 24.7077C21.2273 24.8341 21.1197 24.961 20.9382 25.113C20.9382 25.3434 20.641 25.3889 20.6081 25.5983C20.5771 25.604 20.5666 25.5758 20.529 25.5915C20.5192 25.6755 20.4531 25.7255 20.4489 25.8161C20.3668 25.7694 20.1986 25.8571 20.1306 25.7829C20.1099 25.4942 19.983 25.1936 20.0114 24.9079C20.0218 24.8145 20.1051 24.7352 20.11 24.653C20.1142 24.5796 20.055 24.5046 20.0612 24.4333C20.0682 24.356 20.1428 24.2391 20.152 24.155C20.1818 23.9219 20.1131 23.7267 19.9606 23.7604C19.9496 23.7118 19.9386 23.6611 19.9284 23.613C19.738 23.5562 19.5069 23.5652 19.4265 23.3366C19.5842 23.2019 19.4312 22.9257 19.4108 22.697C19.4017 22.575 19.451 22.5013 19.4186 22.3864C19.4065 22.3413 19.3337 22.2936 19.3122 22.2556C19.2491 22.1399 19.2371 21.984 19.0974 21.9948C19.1427 21.9875 19.151 21.9571 19.1306 21.9089C18.8059 22.0509 18.6751 22.5356 18.5085 22.821C18.4295 22.9547 18.3024 23.0143 18.3893 23.2106C18.2796 23.3372 18.2362 23.6052 18.3571 23.7585C18.3897 23.8192 18.3197 23.8184 18.3298 23.8659C18.4887 23.9292 18.572 24.1072 18.694 24.2243C18.8277 24.2229 18.9214 24.288 19.0085 24.36C18.9578 24.3898 19.0288 24.4989 19.027 24.5641C18.962 24.5799 18.9688 24.5326 18.9294 24.5837C18.9151 24.6659 18.9518 24.6529 18.9684 24.7565C18.6082 24.9858 18.7162 25.5094 18.362 25.7409C18.3797 25.7813 18.3803 25.8275 18.3649 25.8688C18.1073 25.8979 18.1463 26.4347 17.7311 26.4997C17.3589 26.3898 17.7989 25.7607 17.5993 25.3444C17.7209 25.1047 17.6167 24.7232 17.6843 24.4499C17.6404 24.4297 17.5756 24.4415 17.5436 24.404C17.4851 24.1267 17.0654 24.1672 16.9577 23.8659C17.0299 23.7361 16.9598 23.515 17.0905 23.4225C17.1569 22.9673 17.0349 22.7808 16.8532 22.3679C16.7651 22.4063 16.7291 22.3632 16.6511 22.3864C16.6524 22.4171 16.6703 22.4546 16.6423 22.4665C16.377 22.5031 16.4625 22.7607 16.2614 22.8356C16.2405 23.0392 16.1247 23.1841 15.9802 23.3112C15.9014 23.536 15.8999 23.8091 15.8024 24.0202C15.9243 24.1215 15.884 24.3241 15.8766 24.4665C15.9203 24.5207 15.9601 24.397 16.0056 24.4636C15.9668 24.4751 15.9196 24.4795 15.9431 24.529C15.9548 24.5782 15.9654 24.6285 15.9763 24.6755C16.2661 24.706 16.4042 25.0559 16.194 25.2966C16.1892 25.3438 16.2871 25.3837 16.2214 25.4206C16.1347 25.4559 16.1147 25.389 16.0378 25.4108C15.7145 26.1513 15.0714 26.6946 14.5817 27.3317C14.3879 27.4006 14.1607 27.3754 14.071 27.4714C14.0006 27.3281 13.8472 27.2951 13.7653 27.154C13.6465 26.9398 13.6409 26.6052 13.6296 26.4372C13.5937 26.4057 13.5451 26.3918 13.529 26.3307C13.6293 25.8525 14.1512 25.6991 14.3444 25.2468C14.7184 24.978 14.791 24.5181 15.0925 24.2028C15.0996 23.7982 15.0558 23.5196 14.8659 23.3024C14.7832 23.2069 14.7287 23.0334 14.5388 23.1179C14.4904 23.1348 14.5565 23.2273 14.488 23.2311C14.4514 23.178 14.374 23.19 14.2985 23.197C14.1823 23.2507 14.1772 23.3741 14.0056 23.3923C13.718 23.7055 13.5731 24.1144 13.3122 24.447C13.2379 24.7524 13.0473 25.0899 13.0876 25.3981C13 25.4549 13.0312 25.589 12.9343 25.6393C12.8703 25.6737 12.8628 25.6191 12.8054 25.6413C12.8015 25.6893 12.8159 25.7469 12.7849 25.7751C12.7273 25.6428 12.6276 25.7425 12.5046 25.6833C12.4489 25.7296 12.5536 25.798 12.5075 25.8112C12.47 25.7934 12.4438 25.7559 12.3942 25.7595C12.3543 25.8679 12.2454 25.9329 12.2565 26.0729C12.4069 26.0193 12.321 26.2825 12.2692 26.1237C12.3349 26.3748 12.593 26.5959 12.7624 26.4753C12.9914 26.5884 12.9551 26.8522 12.9929 27.1364L12.3005 27.7888C12.1556 27.903 12.0616 28.0499 11.8415 28.1149C10.9511 26.7991 11.5907 24.2479 11.9284 22.9763C12.7498 22.3881 13.1804 22.8194 13.6804 22.5085C13.879 22.5223 14.1242 22.4 14.3151 22.3298C14.3299 22.3298 14.5519 22.2345 14.5651 22.2331L14.7126 22.1901C14.7627 22.1149 14.9519 22.0769 14.9831 22.1003C15.8391 21.6168 16.9328 21.4784 17.7907 20.8718C17.566 20.8491 17.6653 20.7493 17.4538 20.654C16.7369 21.031 14.9942 21.5623 14.9431 21.572C14.6757 21.7148 14.3431 21.7238 14.0895 21.9108C13.8685 21.879 13.5273 22.0626 13.3063 22.1706C13.2028 22.1641 12.8804 22.1133 12.7888 22.1022C12.5389 22.2312 12.2223 22.2117 11.9597 22.4118C11.7747 22.0471 12.1246 21.4918 11.9333 21.1188C11.9975 20.5036 11.964 21.2875 11.7936 20.5895C11.7096 20.6228 11.6994 20.5421 11.6042 20.5925ZM12.8112 25.9997C12.8148 26.05 12.7564 26.0633 12.7595 26.114C12.7224 26.0955 12.6963 26.0578 12.6452 26.0612C12.6442 26.0054 12.7633 26.0249 12.8112 25.9997ZM39.6198 21.2702C38.4235 21.8814 37.1044 22.1591 35.8845 22.7097C34.6493 23.2681 33.7452 24.1261 32.7878 25.0554C32.6139 25.2252 32.4293 25.4074 32.237 25.5895C32.5768 25.6084 32.9178 25.6084 33.2575 25.5886C33.5196 25.3623 33.7754 25.1307 34.0309 24.8972C34.0026 24.8682 33.9801 24.8333 33.9655 24.7956L33.944 24.6882C33.9164 24.4137 34.0391 23.9988 34.1188 23.9684C34.3277 24.1564 34.4767 24.2126 34.5114 24.4645C35.2447 23.815 36.0097 23.2209 36.9401 22.8571C37.9804 22.4519 39.0847 22.1981 40.1198 21.7761C40.0863 21.5391 40.0386 21.3033 39.9772 21.072C39.8592 21.1398 39.7399 21.2084 39.6198 21.2702ZM39.7175 20.2722C39.4618 20.4332 39.1945 20.5763 38.9186 20.6999C37.7434 21.2242 36.5017 21.5702 35.3054 22.0417C34.0251 22.5456 32.9985 23.221 32.0114 24.1774C31.6268 24.5509 31.2274 24.9707 30.7975 25.3532C31.0604 25.4278 31.328 25.4857 31.5983 25.5261C31.6209 25.5089 31.6439 25.4918 31.6638 25.4733C32.064 25.1318 32.4453 24.7693 32.8288 24.4069H32.8298C33.6312 23.6517 34.4544 22.9193 35.4782 22.4763C35.5173 22.4598 35.5576 22.4441 35.5974 22.4274C35.5935 22.4032 35.5899 22.3777 35.5856 22.3542C35.5574 22.1963 35.6339 22.1451 35.7253 22.0046C35.7659 22.0091 35.8663 22.1615 35.9118 22.3015C37.016 21.8831 38.1853 21.6246 39.2497 21.1091C39.4676 21.003 39.6788 20.8845 39.8854 20.7614C39.836 20.6001 39.7799 20.4362 39.7175 20.2722ZM38.2975 22.989C38.0077 23.0933 37.7193 23.201 37.4333 23.321C36.2602 23.8125 35.3946 24.5804 34.4948 25.4411C36.0519 25.1646 37.5599 24.5625 38.6257 23.862C38.6179 23.8602 38.6102 23.8571 38.6032 23.8532C38.4742 23.7655 38.3453 23.6685 38.3044 23.5456H38.3034C38.2548 23.4018 38.2631 23.1881 38.2975 22.989ZM14.4479 24.0876C14.4976 24.154 14.5171 24.2706 14.5397 24.3757C14.2349 24.7152 13.9678 25.0825 13.5749 25.3659C13.5335 24.8255 13.7082 24.0618 14.4479 24.0876ZM33.7145 13.2575C30.7605 12.1976 27.9076 12.9445 25.9694 13.9938C26.2456 14.2905 26.5138 14.5928 26.7653 14.8786C27.3331 15.5225 28.065 16.2167 28.4118 16.4196C28.6756 16.5747 28.9881 16.5348 29.321 16.488C29.6039 16.4493 29.9755 16.4931 30.1257 16.4831C30.4209 16.4639 30.6354 16.4499 30.8405 16.4528C31.0125 16.4542 31.1704 16.4439 31.3083 16.4333C31.6115 16.4107 31.8309 16.3955 31.9899 16.5251C32.0821 16.6014 32.1146 16.7031 32.0807 16.8112C32.0335 16.96 31.847 17.133 31.5515 17.1559C31.292 17.1768 31.031 17.2536 30.6677 17.3835C30.4354 17.4667 30.3381 17.4482 30.196 17.5866C30.0286 17.7507 29.8396 17.9355 29.9597 18.3444C30.0606 18.6838 30.3137 18.9797 30.6725 19.1755C30.9867 19.3481 31.3208 19.5089 31.6286 19.5095C31.7314 19.5095 31.8393 19.5167 31.9518 19.5222C32.2888 19.54 32.6697 19.5625 33.0681 19.4421C33.3261 19.3639 33.6536 19.3133 33.7331 19.5075C33.7467 19.5396 33.7539 19.5752 33.7536 19.61C33.7531 19.6448 33.7454 19.6799 33.7311 19.7116C33.6117 19.9869 33.0683 20.2006 32.8356 20.2917L32.8278 20.2946C32.5198 20.4148 32.1459 20.4052 31.7868 20.3962L31.5768 20.3903C31.288 20.3869 30.9221 20.2786 30.6276 20.1931C30.2953 20.095 30.2643 20.1101 30.2302 20.1931L30.2282 20.196L30.2272 20.2009C30.224 20.2174 30.2244 20.2352 30.2282 20.2516C30.2321 20.2681 30.2395 20.2841 30.2497 20.2975C30.4113 20.5207 31.4402 20.6372 31.4616 20.6393L31.6315 20.6569C32.0302 20.6995 32.3727 20.7357 32.7448 20.7477C32.8234 20.7498 32.9167 20.747 33.0173 20.7438C33.308 20.7348 33.7058 20.7245 33.7936 20.8747C33.8348 20.9466 33.8076 21.0625 33.7116 21.2165C33.6225 21.3594 33.2602 21.5752 32.9421 21.5788L32.8112 21.5807C32.285 21.5891 31.3055 21.6029 30.5163 21.361C30.3751 21.3186 30.236 21.2674 30.1013 21.2077C29.7115 21.0272 29.5052 20.9546 29.4704 21.0134C29.4372 21.0731 29.5474 21.1546 29.8727 21.2975C30.0977 21.3968 30.3771 21.4815 30.5202 21.53C30.7493 21.6092 31.4937 21.7578 31.9753 21.7399C32.167 21.7329 32.3667 21.7334 32.5349 21.82C32.6165 21.8641 32.5929 22.0554 32.5388 22.1599C32.4618 22.3038 32.1803 22.3684 32.0876 22.3893C31.8717 22.4389 30.7118 22.2983 30.5466 22.2643C30.2574 22.207 29.8271 22.0399 29.7858 22.0983C29.7279 22.1946 30.7162 22.5485 30.7556 22.5729C30.8118 22.608 30.929 22.6837 30.9489 22.8044C30.9571 22.8616 30.9167 22.9594 30.8268 23.029C30.7566 23.0817 30.5314 23.1873 30.3015 23.0895C29.9211 22.9264 28.9602 22.4617 28.4831 22.0241C28.0707 21.6441 27.5412 21.0128 26.986 20.2673C26.7707 19.9763 26.5541 19.4972 26.3649 19.0729L26.3522 19.0466C26.0118 18.2867 25.8551 18.0506 25.7966 17.9636C25.7889 17.9521 25.7808 17.9386 25.779 17.9352C25.704 17.7676 24.5962 16.6611 24.3581 16.4958L24.1579 16.3571C23.9959 16.2455 23.7807 16.0973 23.6022 15.9694C23.5767 16.017 23.5536 16.0666 23.5339 16.1169C23.1119 17.2842 25.8308 23.6732 30.4509 25.2448C30.5294 25.1836 30.6071 25.119 30.6823 25.0524C31.1338 24.6521 31.5614 24.2263 32.0065 23.8161H32.0036C32.9087 22.9815 33.8391 22.3575 34.9948 21.9138C36.1991 21.4526 37.4583 21.1247 38.6432 20.614C38.9749 20.4707 39.3342 20.3184 39.6579 20.1247C38.5214 17.2598 35.6922 13.9657 33.7145 13.2575ZM22.6413 22.7077C22.9524 22.4106 23.1189 22.5332 23.4011 22.7917C23.3922 23.0405 23.1058 23.2609 22.9831 23.4196C22.9992 23.4747 23.0422 23.4719 23.0583 23.5309C22.9874 23.5608 22.9191 23.5843 22.8737 23.5612C22.7844 23.899 22.2353 24.0406 22.0378 23.9313C22.1344 23.7755 22.3516 23.2073 22.4421 23.0993C22.5198 23.0111 22.5803 22.7643 22.6413 22.7077ZM16.3698 23.3776C16.3216 23.2034 16.7354 22.8819 16.7321 23.2175C16.7094 23.4124 16.6226 23.5796 16.5778 23.7673C16.4519 23.7282 16.4132 23.5485 16.3698 23.3776ZM40.0671 22.3532C39.6785 22.506 39.2859 22.644 38.8923 22.7809C38.9697 22.8696 39.0214 22.9752 39.0378 23.1432C39.0507 23.2745 39.0685 23.4134 39.0749 23.5427C39.5714 23.1537 39.9237 22.7444 40.0671 22.3532ZM18.8288 22.7038C18.9073 22.5614 19.1169 22.5158 19.11 22.7038L19.1247 22.7888C19.1385 22.989 19.0194 23.1999 19.0358 23.3806C18.7358 23.2576 18.6575 23.0116 18.8288 22.7038ZM33.4128 17.7067C33.4582 17.7173 33.5632 17.9594 33.5407 18.0866C33.5318 18.1317 33.4919 18.1716 33.4499 18.2097C33.4176 18.2398 33.2804 18.2263 33.2702 18.155C33.2633 18.1007 33.2639 18.0375 33.2614 17.9802C33.255 17.8453 33.324 17.8125 33.4128 17.7067ZM34.8962 17.6315C35.1305 17.5426 35.2292 17.4461 35.4528 17.5349C35.5489 17.5728 35.6556 17.6095 35.7438 17.654C35.8607 17.713 35.8008 17.9521 35.7321 17.9909C35.6445 18.0382 35.5503 18.0813 35.4675 18.07C35.2405 18.0352 34.8873 17.7147 34.8962 17.6315ZM32.5388 17.7253C32.5743 17.7346 32.6065 17.7552 32.6306 17.7829C32.6533 17.8035 32.6508 17.8996 32.6003 17.9108L32.4792 17.9255C32.384 17.9377 32.3569 17.892 32.277 17.8356C32.2838 17.8036 32.4489 17.7166 32.5388 17.7253ZM33.947 16.3444C34.0331 16.362 34.2461 16.4992 34.3044 16.6179C34.347 16.7046 34.2826 16.8489 34.2839 16.9352C34.1667 16.9954 34.0629 16.8338 33.9645 16.7106C33.8667 16.5878 33.9072 16.5067 33.9186 16.3444H33.947ZM35.1794 16.2126C35.225 16.2041 35.4235 16.3789 35.4567 16.5026C35.4683 16.5477 35.449 16.6019 35.4284 16.653C35.4108 16.6932 35.2824 16.7399 35.2419 16.6794C35.2125 16.6342 35.1855 16.5761 35.1579 16.5261C35.0962 16.4073 35.1442 16.3464 35.1794 16.2126Z" fill="#F1F1F1"/>
</svg>
