<svg xmlns="http://www.w3.org/2000/svg" width="74" height="42" fill="none" viewBox="0 0 74 42"><g clip-path="url(#a)"><path fill="#35cd3d" d="M0 30h74v12H0z"/><path fill="#f1f1f1" d="M.9 12v-1.44h2.088V5.04H.972V3.6H4.5v6.96h1.944V12zm9.496.168q-.588 0-1.068-.252a1.93 1.93 0 0 1-.768-.792q-.276-.54-.276-1.356v-3.72h1.512v3.408q0 .624.3.984.312.36.9.36.684 0 .996-.432.324-.444.324-1.2v-3.12h1.512V12h-1.512v-.864H12.1q-.396 1.032-1.704 1.032m8.043 0a3.54 3.54 0 0 1-1.584-.348 2.8 2.8 0 0 1-1.128-1.032q-.408-.684-.408-1.644V9q0-.96.42-1.656.42-.708 1.128-1.08a3.24 3.24 0 0 1 1.572-.384q1.248 0 2.028.648t.972 1.704l-1.488.384a1.56 1.56 0 0 0-.456-.912q-.384-.384-1.08-.384-.648 0-1.116.456t-.468 1.26v.072q0 .804.468 1.212t1.116.408q.696 0 1.056-.348.372-.348.48-.936l1.488.372q-.192 1.056-.96 1.704t-2.04.648m6.712 0q-.708 0-1.308-.36t-.96-1.044-.36-1.644v-.192q0-.948.348-1.632t.924-1.044q.588-.372 1.284-.372.636 0 1.02.216.396.216.624.672h.216v-.72h1.512V10.2q0 .36.324.36h.228V12h-1.032a.96.96 0 0 1-.672-.24.85.85 0 0 1-.252-.624h-.216q-.228.552-.672.792-.432.24-1.008.24m.336-1.44q.66 0 1.056-.432.396-.444.396-1.2v-.144q0-.756-.396-1.188-.396-.444-1.056-.444t-1.056.444q-.396.432-.396 1.188v.144q0 .756.396 1.2.396.432 1.056.432m7.72 1.44q-.924 0-1.5-.3-.564-.3-.864-.732a2.4 2.4 0 0 1-.372-.84l1.392-.456q.096.372.408.672.312.288.936.288.564 0 .768-.168.216-.18.216-.384 0-.24-.252-.42t-1.008-.24q-.996-.084-1.596-.528t-.6-1.284v-.072q0-.588.324-.996t.84-.612a2.8 2.8 0 0 1 1.092-.216q.756 0 1.248.24.492.228.768.576.288.348.408.696l-1.368.552a.96.96 0 0 0-.372-.504q-.264-.192-.684-.192-.372 0-.576.144-.192.132-.192.336 0 .288.3.408t1.092.216q.912.096 1.488.552.576.444.576 1.248v.072q0 .876-.648 1.416-.648.528-1.824.528M4.548 19.424q-.468 0-.804-.324a1.1 1.1 0 0 1-.336-.816q0-.48.336-.804.336-.336.804-.336t.804.336q.336.324.336.804t-.336.816a1.12 1.12 0 0 1-.804.324M1.296 28.4v-1.44h2.16q.36 0 .36-.396v-5.076H1.512v-1.44h3.816v7.128q0 .624-.336.924t-.876.3zm9.724-2.232q-.816 0-1.524-.36a2.86 2.86 0 0 1-1.14-1.044q-.432-.684-.432-1.668v-.144q0-.972.432-1.656a2.84 2.84 0 0 1 1.14-1.056q.708-.36 1.524-.36t1.524.36 1.14 1.056q.432.684.432 1.656v.144q0 .984-.432 1.668a2.86 2.86 0 0 1-1.14 1.044q-.708.36-1.524.36m0-1.44q.66 0 1.116-.42.468-.432.468-1.164v-.24q0-.744-.468-1.164a1.59 1.59 0 0 0-1.116-.42q-.66 0-1.128.42-.456.42-.456 1.164v.24q0 .732.456 1.164.468.42 1.128.42m6.723 1.44q-.588 0-1.068-.252a1.93 1.93 0 0 1-.768-.792q-.276-.54-.276-1.356v-3.72h1.512v3.408q0 .624.3.984.312.36.9.36.684 0 .996-.432.324-.444.324-1.2v-3.12h1.512V26h-1.512v-.864h-.216q-.396 1.032-1.704 1.032m8.104-6.744q-.468 0-.804-.324a1.1 1.1 0 0 1-.336-.816q0-.48.336-.804.336-.336.804-.336t.804.336q.336.324.336.804t-.336.816a1.12 1.12 0 0 1-.804.324M23.087 26v-1.44h2.016v-3.072h-1.872v-1.44h3.384v4.512h1.728V26zm7.24 0v-5.952h1.512v.888h.216a1.58 1.58 0 0 1 .66-.78q.456-.276 1.068-.276.576 0 1.044.252.48.24.756.768.288.516.288 1.332V26h-1.512v-3.384q0-.636-.312-.996-.3-.372-.876-.372-.66 0-.996.456-.336.444-.336 1.2V26z"/><path fill="#292929" d="M2.58 40v-4.512H.888v-1.44H2.58v-1.224q0-.516.348-.864.348-.36.864-.36h2.424v1.44h-1.8q-.324 0-.324.36v.648h2.34v1.44h-2.34V40zm5.272 0v-1.44h1.224v-3.072h-1.08v-1.44h2.52v.864h.216q.168-.492.576-.756.408-.276.96-.276.888 0 1.428.564.54.552.54 1.692v.264l-1.56.144v-.168q0-.492-.252-.78-.252-.3-.756-.3t-.792.348-.288.996v1.92h1.368V40zm10.575.168q-.888 0-1.572-.372a2.7 2.7 0 0 1-1.068-1.092q-.384-.708-.384-1.704v-.072q0-.912.408-1.596a2.94 2.94 0 0 1 1.08-1.068q.684-.384 1.512-.384.768 0 1.32.264t.9.684q.36.42.528.924.18.492.18.96v.804h-4.368q.024.528.444.876.42.336.996.336.564 0 .864-.204.312-.204.432-.468l1.296.72q-.132.3-.444.624-.3.324-.816.552-.516.216-1.308.216m-1.44-3.948h2.808q-.072-.42-.456-.696-.372-.276-.948-.276-.564 0-.936.3-.36.288-.468.672m8.788 3.948q-.888 0-1.572-.372a2.7 2.7 0 0 1-1.068-1.092q-.384-.708-.384-1.704v-.072q0-.912.408-1.596a2.94 2.94 0 0 1 1.08-1.068q.684-.384 1.512-.384.768 0 1.32.264t.9.684q.36.42.528.924.18.492.18.96v.804h-4.368q.024.528.444.876.42.336.996.336.564 0 .864-.204.312-.204.432-.468l1.296.72q-.132.3-.444.624-.3.324-.816.552-.516.216-1.308.216m-1.44-3.948h2.808q-.072-.42-.456-.696-.372-.276-.948-.276-.564 0-.936.3-.36.288-.468.672M30.291 40v-1.44h2.088v-5.52h-2.016V31.6h3.528v6.96h1.944V40zm9.555.168q-.708 0-1.308-.36t-.96-1.044-.36-1.644v-.192q0-.948.348-1.632t.924-1.044q.588-.372 1.284-.372.636 0 1.02.216.396.216.624.672h.216v-.72h1.512V38.2q0 .36.324.36h.228V40h-1.032a.96.96 0 0 1-.672-.24.85.85 0 0 1-.252-.624h-.216q-.228.552-.672.792-.432.24-1.008.24m.336-1.44q.66 0 1.056-.432.396-.444.396-1.2v-.144q0-.756-.396-1.188-.396-.444-1.056-.444t-1.056.444q-.396.432-.396 1.188v.144q0 .756.396 1.2.396.432 1.056.432M45.022 40v-5.952h1.512v.888h.216a1.58 1.58 0 0 1 .66-.78q.456-.276 1.068-.276.576 0 1.044.252.48.24.756.768.288.516.288 1.332V40h-1.512v-3.384q0-.636-.312-.996-.3-.372-.876-.372-.66 0-.996.456-.336.444-.336 1.2V40zm10.156.168a3.54 3.54 0 0 1-1.584-.348 2.8 2.8 0 0 1-1.128-1.032q-.408-.684-.408-1.644V37q0-.96.42-1.656.42-.708 1.128-1.08a3.24 3.24 0 0 1 1.572-.384q1.248 0 2.028.648t.972 1.704l-1.488.384a1.56 1.56 0 0 0-.456-.912q-.384-.384-1.08-.384-.648 0-1.116.456t-.468 1.26v.072q0 .804.468 1.212t1.116.408q.696 0 1.056-.348.372-.348.48-.936l1.488.372q-.192 1.056-.96 1.704t-2.04.648m7.335 0q-.888 0-1.572-.372a2.7 2.7 0 0 1-1.068-1.092q-.384-.708-.384-1.704v-.072q0-.912.408-1.596a2.94 2.94 0 0 1 1.08-1.068q.684-.384 1.512-.384.768 0 1.32.264t.9.684q.36.42.528.924.18.492.18.96v.804H61.05q.024.528.444.876.42.336.996.336.564 0 .864-.204.312-.204.432-.468l1.296.72q-.132.3-.444.624-.3.324-.816.552-.516.216-1.308.216m-1.44-3.948h2.808q-.072-.42-.456-.696-.372-.276-.948-.276-.564 0-.936.3-.36.288-.468.672"/></g><defs><clipPath id="a"><path fill="#fff" d="M0 0h74v42H0z"/></clipPath></defs></svg>