<svg xmlns="http://www.w3.org/2000/svg" width="47" height="55" fill="none" viewBox="0 0 47 55"><path stroke="#f1f1f1" d="M46.085.5v53.616H.5V.5z"/><path fill="#f1f1f1" d="m19.776 21.065.589.093-.202.385-.517-.277zm2.368-1.284-.493.431v.293l.775.193 1.563-1.056-.042-.429-.62-.213zm.243-1.159h-.142l-.261.49-.423.034-.483.694.258.164.65-.41.5-.53zm.879-1.361-1 .79.356.258.799-.812zm-7.685 4.416.346.043.108-.814v-.257l-.061-.257-.179-.015zm.183.537.112.172.208.03.096-.42-.346-.083zm.202.42.034.224h.214l-.03-.241zm.12.481.06.144.181-.08s-.049-.133-.054-.133zm.11.411.155-.056-.06-.131s-.087.074-.085.085v.102zm7.338-.634s-.282.68-.282.686c0 .005.442.04.442.043l.106-.56-.078-.056.052-.193-.222-.12-.07.143zm-.649.473.241.066.072-.223-.17-.039zm5.182 8.639-.348.2-.444.093-.977.956.06.213.141-.02.558-.24c.309-.144.592-.336.84-.57.17-.17.313-.366.42-.58zm-.258 1.333-.12-.13-.184.11s.139.141.136.141zm-3.702-8.27-.136-.017v.257l.14.025.082-.334-.045-.018zm-8.245-1.438.05.208.198-.064-.065-.21zm-1.72 7.067.775-.629.627.16 1.677-1.257.08-.668-1.1-1.598a14 14 0 0 0-.303-1.77c-.113-.39-.37-1.526-.38-1.541l-.144-.29-1.048-1.565.68-1.69.52-.039.034-.257-.403-.334v-.388c0-.215.367-.434.613-.434q.103 0 .204.031.264.107.48.293c.026.018.48 1.076.48 1.076l-.384.311-.191.463.258.208.369-.635 1.53.514.935.53.283-.31.775.065.574-.77-.517-.196.545-.652-.065-.221-.831-.16.635-.675.617.4v.178l.39.046.308-.624-.23-.203.971-.93.886-.409.684-.447.135-.105.026-.478-.116-.339-.303-.118.388-.303-.106-.057a3.8 3.8 0 0 1-1.95.67c-.775.052-2.31-.284-2.31-.284l-1.534-.229-.537-.095a11.1 11.1 0 0 0-3.379 2.764l-.038 1.441-.238.663-.537 1.901.178.537-.87.123-.882.974q-.074.64-.074 1.284a10.9 10.9 0 0 0 1.828 6.053zm15.023-15.413c1.348.83 2.501 1.94 3.38 3.253a11 11 0 0 1 1.714 4.356l-.863.735-.55-.131-.259.226.019.151c0 .072.041.213.095.427.107.42.162.851.165 1.284q.016.462-.106.91h-.47l-1.322-1.033-1.008.226-.65-.11-.825.256.373.319.648-.183.558.445-.088.195-.23.373-.496.704-.775.613-1.412-1.459-.367.039 1.508 1.721.613-.123.152.31-.615 1.003-1.199 1.138-.522 1.343a.3.3 0 0 1-.154.118 2.5 2.5 0 0 0-.602.442q-.433.405-.486.447a9.83 9.83 0 0 1-1.847 1.233 4.15 4.15 0 0 1-1.808.455 3.7 3.7 0 0 1-1.16-.193c-.05-.018-.085-.043-.085-.067l.259-.734q.302-.387.648-.738a2.2 2.2 0 0 0 .452-.814q.13-.46.333-.894c.24-.385.354-.714.274-.794l-1.566-1.564-.656-1.215.07-.288a6.3 6.3 0 0 1 .517-1.13c.09-.226.246-.418.45-.553l1.048-.514 2.033.306.62.411.289-.036 1.243.321.31-.804-1.579-.442-.558-.552-.078.02.259.656-.315.064-.034-.077.111-.02s-.095-.404-.34-.514a.5.5 0 0 0-.235-.08.73.73 0 0 0-.419.17c-.188.2-.404.373-.64.513l-.649-.485.24-.601.1.023q.09.021.185.02a.34.34 0 0 0 .354-.233.21.21 0 0 0-.07-.214l-.062-.07a1 1 0 0 0 .09-.104q.19.051.387.072c.14.019.282-.017.395-.1l.156-.258.258-.074.046-.347h.163a.9.9 0 0 1 .13.293l.456-.118.135-.465-.073-.082.2-.447-.174-.121-.294.822-.16.02-.073-.182-.41.031-.23-.367.498-.514.488-.65.69.216.168.339h.21l-.078-.494.563-.513-.375-1.688.24-.532.26.016.037-.417-1.807-1.955.059-.529 1.485-.336.214.064.845-.082.196.087 1.365-.134zm-.026.326-1.73.375 1.193.683.39-.455.483-.323zM10.931 10.242l-.287-.914H8.746l-.302.914H6.857l2.245-6.14h1.17l2.242 6.14zM9.725 6.43l-.553 1.64h1.075zM18.192 9.639a2.3 2.3 0 0 1-1.663.604h-2.294v-6.14h2.286a2.3 2.3 0 0 1 1.663.603c.721.717.64 1.5.64 2.467 0 .966.089 1.749-.632 2.466M17.16 5.785a.79.79 0 0 0-.729-.344h-.671v3.455h.666a.8.8 0 0 0 .729-.344c.121-.172.162-.336.162-1.38 0-1.042-.04-1.207-.162-1.379zM20.894 10.242v-6.14h4.19V5.45H22.41v1.027h2.286v1.347H22.41v1.076h2.673v1.346zM31.424 10.242V7.301l-.875 1.518h-.971L28.7 7.301v2.941h-1.514v-6.14h1.488L30.06 6.81l1.387-2.707h1.488v6.14zM35.188 10.242v-6.14h4.192V5.45h-2.673v1.027h2.286v1.347h-2.286v1.076h2.676v1.346zM8.087 39.076l-.981 2.687h.64l.135-.411h.898l.13.41h.64l-.984-2.686zm-.035 1.777.293-.87.277.87zM11.301 41.78a1 1 0 0 0 .774-.301c.197-.198.26-.442.26-.892v-.352H11.33v.514h.409v.07a.46.46 0 0 1-.114.313.43.43 0 0 1-.325.116.37.37 0 0 1-.295-.129c-.064-.085-.109-.18-.109-.699s.045-.611.11-.696a.37.37 0 0 1 .294-.131.385.385 0 0 1 .42.308h.62a1.06 1.06 0 0 0-.73-.8 1.07 1.07 0 0 0-1.056.253c-.26.257-.26.635-.26 1.028v.092c0 .386 0 .75.26 1.028a.99.99 0 0 0 .746.277M15.03 40.132h-1.025v-.524h1.201v-.54H13.39v2.688h1.816v-.54h-1.201v-.547h1.025zM17.735 39.069v1.461l-.936-1.461h-.542v2.687h.615v-1.462l.935 1.462h.545v-2.687zM20.788 40.946a.364.364 0 0 1-.377.293.36.36 0 0 1-.295-.128c-.064-.085-.111-.185-.111-.7 0-.513.047-.613.111-.698a.37.37 0 0 1 .295-.129.366.366 0 0 1 .377.293h.627a.954.954 0 0 0-1.01-.832 1 1 0 0 0-.744.3c-.27.258-.27.635-.27 1.028v.093c0 .385 0 .75.27 1.027a1 1 0 0 0 .744.3.954.954 0 0 0 1.01-.832zM23.99 40.132h-1.025v-.524h1.199v-.54H22.35v2.688h1.814v-.54h-1.199v-.547h1.026zM28.979 40.53v-.233c0-.383 0-.684-.28-.966a1 1 0 0 0-.723-.257h-.991v2.684h.992a1 1 0 0 0 .723-.257c.284-.287.282-.59.279-.97m-.695.514a.39.39 0 0 1-.354.17h-.33v-1.611h.325a.39.39 0 0 1 .354.17c.062.087.078.182.078.634s-.014.56-.073.642zM31.658 40.132h-1.026v-.524h1.201v-.537h-1.815v2.685h1.815v-.537h-1.2v-.547h1.025zM34.653 41.756h1.775v-.54h-1.16V39.07h-.615zM38.828 41.755h.64l-.984-2.68h-.486l-.981 2.688h.641l.136-.411h.897zm-.858-.91.287-.87.276.87zM8.503 43.985h.682v-.54H7.207v.54h.681v2.147h.615zM12.334 44.985a.78.78 0 0 0 .431-.69.85.85 0 0 0-.567-.803.9.9 0 0 0-.345-.048H10.79v2.687h.618v-1.028h.281l.491 1.028h.715l-.591-1.13zm-.516-.38h-.411v-.622h.415a.313.313 0 0 1 .313.311.31.31 0 0 1-.313.311zM15.186 43.443l-.984 2.687h.643l.137-.41h.898l.127.41h.643l-.984-2.687zm-.037 1.778.295-.871.276.87zM18.768 46.132v-1.461l.935 1.461h.545v-2.687h-.614v1.462l-.939-1.462h-.544v2.687zM23.087 44.526l-.328-.054a.35.35 0 0 1-.21-.09.23.23 0 0 1-.063-.152c0-.138.116-.287.366-.287h.023c.18-.015.36.038.501.149l.385-.378a1.2 1.2 0 0 0-.888-.298c-.587 0-.98.336-.98.837a.74.74 0 0 0 .182.53.9.9 0 0 0 .537.233l.336.047a.37.37 0 0 1 .202.082.26.26 0 0 1 .061.185c0 .128-.072.28-.428.28a1 1 0 0 1-.617-.18l-.39.388a1.33 1.33 0 0 0 1.004.331c.516 0 1.033-.257 1.033-.832a.77.77 0 0 0-.196-.58.9.9 0 0 0-.53-.211M26.081 43.445h-.615v2.685h.615zM28.983 43.985h.68v-.54h-1.976v.54h.682v2.147h.614zM31.885 43.445h-.615v2.685h.615zM35.606 44.743c0-.385 0-.75-.27-1.027a1.084 1.084 0 0 0-1.501 0c-.258.257-.258.634-.258 1.027v.093c0 .385 0 .75.258 1.027a1.086 1.086 0 0 0 1.5 0c.271-.257.271-.634.271-1.027zm-.723.738a.393.393 0 0 1-.597 0c-.067-.088-.108-.178-.108-.691 0-.514.044-.612.108-.697a.404.404 0 0 1 .597 0c.065.085.109.18.109.697s-.042.603-.109.69M38.766 43.445v1.462l-.936-1.462h-.544v2.687h.615v-1.461l.937 1.461h.545v-2.687zM8.857 48.887h-1.03v-.527h1.206v-.54H7.209v2.695h1.824v-.54H7.826v-.549h1.031zM8.24 47.485l.419-.632h-.572l-.173.632zM11.965 48.633h.63a.95.95 0 0 0-.345-.608.97.97 0 0 0-.668-.214 1 1 0 0 0-.748.3c-.26.257-.26.637-.26 1.028v.09c0 .388 0 .755.26 1.027a1 1 0 0 0 .748.3.965.965 0 0 0 1.012-.834h-.63a.366.366 0 0 1-.38.295.36.36 0 0 1-.294-.128c-.064-.087-.11-.188-.11-.701 0-.514.046-.617.11-.704a.38.38 0 0 1 .295-.129.37.37 0 0 1 .38.278M15.031 47.81a.99.99 0 0 0-.752.3c-.273.258-.273.638-.258 1.029v.09c0 .387 0 .755.258 1.027a1.087 1.087 0 0 0 1.503 0c.275-.257.272-.635.272-1.028v-.095c0-.385 0-.752-.272-1.027a.97.97 0 0 0-.75-.296m.3 2.055a.39.39 0 0 1-.3.137.4.4 0 0 1-.3-.137c-.067-.087-.106-.177-.106-.693s.04-.612.106-.699a.4.4 0 0 1 .6 0c.067.087.106.177.106.699 0 .521-.04.604-.106.694M17.663 50.515h1.782v-.54H18.28v-2.154h-.617zM21.81 47.811a1 1 0 0 0-.751.3c-.258.258-.258.638-.258 1.028v.09c0 .388 0 .755.258 1.028a1.095 1.095 0 0 0 1.506 0c.258-.257.258-.637.258-1.028v-.09c0-.388 0-.755-.258-1.027a1 1 0 0 0-.754-.3m.3 2.055a.39.39 0 0 1-.298.137.4.4 0 0 1-.298-.137c-.067-.087-.109-.18-.109-.693 0-.514.042-.614.109-.7a.37.37 0 0 1 .297-.133.38.38 0 0 1 .299.134c.068.087.109.177.109.699 0 .521-.041.603-.11.693M25.796 48.648h.623a1.06 1.06 0 0 0-.739-.814 1.08 1.08 0 0 0-1.07.264c-.258.257-.258.638-.258 1.028v.09c0 .388 0 .755.258 1.027a1.13 1.13 0 0 0 1.535 0c.196-.2.258-.441.258-.894v-.357H25.37v.514h.408v.072a.41.41 0 0 1-.118.32.4.4 0 0 1-.323.114.36.36 0 0 1-.254-.146c-.064-.085-.108-.18-.108-.702 0-.521.044-.614.108-.698a.36.36 0 0 1 .295-.134.387.387 0 0 1 .418.316M28.653 47.82h-.617v2.695h.617zM32.156 50.094c.133-.273.186-.579.152-.88v-.09c0-.389 0-.756-.27-1.028a1.09 1.09 0 0 0-1.504 0c-.259.257-.259.637-.259 1.027v.09c0 .388 0 .755.26 1.028a.98.98 0 0 0 .751.3c.18.005.358-.038.517-.123h.02l.21.208.301-.298-.199-.198zm-.48-.514v.07l-.158-.16-.302.301.196.195h-.059a.3.3 0 0 1-.062 0 .38.38 0 0 1-.297-.136c-.067-.087-.108-.18-.108-.693 0-.514.04-.614.108-.7a.37.37 0 0 1 .297-.133.38.38 0 0 1 .3.134c.064.085.106.18.106.699-.006.21-.014.341-.021.42zM34.488 49.565V47.81h-.622v1.76c.038.241.162.461.349.62a1.04 1.04 0 0 0 1.34 0c.188-.159.313-.379.35-.62v-1.76h-.616v1.744a.39.39 0 0 1-.409.435.386.386 0 0 1-.392-.424M39.207 48.887h-1.028v-.527h1.204v-.54h-1.82v2.695h1.82v-.54H38.18v-.549h1.028z"/></svg>