<svg width="47" height="55" viewBox="0 0 47 55" fill="none" xmlns="http://www.w3.org/2000/svg">
<path d="M46.085 0.5V54.1162H0.5V0.5H46.085Z" stroke="#F1F1F1"/>
<path d="M19.7755 21.0653L20.3646 21.1578L20.1628 21.5432L19.6462 21.2657L19.7755 21.0653ZM22.1443 19.7808L21.651 20.2124V20.5052L22.4256 20.698L23.9887 19.6421L23.9474 19.2131L23.3271 18.9999L22.1443 19.7808ZM22.3874 18.6222H22.2448L21.9838 19.1129L21.5607 19.1463L21.0776 19.8399L21.3355 20.0043L21.9869 19.5933L22.4856 19.0641L22.3874 18.6222ZM23.2656 17.2607L22.2658 18.0519L22.6219 18.3088L23.4206 17.497L23.2656 17.2607ZM15.581 21.6767L15.927 21.7204L16.0353 20.9061V20.6492L15.9738 20.3923L15.7953 20.3768L15.581 21.6767ZM15.7641 22.2137L15.8756 22.3858L16.0844 22.4166L16.1802 21.9953L15.8343 21.9131L15.7641 22.2137ZM15.966 22.6349L15.9995 22.8584H16.2137L16.1849 22.617L15.966 22.6349ZM16.0867 23.1153L16.1467 23.2592L16.3275 23.1796C16.3275 23.1796 16.2784 23.046 16.273 23.046L16.0867 23.1153ZM16.1958 23.5264L16.3509 23.4699L16.2909 23.3388C16.2909 23.3388 16.2036 23.4133 16.206 23.4236V23.5264H16.1958ZM23.5336 22.8918C23.5336 22.8918 23.2523 23.5727 23.2523 23.5778C23.2523 23.5829 23.6941 23.6188 23.6941 23.6214L23.8001 23.0614L23.7222 23.0049L23.7744 22.8122L23.5523 22.6914L23.4822 22.8353L23.5336 22.8918ZM22.8853 23.3645L23.1261 23.4313L23.1978 23.2078L23.0279 23.1693L22.8853 23.3645ZM28.067 32.0039L27.7187 32.2043L27.2746 32.2968L26.2982 33.2525L26.3575 33.4657L26.4993 33.4452L27.0572 33.2062C27.3658 33.0624 27.6494 32.8697 27.8964 32.6359C28.0678 32.4667 28.2104 32.2704 28.3179 32.0553L28.067 32.0039ZM27.8091 33.3373L27.6899 33.2062L27.5045 33.3167C27.5045 33.3167 27.6439 33.458 27.6408 33.458L27.8091 33.3373ZM24.1071 25.0677L23.9708 25.0497V25.3066L24.1102 25.3324L24.1928 24.9984L24.1484 24.9804L24.1071 25.0677ZM15.8623 23.6291L15.9114 23.8372L16.1101 23.773L16.0454 23.5623L15.8623 23.6291ZM14.1418 30.6964L14.9171 30.067L15.5444 30.2262L17.2213 28.97L17.3007 28.3021L16.2005 26.7042C16.1382 26.1084 16.0369 25.5172 15.8982 24.9342C15.7852 24.5437 15.5288 23.4082 15.5187 23.3928L15.3745 23.1025L14.3257 21.538L15.0052 19.8476L15.5265 19.8091L15.56 19.5522L15.1571 19.2183V19.1463V18.8303C15.1571 18.6146 15.5242 18.3962 15.7696 18.3962C15.8382 18.3967 15.9075 18.4071 15.9738 18.427C16.1491 18.4973 16.3111 18.5963 16.4537 18.7199C16.4795 18.7378 16.9345 19.7962 16.9345 19.7962L16.5496 20.1071L16.3587 20.5695L16.6166 20.7776L16.9859 20.143L18.5155 20.6568L19.4506 21.1861L19.7342 20.8778L20.5095 20.942L21.083 20.1713L20.5664 19.9761L21.1111 19.3236L21.0464 19.1026L20.215 18.9434L20.85 18.2678L21.4672 18.6685V18.8457L21.8575 18.892L22.1646 18.2678L21.9347 18.0648L22.9064 17.1348L23.7923 16.7263L24.4765 16.2793L24.6113 16.174L24.637 15.6962L24.5209 15.357L24.2185 15.2389L24.6058 14.9358L24.4998 14.8793C23.9248 15.2785 23.25 15.5106 22.5495 15.5498C21.7749 15.6012 20.2407 15.2646 20.2407 15.2646L18.7064 15.036L18.1688 14.9409C16.8698 15.6304 15.7213 16.5701 14.7901 17.7051L14.752 19.1463L14.5143 19.8091L13.9766 21.7101L14.1551 22.2471L13.2847 22.3704L12.4034 23.344C12.3543 23.7703 12.3294 24.1992 12.3286 24.6285C12.3255 26.781 12.9621 28.8868 14.1574 30.681L14.1418 30.6964ZM29.1649 15.2826C30.513 16.1132 31.6662 17.2227 32.5451 18.5357C33.4233 19.8486 34.0085 21.3343 34.2586 22.8918L33.396 23.6266L32.8459 23.4955L32.5872 23.7216L32.6059 23.8732C32.6059 23.9451 32.6472 24.0864 32.701 24.2997C32.8077 24.7197 32.8631 25.151 32.8662 25.5841C32.8771 25.8909 32.8412 26.1973 32.7602 26.4935H32.2903L30.968 25.4608L29.9605 25.6869L29.3099 25.5764L28.4855 25.8333L28.8579 26.1519L29.5062 25.9695L30.0641 26.4139L29.9761 26.6091L29.7462 26.9817L29.2499 27.6856L28.4754 28.2995L27.0626 26.8404L26.6956 26.8789L28.2042 28.6001L28.8166 28.4768L28.9686 28.7877L28.3538 29.7895L27.1554 30.9276L26.6333 32.2711C26.5959 32.3261 26.5414 32.3675 26.479 32.3893C26.2569 32.506 26.0544 32.6549 25.8767 32.8312C25.5876 33.1009 25.4271 33.2499 25.3912 33.2781C25.1193 33.5127 24.8333 33.7298 24.5333 33.9281C24.2154 34.1416 23.885 34.3364 23.5445 34.5113C22.9843 34.7979 22.3656 34.9534 21.736 34.966C21.3417 34.9649 20.9498 34.8997 20.5765 34.7733C20.5251 34.7553 20.4908 34.7297 20.4908 34.7065L20.7495 33.9718C20.9513 33.7141 21.1679 33.468 21.3978 33.2345C21.6051 32.9985 21.7594 32.7207 21.8498 32.4202C21.9362 32.1137 22.0477 31.8146 22.1832 31.5262C22.4232 31.1408 22.537 30.812 22.4568 30.7324L20.8913 29.1679L20.2352 27.9527L20.3054 27.665C20.4402 27.2722 20.6131 26.8938 20.822 26.5347C20.9116 26.3094 21.0682 26.1167 21.2716 25.9823L22.3196 25.4685L24.3526 25.7743L24.9728 26.1853L25.2619 26.1494L26.5047 26.4704L26.8149 25.6663L25.2362 25.2244L24.6783 24.6721L24.6003 24.6927L24.859 25.3478L24.5442 25.412L24.51 25.3349L24.6214 25.3144C24.6214 25.3144 24.5255 24.911 24.2801 24.8006C24.21 24.7554 24.1289 24.7281 24.0456 24.7209C23.8913 24.7321 23.7448 24.7914 23.6271 24.8905C23.4386 25.0909 23.2227 25.2639 22.9866 25.4043L22.3383 24.9188L22.5783 24.3176L22.6788 24.3407C22.7388 24.3554 22.8004 24.3623 22.8627 24.3613C22.9391 24.3684 23.0162 24.3491 23.0809 24.3066C23.1448 24.264 23.1931 24.2008 23.2165 24.1275C23.2266 24.0891 23.2258 24.0485 23.2134 24.0106C23.2009 23.9728 23.1775 23.9393 23.1464 23.9143L23.0848 23.8449C23.1183 23.8128 23.1479 23.7776 23.1752 23.7396C23.3022 23.7735 23.4315 23.7975 23.5624 23.8115C23.7019 23.8306 23.8437 23.7946 23.9575 23.7114L24.1126 23.4545L24.3705 23.3799L24.4172 23.0331H24.5801C24.6401 23.1225 24.6837 23.2216 24.7094 23.326L25.1661 23.2078L25.3009 22.7428L25.2284 22.6607L25.4271 22.2137L25.2541 22.0929L24.9596 22.9149L24.7998 22.9356L24.7274 22.7531L24.3167 22.784L24.0869 22.4166L24.5855 21.9028L25.0733 21.2529L25.7629 21.4686L25.9312 21.8077H26.1401L26.0629 21.3145L26.6263 20.8007L26.2515 19.1129L26.4915 18.5811L26.7502 18.5966L26.7884 18.1803L24.9806 16.2254L25.0398 15.6962L26.525 15.3597L26.7393 15.4238L27.5839 15.3417L27.7803 15.429L29.1447 15.2954L29.1649 15.2826ZM29.1392 15.6088L27.4086 15.9839L28.6016 16.6673L28.992 16.2125L29.4751 15.8888L29.1392 15.6088Z" fill="#F1F1F1"/>
<path d="M10.9311 10.2424L10.6444 9.32789H8.74623L8.4439 10.2424H6.85742L9.10233 4.10266H10.2727L12.5145 10.2424H10.9311ZM9.72491 6.43013L9.17245 8.06911H10.247L9.72491 6.43013Z" fill="#F1F1F1"/>
<path d="M18.1922 9.63877C17.9686 9.84375 17.7068 10.0027 17.4208 10.1063C17.1356 10.2099 16.8325 10.2562 16.5286 10.2425H14.2346V4.1027H16.5208C16.8247 4.08898 17.1278 4.13525 17.413 4.23886C17.699 4.34247 17.9608 4.50134 18.1844 4.7064C18.9052 5.42309 18.8249 6.20666 18.8249 7.17259C18.8249 8.13851 18.913 8.922 18.1922 9.63877ZM17.159 5.78531C17.0795 5.66821 16.9704 5.57444 16.8418 5.51384C16.7141 5.45332 16.5715 5.42821 16.4304 5.44107H15.7587V8.89635H16.425C16.5668 8.90929 16.7086 8.88411 16.8372 8.82358C16.965 8.76298 17.0748 8.66928 17.1535 8.55211C17.2751 8.37999 17.3164 8.21554 17.3164 7.17259C17.3164 6.12955 17.2751 5.96518 17.1535 5.79306L17.159 5.78531Z" fill="#F1F1F1"/>
<path d="M20.8941 10.2424V4.10266H25.0831V5.44878H22.4097V6.47631H24.6959V7.82252H22.4097V8.89887H25.0831V10.245L20.8941 10.2424Z" fill="#F1F1F1"/>
<path d="M31.4244 10.2424V7.30096L30.5494 8.81921H29.5777L28.6996 7.30096V10.2424H27.1863V4.10266H28.6738L30.0608 6.81033L31.4478 4.10266H32.9361V10.2424H31.4244Z" fill="#F1F1F1"/>
<path d="M35.188 10.2424V4.10266H39.3801V5.44878H36.7067V6.47631H38.9929V7.82252H36.7067V8.89887H39.3832V10.245L35.188 10.2424Z" fill="#F1F1F1"/>
<path d="M8.08739 39.0758L7.10559 41.7629H7.74609L7.8809 41.3519H8.77932L8.90867 41.7629H9.54919L8.56505 39.0758H8.08739ZM8.05154 40.8535L8.34531 39.9826L8.62193 40.8535H8.05154Z" fill="#F1F1F1"/>
<path d="M11.301 41.7792C11.4443 41.788 11.5877 41.7656 11.7217 41.7137C11.855 41.6618 11.9757 41.5817 12.0755 41.4787C12.2718 41.2808 12.3342 41.0368 12.3342 40.5872V40.2353H11.3314V40.7491H11.7396V40.8185C11.7428 40.9332 11.7022 41.0453 11.6259 41.1319C11.583 41.1722 11.5316 41.2036 11.4755 41.2233C11.4194 41.2433 11.3602 41.2516 11.301 41.2475C11.2449 41.2501 11.1895 41.2397 11.1381 41.2174C11.0875 41.1953 11.0423 41.1614 11.0064 41.119C10.9417 41.0342 10.8973 40.9392 10.8973 40.4202C10.8973 39.9013 10.9417 39.8088 11.0064 39.7241C11.0423 39.6814 11.0875 39.6475 11.1381 39.6249C11.1895 39.602 11.2449 39.5912 11.301 39.593C11.3968 39.5822 11.4934 39.608 11.5721 39.665C11.65 39.7223 11.703 39.8065 11.7217 39.9013H12.3412C12.303 39.7151 12.215 39.5427 12.0864 39.4019C11.9578 39.2614 11.7934 39.1576 11.6103 39.1016C11.428 39.0456 11.2332 39.0397 11.0477 39.0842C10.8615 39.1283 10.6916 39.2216 10.5545 39.3542C10.2958 39.611 10.2958 39.9886 10.2958 40.3817V40.4742C10.2958 40.8595 10.2958 41.2243 10.5545 41.5018C10.6527 41.5971 10.7695 41.6708 10.8981 41.7186C11.0267 41.7664 11.1638 41.787 11.301 41.7792Z" fill="#F1F1F1"/>
<path d="M15.0302 40.1322H14.0048V39.6081H15.2063V39.0686H13.39V41.7557H15.2063V41.2163H14.0048V40.6691H15.0302V40.1322Z" fill="#F1F1F1"/>
<path d="M17.7345 39.0686V40.5304L16.7994 39.0686H16.2571V41.7557H16.8719V40.294L17.8069 41.7557H18.3516V39.0686H17.7345Z" fill="#F1F1F1"/>
<path d="M20.788 40.9461C20.7709 41.0322 20.7234 41.109 20.654 41.1629C20.5847 41.2166 20.4982 41.2438 20.4109 41.239C20.3548 41.2418 20.2995 41.2315 20.248 41.2092C20.1974 41.1868 20.1522 41.1532 20.1164 41.1105C20.0517 41.0258 20.0049 40.9256 20.0049 40.4118C20.0049 39.8979 20.0517 39.7977 20.1164 39.713C20.1522 39.6707 20.1974 39.6369 20.248 39.6146C20.2995 39.5922 20.3548 39.582 20.4109 39.5845C20.4982 39.5799 20.5847 39.6072 20.654 39.6609C20.7234 39.7148 20.7709 39.7916 20.788 39.8774H21.4153C21.3849 39.6372 21.2634 39.4173 21.0763 39.2626C20.8886 39.108 20.6486 39.0301 20.4055 39.0453C20.2675 39.0404 20.1296 39.0649 20.001 39.1165C19.8733 39.1684 19.7571 39.2465 19.6613 39.3456C19.3901 39.6025 19.3901 39.9802 19.3901 40.3732V40.4657C19.3901 40.8511 19.3901 41.2159 19.6613 41.4933C19.7571 41.5927 19.8733 41.6708 20.001 41.7227C20.1296 41.7743 20.2675 41.7987 20.4055 41.7938C20.6486 41.809 20.8886 41.7312 21.0763 41.5765C21.2634 41.4218 21.3849 41.202 21.4153 40.9615L20.788 40.9461Z" fill="#F1F1F1"/>
<path d="M23.9907 40.1322H22.9653V39.6081H24.1637V39.0686H22.3505V41.7557H24.1637V41.2163H22.9653V40.6691H23.9907V40.1322Z" fill="#F1F1F1"/>
<path d="M28.9786 40.5304V40.2966C28.9786 39.9139 28.9786 39.6133 28.6996 39.3307C28.6022 39.2426 28.4884 39.1745 28.3638 39.1303C28.2399 39.0864 28.1082 39.0671 27.9765 39.0738H26.9846V41.7584H27.9765C28.1082 41.7656 28.2399 41.7465 28.3645 41.7027C28.4884 41.6584 28.6022 41.5901 28.6996 41.5015C28.984 41.2137 28.9817 40.9106 28.9786 40.5304ZM28.2843 41.0442C28.2453 41.1012 28.1923 41.1469 28.13 41.1768C28.0684 41.2066 27.9991 41.2194 27.9305 41.2137H27.5994V39.603H27.9251C27.9936 39.5974 28.063 39.6099 28.1253 39.6398C28.1869 39.6695 28.2406 39.7156 28.2788 39.7726C28.3412 39.8599 28.3567 39.9549 28.3567 40.4071C28.3567 40.8593 28.3435 40.9671 28.2843 41.0494V41.0442Z" fill="#F1F1F1"/>
<path d="M31.6577 40.1322H30.6323V39.6081H31.833V39.0712H30.0175V41.7557H31.833V41.2188H30.6323V40.6716H31.6577V40.1322Z" fill="#F1F1F1"/>
<path d="M34.6533 41.7557H36.4276V41.2163H35.2681V39.0686H34.6533V41.7557Z" fill="#F1F1F1"/>
<path d="M38.8276 41.7552H39.4681L38.484 39.0758H37.9985L37.0167 41.7629H37.658L37.7944 41.3519H38.6905L38.8276 41.7552ZM37.9705 40.8458L38.2572 39.9749L38.5331 40.8458H37.9705Z" fill="#F1F1F1"/>
<path d="M8.50327 43.9848H9.18507V43.4453H7.20667V43.9848H7.88847V46.1324H8.50327V43.9848Z" fill="#F1F1F1"/>
<path d="M12.3342 44.9852C12.4635 44.9215 12.5726 44.8229 12.649 44.7009C12.7246 44.5788 12.7651 44.4378 12.7651 44.2942C12.7651 44.1776 12.7417 44.0622 12.695 43.9551C12.649 43.8483 12.5804 43.7516 12.4947 43.6721C12.4098 43.5924 12.3085 43.531 12.1978 43.4916C12.088 43.4523 11.9703 43.4362 11.8534 43.4439H10.789V46.131H11.4069V45.1034H11.6882L12.1791 46.131H12.8944L12.303 45.0007L12.3342 44.9852ZM11.8176 44.605H11.4069V43.9834H11.8222C11.9056 43.9834 11.9851 44.016 12.0435 44.0743C12.102 44.1326 12.1347 44.2117 12.1347 44.2942C12.1347 44.3767 12.102 44.4558 12.0435 44.5139C11.9851 44.5722 11.9056 44.605 11.8222 44.605H11.8176Z" fill="#F1F1F1"/>
<path d="M15.1859 43.443L14.2018 46.1301H14.8446L14.9818 45.7191H15.8802L16.0072 46.1301H16.6501L15.6659 43.443H15.1859ZM15.1493 45.2207L15.4438 44.3498L15.7205 45.2207H15.1493Z" fill="#F1F1F1"/>
<path d="M18.768 46.1324V44.6708L19.7031 46.1324H20.2477V43.4453H19.6337V44.9071L18.6955 43.4453H18.1509V46.1324H18.768Z" fill="#F1F1F1"/>
<path d="M23.0873 44.5257L22.7593 44.4717C22.6814 44.4658 22.6073 44.4342 22.5497 44.3818C22.5099 44.3412 22.4873 44.287 22.4858 44.2303C22.4858 44.0915 22.6019 43.9425 22.852 43.9425H22.8754C23.0554 43.9276 23.2346 43.9808 23.3764 44.0915L23.7613 43.7139C23.6406 43.6077 23.5003 43.5268 23.3476 43.4758C23.1949 43.4244 23.0336 43.4041 22.873 43.4158C22.2863 43.4158 21.8936 43.7524 21.8936 44.2534C21.8819 44.4466 21.9473 44.6367 22.0751 44.7826C22.2224 44.9182 22.4118 45.0004 22.612 45.0163L22.9478 45.0626C23.0219 45.0687 23.092 45.0975 23.1497 45.1448C23.1933 45.1959 23.2159 45.2624 23.2112 45.3297C23.2112 45.4582 23.1388 45.6098 22.7827 45.6098C22.5621 45.6188 22.3455 45.5555 22.1655 45.4299L21.7751 45.8179C21.9107 45.9386 22.0697 46.0303 22.2427 46.0873C22.4156 46.1444 22.5988 46.1654 22.7803 46.1492C23.2962 46.1492 23.8128 45.8923 23.8128 45.3169C23.8221 45.2118 23.8089 45.1062 23.7754 45.0063C23.7419 44.9063 23.6881 44.8147 23.6172 44.7363C23.4684 44.6107 23.2821 44.5367 23.0873 44.5257Z" fill="#F1F1F1"/>
<path d="M26.081 43.4453H25.4662V46.1299H26.081V43.4453Z" fill="#F1F1F1"/>
<path d="M28.9834 43.9848H29.6628V43.4453H27.6868V43.9848H28.3686V46.1324H28.9834V43.9848Z" fill="#F1F1F1"/>
<path d="M31.8851 43.4453H31.2703V46.1299H31.8851V43.4453Z" fill="#F1F1F1"/>
<path d="M35.6064 44.7434C35.6064 44.358 35.6064 43.9932 35.3352 43.7158C35.1342 43.5228 34.8646 43.4149 34.5848 43.4149C34.3051 43.4149 34.0363 43.5228 33.8345 43.7158C33.5765 43.9727 33.5765 44.3503 33.5765 44.7434V44.8358C33.5765 45.2211 33.5765 45.586 33.8345 45.8634C34.0363 46.0563 34.3051 46.164 34.5848 46.164C34.8646 46.164 35.1342 46.0563 35.3352 45.8634C35.6064 45.6065 35.6064 45.2289 35.6064 44.8358V44.7434ZM34.8833 45.4806C34.8466 45.5233 34.8007 45.5577 34.7492 45.5813C34.6978 45.605 34.6417 45.6171 34.5848 45.6171C34.5287 45.6171 34.4726 45.605 34.4204 45.5813C34.369 45.5577 34.3238 45.5233 34.2864 45.4806C34.2194 45.3933 34.1781 45.3034 34.1781 44.7896C34.1781 44.2758 34.2217 44.1782 34.2864 44.0934C34.3246 44.0518 34.3705 44.0189 34.422 43.9963C34.4734 43.9737 34.5287 43.9619 34.5848 43.9619C34.6409 43.9619 34.697 43.9737 34.7485 43.9963C34.7999 44.0189 34.8459 44.0518 34.8833 44.0934C34.9479 44.1782 34.9916 44.2732 34.9916 44.7896C34.9916 45.3059 34.9503 45.3933 34.8833 45.4806Z" fill="#F1F1F1"/>
<path d="M38.7655 43.4453V44.9071L37.8304 43.4453H37.2858V46.1324H37.9006V44.6708L38.838 46.1324H39.3834V43.4453H38.7655Z" fill="#F1F1F1"/>
<path d="M8.85726 48.8866H7.82637V48.36H9.03257V47.8205H7.20923V50.5153H9.03257V49.9758H7.82637V49.4261H8.85726V48.8866Z" fill="#F1F1F1"/>
<path d="M8.24008 47.4848L8.65851 46.8528H8.08735L7.91437 47.4848H8.24008Z" fill="#F1F1F1"/>
<path d="M11.9649 48.6327H12.5945C12.561 48.3942 12.4379 48.1772 12.2501 48.0249C12.0623 47.8725 11.8239 47.796 11.5823 47.8106C11.4429 47.806 11.3049 47.8301 11.1756 47.8821C11.047 47.9337 10.9301 48.0118 10.8335 48.1111C10.5748 48.368 10.5748 48.7482 10.5748 49.1388V49.2286C10.5748 49.6166 10.5748 49.9839 10.8335 50.2563C10.9301 50.3557 11.047 50.434 11.1756 50.4856C11.3049 50.5376 11.4429 50.5617 11.5823 50.5568C11.8262 50.5712 12.0662 50.4931 12.254 50.3379C12.4418 50.183 12.5641 49.9629 12.5945 49.7219H11.9649C11.9478 49.8085 11.9003 49.8861 11.8301 49.9405C11.7608 49.9947 11.6735 50.0222 11.5847 50.0173C11.5294 50.0199 11.4733 50.0097 11.4226 49.9873C11.3712 49.9649 11.326 49.9313 11.2901 49.8889C11.2255 49.8016 11.1795 49.7014 11.1795 49.1876C11.1795 48.6738 11.2255 48.571 11.2901 48.4837C11.3268 48.4418 11.372 48.4084 11.4226 48.3863C11.474 48.3639 11.5294 48.3534 11.5847 48.3553C11.6712 48.3498 11.7561 48.3748 11.8255 48.4254C11.8948 48.4762 11.9439 48.5495 11.9649 48.6327Z" fill="#F1F1F1"/>
<path d="M15.0313 47.8103C14.8918 47.8041 14.7523 47.8278 14.6222 47.8797C14.4928 47.9316 14.376 48.0104 14.2793 48.1109C14.0058 48.3678 14.0058 48.748 14.0214 49.1385V49.2284C14.0214 49.6163 14.0214 49.9837 14.2793 50.256C14.4811 50.4492 14.7507 50.5571 15.0313 50.5571C15.311 50.5571 15.5806 50.4492 15.7824 50.256C16.0567 49.9991 16.0536 49.6214 16.0536 49.2284V49.1334C16.0536 48.748 16.0536 48.3806 15.7824 48.1058C15.6858 48.0061 15.5689 47.9282 15.4388 47.8774C15.3094 47.8262 15.17 47.8037 15.0313 47.8103ZM15.3305 49.8655C15.2939 49.9084 15.2479 49.9428 15.1957 49.9665C15.1443 49.9901 15.0881 50.0022 15.0313 50.0022C14.9744 50.0022 14.9183 49.9901 14.8661 49.9665C14.8147 49.9428 14.7687 49.9084 14.7313 49.8655C14.6643 49.7781 14.6253 49.6882 14.6253 49.1719C14.6253 48.6555 14.6643 48.5604 14.7313 48.4731C14.7687 48.431 14.8154 48.3973 14.8669 48.3742C14.9183 48.3511 14.9744 48.339 15.0313 48.339C15.0874 48.339 15.1435 48.3511 15.1957 48.3742C15.2471 48.3973 15.2931 48.431 15.3305 48.4731C15.3975 48.5604 15.4365 48.6504 15.4365 49.1719C15.4365 49.6934 15.3975 49.7756 15.3305 49.8655Z" fill="#F1F1F1"/>
<path d="M17.6631 50.5153H19.4451V49.9758H18.2802V47.8205H17.6631V50.5153Z" fill="#F1F1F1"/>
<path d="M21.8106 47.8111C21.6711 47.8054 21.5317 47.8294 21.4023 47.881C21.273 47.9329 21.1553 48.0115 21.0587 48.1117C20.8008 48.3686 20.8008 48.7488 20.8008 49.1392V49.2292C20.8008 49.6171 20.8008 49.9844 21.0587 50.2567C21.2621 50.4494 21.5317 50.5568 21.8122 50.5568C22.0927 50.5568 22.3623 50.4494 22.5649 50.2567C22.8228 49.9998 22.8228 49.6196 22.8228 49.2292V49.1392C22.8228 48.7513 22.8228 48.384 22.5649 48.1117C22.4675 48.0112 22.3498 47.9326 22.2205 47.8807C22.0904 47.8288 21.9509 47.8052 21.8106 47.8111ZM22.1098 49.8663C22.0732 49.9091 22.0273 49.9435 21.9758 49.967C21.9244 49.9906 21.8683 50.0029 21.8122 50.0029C21.7553 50.0029 21.6992 49.9906 21.6478 49.967C21.5963 49.9435 21.5504 49.9091 21.5138 49.8663C21.4467 49.7789 21.4054 49.6864 21.4054 49.1726C21.4054 48.6588 21.4467 48.5587 21.5138 48.4739C21.5496 48.4307 21.5948 48.396 21.6462 48.3729C21.6976 48.3498 21.7537 48.3385 21.8106 48.3403C21.8675 48.3385 21.9236 48.3498 21.9758 48.3729C22.028 48.396 22.074 48.4304 22.1098 48.4739C22.1776 48.5612 22.2189 48.6511 22.2189 49.1726C22.2189 49.6942 22.1776 49.7763 22.1098 49.8663Z" fill="#F1F1F1"/>
<path d="M25.7963 48.6481H26.4189C26.3815 48.4586 26.2926 48.2828 26.1625 48.1395C26.0324 47.9962 25.8656 47.8908 25.6802 47.8343C25.4947 47.7778 25.2968 47.7727 25.109 47.8192C24.9205 47.8657 24.7482 47.962 24.6103 48.0984C24.3524 48.3553 24.3524 48.7355 24.3524 49.126V49.2159C24.3524 49.6038 24.3524 49.9712 24.6103 50.2435C24.8184 50.4367 25.0927 50.5443 25.3778 50.5443C25.6623 50.5443 25.9365 50.4367 26.1446 50.2435C26.3409 50.0431 26.4033 49.8016 26.4033 49.3495V48.9924H25.3701V49.5062H25.7784V49.5781C25.783 49.6367 25.7752 49.6961 25.755 49.7512C25.7347 49.8067 25.702 49.8569 25.6599 49.8985C25.6178 49.9399 25.5672 49.9717 25.5111 49.9912C25.455 50.011 25.3958 50.0182 25.3366 50.0122C25.2867 50.0066 25.2376 49.9905 25.1947 49.9653C25.1511 49.9401 25.1129 49.9062 25.0833 49.8659C25.0186 49.7811 24.975 49.686 24.975 49.1645C24.975 48.643 25.0186 48.5505 25.0833 48.4658C25.1191 48.4223 25.1636 48.3879 25.215 48.3648C25.2656 48.3416 25.3217 48.3304 25.3778 48.3322C25.4745 48.3222 25.5719 48.3494 25.6498 48.408C25.7269 48.4665 25.7799 48.5524 25.7963 48.6481Z" fill="#F1F1F1"/>
<path d="M28.6533 47.8205H28.0361V50.5153H28.6533V47.8205Z" fill="#F1F1F1"/>
<path d="M32.1564 50.0943C32.2889 49.8206 32.3418 49.5152 32.3083 49.2131V49.1232C32.3083 48.7353 32.3083 48.3679 32.0372 48.0956C31.8354 47.9027 31.5658 47.7948 31.286 47.7948C31.0055 47.7948 30.7359 47.9027 30.5341 48.0956C30.2754 48.3525 30.2754 48.7327 30.2754 49.1232V49.2131C30.2754 49.601 30.2754 49.9684 30.5341 50.2407C30.6307 50.3409 30.7476 50.4195 30.8777 50.4714C31.0071 50.523 31.1465 50.5469 31.286 50.5412C31.466 50.5456 31.6437 50.5032 31.8026 50.4179H31.8229L32.0325 50.626L32.3341 50.328L32.1354 50.1303L32.1564 50.0943ZM31.6756 49.5805V49.6498L31.5182 49.4905L31.2159 49.7911L31.4123 49.9863H31.353C31.332 49.9889 31.3117 49.9889 31.2907 49.9863C31.2346 49.9874 31.1785 49.9756 31.1263 49.9519C31.0749 49.9285 31.0297 49.8936 30.9938 49.8502C30.9268 49.7628 30.8855 49.6704 30.8855 49.1566C30.8855 48.6428 30.9268 48.5426 30.9938 48.4579C31.0297 48.4147 31.0756 48.3802 31.1271 48.3571C31.1785 48.334 31.2346 48.3227 31.2907 48.3243C31.3476 48.3227 31.4045 48.3337 31.4559 48.3569C31.5081 48.38 31.5541 48.4147 31.5907 48.4579C31.6554 48.5426 31.6967 48.6377 31.6967 49.1566C31.6912 49.3672 31.6834 49.4983 31.6756 49.5779V49.5805Z" fill="#F1F1F1"/>
<path d="M34.4876 49.5648V47.8102H33.8658V49.5699C33.904 49.8114 34.0279 50.0312 34.2149 50.1898C34.4019 50.3485 34.6404 50.4356 34.8858 50.4356C35.132 50.4356 35.3689 50.3485 35.5559 50.1898C35.7429 50.0312 35.8676 49.8114 35.9058 49.5699V47.8102H35.2887V49.5545C35.2949 49.6107 35.2895 49.6675 35.2715 49.7212C35.2536 49.7749 35.2248 49.8239 35.185 49.8653C35.1469 49.9067 35.0993 49.939 35.0463 49.9604C34.9941 49.9817 34.9373 49.9912 34.8804 49.9886C34.8258 49.9896 34.7713 49.9792 34.7214 49.9578C34.6708 49.9365 34.6256 49.9046 34.5889 49.8645C34.5515 49.8245 34.5235 49.777 34.5063 49.7253C34.4884 49.6737 34.4822 49.619 34.4876 49.5648Z" fill="#F1F1F1"/>
<path d="M39.207 48.8866H38.1793V48.36H39.3831V47.8205H37.5621V50.5153H39.3831V49.9758H38.1793V49.4261H39.207V48.8866Z" fill="#F1F1F1"/>
</svg>
