<svg xmlns="http://www.w3.org/2000/svg" width="248" height="248" fill="none" viewBox="0 0 248 248"><path fill="#a545fe" d="M37.037 1.208c.853-.141 3.709-.188 4.613-.191 12.714-.038 25.437.021 38.152.022l79.098-.015 34.879-.01c2.207 0 4.403-.033 6.621.002 5.304.086 10.812-.256 16.045.75 12.111 2.33 22.568 10.686 27.976 21.72 3.034 6.19 3.417 12.14 3.478 18.956l-.009 118.291.024 32.662c.016 16.377 1.746 30.555-11.112 42.798-8.956 8.528-12.627 10.57-25.206 10.68-43.411-.454-87.531-.055-130.997-.049l-33.887.009c-13.894.016-20.383 1.923-31.842-7.561A39.52 39.52 0 0 1 .473 212.169c-.807-8.579-.337-25.624-.336-34.816l.006-64.682-.008-50.388c0-6.668.056-13.392.042-20.053C.13 20.383 14.937 3.119 37.037 1.208"/><path fill="#fff" d="M145.625 45c4.393 4.118 9.24 7.031 13.395 10.693 3.671 3.235 10.262 9 13.598 12.529 6.987 7.389 14.304 15.603 19.065 24.525 6.612 12.391 7.026 20.887 1.415 33.882-1.606 3.718-3.262 7.616-5.178 11.252-2.264 4.296-5.104 8.549-7.325 12.845-3.722 7.203-6.983 15.739-9.2 23.533-2.738 9.627-2.414 19.82-2.228 29.741-18.783-14.362-38.467-16.485-61.32-16.928-7.972-.154-18.718-.915-26.327-3.006-4.072-1.215-9.03-3.95-12.088-6.799-5.027-4.684-12.415-17.491-14.57-23.819-4.865-14.288-10.233-34.912-10.862-49.76 3.306 3.079 10.135 7.166 14.059 9.685 21.65 13.897 47.508 23.162 73.449 23.418 1.746-3.693 3.852-10.439 5.397-14.405 7.686-19.723 10.571-38.633 9.638-59.806-.255-5.785-.696-11.733-.918-17.58"/></svg>