<svg xmlns="http://www.w3.org/2000/svg" width="93" height="17" fill="none" viewBox="0 0 93 17"><g clip-path="url(#a)"><mask id="b" width="13" height="17" x="0" y="0" maskUnits="userSpaceOnUse" style="mask-type:luminance"><path fill="#fff" d="M12.896 0H0v17h12.896z"/></mask><g mask="url(#b)"><mask id="c" width="13" height="17" x="0" y="0" maskUnits="userSpaceOnUse" style="mask-type:luminance"><path fill="#fff" d="M12.87 0H0v16.966h12.87z"/></mask><g fill="#f1f1f1" mask="url(#c)"><path d="M8.695 6.194a3.04 3.04 0 0 1-2.691 2.288h-.73v.001h-.831c-1.16 0-2.103.972-2.103 2.166v.842H0v-.842c0-2.523 1.993-4.576 4.443-4.576h3.139q.574 0 1.113.12"/><path d="M10.53 11.52c0-.883-.367-1.68-.953-2.235a5.5 5.5 0 0 0 1.266-2.051 5.5 5.5 0 0 1 2.027 4.285c0 3.003-2.372 5.446-5.288 5.446v.001H.456A.46.46 0 0 1 0 16.497v-5.005h2.34v3.064h5.242c1.626 0 2.949-1.362 2.949-3.037"/><path d="M5.753 10.905H3.689c-.476 0-.93-.093-1.349-.26.002-1.126.843-2.054 1.913-2.153h1.512a3.036 3.036 0 0 0 3.02-2.967l2.353-.019c-.029 3.001-2.458 5.399-5.385 5.399"/><path d="m11.14 5.502-.002.004-2.352.02V5.52c.038-1.659-1.306-3.11-2.964-3.11H2.34V6.62A4.56 4.56 0 0 0 .378 8.803a3.85 3.85 0 0 1-.392-1.7V.748C-.014.335.31 0 .713 0H5.82c2.95 0 5.347 2.473 5.319 5.502M4.253 8.492h1.513a3.036 3.036 0 0 0 2.91-2.223l-.003.008a3.04 3.04 0 0 1-2.669 2.205H5.89l-.124.003h-1.41q-.051.002-.103.007"/></g></g><mask id="d" width="74" height="12" x="19" y="3" maskUnits="userSpaceOnUse" style="mask-type:luminance"><path fill="#fff" d="M92.784 3.17h-73.02v11.096h73.02z"/></mask><g fill="#f1f1f1" mask="url(#d)"><path d="M19.916 14.09a.155.155 0 0 1-.153-.158V3.327c0-.087.069-.157.153-.157h4.548c2.263 0 3.625 1.106 3.625 3.054 0 .927-.29 1.57-.979 2.15a.033.033 0 0 0 .007.055c1.083.527 1.459 1.672 1.459 2.531 0 2.022-1.418 3.129-3.768 3.129zm2.355-6.695c0 .086.069.157.153.157h1.854c.73 0 1.232-.266 1.232-1.077 0-.812-.502-1.093-1.232-1.093h-1.854a.155.155 0 0 0-.153.157zm0 4.324c0 .087.069.157.153.157h2.255c.788 0 1.319-.25 1.319-1.18 0-.871-.53-1.137-1.319-1.137h-2.255a.155.155 0 0 0-.153.157zM29.522 9.9c0-2.613 1.275-4.37 4.112-4.37 2.579 0 3.94 1.757 3.94 4.398 0 .33-.01.506-.04.763a.153.153 0 0 1-.151.137h-5.299a.148.148 0 0 0-.143.185c.27 1.023 1.102 1.379 2.28 1.379.623 0 1.413-.093 2.26-.44a.154.154 0 0 1 .204.092l.498 1.37a.156.156 0 0 1-.072.192c-.91.47-1.87.66-3.147.66-3.095 0-4.442-1.756-4.442-4.368zm5.607-.517a.15.15 0 0 0 .15-.158c-.047-1.158-.616-1.82-1.645-1.82-1.124 0-1.684.689-1.73 1.82a.15.15 0 0 0 .149.158zM38.434 9.9c0-2.613 1.275-4.37 4.112-4.37 2.58 0 3.94 1.757 3.94 4.398 0 .33-.01.506-.04.763a.153.153 0 0 1-.15.137h-5.3a.148.148 0 0 0-.142.185c.27 1.023 1.102 1.379 2.28 1.379.623 0 1.412-.093 2.26-.44a.155.155 0 0 1 .203.092l.5 1.37a.16.16 0 0 1-.073.192c-.91.47-1.871.66-3.147.66-3.096 0-4.443-1.756-4.443-4.368zm5.608-.517a.15.15 0 0 0 .15-.158c-.048-1.158-.616-1.82-1.646-1.82-1.123 0-1.684.689-1.73 1.82a.15.15 0 0 0 .15.158zM48.077 10.917v-3.09a.155.155 0 0 0-.153-.157h-.726a.155.155 0 0 1-.153-.157v-1.19c0-.06.034-.116.087-.142l.945-.474.579-1.523c.023-.06.079-.1.142-.1h1.549c.084 0 .152.07.152.158V5.55c0 .087.069.157.153.157h2.06c.084 0 .152.07.152.157v1.65a.155.155 0 0 1-.152.156h-2.06a.155.155 0 0 0-.153.157v3.09c0 1.092.488 1.328 1.032 1.328.403 0 .736-.073 1.083-.208.051-.02.106.019.106.074v1.642a.15.15 0 0 1-.09.142 4.4 4.4 0 0 1-1.73.372c-1.562 0-2.822-.545-2.822-3.35zM54.096 10.695v-4.83c0-.087.069-.158.153-.158h1.83c.084 0 .152.07.152.157v4.831c0 .945.487 1.506 1.32 1.506.83 0 1.346-.56 1.346-1.506v-4.83c0-.087.068-.158.152-.158h1.687c.084 0 .153.07.153.157v4.831c0 .945.502 1.506 1.346 1.506.846 0 1.32-.56 1.32-1.506v-4.83c0-.087.068-.158.152-.158h1.83c.084 0 .152.07.152.157v4.831c0 2.377-1.404 3.571-3.166 3.571-1.232 0-2.034-.428-2.622-1.431-.602 1.003-1.404 1.431-2.636 1.431-1.763 0-3.166-1.196-3.166-3.57zM66.944 9.9c0-2.613 1.275-4.37 4.112-4.37 2.58 0 3.94 1.757 3.94 4.398 0 .33-.01.506-.04.763a.153.153 0 0 1-.151.137h-5.298a.148.148 0 0 0-.144.185c.27 1.023 1.102 1.379 2.28 1.379.624 0 1.413-.093 2.26-.44a.154.154 0 0 1 .204.092l.499 1.37a.156.156 0 0 1-.072.192c-.91.47-1.871.66-3.148.66-3.095 0-4.442-1.756-4.442-4.368zm5.607-.517a.15.15 0 0 0 .15-.158c-.047-1.158-.615-1.82-1.645-1.82-1.123 0-1.684.689-1.73 1.82a.15.15 0 0 0 .149.158zM75.849 9.9c0-2.613 1.275-4.37 4.112-4.37 2.579 0 3.94 1.757 3.94 4.398 0 .33-.01.506-.04.763a.153.153 0 0 1-.151.137h-5.298a.147.147 0 0 0-.143.185c.269 1.023 1.1 1.379 2.28 1.379.622 0 1.412-.093 2.259-.44a.154.154 0 0 1 .204.092l.498 1.37a.156.156 0 0 1-.072.192c-.91.47-1.87.66-3.147.66-3.095 0-4.442-1.756-4.442-4.368zm5.607-.517a.15.15 0 0 0 .15-.158c-.047-1.158-.616-1.82-1.645-1.82-1.123 0-1.684.689-1.73 1.82a.15.15 0 0 0 .149.158zM85.218 5.865c0-.087.069-.158.153-.158h1.71c.075 0 .138.055.151.13l.19 1.12c.006.03.046.036.06.009.454-.867 1.283-1.435 2.435-1.435 1.849 0 2.866 1.121 2.866 3.423v4.979a.155.155 0 0 1-.153.157h-2.116a.155.155 0 0 1-.153-.157V8.954c0-.87-.429-1.313-1.217-1.313-.96 0-1.505.443-1.505 1.726v4.566a.155.155 0 0 1-.152.157H85.37a.155.155 0 0 1-.153-.157z"/></g></g><defs><clipPath id="a"><path fill="#fff" d="M0 0h93v17H0z"/></clipPath></defs></svg>