<svg xmlns="http://www.w3.org/2000/svg" width="248" height="248" fill="none" viewBox="0 0 248 248"><rect width="248" height="248" fill="#fff" rx="124"/><path fill="#fe0000" d="M188.263 182.794c-2.553-3.777-5.585-7.704-8.204-11.463a581 581 0 0 1-15.869-23.597c-3.402-5.286-8.726-13.578-11.042-19.221-2.424-5.91-3.229-19.007-3.788-25.582-.443-5.238-.605-12.105-.786-17.347-.465-14.501-.647-29.01-.547-43.518q-.002-9.039.093-18.076c.066-6.339-.981-15.025 6.25-18.252 3.95-1.763 7.253.018 11.006 1.324 23.805 8.29 44.303 23.963 59.056 44.28a122.4 122.4 0 0 1 11.937 20.063c5.623 12.218 9.612 25.622 10.826 39.015.099 1.078.557 6.563.805 7.077v13.198c-.264.578-.82 6.96-.934 8.142-.857 8.925-2.997 17.811-5.957 26.274a131 131 0 0 1-14.366 28.499 129 129 0 0 1-12.711 15.801c-1.12 1.188-2.441 2.319-3.458 3.589-2.252-3.387-5.404-7.014-7.82-10.368-2.966-4.12-6.023-8.395-9.132-12.391-1.812-2.578-3.4-4.93-5.359-7.447"/><path fill="#00339e" d="M.402 114.609c.173-2.607.297-5.558.646-8.118 4.255-29.2 18.481-55.958 40.197-75.606C52.854 20.562 66.265 12.36 80.814 7.089c4.992-1.809 10.212-4 14.346.897 3.5 4.147 2.703 10.615 2.728 15.815l.106 16.123a1857 1857 0 0 1-.245 35.133c-.194 15.611-.455 31.838-2.944 47.263-1.366 8.468-8.706 19.466-13.322 26.697a781 781 0 0 1-26.978 39.478l-13.086 18.079c-1.689 2.29-2.962 4.15-4.794 6.426-1.649-2.108-2.778-2.999-4.378-4.807a146 146 0 0 1-7.98-9.798c-6.219-8.182-11.808-18.682-15.526-28.277a134.2 134.2 0 0 1-7.29-25.869 50 50 0 0 1-.737-6.168c-.067-1.022-.125-3.027-.29-3.962-.32.647-.195.711-.348 1.318l-.01-.952c-.103-1.805-.044-4.32-.053-6.186q-.04-6.462.045-12.922l.23 1.699c.085-.924.152-1.545.114-2.467"/><path fill="#d8d7d7" d="M108 196.566c11.86-.989 24.178-3.877 35.578-7.143 6.005-1.72 11.634-5.033 17.492-6.93 8.261-2.677 17.409-3.962 25.439.119.557.283 1.485.506 2.075.254 1.98 2.483 3.585 4.803 5.416 7.345-1.914.065-4.98 3.186-6.762 4.228-20.684 12.103-45.751 11.267-68.373 5.463-3.399-.872-7.595-1.948-10.865-3.336M129.822 36.064c6.053-.651 11.484 3.737 12.117 9.791s-3.771 11.473-9.828 12.088c-6.03.613-11.42-3.77-12.05-9.798-.631-6.03 3.735-11.432 9.761-12.08"/><path fill="#fbfbfb" d="M139.644 49c.313.178.177.06.356.422-.388 3.554-2.824 4.713-5.664 5.578-.259-.275-.26-.49-.336-.874.305-.99 1.965-.605 2.779-1.167 1.247-.861 2.008-2.665 2.865-3.959"/><path fill="#d8d7d7" d="M111.82 99.094c3.821-.607 7.446 1.786 8.084 5.338s-1.956 6.907-5.783 7.483c-3.804.573-7.391-1.817-8.025-5.347-.633-3.529 1.925-6.87 5.724-7.474"/><path fill="#fbfbfb" d="m117.537 108 .31.071.153.25c-.455 1.383-2.911 2.356-4.593 2.679-.18-.105-.249-.172-.407-.296.221-.585 1.709-.482 2.418-.855 1.004-.527 1.205-1.111 2.019-1.769z"/><path fill="#d8d7d7" d="M140.015 151.027a4.5 4.5 0 1 1 .97 8.946 4.5 4.5 0 0 1-.97-8.946"/><path fill="#fbfbfb" d="M143.821 155c.723 1.27-.925 2.741-1.662 3.525-.671.206-1.302.329-1.982.475-.056-.089-.138-.364-.177-.48.134-.397 2.772-2.244 3.821-3.52"/><path fill="#d8d7d7" d="M103.425 177.01c.673-.027 1.242-.018 1.855.278a3.03 3.03 0 0 1 1.577 1.851c.545 1.837-.514 3.389-2.379 3.835-.738.035-1.282.092-1.924-.269a3.06 3.06 0 0 1-1.464-1.916c-.415-1.631.651-3.409 2.335-3.779"/><path fill="#fbfbfb" d="m106.834 180 .154.123c.205 1.052-2.244 1.774-3.755 1.877-.173-.133-.139-.139-.233-.308.339-.354 3.085-1.413 3.834-1.692"/></svg>