<svg xmlns="http://www.w3.org/2000/svg" width="43" height="43" fill="none" viewBox="0 0 43 43"><mask id="a" width="43" height="43" x="0" y="0" maskUnits="userSpaceOnUse" style="mask-type:luminance"><path fill="#fff" d="M0 43h42.099V0H0z"/></mask><g fill="#f1f1f1" mask="url(#a)"><path d="M9.836 0C4.413 0 0 4.413 0 9.836c0 5.424 4.413 9.837 9.836 9.837 1.706 0 3.38-.453 4.842-1.311 1.444-.848 2.7-2.1 3.628-3.622l.13-.212-2.896-1.7-.122.215c-1.253 2.202-3.34 3.517-5.582 3.517-1.54 0-2.976-.555-4.153-1.606a7.04 7.04 0 0 1-2.116-3.503h16.016l.011-.233c.02-.409.04-.685.053-.886.016-.21.025-.35.025-.496C19.672 4.413 15.26 0 9.836 0m-6.27 8.26a7.1 7.1 0 0 1 2.118-3.536c1.174-1.054 2.61-1.611 4.152-1.611 1.476 0 2.924.557 4.077 1.569A6.96 6.96 0 0 1 16.07 8.26zM38.188 24.158 32.402 38.62l-5.785-14.462h-3.864l7.662 17.957.064.15h3.847l7.725-18.107zM15.508 30.134l.02.035.062-.035zM15.407 36.37c-.624 1.096-1.425 1.952-2.383 2.546a5.9 5.9 0 0 1-3.16.893c-3.462 0-6.175-2.92-6.175-6.645 0-3.727 2.713-6.646 6.176-6.646q.474 0 .93.07V23.37a10 10 0 0 0-.892-.042c-5.423 0-9.836 4.413-9.836 9.837S4.48 43 9.903 43a9.57 9.57 0 0 0 4.842-1.311c1.445-.848 2.7-2.1 3.628-3.622l.131-.215-2.977-1.694z"/><path d="M15.398 30.568a3.118 3.118 0 1 0 0-6.237 3.118 3.118 0 0 0 0 6.237M38.049 13.604c.077-.433.436-.763.87-.763.432 0 .791.33.865.763zm2.133.167a1.268 1.268 0 1 0-.096.484l-.337-.141a.91.91 0 0 1-.83.587c-.434 0-.793-.327-.867-.76h2.117a1 1 0 0 0 .013-.17m-2.669.866h-.818v-2.069h-.385v2.406h1.203zm-1.588 0h-.817v-2.069h-.386v2.406h1.203zm-3.752-1.033c.076-.433.435-.763.869-.763.433 0 .792.33.866.763zm2.132.167a1.268 1.268 0 1 0-.096.484l-.337-.141a.91.91 0 0 1-.83.587c-.434 0-.793-.327-.867-.76h2.117a1 1 0 0 0 .013-.17m-2.95-1.203h-.386v1.27c0 .478-.365.866-.817.866-.453 0-.819-.388-.819-.866v-1.27h-.384v1.27a1.203 1.203 0 0 0 2.406 0zm-2.756 1.758c0-1.036-1.877-.488-1.877-1.107 0-.234.292-.394.636-.394.324 0 .695.144.9.503l.29-.18c-.264-.455-.748-.654-1.193-.654-.52 0-.989.27-.989.725 0 1.03 1.877.469 1.877 1.107 0 .234-.311.395-.687.395-.362 0-.789-.155-1.049-.572l-.285.18c.315.51.856.719 1.347.719.549 0 1.03-.267 1.03-.722M25.9 12.568h-.385v2.406h.385zm-1.049 0-.795 1.633-.796-1.633h-.407l1.203 2.45 1.203-2.45zM42.099 8.667h-.385v1.665l-2.021-1.71v2.45h.385V9.409l2.02 1.71zM38.894 9.87c0 .513-.394.93-.882.93s-.882-.417-.882-.93.394-.93.882-.93.882.417.882.93m.382 0a1.268 1.268 0 1 0-2.536.002 1.268 1.268 0 0 0 2.536-.002m-2.951-1.203h-.385v2.406h.385zm-.77 0H33.15v.337h1.01v2.069h.386v-2.07h1.01zm-3.73 1.614.41-.841.41.84zm.41-1.659-1.203 2.45h.408l.22-.454h1.15l.22.455h.408zm-2.204-.721-.892.304.11.286.891-.305zm-1.247 1.802c.077-.433.436-.763.868-.763.434 0 .793.33.867.763zm2.133.167a1.268 1.268 0 1 0-.097.485l-.336-.142a.91.91 0 0 1-.832.587c-.432 0-.791-.327-.865-.76h2.117a1 1 0 0 0 .012-.17m-3.272-.516c0 .192-.135.35-.302.35H26.01v-.7h1.334c.167 0 .302.157.302.35m-.526.686h.224a.687.687 0 0 0 0-1.373h-1.719v2.406h.385V10.04h.622l.914 1.033h.484zm-2.217.173a.91.91 0 0 1-.83.587c-.488 0-.883-.417-.883-.93s.395-.93.882-.93c.37 0 .7.247.831.583l.337-.137a1.268 1.268 0 1 0 0 .969zM39.52 5.803c.077-.434.436-.764.869-.764s.792.33.866.764zm2.133.167a1.268 1.268 0 1 0-.096.484l-.337-.142a.91.91 0 0 1-.831.587c-.433 0-.792-.326-.866-.76h2.117q.014-.082.013-.17m-3.272 0c0 .477-.366.865-.818.865h-.818V5.103h.818c.452 0 .818.389.818.867m.385 0c0-.665-.54-1.203-1.203-1.203H36.36v2.405h1.203c.664 0 1.203-.539 1.203-1.202m-5.63-.167c.077-.434.437-.764.87-.764.432 0 .792.33.866.764zm2.133.167a1.268 1.268 0 1 0-.096.484l-.336-.142a.91.91 0 0 1-.832.587c-.432 0-.792-.326-.865-.76h2.117q.014-.082.012-.17m-2.669.865h-.818V4.767h-.384v2.405H32.6zM30.6 5.97c0 .513-.395.93-.882.93-.488 0-.882-.417-.882-.93s.394-.93.882-.93c.487 0 .882.416.882.93m.382 0a1.267 1.267 0 1 0-2.535 0 1.267 1.267 0 0 0 2.535 0m-3.192.342a.91.91 0 0 1-.83.587c-.488 0-.883-.416-.883-.93 0-.513.395-.93.882-.93.37 0 .7.247.831.584l.337-.138a1.267 1.267 0 1 0 0 .969zM24.45 4l-.891.304.109.286.892-.304zm-1.247 1.803c.077-.434.436-.764.87-.764.432 0 .791.33.866.764zm2.133.167a1.268 1.268 0 1 0-.096.484l-.337-.142a.91.91 0 0 1-.83.587c-.434 0-.793-.326-.867-.76h2.117q.014-.082.013-.17"/></g></svg>