<svg xmlns="http://www.w3.org/2000/svg" width="248" height="248" fill="none" viewBox="0 0 248 248"><rect width="248" height="248" fill="#00533c" rx="53"/><path fill="#fefefe" d="M125.058 64c.768.6 5.842 14.07 6.776 16.124-5.143 2.05-10.351 3.222-15.766 4.243 4.398 4.31 7.978 7.566 8.061 14.173.066 5.324-1.838 9.357-5.515 13.123-11.559 11.838-27.397 11.243-42.682 11.464-3.434.05-10.517-.061-13.044 2.641-.54.577-.888 1.321-.812 2.126.06.639.404 1.138.91 1.512 9.443 6.986 42.663-2.669 60.953 11.616 4.305 3.362 6.671 8.123 7.307 13.509.647 5.482-.585 11.281-4.035 15.65-3.657 4.631-11.209 8.517-16.813 10.149-3.726 1.085-7.575 1.639-11.421 2.083-9.693 1.813-31.436.498-41.084-2.193-4.967-1.512-14.971-5.896-17.29-10.951-5.39-11.758 4.342-17.431 12.558-22.03a28 28 0 0 1-4.247-2.127c-7.369-4.406-13.118-11.56-7.905-20.577 2.482-4.293 10.573-9.076 15.398-10.163-10.064-5.779-13.063-17.913-8.415-27.844 7.997-17.082 33.09-14.573 48.477-15.762 9.464-.732 19.637-3.308 28.247-6.7zm-22.381 91.406c-4.013-3.121-17.898-3.428-22.873-2.831-3.93.31-10.595.692-13.295 3.891a3.84 3.84 0 0 0-.894 2.834c.126 1.46 1.239 3.697 2.374 4.45 5.096 3.38 17.417 2.907 23.236 2.729 4.773-.521 13.89-.731 13.443-8.044-.074-1.217-1.074-2.363-1.991-3.029m-2.653-60.072c-.614-7.788-10.106-9.39-16.341-8.878-5.869.39-14.57 2.286-14.125 9.963a8.83 8.83 0 0 0 2.898 5.998c3.275 2.911 9.824 3.455 14.023 3.331 3.92-.191 8.608-.685 11.381-3.799a8.9 8.9 0 0 0 2.164-6.615M140.251 71.2l.872-.003c6.915-.009 12.835.192 18.035 5.438 4.41 4.449 5.371 9.285 5.372 15.305-.02 3.625-.064 7.281-.038 10.903l-.009 55.664-24.238-.016c-.28-22.41.105-44.891-.051-67.308-.046-6.636-.05-13.353.057-19.983"/><path fill="#00d556" d="M164.53 91.94c.987-2.065 1.53-4.1 2.544-6.12 2.938-5.854 8.11-10.884 14.358-13.078 6.667-2.342 14.335-1.946 20.756 1.011 2.27 1.046 4.506 2.74 6.437 4.314-1.441 3.066-3.119 6.786-4.981 9.581-4.159 6.243-11.431 10.958-18.368 13.518-6.195 2.287-14.119 1.71-20.784 1.677-.026-3.622.018-7.278.038-10.903"/></svg>