<svg xmlns="http://www.w3.org/2000/svg" width="34" height="49" fill="none" viewBox="0 0 34 49"><g fill="#f1f1f1" clip-path="url(#a)"><path fill-opacity=".3" d="m25.113 29.61-.18-.716-.058-.239-.06-.24-.06-.245-.088-.34-.383-1.463-.062-.24-.055-.218-.039-.16-.035-.15-.032-.138-.029-.129-.019-.09-.017-.088-.016-.083-.01-.053-.012-.077-.008-.05-.01-.072a9.4 9.4 0 0 1-.044-1.916.22.22 0 0 1-.165-.107c-.29-.483-.354-1.15-.207-1.994l.01-.053c.133-.732.005-1.226-.368-1.517l-.017-.014-.191-.129-.25-.17-.181-.126-.233-.162-.168-.118-.162-.115-.104-.076-.153-.11-.147-.109-.141-.105-.136-.103-.087-.067-.085-.065-.083-.065-.08-.063-.077-.062-.075-.061-.072-.06-.07-.06-.068-.057-.033-.028-.064-.056-.062-.055-.03-.027-.057-.053-.055-.052-.053-.05-.051-.05-.024-.025-.047-.048-.087-.093-.04-.045-.019-.022-.036-.043-.017-.022-.032-.041-.016-.02-.029-.041-.026-.04a.9.9 0 0 1-.124-.26l-.003-.016a.7.7 0 0 1 .024-.333l.012-.04.013-.04.015-.044.008-.021.018-.045.03-.07.021-.048.024-.05.025-.05.013-.027.028-.053.03-.055.03-.056.034-.058.035-.059.036-.061.038-.062.04-.065.042-.065.066-.102.046-.07.073-.108.05-.075.053-.075.082-.118.086-.121.06-.083.092-.129.164-.223.175-.236.149-.197.155-.205.157-.204.453-.588.56-.723.192-.25.207-.274.14-.187.083-.11.054-.07.076-.099.05-.062.047-.06.046-.056.045-.054.021-.026.043-.05.042-.047.04-.045.04-.043.038-.04.037-.039.037-.036.018-.017.036-.034.035-.03.034-.03.034-.028.034-.026.033-.025.017-.012.033-.022.032-.021.033-.02.033-.018.033-.017c.09-.046.177-.08.297-.115l.102-.03.106-.03.082-.024a5 5 0 0 0 .63-.236c.724-.327.962-1.036.698-2.2a.223.223 0 0 1 .153-.263 9 9 0 0 1-.6-.5.223.223 0 1 1 .299-.33q.147.132.289.25l.08.067.04.032.08.063c1.163.909 2.083 1.08 2.785.566l.009-.006.016-.014.009-.007.015-.015.015-.016.014-.016.014-.017.012-.018.012-.02.01-.02.015-.032.009-.023.008-.024.007-.026.004-.013.006-.028.002-.014.005-.03.002-.015.004-.032.003-.034.002-.035v-.018l.002-.037V6.5l-.002-.044-.003-.068-.004-.048-.003-.05-.008-.078-.006-.055-.006-.058-.011-.09-.009-.063-.018-.134-.016-.106-.018-.113-.04-.243-.06-.35-.018-.117-.012-.073-.016-.104-.014-.099-.017-.128-.004-.032c-.071-.578-.395-1.204-.98-1.875a.223.223 0 1 1 .337-.293q.96 1.1 1.086 2.113l.012.093.013.094.02.13.022.143.026.158.08.468.03.182.02.13.02.136.014.1.006.054.006.052.005.05.005.064.003.062.002.032.003.114c.007.463-.1.793-.376.996a1.9 1.9 0 0 1-.761.34q.094.422.315.692.247.306.66.421a.223.223 0 1 1-.122.43 1.7 1.7 0 0 1-.885-.57 2.1 2.1 0 0 1-.418-.94c-.527-.02-1.106-.247-1.733-.67.29 1.326-.026 2.237-.96 2.659a5 5 0 0 1-.729.27l-.216.061c-.114.033-.185.06-.253.094l-.013.006-.024.014-.025.015-.025.016-.026.017-.013.01-.026.02-.027.02-.014.011-.027.024-.029.025-.014.014-.03.027-.015.015-.031.031-.032.033-.033.035-.034.037-.035.04-.036.041-.057.067-.04.048-.062.077-.065.082-.07.089-.048.063-.05.066-.078.104-.11.148-.185.243-.248.324-.865 1.118-.193.251-.105.139-.203.267-.096.13-.123.166-.119.162-.112.155-.107.15-.076.108-.12.173-.068.1-.064.095-.081.123-.057.087-.053.085-.05.08-.047.077-.029.05-.027.048-.04.068-.023.044-.022.042-.021.04-.02.04-.017.037-.016.035-.014.034-.013.032-.012.03-.01.03q0 .006-.004.013l-.007.026a.3.3 0 0 0-.01.122.5.5 0 0 0 .09.176l.023.031.025.032.028.034.03.035.032.036.017.018.037.039.019.02.04.04.042.041.044.043.047.044.05.045.051.047.027.024.056.049.057.05.091.077.097.08.102.083.07.057.074.058.114.09.12.091.124.095.13.098.135.1.093.069.096.07.147.106.205.145.214.151.166.116.172.118.176.121.182.124.062.042.008.006c.535.397.72 1.051.57 1.927l-.008.044q-.152.835-.01 1.369l.026-.21.012-.086.018-.127.02-.126.02-.124.013-.082.028-.16.022-.116.021-.112.023-.108.014-.07.015-.067.014-.065.015-.062.021-.088.021-.08.014-.05.013-.047.013-.043.013-.04.006-.018.012-.033.011-.03c.134-.323.418-.76.713-1.123l.044-.054.116-.137.742-.87.083-.1.045-.054.027-.034.052-.065.048-.062.023-.03.044-.06.04-.056.038-.054.035-.052.016-.025.03-.05q.1-.166.137-.297c.13-.463.122-.729.002-1.045l-.016-.04-.02-.046-.157-.36-.004-.008c-.055-.13-.1-.252-.14-.383l-.017-.057-.02-.06-.02-.062-.023-.065-.036-.102-.04-.107-.043-.113-.046-.118-.05-.124-.034-.086-.055-.132-.058-.139-.062-.143-.065-.15-.068-.154-.097-.215-.076-.167-.106-.231-.084-.18-.028-.061a.223.223 0 1 1 .404-.19l.114.245.055.12.08.173.076.168.073.163.07.158.065.152.063.146.06.142.056.136.053.13.05.125.046.12.029.077.04.11.026.072.024.068.022.066.021.064.02.061.009.03c.03.096.062.186.1.282l.026.063.144.328.033.078.01.022c.166.421.184.789.024 1.36-.056.2-.168.406-.353.66l-.05.068q-.05.068-.11.142l-.07.087-.084.1-.836.983-.06.07-.01.014c-.28.337-.558.76-.677 1.048l-.01.024-.009.028-.01.032-.011.035-.017.06-.018.068-.012.05-.013.051-.02.084-.019.09-.02.094-.02.1-.02.103-.02.108-.02.11-.02.114-.018.116-.018.117-.018.119-.016.119c-.13.984-.16 1.93-.05 2.711l.006.045.011.07.008.05.014.075.02.106.018.085.019.09.036.16.033.14.046.19.052.21.072.278.312 1.191.093.358.065.255.082.328.04.161.06.247.06.236.103.412.043.175.04.164.037.155.033.146.021.094.02.092.019.09.018.087.025.13.015.085.015.085q.07.399.098.756c.011.137.007.29-.012.479l-.01.083-.01.087-.006.046-.01.074-.05.316-.096.593-.012.074-.021.141-.02.137-.01.067-.017.133-.007.061-.004.046-.003.05-.002.054v.028l-.002.059v.096l.001.068.002.072.002.076.003.08.004.083.006.127.071.623.06.515.042.346.056.456.046.362.045.336.036.261.035.243.027.182.027.17.02.12.018.114.025.141.015.087.033.174q.057.305.126.623l.04.186.043.19.071.307.3 1.264.036.156.024.11.023.105.022.101.02.098.019.095.017.091.016.088.015.086.014.084.012.08.011.08.005.04.009.066.006.054q0 .014.003.027l.005.053.004.054.003.053.001.026.002.053v.027l.002.054v.082l-.001.028-.002.056-.003.059-.003.059-.007.093-.006.064-.006.067-.008.07L27 43.7l-.015.116-.017.124-.018.132-.021.142-.037.246-.026.18-.016.123-.015.114-.008.072-.008.07-.007.067-.006.064-.005.062-.004.061-.004.06-.002.057-.003.087v.171l.002.058.002.07.004.072.004.072.005.074.006.075.007.075.007.076.008.077.013.115.01.077.015.115.012.077.011.076.018.112.013.075.013.073.014.072.014.07.021.103.022.1.022.094.023.09.016.057.015.054.008.026.016.05.015.048.016.044.016.041.015.038a.5.5 0 0 0 .083.138l.027.025.05.047c.228.207.367.282.549.301.317.034.498-.036.538-.251l.003-.022.003-.027v-.014l.002-.032.001-.036v-.104l-.003-.073-.003-.08-.004-.056-.003-.06-.012-.16-.012-.138-.01-.11-.015-.153-.017-.16-.019-.165-.025-.214-.028-.22-.023-.178-.024-.18-.022-.156-.034-.232-.038-.253-.024-.149-.024-.146-.024-.143-.033-.185-.024-.133-.024-.128-.033-.162-.016-.077-.016-.074-.024-.104-.016-.065-.015-.062-.008-.029-.015-.055-.008-.027-.015-.05-.013-.04-.011-.037-.011-.038-.01-.039-.01-.04-.01-.04-.008-.042-.009-.043-.008-.044-.007-.047-.007-.047-.007-.05-.006-.051-.009-.081-.005-.057-.005-.059-.007-.093-.004-.065-.005-.102-.005-.109-.005-.155-.002-.125-.003-.179-.001-.143-.001-.204v-.246l.002-.3.003-.328.014-1.153.004-.428v-.48l-.001-.166-.002-.193-.003-.187-.003-.182-.005-.177-.005-.173-.006-.169-.004-.083-.008-.163-.01-.195-.006-.096-.011-.187-.012-.182-.012-.178-.013-.174-.013-.171-.014-.168-.015-.166-.015-.163-.024-.242-.015-.141-.051-.451-.115-.995-.008-.075c-.029-.29-.048-.553-.058-.829a1.3 1.3 0 0 1 .03-.308l.012-.058.007-.03.016-.065.025-.096.08-.299a9.84 9.84 0 0 0 .286-1.572l.011-.136.007-.083.004-.073.003-.079.005-.134.002-.13.002-.15V27.83l.002-.154.003-.295.002-.141.004-.207.005-.2.004-.132.004-.13.007-.194.008-.193.007-.13.006-.13.011-.198.007-.107.006-.08.007-.084.008-.087.009-.09.005-.045.01-.094.013-.097.006-.05.014-.1.015-.104.016-.107.026-.165.019-.114.02-.117.02-.12.023-.122.023-.125.025-.128.025-.131.04-.202.03-.139.014-.07a.223.223 0 0 1 .437.091l-.029.138-.04.2-.038.193-.036.188-.022.12-.02.12-.03.171-.019.111-.017.108-.016.105-.016.103-.013.1-.013.096-.012.093-.01.091-.005.044-.01.087-.007.083-.007.08q0 .02-.003.04l-.005.076c-.013.216-.024.423-.032.63l-.008.184-.006.18-.005.184-.005.188-.002.127-.003.197-.003.273-.002.364-.001.313v.489l.001.482v.454l-.002.158-.002.111-.004.146-.003.086-.005.079-.004.073-.006.07-.003.035a10.4 10.4 0 0 1-.288 1.658l-.105.395-.015.059-.013.053-.01.049-.006.023-.008.042a1 1 0 0 0-.016.122l-.001.028v.027c.009.237.024.463.047.709l.012.118.041.364.12 1.029.017.162.017.162.015.164.016.165.014.167.015.17.013.173.013.177.013.18.012.184.005.094.011.192.011.196.008.166q.008.169.013.344l.005.178.004.182.002.093.003.19v.096l.002.198v.387l-.002.427-.005.463q.06-.136.114-.268l.053-.13.05-.126q.257-.66.368-1.165l.013-.059.013-.062.012-.064.013-.068.018-.107.018-.113.013-.08.012-.081.018-.129.012-.089.017-.14.018-.145.017-.152.017-.159.017-.165.022-.23.011-.12.022-.247.016-.193.021-.26.003-.183.004-.245.005-.176.007-.223.005-.158.005-.102.01-.195.007-.137.006-.088.006-.084.01-.121q0-.02.003-.04l.006-.074.011-.107.004-.034.012-.098.008-.061.004-.029q.039-.264.12-.597l.026-.104.027-.107.015-.055.03-.112.034-.116.034-.119.018-.06.038-.124.04-.128.041-.13.044-.134a.22.22 0 0 1 .212-.153.22.22 0 0 1-.025-.225l.068-.153.067-.15.096-.221.094-.216.06-.14.058-.139.056-.136.082-.2.053-.13.076-.19.049-.124.046-.122.046-.12.043-.116.042-.114.04-.113.04-.11.036-.107.018-.053.035-.103.016-.051.032-.1.03-.098.03-.095.027-.093.025-.091.046-.164.252-.868.026-.097.025-.096.016-.064.015-.064.015-.065.022-.099.014-.066.013-.067.012-.069.013-.07.012-.07.011-.073.011-.073.01-.076.01-.078.01-.08.01-.08.014-.128.013-.132.008-.092.008-.095.012-.147.01-.154.011-.163.01-.17.013-.24.006-.127.009-.197.007-.19.005-.125.003-.12.003-.119.004-.173.001-.112.002-.163v-.106l-.001-.154-.001-.1-.003-.146-.003-.094-.003-.092-.004-.09-.004-.088-.005-.087-.008-.125-.006-.08-.007-.08-.007-.077-.008-.076-.008-.074-.01-.072-.009-.07-.01-.069-.005-.033-.01-.067-.017-.096-.012-.063-.013-.061-.013-.06-.006-.03-.014-.057-.014-.057-.015-.055-.015-.054-.016-.053-.016-.052-.017-.05-.017-.05-.017-.045-.015-.042-.018-.045-.03-.073-.036-.081-.026-.06-.097-.212-.212-.46-.018-.04-.027-.061-.052-.118-.048-.113-.046-.11a8 8 0 0 1-.173-.46 4.4 4.4 0 0 1-.172-.664c-.132-.785-.044-1.724.147-2.482a1.7 1.7 0 0 1 .24-.516l.037-.055.02-.03.042-.061.16-.228.044-.064.04-.06.038-.056.034-.053.03-.051.03-.049.025-.047q.054-.102.091-.202c.225-.609.321-1.085.274-1.452-.033-.255-.23-.623-.598-1.088a.223.223 0 1 1 .351-.276c.413.523.644.954.69 1.307.059.454-.05.993-.298 1.663-.06.161-.133.303-.247.479l-.041.064-.046.067-.024.035-.227.324-.022.033-.018.027-.037.06c-.08.13-.13.237-.155.338-.177.703-.26 1.585-.14 2.299q.046.272.155.596c.052.154.113.314.186.488l.045.107.024.055.05.113.138.303.152.33.05.108.042.097.038.087.022.053.02.05.019.048.017.046.019.054.018.054.018.056.017.056.017.058.017.059.015.06.015.061.015.063.014.064.014.065.006.033.013.068.012.068.012.07.01.073.011.073.01.075.01.077.008.079.004.04.008.08.007.084.007.085.006.086.006.09.005.09.002.046.006.142.003.097.004.15.002.102v.105l.001.107v.165l-.001.113-.003.175-.002.12-.003.121-.004.125-.004.127-.008.196-.009.203-.012.254-.01.18-.014.228-.012.162-.007.103-.013.15-.008.096-.009.093-.009.09-.014.132-.01.085-.01.082-.011.08-.012.08-.011.077-.018.112-.013.073-.013.072-.014.071-.014.07-.014.07-.015.068-.016.068-.016.068-.017.067-.017.068-.028.1-.247.855-.047.164-.025.092-.027.095-.029.097-.015.05-.031.1-.033.103-.035.105-.036.107-.038.11-.04.112-.04.115-.043.117-.044.12-.046.12-.048.125-.05.126-.05.129-.08.198-.084.202-.057.139-.06.14-.06.143-.063.145-.064.148-.066.15-.067.152-.07.155a.22.22 0 0 1-.203.132.22.22 0 0 1 .033.204l-.042.13-.04.126-.039.123-.018.06-.036.118-.033.115-.032.111-.015.055-.029.106-.027.103-.012.05-.024.098-.011.048-.021.093a6 6 0 0 0-.064.337l-.01.065-.008.057-.007.06-.01.095-.01.102-.01.11-.008.115-.006.082-.01.171-.01.184-.005.145-.006.153-.005.16-.004.165-.004.173-.003.18-.002.124v.014l-.016.205-.017.198-.022.254-.022.243-.017.175-.017.168-.018.162-.012.104-.018.151-.018.145-.012.093-.018.134-.013.086-.012.083-.02.119-.012.076-.013.073-.013.07-.02.1-.013.063-.006.03a8 8 0 0 1-.355 1.143l-.05.13-.053.13-.055.135-.058.136q-.073.172-.155.354a.223.223 0 0 1-.296.111l-.007-.003-.005.5-.003.32v.471l.001.186.002.131.003.163.005.151.005.139.005.097.003.061.005.06.006.083.005.053.005.05.005.05.006.046.006.045.007.043.007.041.007.04.008.038.008.037.012.053.01.033.009.032.017.056.016.052.008.027.016.058.016.062.016.065.017.068.016.072.025.114.025.12.017.084.025.13.034.18.033.19.025.145.04.25.032.203.023.155.03.211.031.23.024.184.023.182.027.223.02.174.018.17.016.163.011.118.013.151.011.143.007.101.007.127.004.087.002.055v.052l.001.049v.067l-.001.04-.001.02-.002.034-.003.032-.004.028-.002.012c-.093.511-.504.67-1.024.615-.32-.033-.547-.17-.887-.493-.076-.073-.149-.209-.217-.387l-.02-.058-.022-.06-.02-.064-.01-.033-.02-.066-.02-.07-.018-.07-.019-.073-.018-.075-.017-.077-.017-.078-.016-.079-.015-.08-.015-.082-.008-.041-.014-.083-.013-.084-.006-.042-.013-.084-.011-.085-.011-.085-.01-.085-.01-.085-.004-.043-.008-.084-.007-.084-.004-.042-.006-.084-.005-.082-.002-.04-.004-.082-.003-.08-.001-.063-.001-.062v-.123l.002-.062.003-.062.003-.063.004-.064.004-.065.006-.067.007-.07.007-.07.013-.113.01-.08.023-.169.026-.186.051-.342.02-.131.021-.161.01-.075.008-.072.012-.102.01-.096.007-.091.004-.058.004-.056.002-.054.002-.053v-.126l-.001-.05-.002-.05-.001-.023-.003-.05-.004-.048-.003-.024-.008-.074-.007-.061-.01-.075-.012-.076-.006-.04-.013-.08-.007-.04-.015-.084-.016-.086-.027-.136-.02-.094-.031-.15-.035-.158-.035-.15-.326-1.375-.045-.2-.044-.193-.04-.188-.04-.184a25 25 0 0 1-.122-.626l-.022-.123-.031-.182-.026-.158-.033-.213-.02-.136-.028-.191-.035-.255-.044-.328-.038-.292-.047-.373-.049-.398-.067-.57-.07-.614-.018-.16v-.012l-.006-.094-.005-.09-.003-.087-.003-.084-.002-.08-.001-.075v-.141l.001-.066.001-.03.003-.06q0-.015.002-.03l.003-.054.008-.075.003-.023c.02-.158.043-.317.07-.49l.127-.786.027-.173.006-.043.012-.084.01-.078c.023-.204.03-.358.02-.483a8 8 0 0 0-.093-.715l-.014-.082-.015-.083-.025-.125-.017-.086-.028-.131-.03-.137-.022-.095-.047-.2-.039-.16zM6.479 13.88a.223.223 0 0 1 .28.143q.24.744.392 1.38l.034.136.03.133c.175.786.237 1.388.207 2.327-.016.509-.065.809-.175 1.172l-.025.082-.014.042-.031.095a3 3 0 0 0-.171.765l-.009.109-.005.07-.003.036-.003.07-.002.037-.002.07v.074l-.001.038v.156l.002.082.004.131.006.142.008.154.016.303.006.145.003.102.001.068.001.063v.058l-.002.054-.002.035v.034l-.004.05-.01.097-.007.05-.006.037-.008.038-.004.02-.01.044-.01.046-.012.05-.014.053-.016.056-.017.061-.029.099-.036.123-.27.86-.036.118-.034.113-.032.108-.03.105-.032.11-.03.107-.027.104-.027.1-.024.097-.023.094-.02.09-.019.088q-.082.384-.087.642v.078l-.002.12-.003.14-.004.12-.008.179-.012.25-.017.341-.022.381-.03.492-.04.617-.033.498-.039.526-.04.55-.029.378-.046.584-.056.702-.053.616-.064.732-.028.316c-.02.228-.047.462-.079.713l-.025.193-.014.1-.023.157-.056.376-.118.774-.027.17-.024.164-.023.159-.032.228-.02.148-.019.144-.017.142-.01.07-.015.138-.015.136-.015.135-.007.069-.013.135-.012.135-.012.137-.01.139-.007.07-.004.067-.003.072-.001.036-.003.075-.001.08v.208l.003.09.002.092.004.095.005.099.006.102.007.104.008.107.008.11.01.115.01.116.01.12.014.123.02.19.012.106.025.078q.6 1.851.614 3.77l.001.104v.221l-.003.144-.002.141-.004.14-.002.067-.005.135-.006.132-.008.129-.004.063-.008.125-.01.123-.005.06-.011.118q-.06.612-.184 1.06a5 5 0 0 1-.119.373l-.032.088-.064.16-.131.325-.027.068-.007.022-.013.038-.01.032-.007.029-.006.024-.003.02q-.003.035.003.045c.036.06.136.127.282.19l.046.02.047.019.025.01.052.018.053.018.028.01.057.017.03.009.06.017.062.016.063.017.066.015.066.015.068.014c.239.047.479.075.671.08a1.5 1.5 0 0 0 .275-.018l.005-.002.011-.018.009-.018.008-.021.009-.026.01-.028.008-.033.01-.035.01-.04.01-.041.01-.045.009-.048.01-.05.009-.054.013-.083.009-.058.009-.06.008-.063.007-.064.007-.063c.052-.51.053-1.08 0-1.496a3.3 3.3 0 0 0-.12-.563l-.026-.081-.028-.084-.014-.044-.032-.092-.1-.274-.005-.019c-.14-.403-.204-.695-.204-1.057v-.07l.004-.049.004-.051.005-.054.003-.027.006-.058.008-.06.01-.062.01-.065.013-.067.013-.07.015-.072.015-.075.026-.116.03-.122.02-.085.032-.133.036-.137.025-.095.027-.099.056-.203.045-.16.048-.166.064-.214.12-.404.268-.876.078-.265.04-.14.033-.118.01-.042.01-.044.013-.069.012-.073.006-.052.007-.054.006-.055.006-.059.004-.06.004-.063.004-.064.003-.068.002-.07.003-.108v-.278l-.001-.13-.003-.136-.004-.141-.005-.15-.006-.155-.008-.163-.05-1.021-.011-.258-.004-.13-.003-.078-.002-.13-.001-.11v-.113l.003-.058.004-.08.004-.062.004-.062.008-.087.011-.091.009-.07.013-.1.012-.076.019-.109.02-.113.022-.121.025-.129.035-.17.04-.185.06-.284.083-.362.234-1.013.053-.231.073-.33.04-.184.028-.136.037-.19.022-.117.015-.084.014-.081.012-.08.008-.05.01-.075.01-.074.012-.098.003-.024c.08-.702.267-1.273.63-2.064l.058-.127.274-.578.022-.046.06-.132.018-.042.035-.08.032-.077.016-.037.03-.074q.035-.09.064-.173.354-.995.702-2.053a.223.223 0 0 1 .423.139 94 94 0 0 1-.705 2.062l-.07.189-.016.039-.032.079-.035.081-.036.084-.04.088-.042.093-.12.253-.147.31-.029.062-.056.12-.053.118-.05.114c-.27.617-.415 1.094-.484 1.652l-.015.127-.013.101-.015.105-.012.08-.009.054-.014.083-.02.116-.024.123-.025.128-.035.173-.049.227-.056.252-.074.329-.213.914-.052.23-.047.214-.06.274-.038.178-.027.133-.025.125-.026.147-.02.11-.016.102-.012.073-.01.071-.01.09-.008.064-.006.062-.004.04-.003.04-.004.075-.003.056v.054l-.002.035.001.106.002.16.003.117.01.252.023.475.03.594.007.173.007.166.006.158.006.2.002.095.002.138v.295l-.002.08-.002.076-.003.074-.003.071-.005.07-.002.033-.005.066q0 .017-.003.032l-.005.063-.007.06-.008.06-.004.028-.009.055-.004.027-.01.054-.01.051-.012.05-.012.049-.027.1-.032.116-.038.132-.068.223-.296.974-.082.271-.062.213-.06.21-.043.151-.04.145-.038.14-.023.09-.033.13-.032.124-.02.08-.017.076-.025.11-.015.072-.014.067-.012.066-.012.062-.01.06-.01.059-.007.054-.004.027-.006.05-.005.05-.004.045-.002.022-.002.042v.039c0 .29.049.529.163.864l.042.121.06.167c.145.402.218.664.262 1.006l.007.07.008.072.007.074.006.074.005.076.004.076.002.04.005.195v.079l-.001.16-.002.079-.001.04-.003.08-.004.08-.004.077-.006.08-.006.077-.003.039-.008.076-.007.075-.004.037-.01.074-.01.073-.01.07-.011.07-.012.067-.006.033-.014.064-.013.063-.014.06-.008.03-.014.056c-.06.213-.134.371-.22.44-.113.09-.345.12-.64.107l-.064-.004-.099-.008-.068-.006-.07-.008-.072-.01-.036-.006-.073-.01-.074-.013-.075-.014-.038-.008-.12-.024-.079-.019-.076-.018q-.076-.02-.147-.04l-.07-.02-.07-.022c-.36-.12-.624-.276-.74-.47-.09-.151-.083-.314-.012-.532l.013-.04.011-.03.024-.062.19-.472.01-.025c.053-.14.097-.273.135-.41.074-.268.13-.596.168-.975l.01-.11.005-.055.01-.114.007-.117.008-.12.006-.122.005-.124.005-.128.004-.13.001-.065.003-.134.001-.068.001-.137.001-.14q0-1.9-.593-3.735l-.04-.12-.017-.157-.015-.131-.013-.128-.011-.125-.012-.121-.01-.12-.01-.114-.007-.114-.004-.054-.007-.109-.003-.053-.006-.104-.004-.1-.004-.098-.003-.14v-.304l.002-.04.002-.078.004-.075.005-.072.012-.143.01-.14.013-.138.013-.138.007-.068.029-.276.017-.14.016-.14.018-.143.02-.147.02-.15.02-.153.035-.239.025-.166L5 34.748l.042-.282.03-.205.019-.146c.033-.25.06-.48.082-.705l.026-.295.056-.627.052-.617.025-.305.057-.696.052-.673.041-.555.045-.618.045-.66.026-.387.018-.293.033-.538.013-.244.014-.278.01-.202.007-.182.004-.122.005-.145.002-.122.001-.053v-.024q0-.195.037-.44l.013-.082q.021-.127.052-.268l.02-.094.012-.05.023-.1.027-.102.027-.108.03-.11.032-.112.033-.118.031-.106.032-.11.053-.175.282-.902.03-.1.028-.093.024-.084.014-.052.013-.048.011-.043.014-.06.008-.036.006-.032.005-.029.005-.042.005-.042.004-.043.003-.045.001-.03.001-.032.001-.05v-.117l-.003-.09-.003-.075-.005-.113-.017-.35-.008-.156-.005-.144-.003-.09-.002-.087v-.243l.002-.077.003-.075.006-.113.006-.077.006-.077q0-.02.004-.039c.03-.312.075-.508.173-.81l.036-.106.024-.077.023-.074.022-.072a3.5 3.5 0 0 0 .13-.84l.004-.098.002-.052c.024-.768-.015-1.294-.132-1.901l-.025-.122-.026-.126-.028-.129a17 17 0 0 0-.431-1.546.223.223 0 0 1 .144-.28m7.985.773c.124 0 .213.06.304.223l.016.032.018.034.017.037.018.04.018.041.018.045.028.073.029.079.02.056.042.122.045.135.073.228.041.128.041.132.037.122.052.177.072.245.038.136.03.118.01.042q.015.064.011.164l-.002.041-.003.046-.005.048-.007.052-.008.056-.009.06-.01.062-.012.066-.02.108a.224.224 0 0 1-.441-.084l.01-.06.02-.108.016-.097.01-.063.004-.038.006-.05.002-.028.002-.024.001-.02v-.03l-.004-.013-.014-.056-.034-.125-.046-.165-.065-.22-.053-.175-.045-.146-.043-.14-.04-.121-.03-.091-.03-.087-.027-.082-.028-.077-.027-.073-.013-.036-.025-.065-.017-.04-.005.017a4 4 0 0 0-.061.28l-.017.097-.005.013a1.8 1.8 0 0 0-.084.524l.001.031.003.024.005.029.006.03.004.017.008.036.01.038.01.042.02.07.024.077.026.086.143.432.023.072.018.06.015.051.008.035.007.03.007.03.01.057q.018.116.008.242l-.005.048-.002.024-.008.06-.009.06c-.031.217-.033.317.01.453l.004.014.012.03.016.038.047.102.218.463.073.158.053.115.049.109.029.068q.028.067.049.121.1.26.185.55c.243.828.383 1.524.506 2.43l.075.552.014.107.008.064.007.062.009.087.006.072.006.071.005.073.006.146.003.114v.079l-.001.08-.001.085-.003.087-.004.09-.005.095-.006.1-.002.05-.012.163a9 9 0 0 1-.098.823l-.016.098-.041.207-.225 1.116-.066.337-.06.306-.031.177-.03.164-.028.152-.018.096-.018.092-.035.172-.026.12-.022.102-.024.103-.07.3-.015.065-.021.092-.022.105-.022.114-.026.147-.023.135-.027.179-.03.2-.037.266-.045.354-.029.224-.01.088-.01.09-.014.14-.013.148-.011.162-.013.178-.017.29-.044.814-.018.288-.015.201-.01.115-.013.16-.014.148-.024.245-.03.272-.04.354-.052.451-.069.567-.016.133-.002.013a10 10 0 0 0-.149 1.189c-.007.124-.007.23 0 .356l.003.071.005.077.02.248.005.067.002.056.001.05v.053q0 .165-.03.32l-.014.062-.367 1.556-.469 1.974-.002.01-.057.196-.052.184-.037.13-.033.124-.032.117-.038.146-.035.135-.022.094-.02.087-.018.08-.016.075-.009.046-.01.063-.007.038-.005.036-.014.107-.035.254-.007.067c-.02.216 0 .39.086.618l.038.1.02.054.013.034.01.035.011.036.01.04.014.045.04.161.008.028.015.047.012.03q.015.04.037.081l.017.034.032.053.023.037.027.04.03.04.05.066.038.048.04.051.046.054.024.028c.2.235.393.398.592.517l.025.014.046.026.054.027.114.057.146.073.015.007q.003 0 .004.003a1 1 0 0 1 .065.045l.021.018.007.005.011.007.028.015.018.01c.26.131.364.312.238.63l-.019.045-.007.02-.005.018q-.004.01-.006.02l-.005.023-.009.043-.008.038c-.043.232-.158.337-.465.405l-.05.011-.054.011-.06.01-.066.011-.073.012c-.673.102-1.098.027-1.6-.208-.178-.083-.259-.189-.33-.374l-.024-.07-.008-.02-.017-.039c-.063-.147-.13-.214-.314-.32-.264-.151-.468-.19-.792-.19h-.183l-.031-.002a.3.3 0 0 1-.156-.045l-.023-.013-.024-.009h-.004c-.241-.084-.337-.251-.325-.645l.002-.056.003-.058.005-.061.003-.031a2.3 2.3 0 0 1 .227-.822l.053-.117.03-.068c.065-.15.098-.253.124-.385l.005-.03c.016-.09.033-.162.051-.227l.016-.048.025-.075.005-.018.005-.02.005-.02.004-.025.002-.013.003-.028.003-.031.002-.034.003-.06v-.175l-.001-.088-.004-.153-.006-.184-.012-.297-.007-.158-.006-.141-.003-.069-.008-.131-.009-.127-.009-.122-.01-.12-.005-.06-.011-.115-.006-.058-.013-.115-.006-.058-.015-.117-.008-.06-.016-.12-.05-.352-.019-.14-.018-.13-.023-.185-.013-.118-.022-.234-.009-.12-.013-.188-.006-.131-.015-.237-.048-.678-.004-.077-.004-.09-.002-.09v-.166l.001-.076.002-.08.004-.112.005-.09.005-.095.004-.068.013-.18.015-.203.024-.274.004-.05q.135-1.565.458-2.63a.225.225 0 0 1 .43.128q-.3.987-.433 2.452l-.02.235-.017.18-.014.202-.013.18-.006.098-.006.121-.004.085-.002.08-.001.075-.001.073v.044q0 .09.004.173l.003.087.055.796.007.098.01.194.008.122q.001.03.004.06l.01.115c.009.114.02.223.033.339l.014.118.008.062.017.127.01.066.042.298.017.123.016.119.015.117.014.114.012.116.006.056.012.116.005.057.01.117.01.12.008.124.004.064.008.13.003.068.007.14.013.328.01.252.004.18.002.08v.2l-.001.055-.002.05-.003.047-.003.042-.005.04-.005.035-.005.034-.01.046-.007.029-.004.013-.013.04-.02.063-.012.036-.01.037-.01.043-.005.023-.01.05-.005.027a2 2 0 0 1-.155.504l-.035.078-.035.076c-.131.29-.183.451-.21.728l-.004.058-.004.053-.003.049-.001.045v.075l.002.031a.4.4 0 0 0 .008.06l.003.012.023.008q.044.014.077.032l.016.008.02.002.03.001h.079c.42-.003.698.044 1.056.248.321.184.433.336.543.632l.018.046.011.031c.025.06.043.076.09.098.425.199.76.259 1.34.17l.09-.014.077-.013.046-.008.04-.01.02-.003.036-.009.031-.008.014-.004.023-.007.015-.006.013-.066a1.3 1.3 0 0 1 .053-.194l.014-.033.018-.051.004-.015-.02-.01-.027-.014a.6.6 0 0 1-.164-.108l-.008-.004-.145-.07-.062-.03-.062-.032-.05-.027-.046-.025-.04-.023a2.8 2.8 0 0 1-.702-.61l-.054-.064-.074-.091-.044-.057-.04-.054a1.6 1.6 0 0 1-.26-.484l-.006-.022-.01-.035-.016-.06-.02-.077-.014-.055-.013-.046-.011-.04-.007-.02-.013-.037-.014-.04-.018-.045c-.12-.3-.155-.542-.134-.82l.008-.086.01-.08.036-.258.01-.079.006-.04.007-.044.008-.046.01-.05.016-.078.019-.086.02-.092.016-.065.034-.137.029-.11.042-.158.045-.169.051-.18.055-.192.042-.145.837-3.54q.025-.11.03-.228v-.04l-.002-.089-.002-.037-.003-.057-.017-.217-.007-.093-.003-.043-.004-.082a4 4 0 0 1 .003-.385q.033-.546.137-1.142l.016-.093.055-.447.05-.418.032-.274.034-.304.03-.275.017-.168.022-.229.012-.136.01-.111.014-.19.017-.265.03-.52.022-.414.012-.206.014-.217.014-.192.013-.147.012-.111.004-.056.014-.118.027-.219.048-.365.033-.24.03-.212.02-.13.014-.09.023-.142.023-.13.018-.096.018-.092.018-.088.021-.096.087-.368.022-.098.023-.1.025-.117.017-.082.018-.086.026-.136.036-.197.053-.288.025-.14.07-.362.037-.184.26-1.292.01-.054a9 9 0 0 0 .106-.862l.011-.154.006-.098.005-.091.004-.088.002-.043.002-.082.002-.08v-.185l-.002-.07-.002-.07-.008-.134-.005-.067-.003-.033-.006-.06-.01-.084-.006-.06-.013-.099-.066-.489a15.3 15.3 0 0 0-.505-2.463 7 7 0 0 0-.174-.514l-.016-.042-.02-.045-.03-.074-.037-.08-.053-.118-.086-.186-.197-.418-.035-.076-.039-.088-.023-.055-.013-.03-.009-.025-.003-.01a1.2 1.2 0 0 1-.034-.575l.01-.072.014-.094.005-.04.002-.028a.6.6 0 0 0-.002-.117l-.002-.022-.005-.03-.007-.032-.013-.048-.009-.033-.016-.054-.033-.102-.123-.378-.022-.067-.03-.094-.017-.057-.014-.055-.014-.05-.013-.049-.01-.045-.008-.042a1 1 0 0 1-.019-.18q0-.295.088-.603l.012-.037.01-.056.011-.067.013-.064.014-.063.012-.06.014-.055.014-.054c.092-.331.215-.497.424-.505zM10.426 2.04c.308-1.402 1.192-2.05 2.583-1.884.93.11 1.514.678 1.808 1.531.097.281.157.579.188.882.019.186.026.338.025.495v.09l-.002.017-.002.016-.003.029-.003.02-.005.022-.008.035-.01.038-.014.043-.021.062-.024.07-.03.08-.044.113-.05.128-.086.21-.397.948-.047.115-.038.096-.022.06-.027.06-.027.066-.056.123-.093.201c-.272.6-.37 1-.313 1.552l.008.07.008.064.008.06.007.057.008.052.009.05.009.047.005.022.01.042.01.039a.6.6 0 0 0 .182.31l.022.02.012.01.023.018.13.096.156.113.138.102.067.05.083.066.05.039.048.036.031.023.03.021.047.031.03.02.084.05.055.032.06.032.065.035.073.038.175.087.103.052c.254.126.414.223.576.364l.078.07.275.237.031.027c.283.259.426.51.523.974l.013.065.006.034.012.064.01.064.01.064.007.063c.021.18.028.357.02.553l-.005.106-.005.072-.003.037-.007.075-.009.078-.01.08-.01.082-.005.043-.013.087-.013.09-.016.093-.024.146-.019.103-.02.105-.03.167q-.168.883-.017 1.393l.012.04.544 2.442.035.185.021.118.02.115.019.11.025.16.017.102.015.098.013.095.012.09.017.13.008.081.011.103.01.102.009.109.011.16.005.085.014.23.01.2.012.272.01.236.002.06v2.381l-.009.177-.006.169-.004.108-.004.157-.003.149-.002.141v.26l.002.08.002.076.003.073.004.069.004.066.003.063.006.06.003.028.006.06.007.052c.02.144.043.224.085.313l.015.032.05.095.02.044a1.4 1.4 0 0 1 .064.171l.022.075q.016.057.037.108l.02.05.048.11c.061.151.082.29.07.522-.011.23-.05.369-.134.537l-.06.113-.005.01a1 1 0 0 0-.065.16q-.024.074-.042.147l-.015.059-.037.16a1.1 1.1 0 0 1-.114.314c-.128.227-.392.397-.777.515-.35.107-.668.091-.869-.016-.141-.077-.218-.245-.279-.534l-.013-.063-.006-.033a.224.224 0 0 1 .439-.081l.006.03.013.059.005.027.012.05q.018.073.037.12.005.014.01.023l.009.019a.5.5 0 0 0 .122.024l.021.001q.157.01.362-.052c.286-.087.457-.198.52-.308a.5.5 0 0 0 .045-.114l.01-.039q.004-.01.006-.022l.046-.194c.019-.078.04-.15.063-.226.026-.08.055-.15.092-.224l.053-.102a.8.8 0 0 0 .1-.383l.001-.054v-.046a.6.6 0 0 0-.035-.218l-.009-.022-.048-.113a2 2 0 0 1-.067-.186l-.007-.022-.007-.024a1 1 0 0 0-.042-.123l-.017-.04-.01-.022-.032-.06c-.095-.183-.14-.327-.171-.633l-.006-.064-.003-.033-.005-.068-.004-.073-.002-.038-.003-.077-.003-.08v-.043l-.002-.086-.001-.09v-.239l.002-.102.003-.106.003-.165.004-.115.005-.118.008-.184.003-.058V19.71l-.009-.233-.009-.218-.01-.204-.01-.189-.01-.174-.009-.12-.011-.148-.01-.1-.009-.094-.009-.08-.01-.084-.01-.088-.013-.092-.014-.096-.015-.1-.017-.103-.018-.108-.028-.169-.02-.117-.023-.12-.022-.123-.538-2.415-.01-.027c-.12-.405-.119-.92-.005-1.547l.041-.218.027-.15.017-.094.023-.136.013-.087.013-.083.012-.08.014-.114.005-.037.008-.072.007-.07.005-.068.003-.033.004-.065.002-.063.001-.062.001-.031v-.06q0-.133-.013-.26l-.006-.057-.016-.113-.009-.058-.01-.057-.012-.06-.006-.03c-.077-.37-.174-.539-.388-.735l-.068-.06-.249-.215-.036-.032a2 2 0 0 0-.467-.302l-.243-.121-.14-.072-.096-.051-.066-.035-.04-.023-.038-.022-.055-.033-.034-.023-.035-.022-.034-.024-.034-.024-.035-.026-.053-.04-.058-.044-.089-.07-.087-.065-.169-.124-.202-.148-.04-.031-.007-.005c-.237-.193-.353-.397-.424-.8l-.011-.063-.005-.033-.01-.069-.005-.035-.008-.074-.01-.078c-.065-.628.043-1.09.327-1.727l.14-.308.03-.065.025-.06.012-.028.022-.054.066-.166.104-.253.235-.559.118-.286.086-.212.067-.172.032-.087.016-.045.014-.038.013-.042.007-.024.003-.014.002-.01v-.005l.001-.042a4 4 0 0 0-.022-.493 3.5 3.5 0 0 0-.165-.782c-.243-.704-.698-1.145-1.44-1.233-1.16-.138-1.834.355-2.094 1.536a.224.224 0 0 1-.266.17.22.22 0 0 1-.17-.265m.209.906c.122.018.207.13.19.252a2.5 2.5 0 0 0-.002.764c.024.151.055.257.097.35l.018.036.063.123.013.026.033.078a2 2 0 0 1 .074.458l.006.077.003.04.005.081.003.084.002.042.002.085v.214c-.004.34-.035.658-.106.795q-.093.184-.446.366l-.052.027-.055.026q-.04.02-.087.04l-.061.026-.064.027-.068.027-.07.028-.035.013-.075.028-.077.027-.08.028-.083.029-.086.028-.089.028-.091.03-.095.029-.098.03-.08.024-.032.016a4.7 4.7 0 0 1-1.08.352l-.068.013a1.7 1.7 0 0 1-.467.033l-.078-.005-.121-.01-.043-.001-.042-.001c-.244-.002-.449.062-.796.284l-.062.04-.063.043-.034.023c-.593.407-.914 1.21-.945 2.43l-.002.112-.086.155-.056.104-.056.104-.08.15-.049.096-.048.095-.047.091-.044.09-.042.087-.02.043-.04.084-.036.081-.036.08-.017.038-.032.076-.03.073-.029.07-.026.069-.025.065-.022.063-.01.032-.02.06-.026.084q-.158.56-.164 1.541v.128l.001.115-.049.108-.054.12-.053.12-.025.058-.05.114-.045.111-.044.109-.042.105a6 6 0 0 0-.299.986l-.012.067-.006.035-.011.072-.005.037-.01.077-.01.08-.01.083-.01.086-.008.09-.008.092-.008.096-.006.1-.007.102-.006.105-.005.109-.008.169-.006.177-.003.12-.005.181.033.881.023.688.012.44.005.238v.179l-.003.07-.006.107-.007.089-.008.097-.011.143-.012.117-.017.17-.01.089-.018.195-.017.188-.015.181-.019.232-.008.111-.011.161-.01.155-.005.098-.005.096-.005.139-.005.13-.002.085v.08l-.002.078.001.074v.071l.002.07.001.032.003.064.005.138.009.284.004.084.002.034.004.044.004.04.004.023.003.021.005.02.004.021.006.02.01.034.013.037.01.026.022.06.021.052.033.08.053.12.052.115.031.068c.117.25.202.377.334.507l.035.034.04.036.04.036.059.05.031.029.015.013.027.025.014.014q.052.05.099.11a2 2 0 0 1 .122.164l.037.057.078.125.005.007c.037.054.058.074.098.088l.012.004a.222.222 0 1 1-.136.425.6.6 0 0 1-.33-.247l-.021-.03-.029-.044-.063-.103a2 2 0 0 0-.188-.24l-.02-.02-.022-.02-.027-.023-.031-.028a3 3 0 0 1-.14-.127l-.043-.04c-.162-.166-.275-.337-.418-.648l-.033-.073-.054-.121-.035-.08-.04-.094-.024-.06-.022-.056-.018-.05-.01-.032-.01-.03-.015-.056-.007-.028-.006-.028-.006-.027-.005-.035-.003-.016-.005-.034-.004-.035-.002-.038-.003-.042-.002-.046-.003-.08-.005-.192-.005-.134-.005-.1-.002-.07-.002-.071v-.274L3 23.059l.003-.134.004-.092.004-.096.005-.098.008-.155.006-.106.008-.108.008-.113.013-.175.015-.18.017-.188.017-.194.013-.134.014-.13.015-.16.014-.146.01-.131.01-.116.006-.1.001-.045.002-.071v-.064l-.002-.141-.008-.333-.015-.47-.048-1.346v-.012l.004-.193.004-.126.004-.121.005-.12.005-.114.006-.113.005-.11.007-.105.008-.103.008-.1.009-.096.004-.047.01-.092.01-.089q0-.022.004-.044l.01-.084.006-.04.011-.08.012-.076.007-.037.013-.072.013-.068.007-.033q.078-.364.256-.842l.041-.108.043-.11.046-.114q.058-.144.126-.296l.054-.123.057-.127.009-.018-.001-.02q-.006-1.094.17-1.75l.01-.04q.022-.075.05-.158l.023-.068.013-.034.025-.07.028-.073.03-.075.016-.039.033-.078.035-.08.037-.084.039-.086.04-.086.044-.091.045-.092.047-.095.05-.098.05-.098.053-.102.055-.104.057-.107.059-.108.035-.064v-.002C5 9.189 5.363 8.26 6.073 7.753l.03-.022c.56-.385.885-.488 1.296-.466l.085.005.062.005.065.004c.144.008.236.002.365-.023q.61-.121 1.039-.33l.062-.03.128-.039.106-.032.101-.031.098-.031.094-.032.045-.015.087-.03.085-.03.08-.03.078-.028.073-.029.068-.028.066-.027.03-.014.058-.024.048-.024.023-.012.044-.021.02-.01.04-.021.034-.02.032-.02.028-.018.024-.017a.2.2 0 0 0 .07-.065.4.4 0 0 0 .031-.115l.006-.037.005-.04.004-.044.004-.048.004-.051.001-.054.002-.055.002-.059v-.19l-.002-.067-.004-.09-.003-.084-.006-.11-.006-.08-.009-.1-.009-.09-.007-.061-.004-.035-.006-.046-.006-.036-.004-.018-.004-.012-.01-.027-.016-.031-.04-.075-.048-.1a1.8 1.8 0 0 1-.131-.463 3 3 0 0 1 0-.896.224.224 0 0 1 .254-.189"/><path fill-rule="evenodd" d="M7.94 22.447v-5.725H6.577v5.724zm2.704 0v-1.835a8 8 0 0 1-.439.742 7 7 0 0 1-.474.607 2.3 2.3 0 0 1-.576.486zm3.969-.058a2.4 2.4 0 0 1-.921.172q-.486 0-.913-.164a2.4 2.4 0 0 1-.744-.451 2.1 2.1 0 0 1-.502-.673 1.9 1.9 0 0 1-.184-.821q0-.42.157-.787a2.1 2.1 0 0 1 1.065-1.097 2.1 2.1 0 0 1 .784-.195 2 2 0 0 0-.423.718 2.8 2.8 0 0 0-.133.895q0 .442.16.81.16.366.443.63.282.264.658.41.376.144.807.144.275 0 .494-.053a2.5 2.5 0 0 1-.748.462m1.359-1.845v-.016q0-.435-.157-.814a2.152 2.152 0 0 0-1.066-1.139 2 2 0 0 0-.783-.202q.29.329.423.745a3 3 0 0 1 .118 1.18q-.015.124-.04.246zm4.933 1.757q-.326.153-.827.153h-.65q.188-.092.344-.248.158-.157.27-.363.114-.207.177-.455t.063-.524q0-.557-.243-.982-.243-.423-.611-.6.29-.168.466-.508t.176-.776-.176-.779a1.1 1.1 0 0 0-.466-.497h.478q.375 0 .662.1.285.099.474.27.188.173.282.406t.094.5-.075.501-.211.405a1 1 0 0 1-.337.275 1 1 0 0 1-.45.104h.093q.291 0 .537.148.247.15.423.383.177.233.274.512t.098.538q0 .253-.078.535-.078.284-.27.516t-.517.386m-2.802.13v-5.693h-1.379v5.693zm8.185-.149a1.9 1.9 0 0 1-.756.157h-.126q.142-.123.255-.321a2.4 2.4 0 0 0 .196-.459q.082-.26.129-.569.047-.31.047-.646t-.047-.65a4 4 0 0 0-.13-.573 2.5 2.5 0 0 0-.195-.462 1.2 1.2 0 0 0-.255-.325h.126q.399 0 .756.157a1.98 1.98 0 0 1 1.042 1.066q.153.367.153.787 0 .413-.153.776a1.982 1.982 0 0 1-1.042 1.062m-1.752.157a1.2 1.2 0 0 1-.254-.321 2.4 2.4 0 0 1-.196-.459 4 4 0 0 1-.13-.569 4.381 4.381 0 0 1 0-1.296q.048-.313.13-.573t.196-.462q.113-.202.254-.325h-.125a1.9 1.9 0 0 0-.756.157 1.98 1.98 0 0 0-1.042 1.066 2 2 0 0 0-.153.787q0 .413.153.776.152.363.419.634.267.272.623.428.357.157.756.157zm-18.934 3.65a.8.8 0 0 1-.275.053h-.024a.6.6 0 0 1-.254-.058.6.6 0 0 1-.239-.156.73.73 0 0 1-.204-.493.6.6 0 0 1 .06-.268.75.75 0 0 0 .074-.348.7.7 0 0 0-.06-.248.6.6 0 0 0-.148-.199q.173 0 .368.031.165.03.36.103.196.073.4.226.556.443.337.978a.8.8 0 0 1-.164.23.7.7 0 0 1-.231.148M3.255 30.05a1.7 1.7 0 0 1-.286-.455 4 4 0 0 1-.224-.657 6 6 0 0 1-.145-.81q-.05-.44-.05-.921t.05-.921.145-.81a4 4 0 0 1 .224-.654q.129-.282.286-.443H3.2q-.462 0-.874.222a2.5 2.5 0 0 0-.729.604 2.9 2.9 0 0 0-.501.898 3.3 3.3 0 0 0-.184 1.104q0 .588.192 1.104t.51.902q.316.386.736.611t.881.226zm2.601-1.934v1.964H4.305q.305-.213.595-.504.25-.245.513-.611.263-.367.443-.849m1.775-.489a.6.6 0 0 0 .247-.053.6.6 0 0 0 .211-.145.7.7 0 0 0 .134-.207.595.595 0 0 0-.016-.482.63.63 0 0 1-.078-.309.7.7 0 0 1 .047-.225.5.5 0 0 1 .133-.184q-.157 0-.33.03-.148.032-.325.104a1.4 1.4 0 0 0-.348.21q-.494.405-.282.887a.6.6 0 0 0 .36.332q.117.042.247.042m3.334.306v2.155H9.531v-4.02l.07.015q.274.07.522.241a1.96 1.96 0 0 1 .732.967q.11.306.11.642m-2.32 2.14a1.05 1.05 0 0 1-.524-.382 1.03 1.03 0 0 1-.204-.627q0-.351.204-.627.203-.274.525-.382h-.69q-.4 0-.67.1t-.427.248a.9.9 0 0 0-.223.325.95.95 0 0 0-.008.68q.06.175.215.325.157.148.428.244.27.096.685.096zm4.733-5.893v5.908h-1.37v-4.043a1.8 1.8 0 0 0-.052-.474 1.2 1.2 0 0 0-.113-.29.55.55 0 0 0-.165-.176 10.29 10.29 0 0 0 1.214-.619q.267-.153.486-.306m1.05 5.87a2.2 2.2 0 0 0 1.473-.554q.283-.256.447-.596t.165-.73-.165-.734a1.9 1.9 0 0 0-.446-.596 2.202 2.202 0 0 0-1.473-.55h-.126q.15.114.27.302.121.186.208.431.086.245.137.535t.051.612a3.5 3.5 0 0 1-.188 1.146 2 2 0 0 1-.208.432 1.2 1.2 0 0 1-.27.302zm3.883-4.704a.754.754 0 0 1-.815-.157.8.8 0 0 1-.157-.23.7.7 0 0 1-.058-.282q0-.146.058-.279a.71.71 0 0 1 .392-.39.75.75 0 0 1 .58 0q.137.058.239.157a.74.74 0 0 1 .22.512q0 .153-.06.283a.75.75 0 0 1-.399.386m.349 4.742v-4.188a7 7 0 0 1-.486.306 10 10 0 0 1-1.215.619.55.55 0 0 1 .165.175q.063.108.114.29.05.184.05.475v2.323zm5.375-2.163v2.155h-1.434v-4.02a.1.1 0 0 0 .035.008 1.579 1.579 0 0 1 .556.248q.247.172.436.417.188.244.297.55.11.306.11.642m-2.672 2.155V26.07q-.196.114-.423.206a5 5 0 0 1-.466.165 3.4 3.4 0 0 1-.56.118v3.523zm6.625-.05a2.4 2.4 0 0 1-.92.173q-.487 0-.914-.165a2.4 2.4 0 0 1-.744-.45 2.1 2.1 0 0 1-.501-.673 1.9 1.9 0 0 1-.184-.822q0-.42.156-.787a2.1 2.1 0 0 1 1.066-1.096q.368-.172.783-.195a2 2 0 0 0-.423.718 2.8 2.8 0 0 0-.133.894q0 .444.16.81.162.368.443.63.282.265.659.41.376.145.807.145.274 0 .493-.054a2.5 2.5 0 0 1-.748.463m1.36-1.845v-.015q0-.435-.157-.814a2.152 2.152 0 0 0-1.066-1.139 2 2 0 0 0-.783-.202q.29.328.423.745a3 3 0 0 1 .117 1.18q-.015.123-.039.245zm3.244 1.888a6 6 0 0 1-.592.015 2.8 2.8 0 0 1-.6-.076 1.4 1.4 0 0 1-.513-.253 1.9 1.9 0 0 1-.415-.447 2.3 2.3 0 0 1-.38-1.242v-1.215q0-.39-.075-.611a1.2 1.2 0 0 0-.16-.336.5.5 0 0 0-.227-.184q.298-.153.61-.351.267-.176.588-.425l.05-.038q.295-.235.585-.53v1.612h1.528v1.658h-.031l-.177-.256a4 4 0 0 0-.32-.409 5 5 0 0 0-.487-.481l-.038-.034a4 4 0 0 0-.434-.32l-.04-.026v2.053a1.5 1.5 0 0 0 .273.883q.126.18.283.317.156.138.32.237.386.245.878.375a9 9 0 0 1-.626.084" clip-rule="evenodd"/></g><defs><clipPath id="a"><path fill="#fff" d="M0 0h34v49H0z"/></clipPath></defs></svg>