<svg xmlns="http://www.w3.org/2000/svg" width="75" height="49" fill="none" viewBox="0 0 75 49"><path fill="#f1f1f1" d="M9.569 9.543q.003-.001.003-.002a.2.2 0 0 0 .039-.038q-.003 0-.005-.002zM11.433 8.914l-.03.025c.017-.004.03-.008.03-.025"/><path fill="#f1f1f1" fill-rule="evenodd" d="M10.83 9.557q.081-.082.162-.172h-.001c.101-.115.2-.226.317-.326a1 1 0 0 1 .103-.084.1.1 0 0 0 .01-.02q.003-.011.01-.018a.2.2 0 0 0-.06.037q-.029.024-.065.039c-.01 0-.02-.01-.01-.02l.102-.078h-.006c-.01 0-.01-.01-.01-.02-.122-.019-.216.065-.3.14l-.005.004c-.013.007-.025 0-.035-.005q-.008-.005-.012-.005a.8.8 0 0 0-.202.117c-.06.043-.12.085-.187.112v-.02q-.036.014-.07.03a.5.5 0 0 1-.102.038.7.7 0 0 1-.181.011h-.057c-.104.01-.208.032-.311.054l-.034.008-.005.001-.005.002a.7.7 0 0 0-.176.073l-.007.003-.013.016a.2.2 0 0 1-.065.058c-.042.02-.077.053-.112.084l-.046.04q-.006.005-.014.005-.076.075-.154.146c-.003.004-.018.005-.03.004q.001 0 .002-.002l.005-.01.025-.04.027-.044.041-.058q.006-.008 0-.013a.02.02 0 0 0-.013-.005 1 1 0 0 1 .16-.12v-.002c-.006.002-.016-.003-.01-.01l.012-.02.003-.006.002-.004q0-.002.002-.004l-.004-.004q0-.003-.003-.005l-.01.007-.034.025-.02.023c-.016.02-.032.04-.055.04-.002 0-.01 0-.015-.002q-.007 0-.01-.003v-.002h.002l.002-.003.001-.002.003-.004.002-.004q0-.003.003-.004l.002-.005.002-.003.001-.003.002-.004.005-.01.002-.003.003-.005.006-.01.007-.011.006-.01.005-.009.005-.01c.005-.007 0-.014-.006-.016a.2.2 0 0 1 .065-.057h-.003l.069-.038.04-.023.017-.013a.6.6 0 0 0-.15.075s-.014.005-.017.009c0 0-.01.003-.023-.009q-.002-.001-.002-.006.01-.017.03-.027l.028-.021c.01 0 .018 0 .018.01.188-.148.42-.182.653-.217.144-.021.288-.042.422-.09L10.606 9l.043-.029q.035-.017.068-.045a.4.4 0 0 1 .074-.05.43.43 0 0 0 .162-.221c0-.01-.01-.02-.01-.02q-.188.201-.419.317c-.145.076-.3.088-.454.099a3 3 0 0 0-.172.016c.01-.02.03-.02.047-.02 0-.023.011-.033.026-.046l.012-.011h.027q.007-.001.01-.01.004-.009.01-.01c.02 0 .048-.01.038-.01-.015-.02-.037-.012-.061-.003-.023.008-.048.017-.072.003q.012-.015.014-.031.002-.019.014-.027h.038c0-.02.02-.038.02-.038q.127-.075.248-.14l.16-.089q-.015 0-.03.009c-.014.007-.028.013-.045 0 .01 0 .01-.006.01-.013s0-.014.01-.014a1 1 0 0 0 .172-.07q.058-.031.122-.056-.019.001-.036.007c-.022.007-.044.013-.068-.007l.017-.011c.01-.008.02-.017.04-.017v-.028c0-.01.01-.01.02-.01-.01 0-.02-.01-.02-.01q.008-.013.027-.014.015-.003.03-.013c-.01 0-.028 0-.028-.01.028-.038.076-.048.123-.058-.005-.01-.014-.01-.022-.01-.009 0-.016 0-.016-.01s.01-.01.02-.01h-.02c-.015-.007-.012-.021-.01-.03v-.008c.039-.045.052-.099.064-.152q.009-.04.022-.077c-.01 0-.02 0-.02-.01-.092.103-.238.141-.376.178l-.013.004h-.048a.19.19 0 0 1-.162-.01.3.3 0 0 1-.056-.043l-.039-.033a1.2 1.2 0 0 0-.237-.116 2.1 2.1 0 0 0-.731-.105c.069-.038.142-.053.216-.069a2 2 0 0 0 .188-.049c.136-.041.267-.082.412-.073a.2.2 0 0 0-.065-.002l-.03.002a1.2 1.2 0 0 0-.335.041l-.074.016q-.067.016-.13.037-.072.024-.146.04a.2.2 0 0 0-.057.032c-.028.02-.054.04-.096.035v-.03c.095-.115.21-.23.362-.239.147-.024.286-.007.43.01l.074.01c.119.01.23.036.35.064l.012.003c.026 0 .04.023.055.046.011.018.023.036.04.04q.034.01.07.011c.033.002.067.005.101.027l-.002-.02q-.005-.018.002-.038c.021-.02.046-.015.07-.01.018.005.037.01.053 0 .052-.032.003-.081-.045-.13a.4.4 0 0 1-.06-.07c0-.01.01-.02.01-.02q.033.029.061.059c.05.05.099.098.167.132.047.02.162.048.142-.01a.9.9 0 0 0-.15-.205l-.07-.082v-.038c-.014 0-.018-.006-.022-.013l-.005-.007V7.35c-.024-.012-.03-.032-.035-.052q-.004-.018-.013-.033a.2.2 0 0 1-.018-.094q0-.04-.011-.08a1 1 0 0 1-.038-.163q-.015-.088-.034-.17a3 3 0 0 1-.05-.29c-.016-.14.055-.258.127-.38q.033-.053.062-.108a.8.8 0 0 1 .267-.307c.027-.112.1-.206.174-.3l.006-.007c.072-.09.193-.146.283-.186l.01-.005c.132-.06.252-.097.253-.097H5.068v5.078H9.73c.124-.091.248-.148.396-.216a7 7 0 0 0 .278-.134c.133-.065.345-.17.425-.25m-1.48-.685c-.018.002-.038.004-.03-.011.007-.034.04-.044.074-.053q.022-.007.04-.015l.006-.002.004-.003c.018-.01.04-.021.057-.014.012.016.026.02.04.024q.015.004.027.013c-.035.036-.076.04-.118.043-.028.002-.056.005-.083.017zM7.904 8.64c0 .01.01.02.01.02.229-.26.437-.48.731-.663.008-.004.005 0 .001.006-.006.008-.013.02.009.013.098-.022.141-.105.184-.187l.034-.062c.044-.072.108-.119.172-.166a1 1 0 0 0 .132-.112c0 .01 0 .02-.01.03.01.01.02.01.03.01q.026-.02.054-.024c.023-.007.045-.013.06-.034a.36.36 0 0 0-.247-.01c-.2.095-.37.249-.532.422-.098.104-.2.201-.324.269-.085.171-.18.325-.304.488m.799-.613q-.008.014-.015.02l-.013.017a.08.08 0 0 1-.038.038c-.01 0-.02 0-.02-.01.01-.038.038-.075.076-.085.01.001.01.011.01.02M9.12 9.49q.014-.012.023-.028c.008-.02-.042-.015-.05-.01l-.018.02-.002.002-.023.022-.016.016-.07.067c-.017.015.035.022.047.012l.036-.033.011-.002h.003a.2.2 0 0 0 .067-.046l.005-.005c.007-.007-.001-.013-.013-.015m-.148-.107v.001l-.03.021a1 1 0 0 1-.158.092l-.046.023q0-.001-.002-.002-.006-.008-.016-.003a.4.4 0 0 0-.108.087l-.015.015v.002q-.01.009-.021.023l-.005.005q-.003.005-.008.008c-.007.003-.023.003-.022-.007v-.001l-.016.008-.007.004-.008.004-.006-.001-.007.001-.011.01q-.012.009-.023.02a1 1 0 0 0-.056.06h-.001l-.001.003-.001.001-.003.003-.002.002q0 .002-.002.002l-.001.001-.007.01-.008.004-.003-.005-.002-.003-.002-.002-.004-.008-.004-.007V9.75l-.001-.003.03-.034v-.002l.006-.006.005-.006.008-.01.008-.01.002-.003.003-.005.03-.04V9.63q.002-.003.003-.007l.013-.02.01-.02v-.001l.001-.002v-.002l.002-.001.005-.012.005-.011v-.002l.001-.007.002-.005.001-.004v-.002l.002-.008q0-.004.002-.007 0-.004-.002-.007a.3.3 0 0 1 .035-.05h-.002l-.02.018-.016.014c-.01.009-.03-.005-.017-.015q.013-.01.022-.02l.001-.001.02-.02q.014-.015.03-.028l.034-.026.021-.025q.001 0 .002-.002c.056-.054.135-.073.215-.093a1 1 0 0 0 .15-.047c.026-.01.056-.006.085-.002.023.003.046.007.067.002.028 0 .057 0 .085.02q-.097.053-.188.113l-.053.034m.205-.672q-.013 0-.009.005c.028.028.085.019.125-.003.028-.02.057-.02.095-.02.01 0 .01-.018.01-.028.027.01.047.01.075.01.227-.048.446-.095.656-.201-.212-.164-.473-.237-.73-.309l-.098-.03c.019.007.037.013.057-.006a.16.16 0 0 0-.083-.028c-.024-.004-.047-.007-.069-.02l.008.002c.01.001.022.004.03-.011a.5.5 0 0 0-.15-.043l-.078-.015a.094.094 0 0 0 .077-.096c0-.01-.02-.01-.03-.01a.52.52 0 0 0-.237.287c.043.026.09.023.134.02q.04-.005.076 0c-.022.02-.053.026-.082.031l-.033.007c-.03.007-.057.028-.047.048a.03.03 0 0 0 .021.013.14.14 0 0 0-.059.035c.027.02.055.017.082.013l.033-.003c0 .012.008.016.016.02l.012.008a.17.17 0 0 0-.095.085c-.012.029-.034.047-.055.066q-.023.018-.04.04v.03q-.048.041-.096.077c-.066.051-.13.1-.18.172.01 0 .01.01.01.02a.1.1 0 0 1-.035.032c-.014.01-.028.02-.033.035 0 .01 0 .02.01.02a.7.7 0 0 0 .163-.086c.046-.03.091-.06.141-.077.04-.01.076-.029.11-.047q.044-.024.09-.04.037-.007.076-.018l.076-.02c0 .01 0 .02.01.02h.075c-.005.012-.02.014-.03.015" clip-rule="evenodd"/><path fill="#f1f1f1" d="M19.003 5.078h-5.45s.01.001.05.023l.138.072c.07.037.138.083.183.154.02.028.047.086.03.124-.02.048-.03.125-.078.143a.34.34 0 0 1-.201.02c-.038 0-.076-.01-.116-.02.144.058.279.126.374.26.01.02.048.028.086.028.01 0 .01.02.01.028-.02.02-.038.03-.028.058h.028c.048-.02.038-.116.105-.086.048.028.068.095.038.143a1 1 0 0 1-.115.096.08.08 0 0 0 0 .068.3.3 0 0 1 .048.115c.03.068.038.144.067.212.038.143.076.287.068.432 0 .076-.038.144-.01.221.02.076.068.134.105.202.038.057.076.095.106.153.058.096.163.192.115.307-.028.068-.133.058-.2.096-.058.048-.01.125.019.173.048.086-.058.144-.125.174.02.03.057.02.067.038.01.047.058.076.028.125-.038.058-.153.086-.095.173.038.068.013.142-.01.212-.028.086-.106.123-.173.143a.4.4 0 0 1-.181.01c-.02-.01-.038-.02-.058-.02-.163-.02-.326-.066-.488-.066-.047.01-.095.019-.133.038a1 1 0 0 0-.116.103l-.001.001q-.011.012-.022.023l-.011.015-.008.01a1 1 0 0 0-.076.11l-.005.007-.008.014a1 1 0 0 0-.073.176c-.066.22-.036.408.01.454.013.013.316.107.527.202.1.044.168.077.226.114h5.352V5.078z"/><path fill="#f1f1f1" d="M13.877 6.93c.038.01.095.01.095.03-.02.075-.133.095-.191.172h-.03c-.028.02-.02.068-.047.068-.028-.01-.058 0-.086.01.038.038.086.068.143.058.01 0 .028.02.028.038 0 0 .01 0 .02-.01.01 0 .02 0 .02.01v.037c-.028.038-.078.02-.116.029q.119.03.221 0c.058-.02 0-.116.038-.164-.02 0 0-.03-.02-.03.02-.02.038-.047.058-.057.02 0 .048-.01.058-.03 0-.02-.038-.028-.03-.048.058-.037.106-.095.086-.153-.01-.03-.086-.03-.134-.048-.047-.018-.105 0-.163.01-.048 0-.095.03-.143.038a.7.7 0 0 0-.181.096c.067-.028.133-.038.21-.058.058.002.106-.011.164.002M5.59 16.503v-3.555h.896l.867 1.493.867-1.493h.897v3.555h-.72v-2.55l-.79 1.33H7.1l-.79-1.33v2.55zm4.593 0v-3.555h.72v3.555zm1.787 0v-3.555h.922l1.586 2.57v-2.57h.72v3.555h-.923l-1.586-2.57v2.57zm4.296 0v-3.555h.72v3.555zm1.468-.493.522-.482c.212.274.496.436.785.436.284 0 .456-.152.456-.406 0-.655-1.611-.477-1.611-1.68 0-.564.466-1.031 1.145-1.031.532 0 .938.238 1.242.599l-.527.477c-.208-.269-.441-.447-.71-.447-.253 0-.42.163-.42.376 0 .645 1.611.462 1.611 1.68-.01.671-.527 1.072-1.18 1.072-.599 0-1-.218-1.313-.594m2.934-2.407v-.655h2.909v.655h-1.095v2.9h-.72v-2.9zm4.331-.96-.653-.685h.74l.572.685zm-.714 3.86v-3.555h2.067v.6h-1.348v.842h1.146v.6h-1.146v.913h1.348v.6zm2.98 0v-3.555h1.084c.78 0 1.262.401 1.262 1.061 0 .432-.208.752-.573.92l1.11 1.574h-.846l-.948-1.437h-.37v1.437zm1.125-2.956h-.406v.92h.406c.304 0 .481-.178.481-.468 0-.269-.177-.452-.481-.452m2.29 2.956v-3.555h2.067v.6H31.4v.842h1.146v.6h-1.146v.913h1.348v.6zM5.59 21.834V18.28h1.393c1.125 0 1.885.817 1.885 1.777s-.76 1.777-1.885 1.777zm1.403-2.9H6.31v2.245h.684c.659 0 1.135-.492 1.135-1.122 0-.635-.476-1.122-1.135-1.122m2.645 2.9V18.28h2.068v.599h-1.348v.843h1.145v.599h-1.145v.914h1.348v.6zm4.371 0V18.28h.72v2.9h1.348v.654zm2.588-2.092h-.598l.456-1.462h.73zm.372 2.092 1.343-3.554h.943l1.343 3.554h-.766l-.34-.924h-1.418l-.34.924zm1.328-1.538h.973l-.487-1.336zm4.477.964c.334 0 .623-.116.826-.31v-.619h-.902v-.614h1.622v1.493c-.33.441-.882.726-1.546.726-1.15 0-1.936-.863-1.936-1.879s.765-1.879 1.885-1.879c.644 0 1.17.29 1.495.721l-.567.442a1.11 1.11 0 0 0-.928-.487c-.669 0-1.145.523-1.145 1.203s.502 1.203 1.196 1.203m2.422.574V18.28h1.084c.78 0 1.262.4 1.262 1.061 0 .432-.208.752-.572.92l1.11 1.573h-.847l-.948-1.437h-.37v1.437zm1.125-2.955h-.405v.919h.405c.304 0 .481-.178.481-.467 0-.27-.177-.452-.481-.452m2.29 2.955V18.28h.72v3.554zm3.368-.574c.406 0 .725-.198.928-.487l.567.437c-.324.441-.851.726-1.495.726-1.12 0-1.885-.863-1.885-1.879s.765-1.879 1.885-1.879c.644 0 1.171.29 1.495.721l-.567.442a1.11 1.11 0 0 0-.928-.487c-.668 0-1.145.523-1.145 1.203s.477 1.203 1.145 1.203m4.248-.756V18.28h.72v2.163c0 .934-.548 1.493-1.44 1.493-.886 0-1.434-.559-1.434-1.493V18.28h.72v2.224c0 .477.269.756.72.756.44 0 .714-.279.714-.756m1.69 1.33V18.28h.72v2.9h1.347v.654zm1.996-2.9v-.654h2.909v.655h-1.095v2.9h-.72v-2.9zm5.709 1.57V18.28h.72v2.163c0 .934-.548 1.493-1.44 1.493-.887 0-1.434-.559-1.434-1.493V18.28h.72v2.224c0 .477.268.756.72.756.44 0 .714-.279.714-.756m1.69 1.33V18.28h1.084c.78 0 1.262.4 1.262 1.061 0 .432-.208.752-.573.92l1.11 1.573h-.846l-.948-1.437h-.37v1.437zm1.124-2.955h-.405v.919h.405c.304 0 .482-.178.482-.467 0-.27-.178-.452-.482-.452m2.29 2.955V18.28h2.068v.599h-1.348v.843h1.146v.599h-1.146v.914h1.348v.6zM5.59 27.166V23.61h2.067v.6H6.31v.842h1.145v.6H6.31v.914h1.348v.599zm2.689-2.9v-.655h2.908v.655h-1.094v2.9h-.72v-2.9zm5.008 2.9V23.61h1.393c1.125 0 1.885.818 1.885 1.778s-.76 1.777-1.885 1.777zm1.403-2.9h-.684v2.245h.684c.66 0 1.136-.493 1.136-1.122 0-.635-.477-1.123-1.136-1.123m2.645 2.9V23.61h2.068v.6h-1.348v.842H19.2v.6h-1.145v.914h1.348v.599zm4.371 0V23.61h.72v2.9h1.348v.655zm2.485 0 1.343-3.555h.942l1.343 3.555h-.765l-.34-.924h-1.418l-.34.924zm1.328-1.539h.973l-.487-1.335zm3.996 1.046.522-.482c.213.274.496.437.785.437.284 0 .456-.153.456-.407 0-.655-1.611-.477-1.611-1.68 0-.564.466-1.031 1.145-1.031.532 0 .938.238 1.242.599l-.527.477c-.208-.269-.441-.446-.71-.446-.253 0-.42.162-.42.375 0 .645 1.611.462 1.611 1.68-.01.671-.527 1.072-1.18 1.072-.599 0-.999-.218-1.313-.594m4.86-3.163c1.115 0 1.88.863 1.88 1.879 0 1.015-.765 1.878-1.88 1.878-1.12 0-1.885-.863-1.885-1.878 0-1.016.765-1.88 1.885-1.88m0 3.082c.664 0 1.14-.523 1.14-1.203s-.476-1.204-1.14-1.204c-.669 0-1.145.523-1.145 1.204s.476 1.203 1.145 1.203m4.738-.757v-2.224h.72v2.163c0 .935-.548 1.493-1.44 1.493-.887 0-1.434-.558-1.434-1.492V23.61h.72v2.224c0 .478.268.757.72.757.44 0 .714-.28.714-.757m1.243-2.224h.765l1.05 2.778 1.048-2.778h.766l-1.343 3.555h-.943zm4.252 3.555V23.61h2.068v.6h-1.348v.842h1.145v.6h-1.145v.914h1.348v.599zm2.98 0V23.61h1.085c.78 0 1.261.401 1.261 1.062 0 .431-.207.751-.572.919l1.11 1.574h-.847l-.947-1.437h-.37v1.437zm1.125-2.956h-.405v.92h.405c.304 0 .482-.178.482-.467 0-.27-.178-.453-.482-.453m1.998 2.956 1.343-3.555h.943l1.343 3.555h-.766l-.34-.924h-1.418l-.34.924zm1.328-1.539h.973l-.487-1.335zm2.924 1.539V23.61h.72v3.555zm1.787 0V23.61h.923l1.586 2.57v-2.57h.72v3.555h-.923l-1.586-2.57v2.57zm4.297 0V23.61h2.067v.6h-1.348v.842h1.145v.6h-1.145v.914h1.348v.599zm2.689-2.9v-.655h2.908v.655H65.55v2.9h-.72v-2.9zm4.97-.96h-.654l.572-.685h.74zm-1.353 3.86V23.61h2.067v.6h-1.348v.842h1.145v.6h-1.145v.914h1.348v.599zm-62.21 5.331 1.343-3.554h.943l1.343 3.554h-.765l-.34-.924H6.248l-.34.924zm1.328-1.538h.973l-.486-1.336zm2.925 1.538v-3.554h.72v2.9h1.347v.654zm2.777 0v-3.554h.72v3.554zm1.787 0v-3.554h.897l.866 1.493.867-1.493h.897v3.554h-.72v-2.549l-.79 1.33h-.507l-.79-1.33v2.55zm4.593 0v-3.554h2.067v.6h-1.348v.842h1.146v.6h-1.146v.913h1.348v.6zm2.98 0v-3.554h.922l1.586 2.57v-2.57h.72v3.554h-.923l-1.586-2.569v2.57zm3.93-2.899v-.655h2.91v.655h-1.095v2.9h-.72v-2.9zm2.83 2.9 1.343-3.555h.943l1.343 3.554h-.766l-.34-.924h-1.418l-.34.924zm1.328-1.54h.973l-.487-1.335zm2.924 1.54v-3.555h.72v3.554zm1.788 0v-3.555h1.084c.78 0 1.262.401 1.262 1.061 0 .432-.208.752-.573.92l1.11 1.573h-.846l-.948-1.437h-.37v1.437zm1.125-2.956h-.406v.92h.406c.304 0 .48-.178.48-.468 0-.269-.176-.452-.48-.452m2.29 2.955v-3.554h2.067v.6h-1.348v.842h1.146v.6h-1.146v.913h1.348v.6z"/><path fill="#f1f1f1" fill-rule="evenodd" d="m18.233 41.561-.471.432h-.122l.279-.493h.314zm-.34 1.67h-.1c-.127.153-.27.275-.406.275-.142 0-.213-.087-.213-.275 0-.076.01-.157.025-.228l.826-.274c.163-.386-.03-.554-.258-.554-.39 0-.836.686-.836 1.234 0 .26.121.401.314.401.223-.005.456-.223.649-.579m-.283-.832c.112 0 .208.086.157.284l-.512.138c.082-.244.233-.422.355-.422m-1.611.01h.274l-.436 1.198c-.04.102.015.203.121.203.31 0 .68-.264.821-.64h-.076c-.111.158-.354.33-.537.361l.4-1.122h.41l.052-.173h-.4l.151-.431h-.157l-.284.431-.34.046zm-.38-.228c.055 0 .131.06.096.172l-.492 1.194c.127-.02.259-.143.335-.254h.08c-.116.3-.38.518-.607.518-.056 0-.137-.061-.097-.173l.456-1.193c-.126.02-.258.142-.334.254h-.076c.117-.305.4-.518.638-.518m.142-.305a.187.187 0 0 0 .187-.188.19.19 0 0 0-.187-.188.187.187 0 0 0-.188.188.19.19 0 0 0 .188.188m-2.215.99c.112-.244.071-.355 0-.355-.06 0-.132.066-.203.188h-.076c.117-.26.269-.518.436-.518.142 0 .193.142.193.3v.223l.066-.078v-.001h.001c.214-.252.378-.444.566-.444.147 0 .223.091.223.228a.65.65 0 0 1-.08.29l-.421.848c.126-.02.258-.143.334-.254h.076c-.117.304-.4.518-.639.518-.106 0-.167-.112-.121-.203l.486-.94c.056-.106.066-.178-.02-.178-.117 0-.39.193-.537.371l-.32.843c-.035.086-.07.107-.151.107-.132 0-.198-.087-.137-.224zm-.33-.325c.056-.193.026-.366-.121-.366-.184 0-.241.122-.419.497l-.012.026v-.223c0-.157-.05-.3-.193-.3-.167 0-.319.26-.435.518h.076c.08-.116.157-.188.217-.188.071 0 .112.112 0 .356l-.324.72c-.06.138.005.224.137.224.081 0 .117-.02.152-.106l.32-.843c.09-.112.172-.208.273-.315zm-1.601.142c.05-.198-.046-.284-.157-.284-.122 0-.274.178-.355.422zm.126.548h-.1c-.128.153-.27.275-.406.275-.142 0-.213-.087-.213-.275 0-.076.01-.157.025-.228l.826-.274c.162-.386-.03-.554-.258-.554-.39 0-.836.686-.836 1.234 0 .26.121.401.314.401.223-.005.456-.223.648-.579m-1.62-.822h-.274v-.127l.34-.046.283-.431h.157l-.152.431h.4l-.05.173h-.41l-.401 1.122c.182-.03.426-.203.537-.36h.076c-.142.375-.512.64-.82.64-.107 0-.163-.102-.123-.204zm-1.723.93c0-.371.41-.869.638-.869.05 0 .101.005.142.02l-.238.64c-.137.167-.35.37-.451.37-.056 0-.091-.05-.091-.162m1.13-1.24.126.01-.44 1.016c-.107.244-.061.355 0 .355.06 0 .136-.07.217-.188h.077c-.117.26-.27.518-.436.518-.142 0-.228-.152-.203-.426l.01-.097-.027.04c-.182.253-.346.483-.515.483-.147 0-.223-.091-.223-.228 0-.589.644-1.34 1.247-1.34h.025zm-1.161.442c.056-.193.025-.366-.122-.366-.183 0-.24.122-.418.497l-.012.026v-.223c0-.157-.051-.3-.193-.3-.167 0-.32.26-.436.518h.076c.081-.116.157-.188.213-.188.071 0 .112.112 0 .356l-.324.726c-.061.137.005.223.137.223.08 0 .116-.02.152-.106l.319-.843c.091-.112.172-.208.274-.315h.334zm-2.088 1.117-.03.091H5.067l.03-.096c.365-.066.426-.097.578-.508l.33-.884c.146-.41.116-.441-.204-.507l.03-.092h1.536l-.091.493h-.111c0-.295-.03-.37-.31-.37h-.07c-.274 0-.31.04-.386.253l-.218.594h.32c.213 0 .294-.132.39-.305h.111l-.263.721h-.112c.026-.218.026-.304-.172-.304h-.32l-.146.406c-.159.423-.114.431.265.503zM7.282 37.677l-.471.34v.005h-.122l.279-.406h.314zm3.294 2.381.755-2.01-.025-.031-.522.06v.062l.101.076c.087.067.064.13-.008.327l-.012.033-.578 1.544c-.045.091.016.203.122.203.238 0 .492-.218.608-.518h-.076c-.08.112-.243.234-.365.254m3.461-1.549.471-.431v-.061h-.314l-.279.492zm.03 1.234h.102c-.188.36-.421.58-.644.58-.193 0-.314-.143-.314-.402 0-.548.446-1.234.836-1.234.223 0 .42.168.258.554l-.83.274a1 1 0 0 0-.026.228c0 .188.07.274.213.274.137 0 .278-.121.405-.274m-.025-.548c.05-.193-.046-.28-.157-.28-.117 0-.269.178-.355.417zm-1.49-.27h-.274V38.8l.34-.046.283-.432h.158l-.152.432h.4l-.05.172h-.411l-.4 1.123c.182-.03.425-.203.537-.36h.075c-.141.375-.511.639-.82.639-.107 0-.163-.102-.122-.203zm-.558-.06c.03-.112-.04-.173-.101-.173-.238 0-.522.218-.639.518h.077c.075-.112.207-.234.334-.254l-.456 1.193c-.04.112.04.173.096.173.228 0 .492-.218.608-.518h-.076c-.076.112-.207.233-.334.254zm.234-.66a.19.19 0 0 1-.188.188.19.19 0 0 1-.187-.188c0-.102.08-.188.187-.188a.19.19 0 0 1 .188.188m-2.559.782c-.228 0-.638.497-.638.868 0 .112.035.163.096.163.096 0 .31-.204.446-.371l.238-.64a.4.4 0 0 0-.142-.02m.619-.36-.127-.011-.142.142h-.025c-.603 0-1.247.752-1.247 1.34 0 .138.076.23.223.23.169 0 .333-.23.515-.485l.027-.039-.01.097c-.025.274.06.426.203.426.167 0 .32-.259.436-.518h-.076c-.081.117-.157.188-.218.188s-.107-.111 0-.355zM7.733 40.27c-.218.087-.37.188-.37.346 0 .147.137.208.42.208.381 0 .589-.112.589-.26 0-.065-.086-.096-.314-.172a2 2 0 0 1-.325-.122m.253-.624c-.101 0-.137-.087-.137-.178 0-.294.142-.66.37-.66.102 0 .137.086.137.178-.005.3-.147.66-.37.66m.193.477c.28.086.451.152.451.345 0 .25-.456.544-1.008.539-.32 0-.593-.087-.593-.295 0-.198.182-.36.628-.492a.18.18 0 0 1-.086-.163c0-.122.112-.218.304-.31-.187-.025-.309-.167-.309-.375 0-.32.264-.686.68-.686q.129 0 .222.061h.456l-.05.173h-.269a.5.5 0 0 1 .025.152c0 .31-.248.665-.643.685-.102.056-.152.133-.152.194 0 .071.083.095.266.149zm-1.606-.868c.197 0 .202.086.172.304h.111l.264-.72h-.112c-.096.172-.177.304-.39.304h-.436l.213-.594c.076-.213.112-.254.385-.254h.193c.279 0 .31.076.31.37h.11l.092-.492H5.833l-.03.092c.319.066.349.096.202.507l-.33.889c-.151.411-.212.442-.582.508l-.025.096h1.834l.33-.523h-.127c-.213.209-.426.401-.841.401-.458 0-.45-.022-.312-.4l.028-.077.152-.406h.44zM8.087 34.904a.19.19 0 0 0 .188-.188.19.19 0 0 0-.188-.188.187.187 0 0 0-.187.188c0 .107.081.188.187.188m1.5.64c0-.244-.06-.335-.232-.335-.213 0-.41.228-.608.502l.425-1.142-.025-.036-.522.061v.061l.101.076c.089.07.063.138-.012.34l-.008.02-.461 1.21c-.04.1-.086.223-.086.253 0 .142.192.28.37.28.395.005 1.059-.727 1.059-1.29m4.394-.518.472-.432v-.06h-.314l-.28.492zm.03 1.234h.102c-.192.36-.425.579-.648.574-.193 0-.315-.138-.315-.397 0-.548.446-1.233.837-1.233.223 0 .42.167.258.553l-.826.274a1 1 0 0 0-.025.229c0 .188.07.274.213.274.136 0 .278-.122.405-.274m-.025-.549c.05-.193-.046-.279-.157-.279-.122 0-.274.178-.355.416zm-1.495-.269h-.274v-.127l.34-.045.283-.432h.157l-.152.432h.4l-.05.172h-.41l-.4 1.123c.182-.03.425-.203.536-.36h.076c-.142.375-.511.639-.82.639-.107 0-.163-.102-.122-.203zm-.415.133c.056-.194.025-.366-.122-.366-.183 0-.24.121-.418.497l-.012.026v-.224c0-.157-.051-.3-.193-.3-.167 0-.32.26-.436.519h.076c.081-.117.158-.188.213-.188.071 0 .112.112 0 .355l-.324.721c-.06.137.005.224.137.224.08 0 .116-.02.152-.107l.319-.843c.091-.111.172-.208.274-.315zm-1.606.136c.05-.193-.046-.279-.157-.279-.122 0-.269.178-.355.416zm.126.549h-.101c-.127.152-.269.274-.406.274-.141 0-.212-.086-.212-.274 0-.076.01-.158.025-.229l.826-.274c.162-.386-.03-.553-.258-.553-.39 0-.837.685-.837 1.233 0 .26.122.397.315.397.223.005.456-.214.648-.574m-2.128.193c0 .066.117.142.198.142.33 0 .638-.594.633-.924 0-.112-.055-.157-.131-.157-.122 0-.345.182-.487.355l-.132.355a2 2 0 0 0-.08.229m-.532-1.244c.061 0 .132.06.102.172l-.487 1.194c.127-.02.258-.142.335-.254h.076c-.117.3-.38.518-.609.518-.06 0-.141-.061-.1-.173l.455-1.193c-.127.02-.258.142-.334.254h-.076c.116-.3.4-.518.638-.518m-2.103-.528h1.09l-.031.097c-.37.065-.43.096-.583.507l-.324.894c-.157.426-.117.477.162.477.344 0 .57-.25.767-.47l.044-.048h.126l-.36.64H5.069l.03-.091c.365-.066.426-.097.578-.508l.329-.9c.147-.41.117-.44-.203-.507z" clip-rule="evenodd"/></svg>