<svg width="75" height="49" viewBox="0 0 75 49" fill="none" xmlns="http://www.w3.org/2000/svg">
<path d="M9.56882 9.54332C9.57051 9.54332 9.57219 9.54084 9.57219 9.54084C9.58564 9.53086 9.5991 9.51842 9.61088 9.50349C9.60921 9.50349 9.60751 9.50349 9.60584 9.50098C9.59405 9.51344 9.5806 9.52837 9.56882 9.54332Z" fill="#F1F1F1"/>
<path d="M11.433 8.91394L11.4035 8.93933C11.4204 8.93512 11.433 8.93087 11.433 8.91394Z" fill="#F1F1F1"/>
<path fill-rule="evenodd" clip-rule="evenodd" d="M10.8303 9.55684C10.8843 9.50241 10.9383 9.4447 10.9923 9.38532H10.9906C11.0921 9.2699 11.1903 9.15938 11.308 9.05879C11.3441 9.02581 11.3784 8.99778 11.4111 8.97468C11.4159 8.96986 11.4184 8.96262 11.4208 8.95556C11.4233 8.94817 11.4258 8.94096 11.4308 8.93675C11.4074 8.94569 11.3888 8.95978 11.3702 8.97397C11.3508 8.98864 11.3314 9.0034 11.3064 9.01261C11.2966 9.01261 11.2868 9.00274 11.2966 8.99283C11.331 8.96811 11.3653 8.9417 11.398 8.91532H11.3915C11.3817 8.91532 11.3817 8.90542 11.3817 8.89554C11.2599 8.87615 11.1663 8.95962 11.0826 9.03434L11.0773 9.03902C11.0643 9.04557 11.052 9.03907 11.0423 9.03394C11.0374 9.03135 11.0332 9.02911 11.0299 9.02911C10.9558 9.05399 10.8919 9.0999 10.8276 9.1461C10.7683 9.18866 10.7087 9.23146 10.6405 9.25835V9.23854C10.6173 9.24657 10.5944 9.257 10.5714 9.26746C10.5377 9.28287 10.5037 9.29831 10.4687 9.30618C10.4047 9.32106 10.3452 9.31915 10.2877 9.31727C10.2688 9.31667 10.25 9.31606 10.2314 9.31606C10.1266 9.32646 10.0232 9.34896 9.91984 9.37143L9.88619 9.37874C9.88454 9.37955 9.88292 9.37996 9.88127 9.38039C9.87965 9.3808 9.87801 9.3812 9.87638 9.38204C9.8142 9.39852 9.75694 9.42162 9.69965 9.4546L9.69311 9.4579C9.69086 9.46092 9.68863 9.46359 9.68653 9.46608C9.68404 9.46902 9.68179 9.47171 9.68002 9.47438C9.6604 9.49748 9.64239 9.51726 9.61457 9.53211C9.57349 9.5528 9.538 9.58474 9.50306 9.61615C9.48793 9.62976 9.47283 9.64334 9.4575 9.65578C9.45423 9.65908 9.44769 9.66073 9.44278 9.66073C9.39205 9.71021 9.34132 9.7597 9.28898 9.8075C9.28571 9.8108 9.27099 9.81245 9.25953 9.8108C9.25953 9.8108 9.26116 9.8108 9.26116 9.80915L9.26607 9.79925L9.29062 9.7597C9.29551 9.75226 9.30002 9.74484 9.30451 9.73743C9.30902 9.72999 9.31353 9.72258 9.31842 9.71516C9.33149 9.69539 9.34462 9.67556 9.35934 9.65743C9.36261 9.65248 9.36261 9.64755 9.35934 9.64425C9.35607 9.64095 9.35116 9.6393 9.34624 9.6393C9.3937 9.59312 9.44931 9.55354 9.50658 9.51891V9.51726C9.50004 9.51891 9.49023 9.51396 9.49512 9.50736C9.49994 9.50132 9.50387 9.49439 9.50754 9.48786L9.51149 9.48098C9.5123 9.47933 9.51273 9.47809 9.51314 9.47687C9.51355 9.47562 9.51395 9.47438 9.51476 9.47273C9.51395 9.47108 9.51273 9.46983 9.51149 9.46862C9.51028 9.46737 9.50904 9.46613 9.50822 9.46448L9.49829 9.47105C9.48643 9.47882 9.47425 9.48682 9.46406 9.49583C9.45681 9.50205 9.45007 9.51061 9.44318 9.51937C9.42816 9.53838 9.4123 9.55849 9.38878 9.55849C9.38714 9.55849 9.37898 9.55849 9.37406 9.55684C9.36914 9.55684 9.36588 9.55519 9.36423 9.55354C9.36423 9.55273 9.36443 9.55209 9.36443 9.55209C9.36443 9.55209 9.36507 9.55189 9.36588 9.55189C9.36588 9.55189 9.36752 9.55024 9.36752 9.54859C9.36752 9.54859 9.36752 9.54694 9.36914 9.54694C9.36996 9.54529 9.37079 9.54407 9.3716 9.54283C9.37241 9.54158 9.37325 9.54034 9.37406 9.53869C9.37487 9.53704 9.37568 9.53582 9.37652 9.53458C9.37733 9.53333 9.37814 9.53211 9.37898 9.53046C9.37979 9.52962 9.38019 9.52838 9.3806 9.52716C9.381 9.52592 9.38141 9.52467 9.38224 9.52386L9.38409 9.52046C9.38572 9.51756 9.38764 9.51411 9.38878 9.51066C9.38959 9.50901 9.39043 9.50779 9.39124 9.50655C9.39205 9.5053 9.39289 9.50406 9.3937 9.50241C9.39615 9.49911 9.39818 9.4954 9.40024 9.49169C9.40229 9.48799 9.40434 9.48428 9.40677 9.48098C9.40842 9.47768 9.41007 9.47438 9.41333 9.47108C9.41496 9.46778 9.4166 9.46491 9.41822 9.46202C9.41987 9.45912 9.42152 9.45625 9.42314 9.45295C9.42806 9.4447 9.42314 9.4381 9.4166 9.43645C9.43459 9.41337 9.45588 9.39357 9.48205 9.37874H9.47878C9.50136 9.36734 9.52459 9.35401 9.54768 9.34078C9.56128 9.33296 9.57507 9.32504 9.58839 9.31771C9.59331 9.31276 9.59822 9.30783 9.60476 9.30453C9.55077 9.32266 9.50169 9.34741 9.45423 9.38039C9.45423 9.38039 9.44113 9.38532 9.43786 9.38862C9.43786 9.38862 9.42806 9.39192 9.41496 9.38039C9.41333 9.37874 9.41333 9.37709 9.41333 9.37379C9.41901 9.36231 9.43074 9.35472 9.44341 9.34652C9.45263 9.34056 9.46234 9.33428 9.4706 9.32596C9.4804 9.32596 9.48859 9.32596 9.48859 9.33586C9.67702 9.18779 9.9094 9.15354 10.1425 9.11917C10.2859 9.09802 10.4296 9.07684 10.5636 9.02911C10.5775 9.01921 10.5918 9.00974 10.6061 9.00025C10.6204 8.99078 10.6347 8.98128 10.6487 8.97138C10.6725 8.96143 10.6939 8.94439 10.7166 8.92634C10.7389 8.90849 10.7625 8.88968 10.791 8.87574C10.8663 8.81803 10.9235 8.75205 10.953 8.65476C10.953 8.64486 10.9432 8.63496 10.9432 8.63496C10.8188 8.76855 10.6765 8.87409 10.5243 8.9516C10.3792 9.02833 10.2237 9.0397 10.0698 9.05095C10.012 9.05516 9.9544 9.05938 9.89764 9.06704C9.90745 9.04724 9.92708 9.04724 9.9451 9.04724C9.9451 9.02383 9.9563 9.01375 9.97066 9.00083C9.97449 8.99738 9.97857 8.9937 9.98273 8.98953H10.0105C10.0154 8.98953 10.0179 8.98458 10.0204 8.97963C10.0228 8.97468 10.0253 8.96976 10.0302 8.96976C10.0498 8.96976 10.0776 8.95985 10.0678 8.95985C10.0528 8.94051 10.031 8.94818 10.0069 8.9566C9.98379 8.96473 9.95855 8.97359 9.93527 8.95985C9.94393 8.95033 9.94652 8.93891 9.9489 8.92852C9.95146 8.9173 9.95374 8.90727 9.96309 8.90212H10.0007C10.0007 8.88234 10.0204 8.86419 10.0204 8.86419C10.1057 8.81278 10.1881 8.76789 10.2689 8.72384C10.323 8.69442 10.3763 8.66535 10.4294 8.63496C10.4187 8.63496 10.4092 8.6394 10.3999 8.64369C10.3852 8.65052 10.3712 8.65702 10.3542 8.64486C10.364 8.64486 10.364 8.63785 10.364 8.63084C10.364 8.62384 10.364 8.61683 10.3738 8.61683C10.4352 8.6004 10.4898 8.57377 10.5456 8.54655C10.585 8.52736 10.625 8.50786 10.6683 8.49148C10.6554 8.49148 10.6435 8.49496 10.6319 8.49834C10.6096 8.50484 10.5884 8.51103 10.5636 8.49148C10.5701 8.48821 10.5753 8.48405 10.5805 8.47991C10.591 8.47158 10.6011 8.46346 10.6208 8.46346V8.43543C10.6208 8.42553 10.6307 8.42553 10.6405 8.42553C10.6307 8.42553 10.6208 8.41562 10.6208 8.41562C10.6261 8.40516 10.6363 8.40301 10.6477 8.40059C10.6578 8.39846 10.6689 8.39613 10.6781 8.38759C10.6683 8.38759 10.6503 8.38759 10.6503 8.37769C10.6781 8.33976 10.7256 8.32989 10.773 8.31998C10.7681 8.31008 10.7587 8.31008 10.7505 8.31008C10.7423 8.31008 10.7354 8.31008 10.7354 8.30018C10.7354 8.29031 10.7452 8.29031 10.755 8.29031H10.7354C10.72 8.28254 10.7227 8.26867 10.7246 8.25908C10.7251 8.25644 10.7256 8.25415 10.7256 8.25238C10.764 8.20698 10.7766 8.15344 10.7892 8.10017C10.7954 8.0741 10.8015 8.04807 10.8106 8.02314C10.8008 8.02314 10.791 8.02314 10.791 8.01324C10.699 8.11556 10.5532 8.15432 10.4147 8.19116L10.4016 8.19464H10.3542C10.3067 8.21444 10.2396 8.21444 10.1922 8.18474C10.1696 8.17288 10.1535 8.15806 10.1361 8.14204C10.1245 8.13135 10.1123 8.12013 10.0973 8.10888C10.0204 8.06107 9.9451 8.02314 9.86001 7.99344C9.62275 7.9176 9.37568 7.87802 9.12864 7.8879C9.19761 7.84986 9.27088 7.83476 9.34512 7.81942C9.38356 7.8115 9.42225 7.8035 9.46077 7.79226C9.48507 7.78507 9.50914 7.77768 9.53308 7.77032C9.66879 7.72863 9.80045 7.68819 9.9451 7.69659C9.92617 7.68987 9.90192 7.6923 9.8796 7.69454C9.86914 7.6956 9.85908 7.69659 9.85018 7.69659C9.74083 7.68844 9.63035 7.71284 9.51507 7.73831C9.49064 7.74369 9.46601 7.74912 9.44113 7.75433C9.396 7.76375 9.35306 7.77725 9.31008 7.79081C9.2627 7.80571 9.21524 7.82067 9.16462 7.83019C9.14268 7.83778 9.12504 7.85068 9.10789 7.86327C9.08027 7.8835 9.05382 7.90288 9.01246 7.8978V7.86812C9.10735 7.75268 9.22188 7.63888 9.37406 7.62898C9.52115 7.60499 9.65985 7.62208 9.80453 7.63993C9.82882 7.64292 9.8533 7.64594 9.878 7.64879C9.99661 7.65833 10.1076 7.68484 10.2272 7.71343L10.2396 7.7164C10.2658 7.7164 10.2805 7.73947 10.2948 7.76184C10.3064 7.78002 10.3176 7.79772 10.3345 7.80216C10.3578 7.81021 10.3811 7.8117 10.4044 7.8132C10.4384 7.81539 10.4723 7.81757 10.5063 7.84009C10.5063 7.83341 10.5052 7.82694 10.5041 7.82054C10.5019 7.8079 10.4998 7.79548 10.5063 7.78236C10.5274 7.76108 10.5516 7.76679 10.5755 7.7724C10.5941 7.7768 10.6125 7.78116 10.629 7.77245C10.6809 7.74019 10.6322 7.69065 10.5835 7.64109C10.56 7.61718 10.5366 7.59326 10.5243 7.57127C10.5243 7.56137 10.5341 7.55147 10.5341 7.55147C10.5556 7.57079 10.5756 7.59075 10.5955 7.61055C10.6452 7.66011 10.6938 7.7086 10.7616 7.74277C10.809 7.76258 10.9235 7.79061 10.9039 7.73287C10.8703 7.65813 10.8129 7.59331 10.7549 7.52786C10.7311 7.5009 10.7071 7.47383 10.6847 7.44593V7.408C10.6697 7.408 10.6662 7.40229 10.6617 7.3952C10.6603 7.39297 10.6588 7.39058 10.6568 7.38822V7.35029C10.6328 7.33767 10.6275 7.31769 10.6221 7.29759C10.619 7.28616 10.6159 7.27469 10.6094 7.26453C10.593 7.2379 10.5918 7.20512 10.5906 7.17135C10.5896 7.14447 10.5886 7.11695 10.5799 7.09135C10.5603 7.03365 10.5521 6.98581 10.5423 6.92811C10.5316 6.86905 10.5199 6.81259 10.5085 6.75732C10.4882 6.65975 10.4687 6.56589 10.4572 6.46799C10.4421 6.32807 10.5126 6.20973 10.5847 6.08876C10.6061 6.05288 10.6276 6.01681 10.647 5.97984C10.7141 5.8644 10.7894 5.75061 10.9137 5.6731C10.9409 5.5605 11.0147 5.46674 11.0881 5.37343L11.0937 5.36635C11.1662 5.27582 11.2873 5.22047 11.3765 5.17967L11.3866 5.17505C11.5191 5.11569 11.6386 5.07776 11.6402 5.07776H5.06757V10.1555H9.73074C9.85545 10.0649 9.97941 10.0077 10.1269 9.93968C10.1943 9.90865 10.2665 9.87534 10.346 9.83556C10.3628 9.82708 10.3828 9.8172 10.405 9.80626C10.5382 9.7406 10.7503 9.636 10.8303 9.55684ZM9.3506 8.87178C9.3321 8.87363 9.31249 8.87561 9.31989 8.86071C9.32676 8.82735 9.36086 8.81732 9.39418 8.80757C9.40844 8.80338 9.42256 8.79925 9.43431 8.79333L9.43969 8.79054L9.44364 8.78846C9.46208 8.77863 9.48466 8.7666 9.50133 8.7736C9.51258 8.78962 9.52652 8.79376 9.54005 8.79777C9.55013 8.80077 9.55999 8.80369 9.56835 8.81141C9.533 8.84698 9.49173 8.85048 9.44987 8.85403C9.42208 8.8564 9.39405 8.85878 9.3673 8.87059C9.36248 8.87059 9.3566 8.87117 9.3506 8.87178ZM7.90302 8.63988C7.90302 8.64976 7.91283 8.65966 7.91283 8.65966C8.14191 8.40075 8.3497 8.17976 8.64423 7.99671C8.65211 7.99339 8.64917 7.99752 8.64527 8.00301C8.63947 8.01121 8.63151 8.02241 8.65403 8.01649C8.75153 7.99422 8.79534 7.91052 8.83794 7.8291C8.84896 7.80802 8.85988 7.78713 8.87166 7.76748C8.91633 7.69464 8.9798 7.648 9.04376 7.60098C9.08987 7.56709 9.13624 7.53299 9.17599 7.48876C9.17599 7.49866 9.17599 7.50857 9.16616 7.51844C9.17599 7.52834 9.1858 7.52834 9.19563 7.52834C9.21289 7.51529 9.23174 7.50989 9.24978 7.50471C9.27281 7.49813 9.29458 7.49188 9.31016 7.47063C9.23488 7.44093 9.13837 7.43105 9.06309 7.46073C8.86348 7.55637 8.69331 7.70974 8.53132 7.88292C8.43314 7.98681 8.33171 8.0841 8.20735 8.15171C8.12227 8.32323 8.02738 8.47661 7.90302 8.63988ZM8.70182 8.02652C8.69668 8.03685 8.69156 8.04221 8.68667 8.04734C8.68221 8.05201 8.67793 8.0565 8.67403 8.06435C8.66422 8.08405 8.65441 8.09227 8.63643 8.10215C8.62662 8.10215 8.61681 8.10215 8.61681 8.09227C8.62662 8.05447 8.65442 8.01667 8.69202 8.00679C8.70182 8.00844 8.70182 8.01832 8.70182 8.02652ZM9.12023 9.49108C9.12838 9.48283 9.13819 9.47293 9.14311 9.46303C9.15129 9.44325 9.10061 9.4482 9.09243 9.45315C9.08501 9.45912 9.08029 9.46511 9.07459 9.47235L9.07282 9.47458C9.066 9.48245 9.05802 9.48971 9.04991 9.4971C9.04441 9.50213 9.03887 9.50718 9.0336 9.51251C9.01069 9.53562 8.98781 9.55869 8.96328 9.58012C8.94694 9.59497 8.99926 9.60158 9.01069 9.59167C9.02376 9.58177 9.03522 9.57025 9.04667 9.55869C9.05103 9.55869 9.05539 9.55796 9.05828 9.55748L9.06028 9.55715L9.06137 9.55704C9.08848 9.54793 9.10865 9.52902 9.12826 9.51063L9.1333 9.50591C9.13984 9.49931 9.13165 9.49273 9.12023 9.49108ZM8.97228 9.38384L8.97187 9.384C8.97187 9.384 8.97167 9.38463 8.97167 9.38544C8.96164 9.39235 8.95173 9.39938 8.94185 9.40639C8.91626 9.42452 8.89082 9.44254 8.86368 9.458C8.83773 9.47265 8.81113 9.48532 8.78427 9.49809C8.76879 9.50546 8.75326 9.51284 8.7377 9.52069C8.7377 9.52069 8.7377 9.51904 8.73605 9.51904C8.73278 9.51409 8.72625 9.51244 8.71971 9.51574C8.68371 9.53552 8.65262 9.56192 8.6248 9.58995C8.61991 9.59325 8.61499 9.5982 8.61172 9.60313L8.59697 9.61798V9.61963C8.59044 9.62623 8.5839 9.63283 8.57572 9.64271C8.57402 9.64443 8.5727 9.64613 8.57146 9.64778C8.56908 9.65088 8.5669 9.65375 8.56262 9.65591C8.55608 9.65921 8.53971 9.65921 8.54136 9.64931V9.64766C8.53644 9.65096 8.52991 9.65426 8.52499 9.65591C8.52253 9.65756 8.52007 9.6588 8.51764 9.66002C8.51518 9.66126 8.51273 9.66251 8.51027 9.66416C8.50862 9.66251 8.50535 9.66251 8.50373 9.66251C8.50208 9.66251 8.49882 9.66251 8.49717 9.66416C8.49337 9.66746 8.48954 9.67056 8.48572 9.67368C8.47809 9.67992 8.47046 9.68615 8.46281 9.69384C8.44317 9.71199 8.42518 9.73177 8.40719 9.7532C8.40719 9.7532 8.40719 9.75485 8.40555 9.75485C8.40555 9.75568 8.40514 9.75609 8.40474 9.7565C8.40433 9.75693 8.40393 9.75734 8.40393 9.75815L8.40063 9.76145C8.40002 9.76208 8.39962 9.76272 8.39929 9.76325C8.39876 9.76411 8.39838 9.76475 8.39736 9.76475L8.39574 9.7664C8.39409 9.7697 8.39247 9.773 8.38918 9.7763C8.38756 9.77795 8.38429 9.7796 8.38099 9.7796C8.37937 9.77795 8.37773 9.7763 8.37773 9.77465C8.37691 9.77381 8.37651 9.773 8.3761 9.77216C8.3757 9.77135 8.37527 9.77051 8.37446 9.7697C8.37284 9.76724 8.37159 9.76475 8.37038 9.76229C8.36914 9.7598 8.36792 9.75734 8.36627 9.75485V9.7532C8.36627 9.75238 8.36587 9.75155 8.36546 9.75073C8.36506 9.74992 8.36465 9.74908 8.36465 9.74827L8.39409 9.71362L8.39574 9.71199C8.39736 9.71034 8.39901 9.70828 8.40063 9.7062C8.40228 9.70415 8.40393 9.70209 8.40555 9.70044C8.408 9.69714 8.41087 9.69384 8.41373 9.69054C8.41659 9.68724 8.41946 9.68394 8.42192 9.68064C8.42273 9.67899 8.42354 9.67777 8.42437 9.67652C8.42518 9.67528 8.42599 9.67406 8.42683 9.67241C8.43664 9.65921 8.44647 9.64601 8.45627 9.63118V9.62953C8.45792 9.62788 8.45954 9.62623 8.45954 9.62293C8.46446 9.61633 8.46937 9.60973 8.47264 9.60313L8.48245 9.58335V9.5817L8.48409 9.58005C8.48409 9.57923 8.4845 9.5788 8.48491 9.5784C8.48531 9.57799 8.48572 9.57758 8.48572 9.57675C8.48736 9.57263 8.48898 9.56893 8.49063 9.56522C8.49225 9.56151 8.4939 9.55778 8.49555 9.55367V9.55202L8.49717 9.54542C8.498 9.54377 8.49841 9.54212 8.49882 9.54047C8.49922 9.53882 8.49963 9.53717 8.50046 9.53552V9.53386C8.50127 9.5314 8.50168 9.52891 8.50208 9.52645C8.50249 9.52399 8.5029 9.5215 8.50373 9.51904C8.50373 9.51739 8.50373 9.51409 8.50208 9.51244C8.51192 9.49428 8.52499 9.47781 8.53971 9.4613C8.5389 9.4613 8.53809 9.46171 8.53725 9.46214C8.5368 9.46237 8.53586 9.46278 8.53586 9.46278L8.53482 9.46295C8.52752 9.46755 8.52127 9.47367 8.51488 9.47989C8.50979 9.48486 8.50462 9.48989 8.49882 9.49428C8.48898 9.50253 8.46937 9.48933 8.48245 9.47946C8.49063 9.47286 8.49717 9.46625 8.50371 9.45965C8.50371 9.45965 8.50373 9.458 8.50535 9.458C8.51189 9.45209 8.51815 9.44538 8.52446 9.43863C8.53398 9.42845 8.54361 9.41812 8.55443 9.4102C8.56591 9.40195 8.57407 9.39534 8.5839 9.38709C8.58552 9.38544 8.58717 9.38379 8.58882 9.38379C8.59535 9.37554 8.60189 9.36731 8.61007 9.35906C8.61007 9.35906 8.61172 9.35906 8.61172 9.35741C8.66789 9.3028 8.74685 9.28353 8.82745 9.26388C8.87828 9.25149 8.92976 9.23893 8.97659 9.21724C9.00304 9.2062 9.03253 9.21054 9.0617 9.21483C9.08483 9.21823 9.10776 9.22161 9.12876 9.21724C9.15656 9.21724 9.18603 9.21724 9.21382 9.23702C9.14914 9.27155 9.08739 9.31103 9.0263 9.35008C9.00861 9.3614 8.99095 9.3727 8.97332 9.38379L8.97228 9.38384ZM9.17676 8.71168C9.1691 8.71257 9.16414 8.71313 9.16839 8.71742C9.19619 8.74547 9.25348 8.73557 9.29273 8.71412C9.32055 8.69434 9.35002 8.69434 9.38764 8.69434C9.39745 8.69434 9.39745 8.67619 9.39745 8.66631C9.42527 8.67619 9.44491 8.67619 9.47273 8.67619C9.70016 8.62838 9.91941 8.58055 10.1288 8.47501C9.91692 8.31092 9.65567 8.23783 9.39978 8.16626C9.35731 8.15438 9.315 8.14254 9.27309 8.13033C9.28231 8.13033 9.29153 8.1334 9.30081 8.1365C9.31951 8.14275 9.33849 8.14909 9.35817 8.13033C9.33223 8.10959 9.30332 8.1056 9.27469 8.10169C9.25099 8.09842 9.22751 8.09519 9.20602 8.0825C9.20825 8.0825 9.21094 8.08303 9.21382 8.08359C9.22363 8.08547 9.23607 8.08788 9.24365 8.07262C9.19396 8.04757 9.14425 8.03906 9.09408 8.03048C9.06826 8.02606 9.04234 8.02162 9.01621 8.01489C9.06367 8.00499 9.09311 7.96706 9.09311 7.91925C9.09311 7.90935 9.07348 7.90935 9.06367 7.90935C8.95077 7.96706 8.87387 8.07262 8.82641 8.19629C8.8692 8.22153 8.91529 8.21861 8.9605 8.21574C8.98616 8.21411 9.01155 8.21249 9.03585 8.21609C9.01439 8.23651 8.9834 8.24207 8.95358 8.2474C8.94248 8.24938 8.93154 8.25133 8.92132 8.25403C8.89186 8.26063 8.86406 8.28205 8.87387 8.30183C8.8804 8.31008 8.88697 8.31338 8.89515 8.31503C8.87387 8.32164 8.85423 8.33154 8.83624 8.34966C8.86317 8.37091 8.89094 8.36683 8.91836 8.36276C8.92925 8.36117 8.94007 8.35957 8.95077 8.35957C8.95077 8.37155 8.95862 8.37561 8.96678 8.37985C8.97096 8.38201 8.97524 8.38424 8.97859 8.38759C8.93113 8.40575 8.8935 8.44533 8.88367 8.47336C8.87197 8.50192 8.8503 8.52048 8.82884 8.53888C8.81437 8.5513 8.79998 8.56361 8.78878 8.5789V8.60858C8.75719 8.63666 8.72468 8.66174 8.69265 8.68647C8.62682 8.73727 8.5629 8.78663 8.51227 8.85761C8.52208 8.85761 8.52208 8.86749 8.52208 8.87739C8.51303 8.89108 8.50016 8.90057 8.48795 8.90956C8.47366 8.92007 8.46028 8.9299 8.45501 8.945C8.45501 8.9549 8.45501 8.9648 8.46481 8.9648C8.52486 8.94493 8.57681 8.91144 8.62773 8.87861C8.67395 8.84883 8.71933 8.81958 8.76914 8.80153C8.80986 8.79173 8.84531 8.77322 8.8799 8.75517C8.90924 8.73986 8.93797 8.72486 8.96876 8.71577C8.9925 8.71084 9.01867 8.70384 9.04485 8.6968C9.07102 8.6898 9.09722 8.68279 9.12094 8.67784C9.12094 8.68774 9.12094 8.69764 9.13074 8.69764H9.20602C9.20138 8.70886 9.18676 8.71054 9.17676 8.71168Z" fill="#F1F1F1"/>
<path d="M19.0034 5.07776H13.5528C13.5528 5.07776 13.5627 5.07941 13.6039 5.10086C13.6484 5.12399 13.7061 5.15535 13.7406 5.1735C13.8115 5.20983 13.8791 5.25604 13.9236 5.32702C13.9433 5.35508 13.9713 5.41286 13.9532 5.45082C13.9334 5.4987 13.9236 5.57629 13.8758 5.59444C13.8181 5.62415 13.7423 5.62415 13.6747 5.61425C13.6369 5.61425 13.599 5.60434 13.5594 5.59444C13.7028 5.65223 13.8379 5.71991 13.9334 5.85361C13.9433 5.87341 13.9812 5.88169 14.0191 5.88169C14.029 5.88169 14.029 5.90149 14.029 5.90974C14.0092 5.92955 13.9911 5.93945 14.001 5.96753H14.029C14.0768 5.9477 14.0669 5.85196 14.1344 5.88169C14.1822 5.90974 14.202 5.97743 14.1724 6.02529C14.1344 6.06327 14.0966 6.09297 14.057 6.12103C14.0471 6.14086 14.0471 6.16891 14.057 6.18871C14.085 6.22669 14.0949 6.26465 14.1048 6.30426C14.1344 6.37194 14.1427 6.44788 14.1724 6.51557C14.2103 6.65919 14.2481 6.80279 14.2399 6.94806C14.2399 7.024 14.202 7.09168 14.23 7.16927C14.2498 7.24521 14.2976 7.30297 14.3355 7.37065C14.3734 7.42844 14.4113 7.46639 14.4409 7.52418C14.4986 7.61992 14.6041 7.71566 14.5563 7.83123C14.5282 7.89889 14.4228 7.88899 14.3552 7.92697C14.2976 7.97483 14.3454 8.05241 14.375 8.1003C14.4228 8.18614 14.3173 8.24389 14.2498 8.27362C14.2696 8.30333 14.3075 8.29343 14.3173 8.31158C14.3272 8.35946 14.375 8.38752 14.3454 8.43705C14.3075 8.49481 14.1921 8.52289 14.2498 8.61038C14.2877 8.67807 14.263 8.75233 14.2399 8.82166C14.2119 8.9075 14.1344 8.94548 14.0669 8.96529C14.0092 8.98509 13.9417 8.98509 13.8857 8.97519C13.8659 8.96529 13.8477 8.95539 13.828 8.95539C13.6649 8.93558 13.5017 8.88935 13.3403 8.88935C13.2925 8.89925 13.2447 8.9075 13.2068 8.9273C13.164 8.95869 13.1244 8.99334 13.0915 9.02967C13.0915 9.02967 13.0915 9.02967 13.0898 9.03132C13.0832 9.03957 13.075 9.04618 13.0684 9.05443C13.0651 9.05938 13.0601 9.06433 13.0569 9.06928C13.0536 9.07258 13.0519 9.07588 13.0486 9.07918C13.0206 9.11386 12.9959 9.15182 12.9728 9.1898C12.9712 9.1931 12.9695 9.19475 12.9679 9.1964C12.9662 9.20135 12.963 9.20465 12.9597 9.2096C12.9283 9.26736 12.9053 9.3268 12.8871 9.38623C12.8212 9.60579 12.8509 9.79397 12.897 9.84018C12.9102 9.85338 13.2134 9.9475 13.4243 10.0416C13.5232 10.0861 13.5924 10.1192 13.65 10.1555H19.0017V5.07776H19.0034Z" fill="#F1F1F1"/>
<path d="M13.8766 6.92971C13.9146 6.93959 13.9722 6.93959 13.9722 6.95937C13.9525 7.0352 13.8387 7.05501 13.781 7.13249H13.7514C13.7234 7.15227 13.7316 7.20008 13.7036 7.20008C13.6756 7.19018 13.6459 7.20008 13.6179 7.20998C13.6558 7.24788 13.7036 7.27756 13.7613 7.26766C13.7712 7.26766 13.7893 7.28744 13.7893 7.30559C13.7893 7.30559 13.7992 7.30559 13.8091 7.29569C13.819 7.29569 13.8289 7.29569 13.8289 7.30559V7.3435C13.8008 7.38143 13.7514 7.36328 13.7135 7.37153C13.791 7.3913 13.8668 7.3913 13.9343 7.37153C13.992 7.35175 13.9343 7.25613 13.9722 7.20833C13.9525 7.20833 13.9722 7.17865 13.9525 7.17865C13.9722 7.15887 13.9904 7.13084 14.0101 7.12094C14.0299 7.12094 14.0579 7.11104 14.0678 7.09126C14.0678 7.07148 14.0299 7.06323 14.0381 7.04345C14.0958 7.00555 14.1436 6.94784 14.1238 6.89013C14.114 6.86045 14.0381 6.86045 13.9904 6.84233C13.9426 6.8242 13.8849 6.84233 13.8272 6.85223C13.7794 6.85223 13.7316 6.88191 13.6838 6.89013C13.6162 6.90991 13.5586 6.94784 13.5025 6.98575C13.5701 6.95774 13.636 6.94784 13.7135 6.92806C13.7712 6.92971 13.819 6.91651 13.8766 6.92971Z" fill="#F1F1F1"/>
<path d="M5.58953 16.5026V12.9482H6.48649L7.35304 14.441L8.2196 12.9482H9.11656V16.5026H8.39696V13.9536L7.60642 15.2839H7.09967L6.30913 13.9536V16.5026H5.58953ZM10.1826 16.5026V12.9482H10.9022V16.5026H10.1826ZM11.9697 16.5026V12.9482H12.892L14.4782 15.5175V12.9482H15.1978V16.5026H14.2755L12.6893 13.9332V16.5026H11.9697ZM16.2659 16.5026V12.9482H16.9855V16.5026H16.2659ZM17.7337 16.01L18.2557 15.5276C18.4685 15.8018 18.7523 15.9643 19.0412 15.9643C19.3249 15.9643 19.4972 15.812 19.4972 15.5581C19.4972 14.9031 17.8858 15.0808 17.8858 13.8774C17.8858 13.3138 18.352 12.8466 19.031 12.8466C19.5631 12.8466 19.9685 13.0853 20.2726 13.4458L19.7456 13.9231C19.5378 13.654 19.3047 13.4762 19.0361 13.4762C18.7827 13.4762 18.6155 13.6387 18.6155 13.852C18.6155 14.4969 20.227 14.3141 20.227 15.5327C20.2168 16.203 19.6999 16.6041 19.0462 16.6041C18.4483 16.6041 18.0479 16.3858 17.7337 16.01ZM20.6679 13.6032V12.9482H23.5767V13.6032H22.4821V16.5026H21.7625V13.6032H20.6679ZM24.9992 12.6435L24.3455 11.958H25.0854L25.6581 12.6435H24.9992ZM24.2847 16.5026V12.9482H26.3524V13.5473H25.0043V14.3902H26.1497V14.9894H25.0043V15.9034H26.3524V16.5026H24.2847ZM27.2645 16.5026V12.9482H28.349C29.1294 12.9482 29.6108 13.3493 29.6108 14.0094C29.6108 14.441 29.403 14.7609 29.0382 14.9285L30.148 16.5026H29.3017L28.3541 15.0656H27.9841V16.5026H27.2645ZM28.3895 13.5473H27.9841V14.4664H28.3895C28.6936 14.4664 28.871 14.2887 28.871 13.9993C28.871 13.7301 28.6936 13.5473 28.3895 13.5473ZM30.6798 16.5026V12.9482H32.7474V13.5473H31.3994V14.3902H32.5447V14.9894H31.3994V15.9034H32.7474V16.5026H30.6798ZM5.58953 21.8342V18.2798H6.98311C8.10811 18.2798 8.86825 19.0973 8.86825 20.057C8.86825 21.0167 8.10811 21.8342 6.98311 21.8342H5.58953ZM6.99325 18.9348H6.30913V21.1791H6.99325C7.65203 21.1791 8.12838 20.6866 8.12838 20.057C8.12838 19.4223 7.65203 18.9348 6.99325 18.9348ZM9.63824 21.8342V18.2798H11.7058V18.8789H10.3578V19.7218H11.5031V20.321H10.3578V21.235H11.7058V21.8342H9.63824ZM14.0092 21.8342V18.2798H14.7288V21.1791H16.0768V21.8342H14.0092ZM16.597 19.7422H15.999L16.4551 18.2798H17.1848L16.597 19.7422ZM16.9692 21.8342L18.3121 18.2798H19.2547L20.5976 21.8342H19.8324L19.4929 20.91H18.074L17.7344 21.8342H16.9692ZM18.2969 20.2956H19.2699L18.7834 18.9602L18.2969 20.2956ZM22.774 21.2604C23.1084 21.2604 23.3973 21.1436 23.6 20.9507V20.3312H22.6979V19.7168H24.3196V21.2096C23.9902 21.6514 23.4378 21.9357 22.774 21.9357C21.6236 21.9357 20.8381 21.0725 20.8381 20.057C20.8381 19.0414 21.6033 18.1782 22.7233 18.1782C23.3669 18.1782 23.8939 18.4676 24.2182 18.8993L23.6506 19.341C23.4479 19.0516 23.1287 18.8536 22.7233 18.8536C22.0544 18.8536 21.578 19.3766 21.578 20.057C21.578 20.7374 22.0797 21.2604 22.774 21.2604ZM25.1959 21.8342V18.2798H26.2804C27.0608 18.2798 27.5422 18.6809 27.5422 19.341C27.5422 19.7726 27.3345 20.0925 26.9696 20.2601L28.0794 21.8342H27.2331L26.2855 20.3972H25.9155V21.8342H25.1959ZM26.321 18.8789H25.9155V19.798H26.321C26.625 19.798 26.8024 19.6203 26.8024 19.3309C26.8024 19.0617 26.625 18.8789 26.321 18.8789ZM28.6112 21.8342V18.2798H29.3308V21.8342H28.6112ZM31.9794 21.2604C32.3848 21.2604 32.7041 21.0624 32.9068 20.7729L33.4743 21.2096C33.15 21.6514 32.623 21.9357 31.9794 21.9357C30.8595 21.9357 30.0943 21.0725 30.0943 20.057C30.0943 19.0414 30.8595 18.1782 31.9794 18.1782C32.623 18.1782 33.15 18.4676 33.4743 18.8993L32.9068 19.341C32.7041 19.0516 32.3848 18.8536 31.9794 18.8536C31.3105 18.8536 30.8341 19.3766 30.8341 20.057C30.8341 20.7374 31.3105 21.2604 31.9794 21.2604ZM36.227 20.5038V18.2798H36.9466V20.4429C36.9466 21.3772 36.3993 21.9357 35.5074 21.9357C34.6206 21.9357 34.0733 21.3772 34.0733 20.4429V18.2798H34.7929V20.5038C34.7929 20.9811 35.0615 21.2604 35.5125 21.2604C35.9534 21.2604 36.227 20.9811 36.227 20.5038ZM37.9166 21.8342V18.2798H38.6362V21.1791H39.9841V21.8342H37.9166ZM39.9129 18.9348V18.2798H42.8217V18.9348H41.7271V21.8342H41.0075V18.9348H39.9129ZM45.6218 20.5038V18.2798H46.3414V20.4429C46.3414 21.3772 45.7941 21.9357 44.9022 21.9357C44.0154 21.9357 43.4681 21.3772 43.4681 20.4429V18.2798H44.1877V20.5038C44.1877 20.9811 44.4563 21.2604 44.9073 21.2604C45.3481 21.2604 45.6218 20.9811 45.6218 20.5038ZM47.3113 21.8342V18.2798H48.3958C49.1762 18.2798 49.6576 18.6809 49.6576 19.341C49.6576 19.7726 49.4498 20.0925 49.085 20.2601L50.1948 21.8342H49.3485L48.4009 20.3972H48.0309V21.8342H47.3113ZM48.4363 18.8789H48.0309V19.798H48.4363C48.7404 19.798 48.9177 19.6203 48.9177 19.3309C48.9177 19.0617 48.7404 18.8789 48.4363 18.8789ZM50.7266 21.8342V18.2798H52.7942V18.8789H51.4462V19.7218H52.5915V20.321H51.4462V21.235H52.7942V21.8342H50.7266ZM5.58953 27.1658V23.6114H7.6571V24.2105H6.30913V25.0534H7.4544V25.6526H6.30913V26.5666H7.6571V27.1658H5.58953ZM8.27866 24.2664V23.6114H11.1874V24.2664H10.0929V27.1658H9.37326V24.2664H8.27866ZM13.2867 27.1658V23.6114H14.6803C15.8053 23.6114 16.5654 24.4289 16.5654 25.3886C16.5654 26.3483 15.8053 27.1658 14.6803 27.1658H13.2867ZM14.6904 24.2664H14.0063V26.5108H14.6904C15.3492 26.5108 15.8255 26.0182 15.8255 25.3886C15.8255 24.7539 15.3492 24.2664 14.6904 24.2664ZM17.3354 27.1658V23.6114H19.403V24.2105H18.055V25.0534H19.2003V25.6526H18.055V26.5666H19.403V27.1658H17.3354ZM21.7064 27.1658V23.6114H22.426V26.5108H23.7739V27.1658H21.7064ZM24.1907 27.1658L25.5337 23.6114H26.4763L27.8192 27.1658H27.054L26.7144 26.2416H25.2955L24.9559 27.1658H24.1907ZM25.5185 25.6272H26.4915L26.005 24.2918L25.5185 25.6272ZM29.5148 26.6732L30.0367 26.1909C30.2496 26.4651 30.5334 26.6275 30.8222 26.6275C31.106 26.6275 31.2783 26.4752 31.2783 26.2213C31.2783 25.5663 29.6668 25.744 29.6668 24.5406C29.6668 23.977 30.133 23.5098 30.8121 23.5098C31.3442 23.5098 31.7496 23.7485 32.0536 24.109L31.5266 24.5863C31.3188 24.3172 31.0857 24.1395 30.8172 24.1395C30.5638 24.1395 30.3965 24.3019 30.3965 24.5152C30.3965 25.1601 32.008 24.9773 32.008 26.1959C31.9979 26.8662 31.481 27.2673 30.8273 27.2673C30.2293 27.2673 29.829 27.049 29.5148 26.6732ZM34.3751 23.5098C35.49 23.5098 36.2552 24.373 36.2552 25.3886C36.2552 26.4041 35.49 27.2673 34.3751 27.2673C33.2552 27.2673 32.49 26.4041 32.49 25.3886C32.49 24.373 33.2552 23.5098 34.3751 23.5098ZM34.3751 26.592C35.0389 26.592 35.5153 26.069 35.5153 25.3886C35.5153 24.7082 35.0389 24.1852 34.3751 24.1852C33.7062 24.1852 33.2298 24.7082 33.2298 25.3886C33.2298 26.069 33.7062 26.592 34.3751 26.592ZM39.1128 25.8354V23.6114H39.8324V25.7745C39.8324 26.7088 39.2851 27.2673 38.3932 27.2673C37.5063 27.2673 36.959 26.7088 36.959 25.7745V23.6114H37.6786V25.8354C37.6786 26.3127 37.9472 26.592 38.3982 26.592C38.8391 26.592 39.1128 26.3127 39.1128 25.8354ZM40.3563 23.6114H41.1215L42.1705 26.3889L43.2195 23.6114H43.9847L42.6418 27.1658H41.6992L40.3563 23.6114ZM44.6085 27.1658V23.6114H46.6761V24.2105H45.3281V25.0534H46.4734V25.6526H45.3281V26.5666H46.6761V27.1658H44.6085ZM47.5883 27.1658V23.6114H48.6727C49.4531 23.6114 49.9345 24.0125 49.9345 24.6726C49.9345 25.1042 49.7268 25.4241 49.3619 25.5917L50.4717 27.1658H49.6254L48.6778 25.7288H48.3079V27.1658H47.5883ZM48.7133 24.2105H48.3079V25.1296H48.7133C49.0173 25.1296 49.1947 24.9519 49.1947 24.6625C49.1947 24.3933 49.0173 24.2105 48.7133 24.2105ZM50.7112 27.1658L52.0541 23.6114H52.9966L54.3395 27.1658H53.5743L53.2348 26.2416H51.8159L51.4764 27.1658H50.7112ZM52.0389 25.6272H53.0118L52.5253 24.2918L52.0389 25.6272ZM54.9633 27.1658V23.6114H55.6829V27.1658H54.9633ZM56.7504 27.1658V23.6114H57.6727L59.2589 26.1807V23.6114H59.9785V27.1658H59.0562L57.47 24.5965V27.1658H56.7504ZM61.0465 27.1658V23.6114H63.114V24.2105H61.7661V25.0534H62.9113V25.6526H61.7661V26.5666H63.114V27.1658H61.0465ZM63.7356 24.2664V23.6114H66.6444V24.2664H65.5498V27.1658H64.8302V24.2664H63.7356ZM68.7056 23.3067H68.0519L68.6245 22.6212H69.3644L68.7056 23.3067ZM67.3525 27.1658V23.6114H69.4201V24.2105H68.0721V25.0534H69.2174V25.6526H68.0721V26.5666H69.4201V27.1658H67.3525ZM5.14359 32.4974L6.48649 28.943H7.42906L8.77196 32.4974H8.00676L7.66723 31.5732H6.24832L5.90879 32.4974H5.14359ZM6.47129 30.9588H7.44426L6.95777 29.6234L6.47129 30.9588ZM9.39576 32.4974V28.943H10.1154V31.8424H11.4633V32.4974H9.39576ZM12.1726 32.4974V28.943H12.8922V32.4974H12.1726ZM13.9597 32.4974V28.943H14.8567L15.7232 30.4358L16.5898 28.943H17.4868V32.4974H16.7672V29.9484L15.9766 31.2787H15.4699L14.6793 29.9484V32.4974H13.9597ZM18.5528 32.4974V28.943H20.6204V29.5422H19.2724V30.3851H20.4177V30.9842H19.2724V31.8982H20.6204V32.4974H18.5528ZM21.5326 32.4974V28.943H22.4549L24.041 31.5123V28.943H24.7606V32.4974H23.8383L22.2522 29.9281V32.4974H21.5326ZM25.4638 29.598V28.943H28.3726V29.598H27.278V32.4974H26.5584V29.598H25.4638ZM28.2932 32.4974L29.6362 28.943H30.5787L31.9216 32.4974H31.1564L30.8169 31.5732H29.398L29.0585 32.4974H28.2932ZM29.621 30.9588H30.5939L30.1074 29.6234L29.621 30.9588ZM32.5454 32.4974V28.943H33.265V32.4974H32.5454ZM34.3325 32.4974V28.943H35.417C36.1974 28.943 36.6788 29.3441 36.6788 30.0042C36.6788 30.4358 36.471 30.7557 36.1062 30.9233L37.216 32.4974H36.3697L35.422 31.0604H35.0521V32.4974H34.3325ZM35.4575 29.5422H35.0521V30.4612H35.4575C35.7616 30.4612 35.9389 30.2835 35.9389 29.9941C35.9389 29.725 35.7616 29.5422 35.4575 29.5422ZM37.7478 32.4974V28.943H39.8154V29.5422H38.4674V30.3851H39.6127V30.9842H38.4674V31.8982H39.8154V32.4974H37.7478Z" fill="#F1F1F1"/>
<path fill-rule="evenodd" clip-rule="evenodd" d="M18.2331 41.5612L17.7618 41.9928H17.6402L17.9189 41.5002H18.2331V41.5612ZM17.8936 43.2315H17.7922C17.6655 43.3838 17.5236 43.5057 17.3868 43.5057C17.2449 43.5057 17.174 43.4194 17.174 43.2315C17.174 43.1553 17.1841 43.0741 17.1993 43.003L18.0253 42.7288C18.1875 42.3429 17.9949 42.1753 17.7669 42.1753C17.3767 42.1753 16.9307 42.8608 16.9307 43.4092C16.9307 43.6682 17.0524 43.8104 17.2449 43.8104C17.4679 43.8053 17.701 43.5869 17.8936 43.2315ZM17.6101 42.399C17.7216 42.399 17.8179 42.4853 17.7672 42.6833L17.2554 42.8205C17.3365 42.5767 17.4885 42.399 17.6101 42.399ZM15.9988 42.4089H16.2725L15.8367 43.6072C15.7961 43.7088 15.8519 43.8104 15.9583 43.8104C16.2674 43.8104 16.6374 43.5463 16.7792 43.1706H16.7032C16.5917 43.328 16.3485 43.5006 16.1661 43.5311L16.5664 42.4089H16.9769L17.0276 42.2363H16.6272L16.7792 41.8047H16.6222L16.3384 42.2363L15.9988 42.282V42.4089ZM15.6185 42.1807C15.6742 42.1807 15.7503 42.2416 15.7148 42.3533L15.2232 43.5466C15.3499 43.5263 15.4816 43.4044 15.5577 43.2927H15.6387C15.5222 43.5923 15.2587 43.8106 15.0306 43.8106C14.9749 43.8106 14.8938 43.7497 14.9343 43.638L15.3904 42.4447C15.2637 42.465 15.132 42.5869 15.056 42.6986H14.98C15.0965 42.3939 15.3803 42.1807 15.6185 42.1807ZM15.7607 41.876C15.8621 41.876 15.9482 41.7947 15.9482 41.6881C15.9482 41.5866 15.8621 41.5002 15.7607 41.5002C15.6543 41.5002 15.5732 41.5866 15.5732 41.6881C15.5732 41.7897 15.6594 41.876 15.7607 41.876ZM13.5461 42.8661C13.6576 42.6224 13.617 42.5107 13.5461 42.5107C13.4853 42.5107 13.4143 42.5767 13.3434 42.6986H13.2673C13.3839 42.4396 13.536 42.1807 13.7032 42.1807C13.8451 42.1807 13.8958 42.3228 13.8958 42.4802V42.7037C13.9186 42.6773 13.9408 42.6511 13.9624 42.6255L13.9628 42.625L13.9632 42.6247C14.1773 42.3729 14.3407 42.1807 14.5292 42.1807C14.6762 42.1807 14.7522 42.2721 14.7522 42.4092C14.7522 42.4904 14.7268 42.592 14.6711 42.6986L14.2505 43.5466C14.3772 43.5263 14.5089 43.4044 14.5849 43.2927H14.661C14.5444 43.5973 14.2606 43.8106 14.0224 43.8106C13.916 43.8106 13.8552 43.6989 13.9008 43.6075L14.3873 42.6681C14.443 42.5615 14.4532 42.4904 14.367 42.4904C14.2505 42.4904 13.9768 42.6834 13.8299 42.8611L13.5106 43.704C13.4751 43.7903 13.4397 43.8106 13.3586 43.8106C13.2268 43.8106 13.1609 43.7243 13.2217 43.5872L13.5461 42.8661ZM13.2163 42.5409C13.2721 42.348 13.2417 42.1753 13.0947 42.1753C12.9114 42.1753 12.854 42.2967 12.6764 42.6719L12.6639 42.6983V42.4749C12.6639 42.3175 12.6133 42.1753 12.4714 42.1753C12.3041 42.1753 12.1521 42.4343 12.0355 42.6933H12.1116C12.1926 42.5765 12.2687 42.5054 12.3295 42.5054C12.4004 42.5054 12.441 42.6171 12.3295 42.8608L12.0051 43.5819C11.9443 43.719 12.0102 43.8053 12.142 43.8053C12.223 43.8053 12.2585 43.785 12.294 43.6986L12.6133 42.8557C12.7045 42.744 12.7855 42.6476 12.8869 42.5409H13.2163ZM11.615 42.6833C11.6657 42.4853 11.5694 42.399 11.4579 42.399C11.3363 42.399 11.1843 42.5767 11.1032 42.8205L11.615 42.6833ZM11.7414 43.2315H11.6401C11.5134 43.3838 11.3715 43.5057 11.2346 43.5057C11.0928 43.5057 11.0218 43.4194 11.0218 43.2315C11.0218 43.1553 11.0319 43.0741 11.0471 43.003L11.8732 42.7288C12.0353 42.3429 11.8428 42.1753 11.6147 42.1753C11.2245 42.1753 10.7786 42.8608 10.7786 43.4092C10.7786 43.6682 10.9002 43.8104 11.0928 43.8104C11.3158 43.8053 11.5489 43.5869 11.7414 43.2315ZM10.1203 42.4089H9.84666V42.282L10.1862 42.2363L10.47 41.8047H10.6271L10.4751 42.2363H10.8754L10.8247 42.4089H10.4143L10.0139 43.5311C10.1964 43.5006 10.4396 43.328 10.5511 43.1706H10.6271C10.4852 43.5463 10.1152 43.8104 9.80612 43.8104C9.6997 43.8104 9.64396 43.7088 9.6845 43.6072L10.1203 42.4089ZM8.39757 43.3381C8.39757 42.9675 8.80806 42.4701 9.0361 42.4701C9.08678 42.4701 9.13746 42.4752 9.178 42.4904L8.93982 43.1299C8.803 43.2975 8.59016 43.5006 8.48878 43.5006C8.43304 43.5006 8.39757 43.4498 8.39757 43.3381ZM9.52779 42.0994L9.65448 42.1096L9.2136 43.1249C9.10718 43.3686 9.15279 43.4803 9.2136 43.4803C9.27441 43.4803 9.35042 43.4092 9.4315 43.2924H9.50751C9.39096 43.5514 9.23893 43.8104 9.0717 43.8104C8.92981 43.8104 8.84366 43.658 8.869 43.3838L8.87914 43.2873L8.85154 43.3262C8.67 43.5803 8.50573 43.8104 8.33688 43.8104C8.18992 43.8104 8.11391 43.719 8.11391 43.5819C8.11391 42.9931 8.75752 42.2416 9.36056 42.2416H9.38589L9.52779 42.0994ZM8.36698 42.5409C8.42273 42.348 8.39232 42.1753 8.24536 42.1753C8.06207 42.1753 8.00468 42.2967 7.82708 42.6719L7.81462 42.6983V42.4749C7.81462 42.3175 7.76394 42.1753 7.62203 42.1753C7.4548 42.1753 7.30277 42.4343 7.18621 42.6933H7.26223C7.34331 42.5765 7.41932 42.5054 7.47507 42.5054C7.54601 42.5054 7.58655 42.6171 7.47507 42.8608L7.15074 43.5869C7.08993 43.724 7.15581 43.8104 7.28757 43.8104C7.36865 43.8104 7.40412 43.79 7.43959 43.7037L7.75888 42.8608C7.85009 42.7491 7.93117 42.6526 8.03252 42.546H8.36698V42.5409ZM6.27874 43.6578L6.24833 43.7492H5.06757L5.09797 43.6527C5.46284 43.5867 5.52365 43.5562 5.67567 43.1449L6.00509 42.2614C6.15205 41.8501 6.12165 41.8196 5.80236 41.7536L5.83277 41.6622H7.36827L7.27705 42.1548H7.16556C7.16556 41.8603 7.13516 41.7841 6.85644 41.7841H6.7855C6.51185 41.7841 6.47637 41.8247 6.40036 42.038L6.18246 42.6321H6.50171C6.71455 42.6321 6.79563 42.5 6.89192 42.3274H7.0034L6.73989 43.0484H6.6284C6.65374 42.8301 6.65374 42.7438 6.4561 42.7438H6.13685L5.98989 43.15C5.83102 43.5727 5.87643 43.5813 6.25469 43.6532C6.26257 43.6547 6.27058 43.6562 6.27874 43.6578Z" fill="#F1F1F1"/>
<path fill-rule="evenodd" clip-rule="evenodd" d="M7.28202 37.6767L6.81073 38.0169V38.0219H6.68911L6.96783 37.6157H7.28202V37.6767ZM10.5764 40.0581L11.3314 38.0473L11.3061 38.0169L10.7842 38.0778V38.1387L10.8855 38.2149C10.972 38.2822 10.9491 38.3451 10.8773 38.5422L10.8652 38.5754L10.2875 40.119C10.2419 40.2104 10.3027 40.3221 10.4092 40.3221C10.6473 40.3221 10.9007 40.1038 11.0173 39.8042H10.9413C10.8602 39.9159 10.698 40.0378 10.5764 40.0581ZM14.0372 38.5094L14.5084 38.0778V38.0169H14.1943L13.9155 38.5094H14.0372ZM14.0672 39.7433H14.1686C13.9811 40.1038 13.748 40.3221 13.525 40.3221C13.3324 40.3221 13.2108 40.18 13.2108 39.921C13.2108 39.3726 13.6568 38.6871 14.047 38.6871C14.2699 38.6871 14.4676 38.8547 14.3054 39.2406L13.4743 39.5148C13.4591 39.5859 13.449 39.6671 13.449 39.7433C13.449 39.9312 13.5199 40.0175 13.6618 40.0175C13.7987 40.0175 13.9405 39.8956 14.0672 39.7433ZM14.0416 39.1949C14.0923 39.0019 13.996 38.9156 13.8846 38.9156C13.768 38.9156 13.616 39.0933 13.5298 39.332L14.0416 39.1949ZM12.5518 38.9255H12.2781V38.7986L12.6177 38.7529L12.9014 38.3213H13.0585L12.9065 38.7529H13.3068L13.2562 38.9255H12.8457L12.4454 40.0477C12.6278 40.0172 12.871 39.8446 12.9825 39.6872H13.0585C12.9166 40.0629 12.5467 40.327 12.2376 40.327C12.1312 40.327 12.0754 40.2254 12.116 40.1239L12.5518 38.9255ZM11.9943 38.8646C12.0247 38.7529 11.9538 38.6919 11.893 38.6919C11.6548 38.6919 11.371 38.9103 11.2545 39.2099H11.3305C11.4065 39.0982 11.5382 38.9763 11.6649 38.956L11.2088 40.1493C11.1683 40.261 11.2494 40.3219 11.3051 40.3219C11.5332 40.3219 11.7967 40.1036 11.9132 39.804H11.8372C11.7612 39.9157 11.6295 40.0375 11.5028 40.0579L11.9943 38.8646ZM12.2278 38.2047C12.2278 38.3063 12.1417 38.3926 12.0403 38.3926C11.939 38.3926 11.8528 38.3063 11.8528 38.2047C11.8528 38.1032 11.9339 38.0169 12.0403 38.0169C12.1417 38.0169 12.2278 38.1032 12.2278 38.2047ZM9.66922 38.9867C9.44118 38.9867 9.03071 39.4843 9.03071 39.855C9.03071 39.9667 9.06618 40.0175 9.12699 40.0175C9.22328 40.0175 9.43611 39.8144 9.57294 39.6468L9.81111 39.007C9.76551 38.9918 9.7199 38.9867 9.66922 38.9867ZM10.2876 38.6262L10.1609 38.616L10.019 38.7582H9.99367C9.39063 38.7582 8.74705 39.5097 8.74705 40.0987C8.74705 40.2358 8.82306 40.3272 8.97002 40.3272C9.13888 40.3272 9.30314 40.0972 9.48466 39.8428L9.51225 39.8042L9.50212 39.9007C9.47678 40.1749 9.56293 40.3272 9.70482 40.3272C9.87205 40.3272 10.0241 40.0683 10.1406 39.8093H10.0646C9.98354 39.9261 9.90752 39.9972 9.84671 39.9972C9.7859 39.9972 9.74029 39.8855 9.84671 39.6417L10.2876 38.6262ZM7.73326 40.2714C7.51535 40.3577 7.36333 40.4592 7.36333 40.6167C7.36333 40.7639 7.50015 40.8248 7.78393 40.8248C8.164 40.8248 8.37177 40.7131 8.37177 40.5659C8.37177 40.4999 8.28562 40.4694 8.05758 40.3932C7.91062 40.3475 7.8042 40.3069 7.73326 40.2714ZM7.98631 39.6468C7.88496 39.6468 7.84948 39.5605 7.84948 39.4691C7.84948 39.1746 7.99138 38.809 8.21942 38.809C8.32077 38.809 8.35624 38.8953 8.35624 38.9867C8.35117 39.2863 8.20928 39.6468 7.98631 39.6468ZM8.17938 40.1241C8.4581 40.2104 8.6304 40.2764 8.6304 40.4694C8.6304 40.7182 8.17431 41.0127 7.62195 41.0076C7.30269 41.0076 7.02904 40.9213 7.02904 40.7131C7.02904 40.5151 7.21148 40.3526 7.65742 40.2206C7.59661 40.18 7.57127 40.1292 7.57127 40.0581C7.57127 39.9362 7.68276 39.8398 7.87533 39.7484C7.68783 39.723 7.56621 39.5808 7.56621 39.3726C7.56621 39.0527 7.82972 38.6871 8.24526 38.6871C8.33141 38.6871 8.40742 38.7074 8.46823 38.7481H8.92431L8.87364 38.9207H8.60506C8.62026 38.9664 8.6304 39.0172 8.6304 39.073C8.6304 39.3828 8.38208 39.7382 7.98681 39.7585C7.88546 39.8144 7.83479 39.8905 7.83479 39.9515C7.83479 40.0231 7.91769 40.0474 8.10089 40.101C8.12526 40.1081 8.15141 40.1157 8.17938 40.1241ZM6.57263 39.2558C6.77027 39.2558 6.77534 39.3421 6.74493 39.5605H6.85642L7.11993 38.8395H7.00844C6.91216 39.0121 6.83108 39.1441 6.61824 39.1441H6.18243L6.39527 38.55C6.47128 38.3368 6.50676 38.2961 6.7804 38.2961H6.97297C7.25169 38.2961 7.28209 38.3723 7.28209 38.6668H7.39358L7.4848 38.1743H5.83277L5.80236 38.2657C6.12162 38.3317 6.15203 38.3621 6.00507 38.7734L5.67567 39.662C5.52365 40.0733 5.46284 40.1038 5.0929 40.1698L5.06757 40.2663H6.90203L7.23142 39.7433H7.10473C6.89189 39.9515 6.67905 40.1444 6.26351 40.1444C5.80644 40.1444 5.81458 40.1221 5.95173 39.7446C5.96055 39.7202 5.96992 39.6945 5.97973 39.6671L6.13176 39.2609H6.57263V39.2558Z" fill="#F1F1F1"/>
<path fill-rule="evenodd" clip-rule="evenodd" d="M8.08738 34.9042C8.18873 34.9042 8.27488 34.8179 8.27488 34.7163C8.27488 34.6148 8.18873 34.5284 8.08738 34.5284C7.98096 34.5284 7.89988 34.6148 7.89988 34.7163C7.89988 34.823 7.98096 34.9042 8.08738 34.9042ZM9.58791 35.5437C9.58791 35.3 9.5271 35.2086 9.3548 35.2086C9.14197 35.2086 8.94433 35.4371 8.7467 35.7113L9.17237 34.5688L9.14703 34.5333L8.62507 34.5942V34.6551L8.72643 34.7313C8.81468 34.8001 8.78909 34.8689 8.71393 35.071L8.70616 35.0918L8.24501 36.3003C8.20447 36.4019 8.15886 36.5237 8.15886 36.5542C8.15886 36.6964 8.35143 36.8335 8.52879 36.8335C8.92406 36.8385 9.58791 36.1074 9.58791 35.5437ZM13.9814 35.0258L14.4527 34.5942V34.5333H14.1385L13.8598 35.0258H13.9814ZM14.0119 36.2597H14.1133C13.9207 36.6202 13.6876 36.8385 13.4647 36.8335C13.2721 36.8335 13.1505 36.6964 13.1505 36.4374C13.1505 35.889 13.5964 35.2035 13.9866 35.2035C14.2096 35.2035 14.4072 35.3711 14.2451 35.757L13.419 36.0312C13.4038 36.1023 13.3937 36.1835 13.3937 36.2597C13.3937 36.4476 13.4647 36.5339 13.6065 36.5339C13.7434 36.5339 13.8853 36.412 14.0119 36.2597ZM13.9861 35.7113C14.0368 35.5183 13.9405 35.432 13.829 35.432C13.7074 35.432 13.5554 35.6097 13.4743 35.8484L13.9861 35.7113ZM12.4906 35.4424H12.217V35.3155L12.5565 35.2698L12.8403 34.8384H12.9974L12.8454 35.2698H13.2457L13.195 35.4424H12.7846L12.3842 36.5646C12.5667 36.5341 12.8099 36.3615 12.9214 36.2041H12.9974C12.8555 36.5798 12.4856 36.8439 12.1765 36.8439C12.07 36.8439 12.0143 36.7423 12.0548 36.6408L12.4906 35.4424ZM12.0761 35.5745C12.1318 35.3815 12.1014 35.2089 11.9544 35.2089C11.7712 35.2089 11.7138 35.3302 11.5362 35.7057L11.5237 35.7319V35.5084C11.5237 35.351 11.473 35.2089 11.3311 35.2089C11.1639 35.2089 11.0119 35.4678 10.8953 35.7268H10.9714C11.0524 35.61 11.1285 35.5389 11.1842 35.5389C11.2551 35.5389 11.2957 35.6506 11.1842 35.8944L10.8599 36.6154C10.7991 36.7525 10.8649 36.8388 10.9967 36.8388C11.0778 36.8388 11.1133 36.8185 11.1487 36.7322L11.468 35.8893C11.5592 35.7776 11.6403 35.6811 11.7416 35.5745H12.0761ZM10.4698 35.7113C10.5205 35.5183 10.4242 35.432 10.3127 35.432C10.1911 35.432 10.0441 35.6097 9.95797 35.8484L10.4698 35.7113ZM10.5962 36.2597H10.4948C10.3681 36.412 10.2262 36.5339 10.0894 36.5339C9.94751 36.5339 9.87659 36.4476 9.87659 36.2597C9.87659 36.1835 9.88672 36.1023 9.90192 36.0312L10.7279 35.757C10.8901 35.3711 10.6975 35.2035 10.4695 35.2035C10.0793 35.2035 9.63334 35.889 9.63334 36.4374C9.63334 36.6964 9.75496 36.8335 9.94751 36.8335C10.1705 36.8385 10.4036 36.6202 10.5962 36.2597ZM8.46818 36.4529C8.46818 36.5189 8.58474 36.5951 8.66582 36.5951C8.99521 36.5951 9.30433 36.001 9.29926 35.6709C9.29926 35.5592 9.24352 35.5135 9.16751 35.5135C9.04589 35.5135 8.82291 35.6963 8.68102 35.869L8.54926 36.2244C8.50366 36.3412 8.46818 36.4326 8.46818 36.4529ZM7.93619 35.2089C7.997 35.2089 8.06795 35.2698 8.03754 35.3815L7.55105 36.5748C7.67774 36.5545 7.8095 36.4326 7.88551 36.3209H7.96153C7.84497 36.6205 7.58146 36.8388 7.35342 36.8388C7.29261 36.8388 7.21153 36.7779 7.25207 36.6662L7.70815 35.4729C7.58146 35.4932 7.4497 35.6151 7.37369 35.7268H7.29768C7.41423 35.4272 7.69801 35.2089 7.93619 35.2089ZM5.83277 34.681H6.92227L6.89186 34.7775C6.52193 34.8433 6.46112 34.8737 6.30909 35.285L5.98477 36.1787C5.8277 36.6052 5.86824 36.656 6.14693 36.656C6.4913 36.656 6.71708 36.4052 6.91424 36.1863C6.92888 36.1701 6.94338 36.1538 6.95774 36.1381H7.08443L6.72464 36.7779H5.06757L5.09797 36.6865C5.46284 36.6205 5.52365 36.59 5.67567 36.1787L6.00504 35.2799C6.152 34.8687 6.12159 34.8382 5.80236 34.7724L5.83277 34.681Z" fill="#F1F1F1"/>
</svg>
