<svg width="60" height="44" viewBox="0 0 60 44" fill="none" xmlns="http://www.w3.org/2000/svg">
<path d="M5.89026 5.83179C5.89248 5.83179 5.89467 5.82854 5.89467 5.82854C5.91227 5.81551 5.92988 5.79927 5.9453 5.77977C5.94311 5.77977 5.94089 5.77977 5.9387 5.77649C5.92328 5.79277 5.90568 5.81226 5.89026 5.83179Z" fill="#F1F1F1"/>
<path d="M8.32967 5.01001L8.29114 5.04317C8.31315 5.03766 8.32967 5.03213 8.32967 5.01001Z" fill="#F1F1F1"/>
<path fill-rule="evenodd" clip-rule="evenodd" d="M7.54099 5.84954C7.61165 5.77845 7.6823 5.70308 7.75296 5.62553H7.75084C7.88357 5.4748 8.01205 5.33047 8.16619 5.1991C8.21331 5.15603 8.25827 5.11942 8.30107 5.08925C8.30737 5.08295 8.31059 5.0735 8.31374 5.06429C8.31702 5.05464 8.32024 5.04522 8.32677 5.03972C8.29627 5.05139 8.27193 5.06979 8.24749 5.08832C8.22216 5.10749 8.1967 5.12675 8.16407 5.13879C8.15121 5.13879 8.13837 5.12589 8.15121 5.11296C8.19617 5.08066 8.24113 5.04618 8.28396 5.01173H8.27541C8.26255 5.01173 8.26255 4.9988 8.26255 4.9859C8.10316 4.96057 7.98075 5.06959 7.87113 5.16717L7.8643 5.17327C7.84723 5.18183 7.83111 5.17334 7.81845 5.16664C7.81205 5.16326 7.80654 5.16034 7.8022 5.16034C7.70525 5.19283 7.62163 5.25278 7.53748 5.31313C7.45992 5.3687 7.38194 5.4246 7.29261 5.45971V5.43385C7.26231 5.44433 7.23234 5.45795 7.20226 5.47162C7.15806 5.49174 7.1137 5.5119 7.06781 5.52218C6.98402 5.54161 6.90627 5.53912 6.83094 5.53667C6.80621 5.53587 6.7817 5.53508 6.75733 5.53508C6.62023 5.54867 6.48482 5.57805 6.3496 5.60739L6.30557 5.61694C6.30342 5.618 6.3013 5.61853 6.29914 5.6191C6.29702 5.61963 6.29486 5.62016 6.29274 5.62125C6.21137 5.64277 6.13644 5.67294 6.06147 5.71601L6.05292 5.72032C6.04997 5.72427 6.04705 5.72775 6.0443 5.731C6.04105 5.73485 6.0381 5.73836 6.03578 5.74184C6.01011 5.77201 5.98654 5.79784 5.95013 5.81724C5.89639 5.84426 5.84993 5.88597 5.80421 5.92699C5.78442 5.94476 5.76465 5.9625 5.74459 5.97875C5.74032 5.98306 5.73176 5.98521 5.72533 5.98521C5.65895 6.04983 5.59257 6.11446 5.52407 6.17689C5.51979 6.1812 5.50053 6.18336 5.48554 6.1812C5.48554 6.1812 5.48766 6.1812 5.48766 6.17905L5.4941 6.16612L5.52622 6.11446C5.53262 6.10474 5.53853 6.09506 5.54439 6.08538C5.5503 6.07566 5.5562 6.06598 5.5626 6.0563C5.57971 6.03047 5.59688 6.00458 5.61615 5.9809C5.62042 5.97444 5.62042 5.968 5.61615 5.96369C5.61187 5.95938 5.60544 5.95723 5.599 5.95723C5.66111 5.89692 5.73388 5.84522 5.80882 5.8V5.79784C5.80026 5.8 5.78743 5.79353 5.79383 5.78491C5.80013 5.77702 5.80527 5.76797 5.81008 5.75945L5.81525 5.75046C5.81631 5.74831 5.81688 5.74668 5.81741 5.74509C5.81794 5.74347 5.81847 5.74184 5.81953 5.73969C5.81847 5.73753 5.81688 5.73591 5.81525 5.73432C5.81366 5.73269 5.81203 5.73107 5.81097 5.72891L5.79798 5.7375C5.78246 5.74764 5.76651 5.75809 5.75318 5.76986C5.7437 5.77798 5.73488 5.78916 5.72586 5.8006C5.7062 5.82543 5.68544 5.85169 5.65467 5.85169C5.65252 5.85169 5.64184 5.85169 5.63541 5.84954C5.62898 5.84954 5.6247 5.84738 5.62254 5.84522C5.62254 5.84416 5.62281 5.84334 5.62281 5.84334C5.62281 5.84334 5.62364 5.84307 5.6247 5.84307C5.6247 5.84307 5.62686 5.84091 5.62686 5.83876C5.62686 5.83876 5.62685 5.8366 5.62898 5.8366C5.63004 5.83445 5.63113 5.83286 5.63219 5.83123C5.63325 5.82961 5.63435 5.82798 5.63541 5.82583C5.63647 5.82367 5.63753 5.82208 5.63863 5.82046C5.63969 5.81883 5.64075 5.81724 5.64184 5.81509C5.6429 5.81399 5.64343 5.81237 5.64396 5.81077C5.64449 5.80915 5.64502 5.80753 5.64612 5.80646L5.64854 5.80202C5.65066 5.79824 5.65318 5.79373 5.65467 5.78922C5.65574 5.78707 5.65683 5.78548 5.65789 5.78385C5.65895 5.78223 5.66004 5.7806 5.66111 5.77845C5.66432 5.77414 5.66698 5.7693 5.66966 5.76446C5.67235 5.75961 5.67503 5.75477 5.67821 5.75046C5.68037 5.74615 5.68252 5.74184 5.6868 5.73753C5.68892 5.73322 5.69108 5.72947 5.6932 5.72569C5.69536 5.72191 5.69751 5.71817 5.69963 5.71386C5.70607 5.70308 5.69963 5.69446 5.69108 5.69231C5.71462 5.66217 5.74247 5.6363 5.77672 5.61694H5.77245C5.80199 5.60205 5.83239 5.58465 5.8626 5.56737C5.8804 5.55716 5.89844 5.54681 5.91588 5.53723C5.92231 5.53077 5.92875 5.52433 5.9373 5.52002C5.86664 5.5437 5.80242 5.57603 5.74032 5.6191C5.74032 5.6191 5.72318 5.62553 5.7189 5.62984C5.7189 5.62984 5.70607 5.63415 5.68892 5.6191C5.6868 5.61694 5.6868 5.61479 5.6868 5.61048C5.69423 5.59549 5.70958 5.58558 5.72616 5.57487C5.73823 5.56707 5.75093 5.55888 5.76174 5.54801C5.77457 5.54801 5.78528 5.54801 5.78528 5.56094C6.03186 5.36757 6.33594 5.32284 6.64102 5.27795C6.82865 5.25033 7.01668 5.22267 7.19198 5.16034C7.21019 5.14741 7.22892 5.13504 7.24765 5.12264C7.26639 5.11027 7.28512 5.09787 7.30332 5.08494C7.33456 5.07194 7.36254 5.0497 7.39218 5.02612C7.42146 5.00281 7.45236 4.97824 7.4896 4.96004C7.58811 4.88468 7.66304 4.7985 7.70157 4.67145C7.70157 4.65851 7.68874 4.64558 7.68874 4.64558C7.526 4.82005 7.33973 4.95789 7.14059 5.05911C6.95074 5.15931 6.74729 5.17417 6.54589 5.18886C6.47023 5.19436 6.39483 5.19986 6.32056 5.20988C6.33339 5.18401 6.35909 5.18401 6.38266 5.18401C6.38266 5.15344 6.39732 5.14028 6.41612 5.1234C6.42112 5.11889 6.42646 5.11409 6.4319 5.10865H6.46831C6.4747 5.10865 6.47792 5.10218 6.48114 5.09572C6.48435 5.08925 6.48757 5.08282 6.494 5.08282C6.5197 5.08282 6.55607 5.06989 6.54324 5.06989C6.52361 5.04462 6.49506 5.05464 6.46356 5.06564C6.43329 5.07625 6.40027 5.08783 6.3698 5.06989C6.38114 5.05745 6.38452 5.04253 6.38763 5.02897C6.39098 5.01432 6.39397 5.00122 6.4062 4.99449H6.45544C6.45544 4.96866 6.48114 4.94495 6.48114 4.94495C6.59281 4.87781 6.70063 4.81919 6.80644 4.76166C6.87713 4.72324 6.94699 4.68527 7.01642 4.64558C7.00236 4.64558 6.98993 4.65138 6.97782 4.65699C6.95859 4.66591 6.94029 4.6744 6.91794 4.65851C6.93077 4.65851 6.93077 4.64936 6.93077 4.64021C6.93077 4.63106 6.93077 4.62191 6.94364 4.62191C7.02394 4.60046 7.09543 4.56567 7.16847 4.53013C7.22 4.50506 7.27232 4.4796 7.32902 4.45821C7.31218 4.45821 7.29663 4.46276 7.28144 4.46717C7.2522 4.47565 7.22441 4.48374 7.19198 4.45821C7.2005 4.45394 7.20737 4.4485 7.21413 4.44309C7.22783 4.43222 7.24115 4.42161 7.26692 4.42161V4.385C7.26692 4.37207 7.27978 4.37207 7.29261 4.37207C7.27978 4.37207 7.26692 4.35914 7.26692 4.35914C7.27375 4.34548 7.28714 4.34266 7.30206 4.33951C7.31533 4.33673 7.32978 4.33368 7.34189 4.32254C7.32902 4.32254 7.30548 4.32254 7.30548 4.30961C7.34188 4.26007 7.40395 4.24717 7.46606 4.23424C7.45962 4.22131 7.44732 4.22131 7.43661 4.22131C7.4259 4.22131 7.41682 4.22131 7.41682 4.20838C7.41682 4.19548 7.42965 4.19548 7.44251 4.19548H7.41682C7.39666 4.18533 7.40021 4.16723 7.40269 4.1547C7.40336 4.15125 7.40395 4.14827 7.40395 4.14594C7.45425 4.08666 7.4708 4.01673 7.48724 3.94717C7.4953 3.91312 7.50332 3.87913 7.51529 3.84657C7.50246 3.84657 7.4896 3.84657 7.4896 3.83364C7.36921 3.96726 7.17839 4.01789 6.99712 4.066L6.98001 4.07055H6.91794C6.85584 4.09641 6.76804 4.09641 6.70597 4.05762C6.67643 4.04213 6.65537 4.02277 6.63263 4.00185C6.61744 3.98789 6.6015 3.97323 6.58177 3.95854C6.48114 3.89611 6.38266 3.84657 6.27132 3.80778C5.96084 3.70874 5.63753 3.65705 5.31425 3.66995C5.40451 3.62028 5.5004 3.60055 5.59754 3.58052C5.64784 3.57018 5.69847 3.55973 5.74887 3.54505C5.78067 3.53566 5.81217 3.52601 5.8435 3.5164C6.02109 3.46196 6.19337 3.40914 6.38266 3.42011C6.35789 3.41133 6.32616 3.41451 6.29695 3.41743C6.28326 3.41882 6.27009 3.42011 6.25846 3.42011C6.11535 3.40947 5.97079 3.44133 5.81993 3.47459C5.78796 3.48162 5.75574 3.48871 5.72318 3.49551C5.66412 3.50781 5.60792 3.52545 5.55169 3.54316C5.48969 3.56262 5.42758 3.58215 5.36134 3.59458C5.33262 3.6045 5.30955 3.62134 5.2871 3.63779C5.25096 3.66421 5.21634 3.68951 5.16223 3.68288V3.64412C5.2864 3.49335 5.43627 3.34475 5.63541 3.33182C5.82788 3.30048 6.00938 3.3228 6.19871 3.34611C6.23051 3.35002 6.26253 3.35396 6.29486 3.35768C6.45007 3.37014 6.59526 3.40476 6.75176 3.44209L6.76804 3.44597C6.80233 3.44597 6.82159 3.47611 6.84022 3.50532C6.85541 3.52906 6.87016 3.55217 6.89225 3.55798C6.92272 3.56849 6.95319 3.57044 6.98369 3.5724C7.02816 3.57525 7.07259 3.5781 7.11705 3.60751C7.11705 3.59879 7.11559 3.59034 7.11416 3.58198C7.11131 3.56547 7.10853 3.54926 7.11705 3.53211C7.14467 3.50433 7.17633 3.51179 7.20753 3.51912C7.23194 3.52485 7.25601 3.53056 7.27763 3.51918C7.34553 3.47704 7.28184 3.41235 7.21811 3.34763C7.18737 3.3164 7.15664 3.28516 7.14059 3.25645C7.14059 3.24352 7.15345 3.23059 7.15345 3.23059C7.18157 3.25582 7.20777 3.28188 7.23373 3.30774C7.29875 3.37247 7.36234 3.43579 7.45107 3.48042C7.51317 3.50629 7.66304 3.54289 7.63734 3.46749C7.59338 3.36988 7.51824 3.28523 7.44238 3.19975C7.41115 3.16454 7.37978 3.12919 7.35044 3.09276V3.04322C7.33091 3.04322 7.32624 3.03576 7.3204 3.02651C7.31858 3.02359 7.31662 3.02047 7.31403 3.01739V2.96785C7.28263 2.95138 7.2756 2.92528 7.26854 2.89902C7.26453 2.8841 7.26048 2.86911 7.25193 2.85585C7.23048 2.82107 7.22895 2.77826 7.22736 2.73417C7.22607 2.69905 7.22478 2.66311 7.2134 2.62969C7.18771 2.55432 7.177 2.49186 7.16416 2.41649C7.15021 2.33937 7.13489 2.26563 7.11987 2.19345C7.09334 2.06603 7.06784 1.94345 7.05282 1.81559C7.033 1.63287 7.12527 1.47832 7.2196 1.32033C7.24759 1.27348 7.27574 1.22637 7.3012 1.17809C7.38897 1.02733 7.48748 0.878718 7.65018 0.777491C7.68569 0.630441 7.7823 0.507994 7.87843 0.386143L7.88572 0.376892C7.98058 0.258655 8.139 0.186374 8.25578 0.133091L8.26898 0.127056C8.44239 0.049536 8.59869 0 8.60084 0H0V6.63134H6.10216C6.26535 6.51303 6.42756 6.43836 6.62063 6.3495C6.70872 6.30899 6.80325 6.26548 6.90723 6.21353C6.92925 6.20245 6.95541 6.18956 6.98446 6.17527C7.15873 6.08952 7.43638 5.95292 7.54099 5.84954ZM5.60471 4.95487C5.5805 4.95729 5.55484 4.95987 5.56452 4.94041C5.57351 4.89684 5.61813 4.88375 5.66174 4.87101C5.6804 4.86554 5.69887 4.86014 5.71426 4.85241L5.72128 4.84877L5.72646 4.84605C5.7506 4.83322 5.78014 4.8175 5.80196 4.82665C5.81668 4.84757 5.83491 4.85298 5.85262 4.85822C5.86582 4.86213 5.87871 4.86594 5.88965 4.87602C5.8434 4.92247 5.78939 4.92705 5.73461 4.93169C5.69824 4.93478 5.66157 4.93789 5.62656 4.95331C5.62026 4.95331 5.61257 4.95407 5.60471 4.95487ZM3.71043 4.65201C3.71043 4.66491 3.72326 4.67784 3.72326 4.67784C4.02303 4.33971 4.29495 4.05112 4.68036 3.81206C4.69068 3.80771 4.68683 3.81312 4.68172 3.82028C4.67413 3.83099 4.66372 3.84561 4.6932 3.83789C4.82078 3.80881 4.87811 3.69949 4.93385 3.59316C4.94827 3.56564 4.96256 3.53835 4.97798 3.51269C5.03643 3.41756 5.11949 3.35665 5.20318 3.29524C5.26352 3.25098 5.3242 3.20645 5.37622 3.14869C5.37622 3.16162 5.37622 3.17455 5.36336 3.18745C5.37622 3.20038 5.38905 3.20038 5.40192 3.20038C5.4245 3.18334 5.44917 3.17628 5.47278 3.16951C5.50291 3.16093 5.5314 3.15277 5.55179 3.12502C5.45328 3.08622 5.32699 3.07333 5.22848 3.11209C4.96727 3.23699 4.74459 3.43729 4.53262 3.66345C4.40414 3.79913 4.27141 3.92618 4.10868 4.01448C3.99734 4.23849 3.87316 4.43878 3.71043 4.65201ZM4.75573 3.85098C4.749 3.86448 4.7423 3.87147 4.7359 3.87817C4.73007 3.88427 4.72446 3.89014 4.71936 3.90039C4.70653 3.92612 4.69369 3.93686 4.67015 3.94976C4.65732 3.94976 4.64449 3.94976 4.64449 3.93686C4.65732 3.88749 4.69369 3.83812 4.7429 3.82522C4.75573 3.82738 4.75573 3.84027 4.75573 3.85098ZM5.30325 5.76366C5.31392 5.75288 5.32675 5.73995 5.33319 5.72702C5.3439 5.70119 5.27758 5.70766 5.26687 5.71412C5.25716 5.72191 5.25099 5.72974 5.24353 5.73919L5.24121 5.74211C5.23229 5.75239 5.22185 5.76187 5.21124 5.77152C5.20404 5.77808 5.19678 5.78468 5.18988 5.79164C5.15991 5.82182 5.12997 5.85195 5.09787 5.87994C5.07649 5.89934 5.14496 5.90796 5.15991 5.89503C5.17702 5.88209 5.19201 5.86704 5.20699 5.85195C5.2127 5.85195 5.2184 5.85099 5.22218 5.85036L5.2248 5.84993L5.22622 5.8498C5.2617 5.8379 5.28809 5.81319 5.31376 5.78919L5.32035 5.78302C5.32891 5.7744 5.3182 5.76581 5.30325 5.76366ZM5.10964 5.62361L5.10911 5.6238C5.10911 5.6238 5.10885 5.62463 5.10885 5.62569C5.09572 5.63471 5.08275 5.6439 5.06982 5.65305C5.03633 5.67672 5.00304 5.70026 4.96753 5.72046C4.93358 5.73959 4.89877 5.75613 4.86362 5.77281C4.84336 5.78243 4.82304 5.79207 4.80268 5.80232C4.80268 5.80232 4.80268 5.80016 4.80052 5.80016C4.79625 5.7937 4.78769 5.79154 4.77914 5.79585C4.73202 5.82168 4.69134 5.85617 4.65493 5.89277C4.64853 5.89708 4.6421 5.90355 4.63782 5.90998L4.61853 5.92938V5.93153C4.60997 5.94015 4.60142 5.94877 4.59071 5.96167C4.58849 5.96393 4.58676 5.96615 4.58514 5.9683C4.58202 5.97235 4.57917 5.97609 4.57357 5.97891C4.56501 5.98322 4.54359 5.98322 4.54575 5.97029V5.96814C4.53932 5.97245 4.53076 5.97676 4.52433 5.97891C4.52111 5.98107 4.5179 5.98269 4.51471 5.98428C4.5115 5.98591 4.50828 5.98753 4.50507 5.98969C4.50291 5.98753 4.49863 5.98753 4.49651 5.98753C4.49436 5.98753 4.49008 5.98753 4.48792 5.98969C4.48295 5.994 4.47794 5.99804 4.47294 6.00212C4.46296 6.01028 4.45298 6.0184 4.44296 6.02845C4.41727 6.05216 4.39373 6.07798 4.37018 6.10597C4.37018 6.10597 4.37018 6.10812 4.36803 6.10812C4.36803 6.10922 4.3675 6.10975 4.36697 6.11028C4.36644 6.11084 4.36591 6.11137 4.36591 6.11243L4.3616 6.11675C4.3608 6.11757 4.36027 6.1184 4.35984 6.1191C4.35914 6.12023 4.35865 6.12105 4.35732 6.12105L4.3552 6.12321C4.35304 6.12752 4.35092 6.13183 4.34661 6.13614C4.34449 6.1383 4.34021 6.14045 4.3359 6.14045C4.33378 6.1383 4.33162 6.13614 4.33162 6.13399C4.33056 6.13289 4.33003 6.13183 4.3295 6.13074C4.32897 6.12968 4.32841 6.12858 4.32735 6.12752C4.32522 6.1243 4.3236 6.12106 4.32201 6.11784C4.32038 6.11459 4.31879 6.11137 4.31664 6.10812V6.10597C4.31664 6.10491 4.31611 6.10381 4.31557 6.10275C4.31504 6.10169 4.31451 6.1006 4.31451 6.09954L4.35304 6.05428L4.3552 6.05216C4.35732 6.05 4.35947 6.04731 4.3616 6.0446C4.36375 6.04191 4.36591 6.03922 4.36803 6.03707C4.37124 6.03276 4.37499 6.02845 4.37874 6.02414C4.38248 6.01983 4.38623 6.01552 4.38945 6.01121C4.39051 6.00905 4.39157 6.00746 4.39266 6.00583C4.39372 6.00421 4.39479 6.00262 4.39588 6.00046C4.40871 5.98322 4.42158 5.96598 4.43441 5.94662V5.94446C4.43656 5.94231 4.43869 5.94015 4.43869 5.93584C4.44512 5.92722 4.45155 5.9186 4.45583 5.90998L4.46866 5.88415V5.882L4.47081 5.87984C4.47081 5.87878 4.47134 5.87822 4.47187 5.87769C4.47241 5.87715 4.47294 5.87662 4.47294 5.87553C4.47509 5.87016 4.47721 5.86532 4.47937 5.86048C4.48149 5.85564 4.48365 5.85076 4.4858 5.84539V5.84324L4.48792 5.83461C4.48902 5.83246 4.48955 5.8303 4.49008 5.82815C4.49061 5.82599 4.49114 5.82384 4.49223 5.82168V5.81953C4.49329 5.81631 4.49383 5.81306 4.49436 5.80985C4.49489 5.80663 4.49542 5.80338 4.49651 5.80016C4.49651 5.79801 4.49651 5.7937 4.49436 5.79154C4.50722 5.76784 4.52433 5.74632 4.54359 5.72477C4.54253 5.72477 4.54147 5.7253 4.54038 5.72586C4.53978 5.72616 4.53855 5.72669 4.53855 5.72669L4.53719 5.72692C4.52765 5.73292 4.51946 5.74091 4.5111 5.74904C4.50444 5.75554 4.49767 5.7621 4.49008 5.76784C4.47721 5.77861 4.45155 5.76137 4.46866 5.74847C4.47937 5.73985 4.48792 5.73123 4.49648 5.72261C4.49648 5.72261 4.49651 5.72046 4.49863 5.72046C4.50719 5.71273 4.51538 5.70398 4.52363 5.69516C4.5361 5.68186 4.5487 5.66837 4.56286 5.65802C4.57788 5.64725 4.58855 5.63862 4.60142 5.62785C4.60354 5.62569 4.6057 5.62354 4.60785 5.62354C4.61641 5.61276 4.62496 5.60202 4.63567 5.59124C4.63567 5.59124 4.63782 5.59124 4.63782 5.58909C4.71133 5.51777 4.81465 5.4926 4.92012 5.46694C4.98663 5.45076 5.05401 5.43435 5.11528 5.40603C5.1499 5.39161 5.18849 5.39728 5.22665 5.40288C5.25693 5.40732 5.28693 5.41173 5.31442 5.40603C5.35079 5.40603 5.38935 5.40603 5.42573 5.43186C5.34108 5.47695 5.26027 5.52851 5.18033 5.57951C5.15719 5.5943 5.13408 5.60905 5.111 5.62354L5.10964 5.62361ZM5.37722 4.74578C5.36721 4.74694 5.36071 4.74767 5.36628 4.75328C5.40265 4.78991 5.47762 4.77698 5.52898 4.74897C5.56538 4.72314 5.60394 4.72314 5.65318 4.72314C5.66601 4.72314 5.66601 4.69943 5.66601 4.68653C5.70242 4.69943 5.72812 4.69943 5.76452 4.69943C6.06214 4.637 6.34904 4.57453 6.62308 4.4367C6.34579 4.2224 6.00391 4.12695 5.66906 4.03348C5.61349 4.01796 5.55812 4.00251 5.50328 3.98656C5.51535 3.98656 5.52742 3.99057 5.53955 3.99462C5.56402 4.00277 5.58886 4.01106 5.61462 3.98656C5.58067 3.95947 5.54284 3.95427 5.50537 3.94916C5.47437 3.94488 5.44363 3.94067 5.41551 3.92409C5.41843 3.92409 5.42195 3.92479 5.42573 3.92552C5.43856 3.92797 5.45484 3.93112 5.46475 3.9112C5.39973 3.87847 5.33468 3.86736 5.26903 3.85616C5.23524 3.85039 5.20132 3.84458 5.16714 3.8358C5.22924 3.82287 5.26777 3.77333 5.26777 3.7109C5.26777 3.69796 5.24207 3.69796 5.22924 3.69796C5.08149 3.77333 4.98086 3.9112 4.91876 4.0727C4.97476 4.10566 5.03508 4.10185 5.09423 4.0981C5.12781 4.09598 5.16104 4.09385 5.19283 4.09856C5.16475 4.12522 5.1242 4.13248 5.08517 4.13945C5.07065 4.14203 5.05633 4.14459 5.04297 4.1481C5.0044 4.15672 4.96803 4.1847 4.98086 4.21053C4.98942 4.22131 4.99801 4.22562 5.00872 4.22778C4.98086 4.2364 4.95517 4.24933 4.93163 4.273C4.96687 4.30075 5.00321 4.29541 5.03909 4.29011C5.05334 4.28802 5.0675 4.28593 5.08149 4.28593C5.08149 4.30158 5.09177 4.30689 5.10245 4.31242C5.10792 4.31524 5.11352 4.31816 5.1179 4.32254C5.0558 4.34624 5.00656 4.39794 4.9937 4.43454C4.97838 4.47184 4.95003 4.49608 4.92194 4.52012C4.90301 4.53633 4.88418 4.55241 4.86952 4.57237V4.61113C4.82818 4.6478 4.78564 4.68056 4.74373 4.71286C4.65759 4.7792 4.57393 4.84366 4.50768 4.93637C4.52052 4.93637 4.52052 4.94926 4.52052 4.9622C4.50868 4.98007 4.49184 4.99247 4.47585 5.00421C4.45715 5.01793 4.43965 5.03076 4.43275 5.05049C4.43275 5.06342 4.43275 5.07635 4.44558 5.07635C4.52416 5.05039 4.59213 5.00666 4.65878 4.96379C4.71926 4.92489 4.77864 4.8867 4.84383 4.86312C4.89711 4.85032 4.9435 4.82615 4.98876 4.80258C5.02715 4.78259 5.06475 4.76299 5.10504 4.75112C5.1361 4.74469 5.17035 4.73554 5.2046 4.72635C5.23886 4.7172 5.27314 4.70805 5.30417 4.70158C5.30417 4.71452 5.30417 4.72745 5.31701 4.72745H5.41551C5.40945 4.7421 5.39032 4.74429 5.37722 4.74578Z" fill="#F1F1F1"/>
<path d="M18.2361 0H11.1036C11.1036 0 11.1165 0.00215505 11.1705 0.0301724C11.2287 0.0603782 11.3041 0.101327 11.3494 0.125034C11.4421 0.172481 11.5305 0.232826 11.5888 0.325532C11.6146 0.36217 11.6513 0.437635 11.6276 0.487204C11.6017 0.549738 11.5888 0.651065 11.5262 0.674772C11.4508 0.713565 11.3516 0.713565 11.2632 0.700634C11.2136 0.700634 11.164 0.687703 11.1122 0.674772C11.2998 0.750237 11.4766 0.838632 11.6017 1.01324C11.6146 1.0391 11.6642 1.04991 11.7138 1.04991C11.7267 1.04991 11.7267 1.07577 11.7267 1.08654C11.7009 1.11241 11.6772 1.12534 11.6901 1.16201H11.7267C11.7893 1.13611 11.7763 1.01108 11.8647 1.04991C11.9273 1.08654 11.9531 1.17494 11.9143 1.23744C11.8647 1.28704 11.8152 1.32584 11.7634 1.36247C11.7505 1.38837 11.7505 1.42501 11.7634 1.45087C11.8 1.50047 11.813 1.55004 11.8259 1.60177C11.8647 1.69016 11.8755 1.78933 11.9143 1.87773C11.9639 2.0653 12.0135 2.25283 12.0027 2.44255C12.0027 2.54172 11.9531 2.63012 11.9898 2.73145C12.0157 2.83062 12.0782 2.90605 12.1278 2.99445C12.1774 3.06991 12.227 3.11948 12.2658 3.19494C12.3413 3.31998 12.4793 3.44501 12.4167 3.59594C12.38 3.6843 12.2421 3.67137 12.1537 3.72098C12.0782 3.78348 12.1407 3.8848 12.1795 3.94734C12.242 4.05944 12.1041 4.13487 12.0157 4.1737C12.0416 4.21249 12.0911 4.19956 12.1041 4.22327C12.117 4.2858 12.1795 4.32244 12.1407 4.38713C12.0911 4.46256 11.9402 4.49923 12.0157 4.61349C12.0653 4.70188 12.0329 4.79887 12.0027 4.88942C11.9661 5.00152 11.8647 5.05112 11.7763 5.07698C11.7009 5.10285 11.6125 5.10285 11.5392 5.08992C11.5133 5.07698 11.4896 5.06405 11.4637 5.06405C11.2502 5.03819 11.0368 4.97781 10.8255 4.97781C10.763 4.99074 10.7004 5.00152 10.6508 5.02738C10.5948 5.06836 10.543 5.11362 10.4999 5.16107C10.4999 5.16107 10.4999 5.16107 10.4977 5.16322C10.4891 5.174 10.4783 5.18262 10.4697 5.1934C10.4654 5.19986 10.4589 5.20633 10.4546 5.21279C10.4503 5.2171 10.4481 5.22141 10.4438 5.22573C10.4072 5.27102 10.3748 5.32059 10.3447 5.37019C10.3425 5.3745 10.3403 5.37665 10.3382 5.37881C10.336 5.38528 10.3317 5.38958 10.3274 5.39605C10.2864 5.47148 10.2563 5.5491 10.2325 5.62672C10.1463 5.91346 10.1851 6.15922 10.2455 6.21956C10.2627 6.2368 10.6594 6.35972 10.9354 6.4826C11.0648 6.54079 11.1554 6.58392 11.2308 6.63134H18.234V0H18.2361Z" fill="#F1F1F1"/>
<path d="M11.5274 2.41862C11.577 2.43156 11.6525 2.43156 11.6525 2.45738C11.6266 2.55642 11.4778 2.58225 11.4023 2.68345H11.3635C11.3268 2.70931 11.3376 2.77174 11.3009 2.77174C11.2643 2.75881 11.2255 2.77174 11.1888 2.78464C11.2384 2.83418 11.3009 2.87294 11.3764 2.86001C11.3894 2.86001 11.4131 2.88583 11.4131 2.90951C11.4131 2.90951 11.426 2.90951 11.439 2.89661C11.4519 2.89661 11.4649 2.89661 11.4649 2.90951V2.95904C11.4282 3.00855 11.3635 2.98487 11.3139 2.99565C11.4153 3.02148 11.5145 3.02148 11.6029 2.99565C11.6784 2.96982 11.6029 2.84492 11.6525 2.78249C11.6266 2.78249 11.6525 2.74376 11.6266 2.74376C11.6525 2.7179 11.6762 2.68129 11.7021 2.66839C11.728 2.66839 11.7646 2.65546 11.7776 2.62963C11.7776 2.6038 11.728 2.59303 11.7387 2.5672C11.8142 2.51766 11.8768 2.44233 11.8509 2.36697C11.8379 2.32821 11.7387 2.32821 11.6762 2.30453C11.6137 2.28086 11.5382 2.30453 11.4627 2.31743C11.4001 2.31743 11.3376 2.35619 11.2751 2.36697C11.1866 2.3928 11.1112 2.44233 11.0378 2.49183C11.1263 2.45523 11.2125 2.44233 11.3139 2.41647C11.3894 2.41862 11.4519 2.40142 11.5274 2.41862Z" fill="#F1F1F1" fill-opacity="0.501961"/>
<path d="M0.683044 14.9205V10.2786H1.85679L2.99075 12.2282L4.12471 10.2786H5.29845V14.9205H4.3568V11.5916L3.32232 13.329H2.65918L1.62469 11.5916V14.9205H0.683044ZM6.69346 14.9205V10.2786H7.63511V14.9205H6.69346ZM9.03206 14.9205V10.2786H10.239L12.3146 13.634V10.2786H13.2562V14.9205H12.0493L9.97371 11.5651V14.9205H9.03206ZM14.6539 14.9205V10.2786H15.5956V14.9205H14.6539ZM16.5747 14.2773L17.2578 13.6473C17.5363 14.0054 17.9076 14.2176 18.2856 14.2176C18.657 14.2176 18.8824 14.0187 18.8824 13.6871C18.8824 12.8316 16.7737 13.0637 16.7737 11.4921C16.7737 10.756 17.3838 10.146 18.2724 10.146C18.9687 10.146 19.4992 10.4576 19.897 10.9285L19.2074 11.5518C18.9355 11.2003 18.6305 10.9682 18.279 10.9682C17.9474 10.9682 17.7286 11.1804 17.7286 11.459C17.7286 12.3011 19.8374 12.0624 19.8374 13.6539C19.8241 14.5293 19.1477 15.0531 18.2923 15.0531C17.5098 15.0531 16.9859 14.768 16.5747 14.2773ZM20.4143 11.134V10.2786H24.2207V11.134H22.7883V14.9205H21.8467V11.134H20.4143ZM26.0823 9.8807L25.2268 8.98547H26.195L26.9445 9.8807H26.0823ZM25.1472 14.9205V10.2786H27.853V11.0611H26.0889V12.1619H27.5877V12.9444H26.0889V14.138H27.853V14.9205H25.1472ZM29.0466 14.9205V10.2786H30.4657C31.4869 10.2786 32.1169 10.8025 32.1169 11.6645C32.1169 12.2282 31.845 12.646 31.3676 12.8648L32.8198 14.9205H31.7124L30.4723 13.0439H29.9882V14.9205H29.0466ZM30.5188 11.0611H29.9882V12.2614H30.5188C30.9166 12.2614 31.1487 12.0293 31.1487 11.6513C31.1487 11.2998 30.9166 11.0611 30.5188 11.0611ZM33.5158 14.9205V10.2786H36.2214V11.0611H34.4574V12.1619H35.9561V12.9444H34.4574V14.138H36.2214V14.9205H33.5158ZM0.683044 21.8834V17.2415H2.50666C3.97882 17.2415 4.97352 18.3091 4.97352 19.5625C4.97352 20.8158 3.97882 21.8834 2.50666 21.8834H0.683044ZM2.51992 18.0969H1.62469V21.028H2.51992C3.382 21.028 4.00534 20.3847 4.00534 19.5625C4.00534 18.7335 3.382 18.0969 2.51992 18.0969ZM5.98112 21.8834V17.2415H8.6867V18.024H6.92277V19.1248H8.42145V19.9073H6.92277V21.1009H8.6867V21.8834H5.98112ZM11.7009 21.8834V17.2415H12.6426V21.028H14.4065V21.8834H11.7009ZM14.9519 21.8834L16.7092 17.2415H17.9426L19.6999 21.8834H18.6986L18.2543 20.6765H16.3975L15.9532 21.8834H14.9519ZM16.6893 19.8741H17.9625L17.3259 18.1301L16.6893 19.8741ZM21.7531 17.2415H22.7545L24.1271 20.8688L25.4998 17.2415H26.5012L24.7439 21.8834H23.5104L21.7531 17.2415ZM27.3175 21.8834V17.2415H28.2591V21.8834H27.3175ZM29.656 21.8834V17.2415H30.5977V21.028H32.3616V21.8834H29.656ZM33.2897 21.8834V17.2415H34.2313V21.028H35.9952V21.8834H33.2897ZM36.9236 21.8834V17.2415H39.6292V18.024H37.8653V19.1248H39.364V19.9073H37.8653V21.1009H39.6292V21.8834H36.9236ZM0.683044 28.8463V24.2044H3.38863V24.9869H1.62469V26.0877H3.12338V26.8702H1.62469V28.0638H3.38863V28.8463H0.683044ZM4.202 25.0598V24.2044H8.00838V25.0598H6.57601V28.8463H5.63436V25.0598H4.202ZM10.7554 28.8463V24.2044H12.579C14.0512 24.2044 15.0459 25.272 15.0459 26.5254C15.0459 27.7787 14.0512 28.8463 12.579 28.8463H10.7554ZM12.5923 25.0598H11.6971V27.9909H12.5923C13.4544 27.9909 14.0777 27.3476 14.0777 26.5254C14.0777 25.6964 13.4544 25.0598 12.5923 25.0598ZM18.791 27.1089V24.2044H19.7327V27.0293C19.7327 28.2495 19.0165 28.979 17.8494 28.979C16.6889 28.979 15.9727 28.2495 15.9727 27.0293V24.2044H16.9143V27.1089C16.9143 27.7323 17.2658 28.097 17.856 28.097C18.4329 28.097 18.791 27.7323 18.791 27.1089ZM22.8224 28.8463V24.2044H23.764V27.9909H25.528V28.8463H22.8224ZM28.3566 24.0718C29.8155 24.0718 30.8168 25.1991 30.8168 26.5254C30.8168 27.8516 29.8155 28.979 28.3566 28.979C26.8911 28.979 25.8899 27.8516 25.8899 26.5254C25.8899 25.1991 26.8911 24.0718 28.3566 24.0718ZM28.3566 28.097C29.2253 28.097 29.8487 27.414 29.8487 26.5254C29.8487 25.6368 29.2253 24.9537 28.3566 24.9537C27.4813 24.9537 26.8579 25.6368 26.8579 26.5254C26.8579 27.414 27.4813 28.097 28.3566 28.097ZM34.0708 28.097C34.5085 28.097 34.8865 27.9445 35.1517 27.6925V26.8835H33.9714V26.0811H36.0934V28.0307C35.6623 28.6076 34.9395 28.979 34.0708 28.979C32.5655 28.979 31.5377 27.8516 31.5377 26.5254C31.5377 25.1991 32.539 24.0718 34.0045 24.0718C34.8467 24.0718 35.5364 24.4498 35.9608 25.0134L35.2181 25.5903C34.9528 25.2124 34.535 24.9537 34.0045 24.9537C33.1292 24.9537 32.5058 25.6368 32.5058 26.5254C32.5058 27.414 33.1623 28.097 34.0708 28.097ZM37.2399 28.8463V24.2044H39.9455V24.9869H38.1816V26.0877H39.6803V26.8702H38.1816V28.0638H39.9455V28.8463H37.2399ZM41.1395 28.8463V24.2044H42.3132L43.4472 26.154L44.5812 24.2044H45.7549V28.8463H44.8133V25.5174L43.7788 27.2548H43.1156L42.0812 25.5174V28.8463H41.1395ZM47.1498 28.8463V24.2044H49.8554V24.9869H48.0915V26.0877H49.5901V26.8702H48.0915V28.0638H49.8554V28.8463H47.1498ZM51.049 28.8463V24.2044H52.2559L54.3316 27.5598V24.2044H55.2732V28.8463H54.0663L51.9907 25.4909V28.8463H51.049ZM56.1936 25.0598V24.2044H60V25.0598H58.5676V28.8463H57.626V25.0598H56.1936Z" fill="#F1F1F1"/>
<path fill-rule="evenodd" clip-rule="evenodd" d="M17.2282 40.6836L16.6115 41.2472H16.4523L16.8171 40.604H17.2282V40.6836ZM16.7839 42.865H16.6513C16.4855 43.0639 16.2998 43.2231 16.1208 43.2231C15.9351 43.2231 15.8423 43.1103 15.8423 42.865C15.8423 42.7655 15.8555 42.6594 15.8754 42.5665L16.9563 42.2085C17.1685 41.7045 16.9165 41.4856 16.6181 41.4856C16.1075 41.4856 15.524 42.3809 15.524 43.0971C15.524 43.4353 15.6831 43.6209 15.9351 43.6209C16.2269 43.6143 16.5319 43.3292 16.7839 42.865ZM16.413 41.7778C16.5588 41.7778 16.6849 41.8905 16.6185 42.1491L15.9488 42.3282C16.0549 42.0098 16.2538 41.7778 16.413 41.7778ZM14.3045 41.7907H14.6626L14.0923 43.3557C14.0392 43.4883 14.1122 43.6209 14.2514 43.6209C14.656 43.6209 15.14 43.2761 15.3257 42.7854H15.2262C15.0804 42.991 14.7621 43.2164 14.5233 43.2562L15.0472 41.7907H15.5843L15.6507 41.5652H15.1268L15.3257 41.0016H15.1201L14.7488 41.5652L14.3045 41.6249V41.7907ZM13.8067 41.4926C13.8797 41.4926 13.9792 41.5722 13.9328 41.7181L13.2895 43.2764C13.4553 43.2499 13.6277 43.0908 13.7272 42.9449H13.8333C13.6807 43.3361 13.3359 43.6213 13.0375 43.6213C12.9646 43.6213 12.8585 43.5417 12.9115 43.3958L13.5083 41.8374C13.3425 41.864 13.1701 42.0231 13.0707 42.169H12.9712C13.1237 41.7711 13.4951 41.4926 13.8067 41.4926ZM13.9929 41.0947C14.1255 41.0947 14.2382 40.9886 14.2382 40.8494C14.2382 40.7167 14.1255 40.604 13.9929 40.604C13.8536 40.604 13.7475 40.7167 13.7475 40.8494C13.7475 40.982 13.8603 41.0947 13.9929 41.0947ZM11.0949 42.3878C11.2407 42.0695 11.1877 41.9236 11.0949 41.9236C11.0153 41.9236 10.9224 42.0098 10.8296 42.169H10.7301C10.8826 41.8308 11.0816 41.4926 11.3004 41.4926C11.4861 41.4926 11.5524 41.6783 11.5524 41.8839V42.1756C11.5823 42.1408 11.6113 42.107 11.6397 42.0735L11.6402 42.0728L11.6406 42.0725C11.9208 41.7436 12.1347 41.4926 12.3813 41.4926C12.5736 41.4926 12.6731 41.612 12.6731 41.791C12.6731 41.8971 12.64 42.0297 12.567 42.169L12.0166 43.2764C12.1824 43.2499 12.3548 43.0908 12.4543 42.9449H12.5538C12.4012 43.3427 12.0299 43.6213 11.7182 43.6213C11.5789 43.6213 11.4994 43.4754 11.5591 43.356L12.1957 42.1292C12.2686 41.99 12.2819 41.8971 12.1691 41.8971C12.0166 41.8971 11.6585 42.1491 11.4662 42.3812L11.0484 43.482C11.002 43.5947 10.9556 43.6213 10.8495 43.6213C10.677 43.6213 10.5908 43.5085 10.6704 43.3295L11.0949 42.3878ZM10.6633 41.9631C10.7363 41.7111 10.6965 41.4856 10.5041 41.4856C10.2643 41.4856 10.1892 41.6441 9.95682 42.1342L9.94047 42.1687V41.8769C9.94047 41.6713 9.87416 41.4856 9.68848 41.4856C9.46965 41.4856 9.27071 41.8238 9.11819 42.162H9.21766C9.32376 42.0095 9.42323 41.9167 9.50281 41.9167C9.59564 41.9167 9.64869 42.0626 9.50281 42.3809L9.0784 43.3225C8.99882 43.5016 9.08503 43.6143 9.25745 43.6143C9.36355 43.6143 9.40997 43.5878 9.45639 43.475L9.87416 42.3742C9.99352 42.2284 10.0996 42.1024 10.2323 41.9631H10.6633ZM8.56792 42.1491C8.63423 41.8905 8.50824 41.7778 8.36235 41.7778C8.2032 41.7778 8.00426 42.0098 7.89815 42.3282L8.56792 42.1491ZM8.7333 42.865H8.60068C8.43489 43.0639 8.24922 43.2231 8.07014 43.2231C7.88446 43.2231 7.79162 43.1103 7.79162 42.865C7.79162 42.7655 7.80488 42.6594 7.82478 42.5665L8.90572 42.2085C9.11792 41.7045 8.86593 41.4856 8.56752 41.4856C8.05688 41.4856 7.47332 42.3809 7.47332 43.0971C7.47332 43.4353 7.63247 43.6209 7.88446 43.6209C8.17627 43.6143 8.48131 43.3292 8.7333 42.865ZM6.61194 41.7907H6.25385V41.6249L6.69818 41.5652L7.06954 41.0016H7.27511L7.07617 41.5652H7.60004L7.53373 41.7907H6.99659L6.47268 43.2562C6.71144 43.2164 7.02975 42.991 7.17564 42.7854H7.27511C7.08943 43.2761 6.60531 43.6209 6.2008 43.6209C6.06154 43.6209 5.98859 43.4883 6.04165 43.3557L6.61194 41.7907ZM4.35758 43.0042C4.35758 42.5201 4.89475 41.8706 5.19317 41.8706C5.25948 41.8706 5.32579 41.8772 5.37884 41.8971L5.06717 42.7323C4.88812 42.9512 4.60961 43.2164 4.47695 43.2164C4.404 43.2164 4.35758 43.1501 4.35758 43.0042ZM5.83657 41.3865L6.00235 41.3998L5.42543 42.7257C5.28617 43.044 5.34585 43.1899 5.42543 43.1899C5.505 43.1899 5.60447 43.0971 5.71058 42.9445H5.81005C5.65752 43.2827 5.45859 43.6209 5.23975 43.6209C5.05407 43.6209 4.94134 43.422 4.9745 43.0639L4.98776 42.9379L4.95165 42.9886C4.71409 43.3205 4.49913 43.6209 4.27817 43.6209C4.08587 43.6209 3.98639 43.5016 3.98639 43.3225C3.98639 42.5533 4.82861 41.5722 5.61774 41.5722H5.65089L5.83657 41.3865ZM4.31756 41.9631C4.39051 41.7111 4.35072 41.4856 4.15841 41.4856C3.91856 41.4856 3.84346 41.6441 3.61106 42.1342L3.59475 42.1687V41.8769C3.59475 41.6713 3.52843 41.4856 3.34272 41.4856C3.12389 41.4856 2.92495 41.8238 2.77243 42.162H2.8719C2.978 42.0095 3.07747 41.9167 3.15042 41.9167C3.24325 41.9167 3.2963 42.0626 3.15042 42.3809L2.72601 43.3291C2.64643 43.5082 2.73264 43.6209 2.90506 43.6209C3.01116 43.6209 3.05758 43.5944 3.104 43.4817L3.5218 42.3809C3.64117 42.235 3.74727 42.109 3.8799 41.9697H4.31756V41.9631ZM1.58492 43.4217L1.54513 43.541H0L0.0397883 43.415C0.517245 43.3288 0.59682 43.289 0.79576 42.7519L1.22683 41.598C1.41914 41.0609 1.37935 41.0211 0.961544 40.9349L1.00133 40.8155H3.01066L2.8913 41.4588H2.74541C2.74541 41.0742 2.70562 40.9747 2.3409 40.9747H2.24806C1.88996 40.9747 1.84354 41.0277 1.74407 41.3063L1.45893 42.0821H1.8767C2.15522 42.0821 2.26132 41.9097 2.38731 41.6842H2.5332L2.18837 42.6259H2.04249C2.07564 42.3408 2.07564 42.228 1.81702 42.228H1.39925L1.20694 42.7585C0.999044 43.3106 1.05846 43.3219 1.55346 43.4157C1.56377 43.4173 1.57425 43.4193 1.58492 43.4217Z" fill="#F1F1F1"/>
<path fill-rule="evenodd" clip-rule="evenodd" d="M2.89779 35.6103L2.28108 36.0546V36.0613H2.12193L2.48665 35.5308H2.89779V35.6103ZM7.20876 38.7204L8.1968 36.0944L8.16364 36.0546L7.48065 36.1342V36.2138L7.61327 36.3133C7.72647 36.4015 7.6965 36.4834 7.60256 36.7406L7.58675 36.7841L6.83077 38.8C6.77109 38.9194 6.85067 39.0653 6.98993 39.0653C7.3016 39.0653 7.63317 38.7801 7.78569 38.3889H7.68622C7.58012 38.5348 7.36791 38.6939 7.20876 38.7204ZM11.7375 36.6979L12.3542 36.1342V36.0546H11.943L11.5783 36.6979H11.7375ZM11.7768 38.3093H11.9095C11.6641 38.7801 11.359 39.0653 11.0673 39.0653C10.8153 39.0653 10.6561 38.8796 10.6561 38.5414C10.6561 37.8252 11.2397 36.93 11.7503 36.93C12.0421 36.93 12.3007 37.1488 12.0885 37.6528L11.001 38.0109C10.9811 38.1037 10.9678 38.2098 10.9678 38.3093C10.9678 38.5546 11.0606 38.6674 11.2463 38.6674C11.4254 38.6674 11.611 38.5082 11.7768 38.3093ZM11.7433 37.5931C11.8096 37.3411 11.6837 37.2284 11.5378 37.2284C11.3852 37.2284 11.1863 37.4605 11.0736 37.7722L11.7433 37.5931ZM9.79372 37.2416H9.43563V37.0759L9.87993 37.0162L10.2513 36.4525H10.4569L10.2579 37.0162H10.7818L10.7155 37.2416H10.1783L9.65446 38.7068C9.89319 38.6671 10.2115 38.4416 10.3574 38.2363H10.4569C10.2712 38.7267 9.78709 39.0716 9.38258 39.0716C9.24332 39.0716 9.17038 38.9389 9.22343 38.8063L9.79372 37.2416ZM9.06424 37.1617C9.10403 37.0158 9.01119 36.9363 8.93161 36.9363C8.61994 36.9363 8.24859 37.2214 8.09607 37.6127H8.19554C8.29501 37.4668 8.46742 37.3076 8.63321 37.2811L8.03638 38.8395C7.98333 38.9854 8.08943 39.0649 8.16238 39.0649C8.46079 39.0649 8.80562 38.7798 8.95814 38.3885H8.85867C8.7592 38.5344 8.58678 38.6936 8.421 38.7201L9.06424 37.1617ZM9.36978 36.3C9.36978 36.4326 9.25705 36.5454 9.12442 36.5454C8.99179 36.5454 8.87906 36.4326 8.87906 36.3C8.87906 36.1674 8.98516 36.0546 9.12442 36.0546C9.25705 36.0546 9.36978 36.1674 9.36978 36.3ZM6.02165 37.3212C5.72324 37.3212 5.1861 37.9711 5.1861 38.4552C5.1861 38.6011 5.23252 38.6674 5.3121 38.6674C5.43809 38.6674 5.71661 38.4021 5.89566 38.1833L6.20733 37.3477C6.14765 37.3279 6.08797 37.3212 6.02165 37.3212ZM6.83084 36.8504L6.66506 36.8371L6.47938 37.0228H6.44622C5.65709 37.0228 4.81491 38.0042 4.81491 38.7735C4.81491 38.9525 4.91438 39.0719 5.10669 39.0719C5.32765 39.0719 5.5426 38.7715 5.78014 38.4393L5.81625 38.3889L5.80298 38.5149C5.76983 38.873 5.88256 39.0719 6.06824 39.0719C6.28707 39.0719 6.48601 38.7337 6.63853 38.3955H6.53906C6.43296 38.548 6.33349 38.6409 6.25391 38.6409C6.17434 38.6409 6.11466 38.495 6.25391 38.1767L6.83084 36.8504ZM3.48828 38.9989C3.20313 39.1117 3.00419 39.2443 3.00419 39.4499C3.00419 39.6422 3.18324 39.7218 3.5546 39.7218C4.05195 39.7218 4.32383 39.5759 4.32383 39.3836C4.32383 39.2974 4.2111 39.2576 3.91269 39.1581C3.72038 39.0984 3.58112 39.0454 3.48828 38.9989ZM3.81942 38.1833C3.68679 38.1833 3.64037 38.0706 3.64037 37.9512C3.64037 37.5666 3.82605 37.0891 4.12446 37.0891C4.25709 37.0891 4.30351 37.2019 4.30351 37.3212C4.29687 37.7125 4.1112 38.1833 3.81942 38.1833ZM4.07207 38.8066C4.4368 38.9194 4.66226 39.0056 4.66226 39.2576C4.66226 39.5825 4.06544 39.9671 3.34263 39.9605C2.92485 39.9605 2.56676 39.8478 2.56676 39.5759C2.56676 39.3173 2.80549 39.1051 3.38904 38.9326C3.30947 38.8796 3.27631 38.8133 3.27631 38.7204C3.27631 38.5613 3.4222 38.4353 3.67419 38.3159C3.42883 38.2828 3.26968 38.0971 3.26968 37.8252C3.26968 37.4074 3.61451 36.93 4.15828 36.93C4.27101 36.93 4.37048 36.9565 4.45006 37.0095H5.04688L4.98057 37.235H4.6291C4.649 37.2947 4.66226 37.361 4.66226 37.434C4.66226 37.8385 4.33733 38.3027 3.82008 38.3292C3.68745 38.4021 3.62114 38.5016 3.62114 38.5812C3.62114 38.6747 3.72963 38.7065 3.96935 38.7765C4.00125 38.7858 4.03547 38.7957 4.07207 38.8066ZM1.96951 37.6727C2.22813 37.6727 2.23476 37.7854 2.19497 38.0706H2.34086L2.68569 37.1289H2.5398C2.41381 37.3544 2.30771 37.5268 2.02919 37.5268H1.45889L1.73741 36.7509C1.83688 36.4724 1.8833 36.4194 2.24139 36.4194H2.49338C2.85811 36.4194 2.89789 36.5188 2.89789 36.9034H3.04378L3.16315 36.2602H1.00133L0.961544 36.3796C1.37932 36.4658 1.41911 36.5056 1.2268 37.0427L0.79576 38.2032C0.59682 38.7403 0.517244 38.7801 0.0331568 38.8663L0 38.9923H2.40054L2.83158 38.3093H2.6658C2.38728 38.5812 2.10876 38.8332 1.565 38.8332C0.966882 38.8332 0.977525 38.804 1.157 38.3109C1.16854 38.2791 1.18081 38.2456 1.19364 38.2098L1.39258 37.6793H1.96951V37.6727Z" fill="#F1F1F1"/>
<path fill-rule="evenodd" clip-rule="evenodd" d="M3.95168 31.9897C4.08431 31.9897 4.19704 31.877 4.19704 31.7444C4.19704 31.6118 4.08431 31.499 3.95168 31.499C3.81242 31.499 3.70632 31.6118 3.70632 31.7444C3.70632 31.8836 3.81242 31.9897 3.95168 31.9897ZM5.91525 32.825C5.91525 32.5067 5.83568 32.3873 5.61021 32.3873C5.33169 32.3873 5.07307 32.6857 4.81445 33.0438L5.37148 31.5517L5.33833 31.5053L4.6553 31.5849V31.6645L4.78792 31.7639C4.90341 31.8538 4.86992 31.9437 4.77158 32.2076L4.7614 32.2348L4.15795 33.813C4.1049 33.9457 4.04521 34.1048 4.04521 34.1446C4.04521 34.3303 4.29721 34.5093 4.5293 34.5093C5.04655 34.516 5.91525 33.561 5.91525 32.825ZM11.6645 32.1486L12.2812 31.5849V31.5053H11.8701L11.5054 32.1486H11.6645ZM11.7045 33.76H11.8371C11.5851 34.2308 11.2801 34.516 10.9883 34.5093C10.7363 34.5093 10.5771 34.3303 10.5771 33.9921C10.5771 33.2759 11.1607 32.3807 11.6713 32.3807C11.9631 32.3807 12.2217 32.5995 12.0095 33.1035L10.9286 33.4616C10.9087 33.5544 10.8955 33.6605 10.8955 33.76C10.8955 34.0053 10.9883 34.1181 11.174 34.1181C11.353 34.1181 11.5387 33.9589 11.7045 33.76ZM11.6707 33.0438C11.737 32.7918 11.611 32.6791 11.4651 32.6791C11.306 32.6791 11.107 32.9112 11.0009 33.2228L11.6707 33.0438ZM9.71371 32.6927H9.35562V32.5269L9.79992 32.4672L10.1713 31.9039H10.3768L10.1779 32.4672H10.7018L10.6355 32.6927H10.0983L9.57446 34.1582C9.81318 34.1184 10.1315 33.8929 10.2774 33.6874H10.3768C10.1912 34.1781 9.70708 34.5229 9.30257 34.5229C9.16331 34.5229 9.09037 34.3903 9.14342 34.2577L9.71371 32.6927ZM9.1712 32.8651C9.24415 32.6131 9.20436 32.3876 9.01205 32.3876C8.77223 32.3876 8.69713 32.5461 8.46474 33.0365L8.44839 33.0706V32.7789C8.44839 32.5733 8.38208 32.3876 8.1964 32.3876C7.9776 32.3876 7.77866 32.7258 7.62614 33.064H7.72561C7.83171 32.9115 7.93118 32.8187 8.00412 32.8187C8.09696 32.8187 8.15001 32.9645 8.00412 33.2829L7.57972 34.2245C7.50014 34.4035 7.58635 34.5163 7.75876 34.5163C7.86486 34.5163 7.91128 34.4898 7.9577 34.377L8.37544 33.2762C8.49481 33.1303 8.60091 33.0043 8.73354 32.8651H9.1712ZM7.06927 33.0438C7.13558 32.7918 7.00959 32.6791 6.8637 32.6791C6.70455 32.6791 6.51224 32.9112 6.39951 33.2228L7.06927 33.0438ZM7.23462 33.76H7.102C6.93621 33.9589 6.75054 34.1181 6.57149 34.1181C6.38581 34.1181 6.29301 34.0053 6.29301 33.76C6.29301 33.6605 6.30627 33.5544 6.32616 33.4616L7.40704 33.1035C7.61924 32.5995 7.36725 32.3807 7.06884 32.3807C6.55823 32.3807 5.9747 33.2759 5.9747 33.9921C5.9747 34.3303 6.13385 34.5093 6.38581 34.5093C6.67759 34.516 6.98263 34.2308 7.23462 33.76ZM4.44999 34.0123C4.44999 34.0985 4.60251 34.198 4.70861 34.198C5.13965 34.198 5.54416 33.4221 5.53753 32.9911C5.53753 32.8452 5.46459 32.7855 5.36512 32.7855C5.20596 32.7855 4.91419 33.0242 4.72851 33.2497L4.55609 33.7139C4.49641 33.8664 4.44999 33.9858 4.44999 34.0123ZM3.75383 32.3876C3.83341 32.3876 3.92625 32.4672 3.88646 32.6131L3.24985 34.1715C3.41564 34.1449 3.58805 33.9858 3.68752 33.8399H3.78699C3.63447 34.2311 3.28964 34.5163 2.99123 34.5163C2.91165 34.5163 2.80555 34.4367 2.8586 34.2908L3.45542 32.7325C3.28964 32.759 3.11723 32.9181 3.01776 33.064H2.91829C3.07081 32.6728 3.44216 32.3876 3.75383 32.3876ZM1.00133 31.6983H2.42704L2.38725 31.8243C1.90316 31.9102 1.82358 31.95 1.62464 32.4871L1.20024 33.6542C0.9947 34.2112 1.04775 34.2776 1.41244 34.2776C1.86307 34.2776 2.15853 33.95 2.41653 33.6642C2.43569 33.6429 2.45466 33.6217 2.47346 33.6012H2.63924L2.16841 34.4367H0L0.0397883 34.3173C0.517245 34.2311 0.59682 34.1913 0.79576 33.6542L1.22676 32.4805C1.41907 31.9433 1.37928 31.9035 0.961544 31.8177L1.00133 31.6983Z" fill="#F1F1F1"/>
</svg>
