<svg xmlns="http://www.w3.org/2000/svg" width="60" height="44" fill="none" viewBox="0 0 60 44"><path fill="#f1f1f1" d="M5.89 5.832q.004-.001.005-.003a.3.3 0 0 0 .05-.05q-.003 0-.006-.003zM8.33 5.01l-.039.033c.022-.005.039-.01.039-.033"/><path fill="#f1f1f1" fill-rule="evenodd" d="M7.541 5.85a7 7 0 0 0 .212-.224h-.002a4 4 0 0 1 .415-.427q.07-.065.135-.11.009-.01.013-.025t.013-.024a.3.3 0 0 0-.08.048.3.3 0 0 1-.083.05c-.013 0-.026-.012-.013-.025q.068-.049.133-.101h-.009c-.012 0-.012-.013-.012-.026-.16-.025-.282.084-.392.181l-.007.006c-.017.009-.033 0-.046-.006q-.009-.006-.016-.007c-.097.033-.18.093-.265.153-.077.056-.155.112-.244.147v-.026q-.045.016-.09.038a.7.7 0 0 1-.135.05 1 1 0 0 1-.237.015l-.074-.002a4 4 0 0 0-.407.072l-.044.01-.007.002-.006.002a1 1 0 0 0-.232.095l-.008.004-.017.022a.3.3 0 0 1-.086.075c-.054.027-.1.069-.146.11q-.03.027-.06.052-.007.006-.019.006-.099.098-.2.192c-.005.004-.024.006-.04.004q.002 0 .003-.002l.006-.013.032-.052.037-.058a1 1 0 0 1 .053-.075q.006-.01 0-.017a.02.02 0 0 0-.017-.007c.062-.06.135-.112.21-.157v-.002c-.009.002-.022-.004-.015-.013l.016-.026.005-.009.002-.005q0-.003.003-.005l-.005-.006-.004-.005-.013.008-.045.033-.027.03c-.02.025-.04.052-.071.052-.002 0-.013 0-.02-.002q-.009-.001-.012-.005v-.002h.002l.002-.004q0-.001.002-.002l.003-.006.003-.005.004-.006.003-.005.002-.004.002-.005.003-.004.006-.013q0-.003.003-.005l.003-.006.009-.014.008-.014.009-.012.006-.012.007-.012c.006-.01 0-.02-.009-.022a.3.3 0 0 1 .086-.075h-.005q.045-.023.09-.05l.054-.03a.1.1 0 0 1 .021-.017.8.8 0 0 0-.197.1s-.017.006-.021.01c0 0-.013.004-.03-.01q-.002-.003-.002-.01.012-.02.04-.035.018-.011.035-.027c.013 0 .023 0 .023.013.247-.193.55-.238.856-.283.188-.028.376-.055.551-.118l.056-.037.055-.038a.4.4 0 0 0 .09-.059.5.5 0 0 1 .097-.066.56.56 0 0 0 .212-.289c0-.012-.013-.025-.013-.025a2 2 0 0 1-.548.413c-.19.1-.394.115-.595.13a4 4 0 0 0-.225.02c.012-.025.038-.025.062-.025 0-.03.014-.044.033-.06l.016-.015h.036q.01-.002.013-.013.004-.012.013-.013c.026 0 .062-.013.05-.013-.02-.025-.049-.015-.08-.004-.03.01-.064.022-.094.004q.015-.02.018-.041c.003-.015.006-.028.018-.035h.05c0-.025.025-.049.025-.049q.168-.099.325-.183l.21-.116q-.02.001-.038.011c-.02.009-.038.017-.06.002.013 0 .013-.01.013-.019s0-.018.013-.018c.08-.022.151-.056.224-.092q.077-.038.161-.072-.025.001-.048.01c-.029.008-.057.016-.089-.01l.022-.015c.014-.01.027-.021.053-.021v-.037c0-.013.013-.013.026-.013-.013 0-.026-.013-.026-.013.007-.014.02-.016.035-.02a.1.1 0 0 0 .04-.016c-.013 0-.037 0-.037-.013.037-.05.099-.063.161-.076-.006-.013-.019-.013-.03-.013s-.02 0-.02-.013.014-.013.027-.013h-.026c-.02-.01-.017-.028-.014-.04l.001-.01c.05-.058.067-.128.083-.198q.011-.052.028-.1c-.013 0-.025 0-.025-.013-.12.133-.312.184-.493.232l-.017.005h-.062a.25.25 0 0 1-.212-.013.3.3 0 0 1-.073-.056q-.023-.021-.051-.043c-.1-.063-.2-.112-.31-.151a2.8 2.8 0 0 0-.958-.138c.09-.05.186-.07.284-.09a2 2 0 0 0 .245-.064c.178-.054.35-.107.54-.096-.025-.009-.057-.005-.086-.003l-.039.003a1.5 1.5 0 0 0-.438.055l-.097.02a2 2 0 0 0-.171.048c-.062.02-.124.04-.19.052a.3.3 0 0 0-.075.043c-.036.026-.07.052-.125.045v-.039c.124-.15.274-.3.473-.312.193-.032.374-.01.564.014l.096.012c.155.012.3.047.457.084l.016.004c.034 0 .054.03.072.06.015.023.03.046.052.052q.045.013.092.014a.25.25 0 0 1 .133.036q0-.014-.003-.026c-.003-.017-.005-.033.003-.05.028-.028.06-.02.09-.013.025.006.049.012.07 0 .069-.042.005-.107-.059-.171a.5.5 0 0 1-.077-.092c0-.012.012-.025.012-.025q.043.037.08.077c.066.064.13.128.218.172.062.026.212.063.186-.013-.044-.097-.119-.182-.195-.267q-.046-.052-.092-.107v-.05c-.02 0-.024-.007-.03-.016l-.006-.01v-.05c-.031-.016-.038-.042-.045-.068a.2.2 0 0 0-.017-.043c-.022-.035-.023-.078-.025-.122 0-.035-.002-.07-.014-.104a1.3 1.3 0 0 1-.049-.214l-.044-.223a4 4 0 0 1-.067-.377c-.02-.183.072-.338.167-.496q.043-.07.081-.142c.088-.15.186-.3.35-.4.035-.148.131-.27.227-.392l.008-.01c.095-.117.253-.19.37-.243l.013-.006C8.442.05 8.599 0 8.601 0H0v6.631h6.102c.163-.118.326-.193.519-.282a10 10 0 0 0 .363-.174c.175-.085.452-.222.557-.325m-1.936-.895c-.025.002-.05.005-.04-.015.009-.043.053-.056.097-.069q.028-.006.052-.019l.007-.003.005-.003c.025-.013.054-.029.076-.02.015.022.033.027.05.032q.021.004.038.018c-.047.046-.1.051-.155.056-.037.003-.073.006-.108.021zM3.71 4.652c0 .013.013.026.013.026.3-.338.572-.627.957-.866.01-.004.007.001.002.008-.008.011-.018.026.011.018.128-.03.185-.139.24-.245l.045-.08c.058-.095.141-.156.225-.218.06-.044.121-.089.173-.146 0 .013 0 .026-.013.038.013.013.026.013.039.013.022-.017.047-.024.07-.03.03-.01.06-.017.08-.045a.47.47 0 0 0-.324-.013c-.26.125-.483.325-.695.551a1.7 1.7 0 0 1-.424.351 4 4 0 0 1-.399.638m1.046-.801q-.01.018-.02.027a.1.1 0 0 0-.017.022.1.1 0 0 1-.049.05c-.013 0-.026 0-.026-.013.013-.05.05-.099.099-.112.013.002.013.015.013.026m.547 1.913c.01-.011.024-.024.03-.037.01-.026-.055-.02-.066-.013q-.014.012-.023.025l-.003.003-.03.03-.021.02q-.045.045-.092.088c-.022.02.047.028.062.015a1 1 0 0 0 .047-.043l.015-.002h.004c.036-.012.062-.037.088-.06l.006-.007c.009-.009-.002-.017-.017-.02m-.193-.14-.001.002-.04.027q-.049.036-.101.067-.052.029-.104.053l-.061.03q0-.002-.002-.003-.008-.01-.022-.004a.6.6 0 0 0-.141.114l-.02.02v.002l-.033.036q-.004.006-.011.01c-.009.005-.03.005-.028-.008v-.002l-.022.01-.01.006-.009.006q-.004-.002-.008-.002-.005 0-.01.002l-.014.012q-.015.011-.03.026a1 1 0 0 0-.073.078q0 .001-.002.002l-.001.002-.001.002-.004.005-.002.002q0 .002-.003.002l-.002.002q-.002.007-.008.013a.02.02 0 0 1-.011.004q-.003-.003-.004-.006l-.002-.003-.003-.003-.005-.01-.005-.01v-.002l-.001-.003-.001-.003.038-.046.002-.002.007-.007.006-.008.01-.013.011-.013.004-.005L4.396 6q.02-.025.038-.053v-.003q.005-.002.005-.008l.017-.026.013-.026v-.002l.002-.002v-.002l.002-.002.006-.016.007-.015v-.002l.002-.008.002-.007.002-.006V5.82l.002-.01q0-.005.003-.01 0-.004-.003-.008a.4.4 0 0 1 .046-.066h-.003q-.014.01-.026.023l-.02.019c-.014.01-.04-.007-.022-.02l.027-.025q0-.001.003-.003l.025-.025q.018-.02.039-.037l.045-.034.028-.033q.001 0 .002-.002c.073-.071.177-.096.282-.122.067-.016.134-.033.195-.061.035-.014.073-.009.112-.003.03.004.06.009.087.003.037 0 .075 0 .112.026-.085.045-.166.097-.246.148zm.267-.878q-.017 0-.01.007c.036.037.11.024.162-.004.036-.026.075-.026.124-.026.013 0 .013-.024.013-.036a.3.3 0 0 0 .099.012c.297-.062.584-.124.858-.262-.277-.215-.62-.31-.954-.404l-.166-.046q.018.001.037.008c.024.008.049.016.075-.008a.2.2 0 0 0-.11-.038c-.03-.004-.061-.008-.09-.025q.005 0 .01.002c.014.002.03.005.04-.015a.7.7 0 0 0-.196-.055 1 1 0 0 1-.102-.02.12.12 0 0 0 .1-.125c0-.013-.025-.013-.038-.013a.68.68 0 0 0-.31.375c.056.033.116.029.175.025q.051-.004.099 0c-.028.027-.069.034-.108.041l-.042.01c-.039.008-.075.036-.062.062q.012.014.028.017a.2.2 0 0 0-.077.045c.035.028.071.022.107.017q.022-.003.042-.004c0 .016.01.02.021.026l.016.01a.22.22 0 0 0-.124.113c-.016.037-.044.061-.072.085q-.03.023-.052.052v.04q-.063.054-.126.1a1 1 0 0 0-.236.224c.013 0 .013.013.013.026a.2.2 0 0 1-.045.042q-.03.02-.043.046c0 .013 0 .026.013.026.078-.026.146-.07.213-.112a1 1 0 0 1 .185-.1c.053-.014.1-.038.145-.061.038-.02.076-.04.116-.052q.047-.01.1-.025.051-.014.1-.024c0 .013 0 .025.012.025h.099c-.007.015-.026.017-.039.019" clip-rule="evenodd"/><path fill="#f1f1f1" d="M18.236 0h-7.132s.013.002.067.03l.178.095a.6.6 0 0 1 .24.2c.026.037.062.113.039.162-.026.063-.04.164-.102.188a.45.45 0 0 1-.263.026c-.05 0-.099-.013-.15-.026.187.075.364.164.489.338.013.026.062.037.112.037.013 0 .013.026.013.037-.026.025-.05.038-.037.075h.037c.062-.026.05-.15.138-.112.062.037.088.125.05.187-.05.05-.1.089-.152.125a.1.1 0 0 0 0 .089c.037.05.05.099.063.15.039.09.05.188.088.277.05.187.1.375.089.565 0 .099-.05.187-.013.288.026.1.088.175.138.263.05.076.099.125.138.2.075.126.213.251.15.402-.036.088-.174.075-.262.125-.076.062-.013.164.026.226.062.112-.076.188-.164.227.026.038.075.026.088.05.013.062.076.098.037.163-.05.076-.2.112-.125.226.05.089.017.186-.013.276-.037.113-.138.162-.227.188a.5.5 0 0 1-.237.013c-.026-.013-.05-.026-.075-.026-.214-.026-.427-.086-.639-.086-.062.013-.125.024-.174.05a1 1 0 0 0-.151.133l-.002.002-.028.03-.015.02q-.006.006-.011.013a1 1 0 0 0-.1.144q-.003.007-.006.009-.004.008-.01.017a1.2 1.2 0 0 0-.095.23c-.087.287-.048.533.012.594.018.017.414.14.69.263.13.058.22.1.296.148h7.003V0z"/><path fill="#f1f1f1" fill-opacity=".502" d="M11.527 2.419c.05.013.126.013.126.038-.026.1-.175.125-.25.226h-.04c-.036.026-.025.089-.062.089-.037-.013-.075 0-.112.013.05.05.112.088.187.075.013 0 .037.026.037.05 0 0 .013 0 .026-.013.013 0 .026 0 .026.013v.049c-.037.05-.101.026-.151.037q.154.038.289 0c.075-.026 0-.151.05-.214-.026 0 0-.038-.026-.038.025-.026.05-.063.075-.076.026 0 .063-.013.076-.038 0-.026-.05-.037-.04-.063.076-.05.139-.125.113-.2-.013-.039-.112-.039-.175-.062-.062-.024-.138 0-.213.012-.063 0-.125.04-.188.05a.9.9 0 0 0-.237.125c.088-.037.175-.05.276-.076.075.003.138-.015.213.003"/><path fill="#f1f1f1" d="M.683 14.92V10.28h1.174l1.134 1.95 1.134-1.95h1.173v4.642h-.941v-3.33L3.322 13.33H2.66l-1.034-1.737v3.329zm6.01 0V10.28h.942v4.642zm2.34 0V10.28h1.206l2.076 3.355v-3.355h.941v4.642H12.05l-2.075-3.356v3.356zm5.62 0V10.28h.943v4.642zm1.922-.643.683-.63c.278.358.65.57 1.028.57.371 0 .596-.198.596-.53 0-.855-2.108-.623-2.108-2.195 0-.736.61-1.346 1.498-1.346.697 0 1.227.312 1.625.782l-.69.624c-.271-.352-.576-.584-.928-.584-.332 0-.55.212-.55.491 0 .842 2.108.603 2.108 2.195-.013.875-.69 1.4-1.545 1.4-.782 0-1.306-.286-1.717-.777m3.84-3.143v-.855h3.806v.855h-1.433v3.787h-.941v-3.787zm5.667-1.253-.855-.896h.968l.75.896zm-.935 5.04v-4.642h2.706v.782h-1.764v1.1h1.499v.783h-1.5v1.194h1.765v.783zm3.9 0v-4.642h1.419c1.02 0 1.65.524 1.65 1.386 0 .563-.271.981-.748 1.2l1.452 2.056h-1.108l-1.24-1.877h-.484v1.877zm1.472-3.86h-.53v1.2h.53c.398 0 .63-.232.63-.61 0-.351-.232-.59-.63-.59m2.997 3.86v-4.642h2.705v.782h-1.764v1.1h1.5v.783h-1.5v1.194h1.764v.783zM.683 21.883v-4.642h1.824c1.472 0 2.467 1.068 2.467 2.322 0 1.253-.995 2.32-2.467 2.32zm1.837-3.786h-.895v2.931h.895c.862 0 1.485-.643 1.485-1.465 0-.83-.623-1.466-1.485-1.466m3.461 3.786v-4.642h2.706v.783H6.923v1.1H8.42v.783H6.923v1.194h1.764v.782zm5.72 0v-4.642h.942v3.787h1.763v.855zm3.25 0 1.758-4.642h1.234l1.757 4.642h-1.001l-.445-1.206h-1.857l-.444 1.206zm1.738-2.009h1.273l-.636-1.744zm5.064-2.633h1.002l1.372 3.628L25.5 17.24H26.5l-1.757 4.642H23.51zm5.564 4.642v-4.642h.942v4.642zm2.339 0v-4.642h.942v3.787h1.764v.855zm3.634 0v-4.642h.941v3.787h1.764v.855zm3.634 0v-4.642h2.705v.783h-1.764v1.1h1.499v.783h-1.499v1.194h1.764v.782zM.683 28.846v-4.642h2.706v.783H1.625v1.1h1.498v.783H1.625v1.194h1.764v.782zm3.519-3.786v-.856h3.806v.856H6.576v3.786h-.942V25.06zm6.553 3.786v-4.642h1.824c1.472 0 2.467 1.068 2.467 2.321s-.995 2.321-2.467 2.321zm1.837-3.786h-.895v2.93h.895c.862 0 1.486-.642 1.486-1.465 0-.829-.624-1.465-1.486-1.465m6.199 2.049v-2.905h.942v2.825c0 1.22-.716 1.95-1.884 1.95-1.16 0-1.876-.73-1.876-1.95v-2.825h.941v2.905c0 .623.352.988.942.988.577 0 .935-.365.935-.988m4.031 1.737v-4.642h.942v3.787h1.764v.855zm5.535-4.774c1.459 0 2.46 1.127 2.46 2.453 0 1.327-1.001 2.454-2.46 2.454-1.466 0-2.467-1.127-2.467-2.454 0-1.326 1.001-2.453 2.467-2.453m0 4.025c.868 0 1.492-.683 1.492-1.572 0-.888-.624-1.571-1.492-1.571-.876 0-1.5.683-1.5 1.571 0 .889.624 1.572 1.5 1.572m5.714 0c.438 0 .816-.152 1.08-.405v-.808h-1.18v-.803h2.122v1.95c-.43.577-1.154.948-2.022.948-1.505 0-2.533-1.127-2.533-2.454 0-1.326 1.001-2.453 2.467-2.453.842 0 1.531.378 1.956.941l-.743.577a1.45 1.45 0 0 0-1.214-.636c-.875 0-1.498.683-1.498 1.571 0 .889.656 1.572 1.565 1.572m3.169.75v-4.643h2.706v.783h-1.764v1.1h1.498v.783h-1.498v1.194h1.764v.782zm3.9 0v-4.643h1.173l1.134 1.95 1.134-1.95h1.174v4.642h-.942v-3.329l-1.034 1.738h-.663l-1.035-1.738v3.33zm6.01 0v-4.643h2.705v.783h-1.763v1.1h1.498v.783h-1.498v1.194h1.763v.782zm3.899 0v-4.643h1.207l2.076 3.356v-3.356h.941v4.642h-1.207l-2.075-3.355v3.355zm5.145-3.787v-.856H60v.856h-1.432v3.786h-.942V25.06z"/><path fill="#f1f1f1" fill-rule="evenodd" d="m17.228 40.684-.617.563h-.159l.365-.643h.411zm-.444 2.181h-.133c-.166.199-.351.358-.53.358-.186 0-.279-.113-.279-.358 0-.1.013-.206.033-.299l1.081-.358c.213-.503-.04-.722-.338-.722-.51 0-1.094.895-1.094 1.611 0 .338.16.524.411.524.292-.007.597-.292.849-.756m-.371-1.087c.146 0 .272.113.206.371l-.67.18c.106-.32.305-.551.464-.551m-2.108.013h.358l-.57 1.565c-.054.132.02.265.158.265.405 0 .889-.345 1.075-.836h-.1c-.146.206-.464.431-.703.471l.524-1.465h.537l.067-.226h-.524l.199-.563h-.206l-.371.563-.444.06zm-.498-.298c.073 0 .172.08.126.225l-.643 1.558c.165-.026.338-.185.437-.331h.106c-.152.391-.497.676-.796.676-.072 0-.179-.08-.126-.225l.597-1.559c-.165.027-.338.186-.437.332h-.1c.153-.398.524-.676.836-.676m.186-.398a.245.245 0 1 0 0-.491.245.245 0 1 0 0 .49m-2.898 1.293c.146-.319.093-.464 0-.464-.08 0-.173.086-.265.245h-.1c.153-.338.352-.676.57-.676.186 0 .252.185.252.39v.293l.088-.102v-.001c.28-.33.495-.58.741-.58.193 0 .292.119.292.298a.84.84 0 0 1-.106.378l-.55 1.107c.165-.026.338-.185.437-.331h.1c-.153.398-.524.676-.836.676-.14 0-.219-.146-.159-.265l.637-1.227c.073-.139.086-.232-.027-.232-.152 0-.51.252-.703.484l-.418 1.101c-.046.113-.092.14-.198.14-.173 0-.26-.114-.18-.292zm-.432-.425c.073-.252.034-.477-.159-.477-.24 0-.315.158-.547.648l-.017.035v-.292c0-.206-.066-.391-.252-.391-.218 0-.417.338-.57.676h.1c.106-.152.205-.245.285-.245.093 0 .146.146 0 .464l-.425.941c-.08.18.007.292.18.292.106 0 .152-.026.198-.139l.418-1.1c.12-.147.226-.273.358-.412zm-2.095.186c.066-.258-.06-.371-.206-.371-.159 0-.358.232-.464.55zm.165.716h-.132c-.166.199-.352.358-.53.358-.187 0-.28-.113-.28-.358 0-.1.014-.206.034-.299l1.08-.358c.213-.503-.04-.722-.337-.722-.511 0-1.095.895-1.095 1.611 0 .338.16.524.411.524.292-.007.597-.292.85-.756m-2.121-1.074h-.358v-.166l.444-.06.372-.563h.205l-.199.563H7.6l-.066.226h-.537l-.524 1.465c.238-.04.557-.265.703-.47h.1c-.187.49-.67.835-1.075.835-.14 0-.212-.133-.16-.265zm-2.254 1.213c0-.484.537-1.133.835-1.133.066 0 .133.006.186.026l-.312.835c-.179.22-.457.484-.59.484-.073 0-.12-.066-.12-.212m1.479-1.617.165.013-.577 1.326c-.139.318-.08.464 0 .464s.18-.093.286-.245h.1c-.153.338-.352.676-.571.676-.186 0-.299-.199-.266-.557l.014-.126-.036.05c-.238.333-.453.633-.674.633-.192 0-.292-.12-.292-.299 0-.769.843-1.75 1.632-1.75h.033zm-1.52.576c.074-.252.034-.477-.159-.477-.24 0-.315.158-.547.648l-.016.035v-.292c0-.206-.067-.391-.252-.391-.22 0-.418.338-.57.676h.099c.106-.152.205-.245.278-.245.093 0 .146.146 0 .464l-.424.948c-.08.18.007.292.18.292.105 0 .152-.027.198-.14l.418-1.1c.12-.146.225-.272.358-.411h.438zm-2.732 1.459-.04.119H0l.04-.126c.477-.086.557-.126.756-.663l.43-1.154c.193-.537.153-.577-.264-.663l.04-.12H3.01l-.12.644h-.146c0-.385-.04-.484-.404-.484h-.093c-.358 0-.404.053-.504.331l-.285.776h.418c.278 0 .384-.172.51-.398h.146l-.345.942h-.146c.034-.285.034-.398-.225-.398h-.418l-.192.53c-.208.553-.149.564.346.658zM2.898 35.61l-.617.445v.006h-.16l.366-.53h.41zm4.31 3.11.989-2.626-.033-.04-.683.08v.08l.132.1c.113.087.083.17-.01.427l-.016.043L6.83 38.8c-.06.12.02.265.159.265.312 0 .643-.285.796-.676h-.1c-.106.146-.318.305-.477.331m4.53-2.022.616-.564v-.08h-.411l-.365.644zm.039 1.611h.133c-.246.471-.551.756-.843.756-.252 0-.41-.185-.41-.524 0-.716.583-1.611 1.093-1.611.292 0 .55.219.338.723l-1.087.358c-.02.093-.033.199-.033.298 0 .246.093.358.278.358.18 0 .365-.159.53-.358m-.034-.716c.067-.252-.06-.365-.205-.365-.153 0-.352.233-.464.544zm-1.95-.351h-.357v-.166l.444-.06.371-.563h.206l-.2.563h.525l-.066.226h-.538l-.524 1.465c.24-.04.557-.265.703-.47h.1c-.186.49-.67.835-1.074.835-.14 0-.213-.133-.16-.266zm-.729-.08c.04-.146-.053-.226-.132-.226-.312 0-.683.285-.836.677h.1c.099-.146.271-.305.437-.332l-.597 1.559c-.053.145.053.225.126.225.299 0 .644-.285.796-.676h-.1c-.099.145-.271.305-.437.331zm.306-.862a.25.25 0 0 1-.246.245.245.245 0 1 1 .245-.245m-3.348 1.021c-.299 0-.836.65-.836 1.134 0 .146.047.212.126.212.126 0 .405-.265.584-.484l.311-.835a.6.6 0 0 0-.185-.027m.809-.47-.166-.014-.186.186h-.033c-.789 0-1.631.981-1.631 1.75 0 .18.1.299.292.299.22 0 .436-.3.673-.633l.036-.05-.013.126c-.033.358.08.557.265.557.22 0 .418-.338.57-.677H6.54c-.106.153-.206.246-.285.246-.08 0-.14-.146 0-.464zm-3.343 2.148c-.285.113-.484.245-.484.45 0 .193.18.273.55.273.498 0 .77-.146.77-.338 0-.087-.113-.126-.411-.226a3 3 0 0 1-.425-.16m.331-.816c-.132 0-.179-.112-.179-.232 0-.384.186-.862.484-.862.133 0 .18.113.18.232-.007.392-.193.862-.485.862m.253.624c.365.112.59.199.59.45 0 .326-.597.71-1.32.704-.417 0-.775-.113-.775-.385 0-.259.238-.47.822-.643a.23.23 0 0 1-.113-.213c0-.159.146-.285.398-.404-.245-.033-.404-.219-.404-.49 0-.419.345-.896.888-.896a.5.5 0 0 1 .292.08h.597l-.066.225h-.352q.031.09.033.199c0 .405-.325.869-.842.895-.133.073-.199.173-.199.252 0 .094.109.125.348.195zM1.97 37.673c.258 0 .265.112.225.398h.146l.345-.942H2.54c-.126.225-.232.398-.51.398h-.571l.278-.776c.1-.279.146-.332.504-.332h.252c.365 0 .405.1.405.484h.146l.12-.643H1l-.04.12c.418.086.458.126.266.663l-.431 1.16c-.2.537-.279.577-.763.663L0 38.992h2.4l.432-.683h-.166c-.279.272-.557.524-1.101.524-.598 0-.587-.029-.408-.522l.037-.101.199-.53h.577zM3.952 31.99a.25.25 0 0 0 .245-.246.245.245 0 1 0-.49 0c0 .14.105.246.245.246m1.963.835c0-.318-.08-.438-.305-.438-.278 0-.537.299-.796.657l.557-1.492-.033-.047-.683.08v.08l.133.099c.115.09.082.18-.016.444l-.01.027-.604 1.578a2 2 0 0 0-.113.332c0 .185.252.364.484.364.518.007 1.386-.948 1.386-1.684m5.75-.676.616-.564v-.08h-.41l-.366.644zm.04 1.611h.132c-.252.47-.557.756-.849.75-.252 0-.41-.18-.41-.518 0-.716.583-1.611 1.093-1.611.292 0 .55.218.338.722l-1.08.359c-.02.092-.034.198-.034.298 0 .245.093.358.279.358.179 0 .365-.16.53-.358m-.034-.716c.066-.252-.06-.365-.206-.365-.159 0-.358.232-.464.544zm-1.957-.351h-.358v-.166l.444-.06.371-.563h.206l-.2.563h.525l-.066.226h-.538l-.524 1.465c.24-.04.558-.265.703-.47h.1c-.186.49-.67.835-1.074.835-.14 0-.213-.133-.16-.265zm-.543.172c.073-.252.033-.477-.159-.477-.24 0-.315.158-.547.648l-.017.035v-.292c0-.206-.066-.391-.252-.391-.218 0-.417.338-.57.676h.1c.106-.153.205-.245.278-.245.093 0 .146.145 0 .464l-.424.941c-.08.18.006.292.179.292.106 0 .152-.026.199-.139l.417-1.1c.12-.147.226-.273.359-.412zm-2.102.179c.067-.252-.06-.365-.205-.365-.16 0-.352.232-.464.544zm.166.716h-.133c-.166.199-.351.358-.53.358-.186 0-.279-.113-.279-.358 0-.1.013-.206.033-.298l1.081-.359c.212-.504-.04-.722-.338-.722-.51 0-1.094.895-1.094 1.611 0 .338.159.517.41.517.293.007.598-.278.85-.749m-2.785.252c0 .087.153.186.259.186.43 0 .835-.776.829-1.207 0-.146-.073-.206-.173-.206-.159 0-.45.24-.636.465l-.173.464a2 2 0 0 0-.106.298m-.696-1.624c.08 0 .172.08.132.225l-.636 1.559c.166-.027.338-.186.438-.332h.099c-.153.391-.497.676-.796.676-.08 0-.185-.08-.132-.225l.596-1.558c-.165.026-.338.185-.437.331h-.1c.153-.391.524-.676.836-.676M1 31.698h1.426l-.04.126c-.484.086-.563.126-.762.663L1.2 33.654c-.205.557-.152.624.212.624.451 0 .747-.328 1.005-.614l.056-.063h.166l-.47.836H0l.04-.12c.477-.086.557-.126.756-.663l.43-1.174c.193-.537.153-.576-.264-.662z" clip-rule="evenodd"/></svg>