<svg xmlns="http://www.w3.org/2000/svg" width="46" height="48" fill="none" viewBox="0 0 46 48"><path stroke="#f1f1f1" stroke-width="1.927" d="M44.964 25.33c0 11.948-9.722 21.634-21.713 21.634S1.538 37.278 1.538 25.33 11.26 3.699 23.251 3.699c11.991 0 21.713 9.685 21.713 21.632Zm-.575-2.735c0 11.947-9.721 21.632-21.713 21.632S.964 34.543.964 22.595C.964 10.648 10.684.964 22.676.964S44.39 10.649 44.39 22.595Z"/><path fill="#f1f1f1" stroke="#f1f1f1" stroke-width=".151" d="M26.375 29.374a.7.7 0 0 1-.025.325q-.03.097-.065.198a3 3 0 0 0-.05.162l-.02.003-.026.004a.2.2 0 0 0-.069.02q-.003 0-.007-.002c-.004-.005-.008-.012-.012-.03-.005-.021-.006-.045-.011-.084l-.008-.038c.01-.003.023-.002.033-.006l.056-.023-.01-.06c-.008-.05-.023-.079-.032-.097a.2.2 0 0 0 .047-.044c.02-.03.03-.066.035-.083.007-.022.01-.027.013-.03l.004-.002.022-.004.06-.003.01-.058c.007-.035.01-.071.013-.094a.2.2 0 0 1 .009-.044q-.001-.003.009-.007.008-.002.024-.003Z"/><path fill="#f1f1f1" d="M23.25 4.59c10.987 0 19.893 8.874 19.893 19.819 0 10.946-8.906 19.818-19.892 19.818S3.358 35.355 3.358 24.41 12.265 4.59 23.251 4.59m1.546 21.353c-.694.162-.7.606-1.153.878.004.135-.069.21.02.328-.314.375-.605 1.331-.608 1.433-.204.4-.233.952-.377 1.311 0 .09.08.068.08.16-.206.149-.24.468-.149.615-.045.009-.06-.023-.11 0 .091.267.038.552.074.858.03.31-.02.67.015.938.012.1-.876 1.23-.96 1.313-.132.137-.068.18-.171.3-.146-.044-.216.141-.25.248-.035.004-.044-.027-.087-.014-.107.261-.416.38-.507.654-.276.103-1.507 1.115-1.942 1.1-.005.14-.026.056-.112.077-.08.09-.141.249-.192.356.113.018 2.103-.567 2.133-.912.206-.06.416-.314.52-.523.146-.08.304-.21.296-.33.324-.076.27-.418.55-.528-.03.108.814-1.108.83-1.057-.057.673-.025 1.673.37 2.128 0-.019.014-.033.04-.033.033.147.183.272.27.224q-.028.001-.033-.04c.05.023.137-.008.193.003.35-.237.603-.617.8-1.005.186-.075.351-.325.372-.568.163-.018.132-.152.24-.202-.033-.053-.066-.12-.015-.164.043-.016.058.014.099 0a.26.26 0 0 1 .145-.204c.24.48-.108 1.027.173 1.449.178.072.317.004.497-.045.084-.196.296-.311.389-.5-.007-.09-.092-.227-.014-.262.046.05.072.136.133.161 0-.104.11-.141.17-.21.061.047.114.11.179.152-.026.26.233.365.404.481.154-.038.19-.102.344-.08.145-.096.139-.352.414-.387.029-.098.132-.152.157-.251.146-.046.146-.163.21-.243.052-.07.164-.121.217-.195.07-.099.056-.283.198-.287a.17.17 0 0 1-.006-.118c.206-.212.498-.452.477-.74.381-.302.319-.948.71-1.289.174.25-.001.367.14.604-.026.028-.08.038-.106.064 0 .267-.24.507-.12.73-.116.06-.244.202-.154.358-.141-.006-.042.16-.162.17.094.128-.014.232-.014.358.12-.042.143.047.207.086-.02-.098.001-.06.042-.035-.01-.106.046-.168.159-.189.004-.092.028-.17.107-.208l-.03-.184.117-.02c-.064-.21.114-.357.023-.573.06-.027.056.04.101.03.152-.443.067-.715.406-1.02 0-.094-.112-.075-.062-.156a.4.4 0 0 1 .215.023c.119-.2.405-.294.621-.434.037.12.029.122.095.194-.245.398-.12.908-.286 1.341.043.349-.054.53-.044.828.033.123.137.137.18.246.262.008.442-.14.483-.403.22-.058.157-.29.402-.334-.02-.174.084-.272.233-.344-.01-.338.52-.34.46-.71.112-.01.075-.07.132-.15.2.033.073-.272.295-.285.004-.244.236-.347.331-.535-.015-.145.063-.235.17-.304-.028.002.026-.17.173-.186a.34.34 0 0 0 .03-.176c-.005-.063.28-.209.358-.42.188.41.07.728.032 1.145-.415-.078-.472.343-.607.602-.12.03-.147.115-.168.207q.072-.023.085.053c-.056.003-.039.052-.109.048-.213.436-.352 1.245.192 1.519-.068-.123.036-.142.116-.124a1 1 0 0 1 .133-.25c.235-.126.18-.435.395-.574.222.249.935.308 1.089-.087.26-.03.653-.267.725-.506.082-.032.117.02.175.03.157-.096.207-.358.437-.295.002-.057.09-.06.037-.153a.36.36 0 0 0 .164-.122c.145-.127.37-.344.503-.35q.134-.154.247-.323c.021-.033.195-.282.23-.278.043-.068.09-.084.05-.161.07.046.04-.049.1-.116a.6.6 0 0 1 .154-.274c.002.016.03-.056-.042-.162.125-.05.084-1.206-.066-1.176-.036.035-.019.058-.016.062.143.204-.04 1.123-.154 1.358-.043.27-.351.477-.518.668-.29.155-.563.329-.895.531a.3.3 0 0 0-.046.032l-.01.005q-.093.071-.172.156c-.466.132-.725.662-1.293.696-.053-.082-.155-.09-.279-.056-.495-.353.137-1.14.015-1.62.043-.006.043-.038.085-.046-.106-.43.077-1.05-.295-1.155-.012-.087.102-.007.027-.078-.159.09-.296.363-.4.55-.194.079-.353.35-.433.51-.163.134-.245.317-.315.508-.19.108-.192.335-.376.45-.03.232-.301.318-.326.556-.398.24-.516.657-.867.925a.4.4 0 0 1-.071.21c-.099-.042-.133.09-.212.123-.179-.087-.113-.402.006-.484-.108-.208.011-.344-.066-.584.213-.433.218-.888.264-1.433-.054-.007-.062-.09-.1-.12-.076.036-.106 0-.131-.042-.5.083-.674.54-1.037.821-.292-.116-.03-.64-.38-.73-.127.187-.175.36-.412.506-.02.19-.172.297-.172.498-.03-.014-.027-.08-.084-.052.015.326-.351.421-.274.786-.183.166-.227.49-.426.645l.027.114c-.364.221-.61.654-.844 1.016-.035.002-.048-.029-.08-.03.018.05.014.088-.025.102-.227.12-.346.38-.641.408-.15-.176-.299-.616.031-.743.009-.062.08-.223.096-.278.038.024.105 0 .165-.016.197-.392.507-.69.691-1.084.007-.013.061-.003.069-.017.022-.055.001-.18.055-.277.053-.098.196-.235.114-.34q.03 0 .06-.013a.14.14 0 0 0 .048-.037c.041-.179-.055-.337-.023-.498-.104-.065-.128-.125-.11-.262-.087-.027-.157-.085-.26-.084-.2.168-.472.295-.493.573-.08.071-.203.136-.134.247-.079.03-.088.102-.16.135.06.12-.075.122-.015.245-.215.166-.15.504-.374.665.021.161-.013.29-.158.35-.058.464-.273.83-.517 1.178l-.115.027c.019.117-.156.167-.082.26-.188.076-.338.321-.53.196-.008-.094.09-.034.067-.111-.008-.102-.09-.087-.112-.165.013-.084.107-.118.093-.215-.123-.265.083-.34-.029-.642.179-.129 0-.48.194-.6l-.026-.112c.25-.19.196-.566.42-.772-.06-.182-.03-.215-.172-.32.06-.015.131-.023.154-.06.004-.1-.068-.078-.083-.148.047-.032.115.055.12-.005-.035.003-.034-.05-.046-.087-.16.023-.203.123-.293.19.034.174-.26.406-.223.582-.004-.013-.011-.025-.027-.016.046.174-.112.249-.154.37-.03.084.021.216-.066.233.022.466-.446.633-.554 1.019-.11.062-.156.165-.175.282-.268.13-.35.633-.642.752 0 .103-.164.108-.11.242-.192.161-.436.273-.612.072.006.036.023.078-.03.079-.028-.229-.118-.43-.267-.514.065.032.073.03.116-.028.001-.106-.066-.103-.09-.17.12-.105-.01-.26.054-.39-.13-.331-.03-.516.016-1.074.222-.349.413-.84.455-.846.113-.185.138-.687.34-.753.474-.774.771-1.634 1.152-2.454-.055-.094.035-.155-.056-.196q.091-.02.125-.065c-.081-.452.088-.79.094-1.205-.314-.169-.068-.794-.472-.905m-5.818 1.244c-.007-.032-.019-.06-.045-.068.01.082-.062.19-.159.24-.085.279-.375 1.646-.44 1.897-.004-.015-.004-.036-.022-.035q0 .02.007.038a.1.1 0 0 0 .02.033c-.153.158.003.473-.261.54-.038 0-.045-.042-.068-.063-.075.05-.133.1-.233.058-.014.027-.024.058-.044.08-.077.052-.177.075-.24.133-.142.13-.243.466-.453.54.007.043-.022.06 0 .113-.127.016-.076.157-.215.165-.045-.022-.046-.099-.11-.094-.174.213-.247.505-.412.683a.7.7 0 0 1-.07.477c.014.045.063.046.072.1l-.014.015-.019.008-.02-.001-.019-.008c-.034.146-.11.354-.054.473-.027.002-.021-.044-.06-.027.002.055.006.113-.034.136 0 .067.07.035.074.1-.025 0-.03-.02-.059-.01-.014.246-.03.409.08.603.113-.032.154.04.235.055.05-.034-.013-.052.042-.082a.37.37 0 0 1 .247.016c.046-.057.175-.101.246-.096.046-.15.309-.207.233-.393.038-.037.113-.047.156-.08-.046.004-.014-.06.01-.058.19 0 .17-.435.409-.347.031.223.105.44.216.636.19 0 .215-.043.334-.13.08-.343.308-.379.435-.711.15.275.282.743.75.611.061-.072.117-.15.273-.147.012-.146.25-.114.24-.279.009.032.039.041.082.032-.023-.113.045-.052.127-.074.03-.142.212-.168.34-.232a.28.28 0 0 1 .22-.297c.009-.051-.032-.04-.055-.054l.053-.036a.2.2 0 0 0 .096-.05.25.25 0 0 1 .137-.026c0-.025.037-.03.01-.068a.16.16 0 0 0 .069-.06c.057-.062.159-.199.213-.218.036-.067.09-.177.086-.158.007-.023.1-.323.118-.354.002.006.007-.027-.034-.067.05-.03.036-.059.062-.12v-.002c-.018-.009-.037-.01-.084.01l-.114.23c.037.115-.084.172-.105.256-.065.056-.128.14-.2.218l.001-.012a8.2 8.2 0 0 1-1.386 1.012q-.002-.028-.008-.057c-.233.07-.349-.002-.464-.085 0-.137-.049-.466.03-.542.068-.01.12-.073.186-.085.046.002.043.063.103.05.113-.03.027-.11.12-.151.04.01.016.095.084.067.05-.011.025-.082.066-.103.21.057.307-.26.527-.313.032-.095.117-.148.103-.282.055-.008.056-.058.168-.057.038-.064.011-.091.022-.159.27-.11.191-.399.272-.667-.091-.111-.042-.147-.095-.318-.058-.003-.138-.046-.068-.091-.037-.03-.055.015-.093.03-.037-.033-.054-.09-.092-.124-.07.038-.178.008-.27.011-.11.165-.36.223-.394.451-.21-.017-.128.29-.37.332.032.21-.158.244-.209.39.05.235-.193.24-.159.464l-.076.008c.048.135-.058.152-.09.223-.04.247-.275.39-.256.647-.246.1-.191.251-.388.381-.186-.258-.15-.671-.035-.888.013-.083-.075-.074-.038-.126.098.004.194-.124.14-.283.041-.014.024-.068.082-.07-.03-.216.075-.476.117-.653.027-.117 0-.236.025-.302.01-.027.056-.04.064-.065.023-.086-.004-.227.023-.322.018-.061.051-.067.055-.12.007-.099-.035-.196-.01-.293.003-.005.05-.014.052-.024.025-.056.008-.147.07-.194-.092-.192.233-1.36.257-1.541-.003-.024-.033-.014-.041-.032.015-.044.067-.06.082-.103-.074-.05.013-.195-.116-.19q-.016.069-.04.135m-1.555 3.332c.23.068.402-.272.6-.1-.027.131.042.3 0 .45-.152.111-.17.315-.24.486-.027.01-.032-.012-.056-.01.002.147-.298.378-.241.564a.1.1 0 0 1-.015.014.1.1 0 0 1-.02.007h-.019a.1.1 0 0 1-.018-.01c-.096.243-.366.424-.397.662-.092.012-.094.092-.125.15-.08-.059-.14.048-.188.106a.16.16 0 0 0-.14-.052c-.008-.093-.028-.168-.102-.17-.106-.449.35-.867.388-1.259.156-.085.198-.25.27-.396.038-.016.033.029.061.027.072-.048.082-.1.043-.194.166-.002.112-.235.246-.208.013-.061-.06-.005-.046-.067m10.6.32c.51.327-.25.851-.36 1.207-.18.081-.174.14-.252.285-.072-.006-.076-.004-.136.033-.025-.014-.03-.061-.062-.06.242-.464.403-.933.65-1.425v-.001q.019.015.042.02a.11.11 0 0 0 .117-.058m5.955.407c.252.255.082.762-.194.91-.1-.05-.138-.245-.118-.364-.022-.136.088-.333.204-.528zm-9.372-4.615c.28.065.067.711.218.82.006.07-.086.091-.105.15.23.08-.07.349.041.654-.19.032-.101.198-.088.327-.083.009-.058.067-.159.072.016.4-.473.691-.31 1.08-.284.09-.182.357-.411.47.033.06.123.134.015.18-.108.047-.07-.044-.055-.075-.184.044-.287.386-.222.474-.246.181-.26.75-.559.993-.098-.097-.066-.487-.046-.674h-.002c.049-.413-.034-.825.162-1.346.224-.338.128-.76.273-1.132.082-.016.415-.77.41-1.11.308-.222.41-.697.838-.883m-3.885 5.018-.007.02a.03.03 0 0 1-.007-.02zm-.903-1.503c.377-.363.594-.172.63.084.029.211-.236.212-.284.399-.144.025-.223.101-.225.238-.095 0-.45.236-.517.188-.066-.048.153-.375.154-.475 0-.174.28-.245.242-.434m-8.214-9.553c-.615 1.034-.22 1.005-.58 2.165-1.24.402-.886.514-1.31.502-.028 0-.04.027-.065.028-.025 0-.052-.024-.075-.027-.16-.013-.322.037-.435.051-.04.11-.122.195-.122.332.06.05.097.003.165-.007.334-.045.667-.085 1.011-.159.268-.057.153-.1.843-.198-.065.661-.357 1.867-.324 2.59-.166.039-.17.182-.155.336-.308.389-.47.875-.699 1.317-.384.383-.469.957-1.018 1.236-.031.104-.073.24-.132.33-.027.04-.028.078-.064.106-.074.057-.212.057-.293.023a.4.4 0 0 1 .014.063.3.3 0 0 1-.075-.031c-.01.094-.076.244-.19.202.004.087-.045.143-.129.1a.2.2 0 0 1-.079.095l-.027-.034a.16.16 0 0 1-.171.012c-.002.02-.015.042-.017.066-.061-.02-.126.01-.181.052-.049-.08-.138-.099-.187-.01l-.043-.045a.1.1 0 0 0-.022.056.4.4 0 0 0 .002-.105c-.058-.004-.29-.053-.25.074-.007-.02-.035-.052-.042-.082-.061.05-.398.203-.332.006q-.024.068-.083.067c-.014-.132-.15-.044-.21-.07-.073-.09-.149-.294-.29-.266a.1.1 0 0 1 .033-.045c-.07.033-.085.04-.088-.045.01.216-.217-.053-.25-.088-.071.05-.138.11-.216.147-.002-.064-.043-.146-.033-.208-.121.122-.253.052-.311.214a1 1 0 0 1 .067-.039l.053-.02c-.064.065.475.484.532.498.073.019.316.08.268.127.182.01.639.212.652.2.044-.041.289.034.524.07.15.025.495.03.621-.137 0 .034.193-.091.215-.065.012-.119.118-.065.131-.134.159-.001.454-.153.643-.262a.6.6 0 0 0 .145-.09q.027-.015.028-.023c.199-.187.298-.488.52-.641.123-.325.367-.571.444-.923.26-.175.247-.524.49-.71.037-.12.032-.268.11-.362.35.737.097 1.74.811 2.35.554-.031.788-.468 1.04-.789l.657-.812c.088.198.195.371.262.532.067.075.328.322.675.236.005-.04-.057-.12-.005-.128.033.027.046.085.098.081.313-.135.673-.356.558-.743.063.052.158.06.287.013.008-.24.235-.342.318-.535.262-.02.241-.372.49-.469-.001-.09-.057-.087-.062-.168.258-.159.567-.444.557-.845.094-.066.087-.198.233-.233.003-.254.249-.38.498-.316.425.464-.1.873.125 1.362-.204.086-.07.288-.053.452.027.264-.006.585.263.714.302-.021.258-.247.334-.357.37-.058.352-.535.67-.693.205-.334.305-.736.602-1.01.005-.058.03-.107.011-.182.245-.197.174-.591.357-.827.033.102.155.065.21.132-.05.083 0 .224.029.356-.207.526-.15 1.359.187 1.864.153-.02.212-.04.325-.048.032-.126.186-.175.216-.303.359-.198.463-.62.732-.885.082-.042.06-.018.141-.059.017-.108.071-.121.173-.177.039.02.084.025.116.052.086.274.262.394.381.493.088.076.182.224.319.266.051.014.181-.028.256-.008.113.033.428.074.569.002.043-.021.082-.111.145-.161.187-.153.258-.073.292-.258.046.044.08-.042.153-.009.443-.475.908-.942 1.122-1.562-.036-.01-.058-.043-.072-.087-.309.028-.229.302-.485.364-.065.086-.062.214-.139.29-.337.077-.375.351-.564.485-.002.001-.435.301-.484.403-.468.05-.987-.003-.93-.702.066-.131.251-.439.453-.414.31-.393.827-.657.984-1.147.175-.037.332-.28.22-.513l.099-.02c.013-.11-.137.035-.122-.077.136-.028.062-.186.153-.24.015.043.003.127.072.086.006-.41-.337-.633-.56-.88-.288.045-.64.094-.733.423-.248.096-.434.41-.489.702-.162.073-.219.21-.224.385-.384.288-.318.865-.483 1.293.04.09.04.096.043.197-.22.126-.328.253-.51.405 0 .23-.297.276-.33.485-.03.006-.041-.022-.079-.006-.01.084-.076.134-.08.224-.082-.047-.25.041-.318-.033-.021-.289-.148-.59-.12-.875.01-.094.094-.173.099-.255.004-.073-.055-.148-.049-.22.007-.077.082-.194.091-.278.03-.233-.039-.428-.191-.395l-.033-.147c-.19-.057-.421-.048-.502-.276.158-.135.005-.411-.015-.64-.01-.122.04-.196.008-.31-.012-.046-.085-.093-.107-.131-.063-.116-.075-.272-.215-.261.046-.008.054-.038.034-.086-.325.142-.456.627-.622.912-.08.134-.207.193-.12.39-.11.126-.153.394-.032.548.033.06-.037.06-.027.107.159.063.242.241.364.358.134-.001.227.064.315.136-.051.03.02.139.018.204-.065.016-.058-.031-.098.02-.014.082.023.069.04.172-.36.23-.253.753-.607.985.018.04.018.087.003.128-.258.029-.219.566-.634.63-.372-.11.068-.738-.132-1.155.122-.24.018-.62.085-.894-.044-.02-.108-.008-.14-.046-.059-.277-.479-.237-.586-.538.072-.13.002-.351.133-.444.066-.455-.056-.641-.238-1.054-.088.038-.124-.005-.202.018.001.031.02.069-.009.08-.265.037-.18.295-.38.37-.021.203-.137.348-.282.475-.079.225-.08.498-.178.71.122.1.082.303.075.445.043.055.083-.069.129-.002-.04.011-.086.016-.063.065l.033.146c.29.031.428.38.218.622-.005.047.093.087.027.124-.086.035-.106-.032-.183-.01-.324.74-.967 1.284-1.456 1.92-.194.07-.421.044-.511.14-.07-.143-.224-.176-.306-.317-.119-.214-.124-.549-.135-.717-.036-.031-.085-.045-.101-.106.1-.479.622-.632.815-1.084.374-.269.447-.729.749-1.044.007-.405-.037-.683-.227-.9-.083-.096-.137-.27-.327-.185-.049.017.018.11-.051.113-.037-.053-.114-.041-.19-.034-.116.054-.12.177-.292.195-.288.314-.433.722-.694 1.055-.074.305-.265.643-.224.951-.088.057-.057.191-.154.241-.064.035-.071-.02-.129.002-.003.048.01.106-.02.134-.058-.132-.157-.032-.28-.092-.056.047.049.115.002.128-.037-.018-.063-.055-.113-.052-.04.109-.149.174-.137.314.15-.054.064.21.012.05.066.252.324.473.493.352.23.113.193.377.23.661l-.692.653c-.144.114-.238.26-.459.326-.89-1.316-.25-3.867.087-5.139.822-.588 1.252-.157 1.752-.467.199.013.444-.109.635-.18.015 0 .237-.095.25-.096l.148-.043c.05-.075.239-.113.27-.09.856-.483 1.95-.622 2.808-1.228-.225-.023-.126-.123-.337-.218-.717.377-2.46.908-2.51.918-.268.143-.6.152-.855.339-.22-.032-.562.152-.783.26-.103-.007-.426-.058-.517-.069-.25.13-.567.11-.83.31-.184-.365.166-.92-.026-1.293.065-.615.031.169-.14-.53-.083.034-.094-.047-.189.004M12.811 26c.004.05-.055.063-.052.114-.037-.018-.063-.056-.114-.053 0-.056.118-.036.166-.061m26.809-4.73c-1.197.611-2.516.89-3.735 1.44-1.236.558-2.14 1.416-3.097 2.345-.174.17-.359.352-.551.535q.51.027 1.02-.001c.263-.227.518-.458.774-.692a.3.3 0 0 1-.066-.101l-.021-.108c-.028-.274.095-.69.175-.72.209.188.358.245.392.497.734-.65 1.499-1.244 2.43-1.608 1.04-.405 2.144-.659 3.179-1.08a6 6 0 0 0-.143-.705q-.177.104-.357.198m.098-.998a6.5 6.5 0 0 1-.8.428c-1.175.524-2.416.87-3.613 1.342-1.28.504-2.306 1.179-3.294 2.135-.384.374-.784.794-1.214 1.176a6 6 0 0 0 .801.173q.035-.025.066-.053c.4-.341.781-.704 1.165-1.066.802-.755 1.625-1.488 2.65-1.93l.118-.05-.011-.073c-.029-.158.048-.209.14-.35.04.005.14.157.186.297 1.104-.418 2.273-.676 3.338-1.192.218-.106.429-.225.635-.348a8 8 0 0 0-.167-.489m-1.42 2.717q-.436.154-.865.332c-1.173.491-2.038 1.26-2.938 2.12 1.557-.276 3.065-.878 4.13-1.579l-.022-.009c-.129-.088-.258-.184-.299-.307-.05-.144-.04-.358-.007-.557m-23.85 1.099c.05.066.07.183.092.288-.305.34-.572.706-.965.99-.041-.54.133-1.304.873-1.278m19.267-10.83c-2.955-1.06-5.807-.313-7.746.736.277.297.545.599.796.885.568.644 1.3 1.338 1.647 1.54.264.156.576.116.909.069.283-.039.654.005.805-.005.295-.02.51-.033.714-.03.172.001.33-.01.468-.02.303-.022.523-.038.682.092.092.076.125.178.09.286-.047.149-.233.322-.528.345-.26.02-.521.098-.884.228-.233.083-.33.064-.472.203-.167.164-.356.349-.236.757.1.34.354.636.712.831.315.173.649.334.957.334.102 0 .21.008.323.013.337.018.718.04 1.116-.08.258-.078.586-.129.665.066a.26.26 0 0 1-.002.204c-.12.275-.663.489-.895.58l-.008.003c-.308.12-.682.11-1.041.101l-.21-.006c-.289-.003-.655-.111-.95-.197-.332-.098-.363-.083-.397 0l-.002.003v.005a.12.12 0 0 0 .022.096c.161.224 1.19.34 1.212.342l.17.018c.398.043.74.079 1.113.09.078.003.172 0 .272-.003.291-.01.689-.02.777.13q.061.11-.082.343c-.09.142-.452.358-.77.362l-.13.002c-.527.008-1.506.022-2.296-.22a4 4 0 0 1-.415-.153c-.39-.18-.596-.253-.63-.195-.034.06.076.142.402.284.225.1.504.184.647.233.23.08.974.228 1.455.21.192-.007.392-.007.56.08.082.044.058.235.004.34-.077.144-.359.208-.451.23-.216.049-1.376-.092-1.541-.126-.29-.057-.72-.224-.761-.166-.058.097.93.45.97.475.056.035.173.11.193.231.008.058-.032.155-.122.225a.57.57 0 0 1-.526.06c-.38-.163-1.34-.627-1.818-1.065-.412-.38-.942-1.011-1.497-1.757-.215-.29-.432-.77-.621-1.194l-.013-.026c-.34-.76-.497-.996-.555-1.083l-.018-.029c-.075-.167-1.183-1.274-1.42-1.44l-.201-.138c-.162-.111-.377-.26-.556-.388a1 1 0 0 0-.068.148c-.422 1.167 2.297 7.556 6.917 9.128q.118-.092.231-.193c.452-.4.88-.826 1.325-1.236h-.003c.905-.834 1.835-1.458 2.99-1.902 1.205-.461 2.464-.79 3.65-1.3.33-.143.69-.296 1.014-.49-1.137-2.864-3.966-6.158-5.943-6.866m-11.074 9.45c.311-.297.478-.175.76.084-.009.248-.295.469-.418.628.016.055.06.052.075.11-.07.03-.139.054-.184.031-.09.338-.639.48-.836.37.096-.155.314-.724.404-.832.078-.088.138-.335.2-.391m-6.271.67c-.048-.175.365-.496.362-.16-.023.194-.11.362-.154.55-.126-.04-.165-.22-.208-.39m23.697-1.025c-.389.153-.781.291-1.175.428a.6.6 0 0 1 .146.362c.013.131.03.27.037.4.496-.39.849-.799.992-1.19m-21.238.35c.078-.142.288-.187.281 0l.015.086c.014.2-.106.41-.09.592-.3-.123-.378-.37-.206-.677m14.584-4.996c.045.01.15.252.128.38-.01.045-.05.085-.091.123-.032.03-.17.016-.18-.055-.007-.054-.006-.117-.009-.175-.006-.135.063-.168.152-.273m1.483-.076c.234-.088.333-.185.557-.096.096.038.203.075.29.119.118.059.058.298-.01.337-.088.047-.183.09-.265.079-.228-.035-.58-.355-.572-.439m-2.357.094q.053.016.092.058c.022.02.02.117-.03.128l-.122.014c-.095.013-.122-.033-.202-.09.007-.031.172-.118.262-.11m1.408-1.38c.086.017.3.154.357.273.043.087-.021.23-.02.317-.117.06-.221-.101-.32-.224-.097-.123-.057-.204-.045-.367zm1.232-.132c.046-.009.244.166.278.29.011.045-.008.099-.029.15-.017.04-.146.087-.186.026-.03-.045-.056-.103-.084-.153-.062-.119-.014-.18.021-.313"/></svg>