<svg xmlns="http://www.w3.org/2000/svg" width="96" height="13" fill="none" viewBox="0 0 96 13"><g fill="#f1f1f1" clip-path="url(#a)"><path d="M58.088 7.583c-.271-.27-.542-.541-.705-.92-.76-1.625-.217-3.684 1.627-4.55 1.085-.488 2.17-.488 3.254-.055h.163l.054-.054c.271-.758.814-1.083 1.573-1.191L65.14.758V2.6h-.488l-.434.054a1.1 1.1 0 0 0-.38.271v.38a3.41 3.41 0 0 1-2.17 5.2 3.8 3.8 0 0 1-2.06-.055.33.33 0 0 0-.326.108c-.162.217-.27.434-.217.705.109.27.272.379.543.433h2.874c.651 0 1.302.217 1.844.596a2.7 2.7 0 0 1 1.03 1.733l-2.06.542v-.109c-.109-.433-.434-.65-.868-.758h-2.983a2.7 2.7 0 0 1-1.464-.433c-.651-.434-.977-1.084-.922-1.842a2.27 2.27 0 0 1 .976-1.733zm2.658-.866h.434a1.52 1.52 0 0 0 1.203-1.686 1.5 1.5 0 0 0-.281-.698A1.57 1.57 0 0 0 60.8 3.63a1.63 1.63 0 0 0-1.627.975c-.326.975.325 2.167 1.573 2.167zM18.278 1.95h2.332l1.627 5.2 1.627-5.2h2.061l1.627 5.2 1.628-5.2h2.17l-2.713 7.8h-2.115l-1.627-5.308h-.054L23.213 9.75h-2.06zM33.627 6.554c.325.813.814 1.354 1.627 1.517a2.77 2.77 0 0 0 2.766-.813h.055l1.355 1.084-.38.433a4.45 4.45 0 0 1-2.494 1.083q-1.546.244-2.929-.487a4.065 4.065 0 0 1-2.06-4.171 3.95 3.95 0 0 1 3.145-3.358c1.085-.217 2.17-.109 3.146.541a3.96 3.96 0 0 1 1.952 3.575l-.054.596h-6.129m.054-1.462h3.96c-.109-.867-1.085-1.625-2.061-1.625-.922.054-1.844.812-1.899 1.625M48.488 1.95h2.007v4.82c.163.65.542 1.084 1.247 1.193.489.108.922 0 1.356-.217a1.46 1.46 0 0 0 .651-1.083l.054-.434V1.95h2.007v4.658a3.25 3.25 0 0 1-.542 1.788c-.326.65-.922 1.083-1.627 1.3-1.085.325-2.17.325-3.254-.108-1.085-.434-1.628-1.246-1.845-2.384l-.054-.65V1.95M47.078 2.817l-.976 1.3-.163-.163a3.1 3.1 0 0 0-2.332-.541l-.543.216a.543.543 0 0 0 0 .867l.543.217 1.356.379c.542.108 1.084.27 1.464.596a1.9 1.9 0 0 1 .814 1.462c.054 1.246-.597 2.167-1.736 2.492-1.736.541-3.363.325-4.827-.813l-.108-.108.976-1.3.65.433c.71.395 1.542.511 2.333.325.163 0 .271-.054.434-.162.325-.217.38-.704 0-.921l-.705-.325-1.519-.38a2.77 2.77 0 0 1-1.41-.758c-.271-.325-.434-.704-.543-1.083-.054-1.137.434-2.058 1.52-2.437a4.83 4.83 0 0 1 4.61.541l.108.109zM73.98 12.08l-2.007.54v-.107c-.163-.434-.434-.65-.814-.759l-.542-.054h-2.495a2.7 2.7 0 0 1-1.519-.38c-.65-.433-.922-1.082-.922-1.84a2.27 2.27 0 0 1 .977-1.734l.108-.109-.163-.162a3 3 0 0 1-.867-2.113 3.25 3.25 0 0 1 .976-2.545 4.07 4.07 0 0 1 4.339-.705l.108-.054A1.79 1.79 0 0 1 72.407.867c.434-.109.868-.055 1.356-.055V2.6h-.543l-.38.108q-.189.103-.325.271c-.108.108-.108.217 0 .38a3.355 3.355 0 0 1-.813 4.55 3.96 3.96 0 0 1-2.875.703l-.76-.162-.216.27c-.326.38-.109.867.38 1.03h2.874a3.5 3.5 0 0 1 1.627.433c.705.434 1.085 1.084 1.248 1.896m-4.61-5.31c1.084 0 1.79-.866 1.627-1.84a1.57 1.57 0 0 0-1.627-1.247c-.706 0-1.194.271-1.465.921-.434 1.03.217 2.167 1.465 2.167M82.44 6.608h-5.965l.054.217a2.06 2.06 0 0 0 1.681 1.354 2.82 2.82 0 0 0 2.44-.704l.218-.217 1.356 1.138a4.6 4.6 0 0 1-3.146 1.57c-.922 0-1.79-.054-2.603-.541a3.9 3.9 0 0 1-2.17-3.792 3.95 3.95 0 0 1 3.471-3.791c1.248-.217 2.387.054 3.417.92a3.8 3.8 0 0 1 1.356 2.546v1.3zm-2.06-1.462c-.163-.975-1.194-1.734-2.224-1.625-.922.108-1.627.866-1.736 1.625zM84.285 7.475l.65.433c.71.396 1.542.512 2.333.325a.6.6 0 0 0 .38-.162c.433-.217.433-.704 0-.975l-.651-.271-1.465-.38c-.38-.107-.76-.216-1.085-.432a1.95 1.95 0 0 1-.867-1.788c0-1.192.705-1.896 1.681-2.167a4.83 4.83 0 0 1 4.556.759l-.976 1.3-.163-.109a3.1 3.1 0 0 0-2.278-.541 1.6 1.6 0 0 0-.542.216.542.542 0 0 0-.055.813l.489.27 1.084.272c.488.108.922.216 1.356.433 1.682.758 1.519 2.87.38 3.737-.434.325-.976.542-1.519.65a4.92 4.92 0 0 1-3.254-.433l-.868-.542-.163-.108zM91.878 1.95V0h2.007v1.95H96v1.842h-2.061V7.15c0 .542.325.813.814.867.37.04.743-.017 1.084-.163H96v1.788l-.814.27c-.596.109-1.193.055-1.79-.108a2.17 2.17 0 0 1-1.41-1.787l-.054-.759V3.792h-1.247V1.95z"/><path fill-rule="evenodd" d="m9.763.433 4.61 4.55a.866.866 0 0 1 0 1.192l-4.61 4.658a1.3 1.3 0 0 1-1.844 0L3.309 6.23a.866.866 0 0 1 0-1.192L7.918.433a1.3 1.3 0 0 1 1.844 0m-3.471 7.15L8.624 9.75a.326.326 0 0 0 .434.054l3.905-3.792a.325.325 0 0 0 0-.433l-.271-.27a.326.326 0 0 0-.434 0L9.003 8.341a.33.33 0 0 1-.38 0L6.998 6.825a.326.326 0 0 0-.434 0l-.271.325a.325.325 0 0 0 0 .433" clip-rule="evenodd"/><path d="M1.898 4.875 6.454.379a1.303 1.303 0 0 0-1.79.054L.38 4.767a1.3 1.3 0 0 0 0 1.841l4.339 4.225a1.303 1.303 0 0 0 1.79.054l-4.61-4.604a.92.92 0 0 1 0-1.3z"/></g><defs><clipPath id="a"><path fill="#fff" d="M0 0h96v13H0z"/></clipPath></defs></svg>