<svg xmlns="http://www.w3.org/2000/svg" width="272" height="390" fill="none" viewBox="0 0 272 390"><g clip-path="url(#a)"><path fill="#f1f1f1" d="M239.767 182.494c3.21 1.235 2.08.209 3.76 2.884-1.36 4.024-26.68 22.409-32.26 26.69a6710 6710 0 0 1-60.24 45.887c-18.4 13.9-44.73 35.99-63.13 47.8-.39-.15-2.17-1.46-2.59-1.75l-.16-2.14c2.74-3.97 42-33.06 48.68-38.17zM145.037 125.067a16.37 16.37 0 0 1 17.03 9.159 16.37 16.37 0 0 1-3.59 19 16.4 16.4 0 0 1-8.04 4.108 16.36 16.36 0 0 1-15.67-5.534 16.38 16.38 0 0 1-2.75-16.394 16.37 16.37 0 0 1 13.02-10.339M131.457 153.495l3.59 1.878.37 1.928c-3.8 5.149-25.72 23.825-31.97 29.324l-69.8 61.491c-3-.993-1.81-.126-3.67-2.723.61-4.396 90.36-81.663 101.48-91.898"/><path fill="#e64446" d="M11.247 243.396c8.55-2.788 17.74 1.87 20.54 10.411 2.81 8.538-1.83 17.738-10.37 20.558-8.55 2.83-17.79-1.82-20.6-10.39-2.81-8.562 1.86-17.783 10.43-20.579"/><path fill="#f1f1f1" d="M252.457 154.12a16.28 16.28 0 0 1 15.57 5.659 16.26 16.26 0 0 1 2.56 16.374 16.27 16.27 0 0 1-13.1 10.142c-8.74 1.095-16.77-4.949-18.13-13.649s4.44-16.904 13.1-18.526M71.177 301.355c4.71-.7 9.42 1.2 12.33 4.96 2.91 3.77 3.55 8.81 1.68 13.18-1.87 4.38-5.96 7.4-10.69 7.9-7.1.75-13.5-4.31-14.4-11.4-.9-7.08 4.02-13.58 11.08-14.64M107.697 1.306a13.05 13.05 0 0 1 18.63 13.45 13.05 13.05 0 0 1-8.31 10.488c-6.52 2.478-13.84-.62-16.61-7.032-2.76-6.41.01-13.86 6.29-16.906M15.927 276.285c1.03.83 1.69 1.62 2.6 2.59 1.34 6.8-2.8 85.89-4.98 89.93-1.89-1.48-4.47-2.79-4.01-5.45 2.33-13.52.41-79.91 6.39-87.07M101.327 91.766c5.25-.397 8.72-.773 12.63 3.13 2.21 4.81-.11 9.779.64 10.976 3.53 5.64 18.86 11.58 19.57 20.005l-2.42 2.137c-7.4-4.072-13.65-12.223-20.02-17.345-1.02-.817-8.63-.561-14.55-4.086-4.04-5.849-.32-10.211 4.15-14.817M108.677 26.966c2.62.794 2.57.61 4.46 2.533 1.14 5.917-2.79 52.355-3.86 60.102-2.83-.576-2.7-.415-4.88-2.262-.83-8.494 2.71-52.075 4.28-60.373M60.587 324.395c2.83 2.3 1.99.91 3.07 3.97-1.84 4.7-30.38 39-35.51 44.68-2.93-2.53-3.03-1.75-3.49-4.67 6.08-8.54 28.83-37.07 35.93-43.98M200.657 122.148c5.25-1.347 10.6 1.832 11.92 7.091 1.32 5.258-1.88 10.59-7.15 11.89-5.23 1.291-10.52-1.888-11.83-7.112-1.32-5.225 1.84-10.529 7.06-11.869M12.487 370.565a9.72 9.72 0 0 1 9.81 1.15 9.75 9.75 0 0 1 3.77 9.13c-.5 3.5-2.86 6.46-6.16 7.73-4.94 1.9-10.49-.49-12.5-5.38-2.02-4.9.24-10.5 5.08-12.63M152.017 1.423a9.65 9.65 0 0 1 9.75-.067 9.68 9.68 0 0 1 4.84 8.465 9.66 9.66 0 0 1-5.01 8.366c-4.62 2.534-10.42.9-13.03-3.675-2.61-4.573-1.08-10.398 3.45-13.089M213.877 134.255c5.94.524 23.33 13.034 28.5 17.16 2.3 1.841 1.6 3.407 1.39 5.977-6.94-1.687-22.5-12.296-28.29-17.034-2.13-1.747-1.65-3.778-1.6-6.103M186.607 130.003c1.84-.028 2.61.332 4.44.765l.42 1.836c-4.77 4.596-14.9 5.659-21.25 6.542-3.6-.154-2.09.477-4.73-1.865l.65-1.716c4.93-2.88 14.64-4.427 20.47-5.562M128.627 9.027c5.12-.365 12.78-1.999 16.4 1.75l-.16 3.206c-5.6.178-8.55 1.257-14.07-.034-2.55-2.41-1.66-.925-2.17-4.922"/></g><defs><clipPath id="a"><path fill="#fff" d="M0 0h272v390H0z"/></clipPath></defs></svg>