<svg width="40" height="48" viewBox="0 0 40 48" fill="none" xmlns="http://www.w3.org/2000/svg">
<path d="M22.8005 0.0109301C29.0994 -0.236437 33.2018 3.73546 34.0515 9.83417C34.8796 15.779 33.3516 21.6439 31.0369 27.0949C30.5725 28.1883 30.0138 29.2283 29.5447 30.3185C28.5711 32.7725 27.7403 35.4274 27.8191 38.09C27.8927 40.5754 29.0703 43.7552 32.074 43.5666C33.2108 43.5461 34.6992 42.63 35.3494 41.6545C36.2524 40.2996 37.6551 38.5908 39.3747 40.2355C39.7655 40.6062 39.9905 41.1195 39.9988 41.6584C40.0183 42.7375 38.7215 44.2481 37.9997 44.9865C34.7614 48.3005 29.9623 49.0049 26.4997 45.5851C22.6885 41.8207 23.2836 35.1956 24.949 30.5783C26.048 27.5314 27.6137 24.7775 28.6326 21.6779C29.6497 18.6236 30.152 15.4214 30.1179 12.2023C29.939 8.98333 28.9793 5.5034 25.5212 4.4914C23.681 3.95285 21.2503 4.10738 19.5515 5.02656C15.6623 7.12159 15.5012 12.7863 16.0964 16.59C16.5922 19.3351 17.3495 22.2803 18.531 24.8137C20.4591 28.9639 19.7167 33.4981 16.3259 36.6271C11.7561 40.8442 4.12664 39.6015 1.17357 34.0764C-0.0813588 31.7426 -0.341791 29.0015 0.449942 26.4728C1.20905 24.0083 2.91082 21.943 5.18529 20.7277C7.28438 19.6096 10.2382 19.3091 12.5076 19.9992C12.1504 18.2409 11.8274 16.5733 11.7224 14.7746C11.2731 7.07643 14.251 0.546806 22.6794 0.0158129L22.8005 0.0109301ZM9.40795 23.8156C6.33582 24.0151 4.0053 26.664 4.19897 29.7365C4.39271 32.8093 7.03804 35.1454 10.1111 34.9572C13.1918 34.7684 15.5347 32.1147 15.3406 29.0344C15.1463 25.9539 12.4881 23.6159 9.40795 23.8156Z" fill="#FFFFFF"/>
</svg>
