<svg xmlns="http://www.w3.org/2000/svg" width="276" height="412" fill="none" viewBox="0 0 276 412"><g clip-path="url(#a)"><path fill="#35cd3d" d="M99.749 232.523c8.353-3.447 17.919.527 21.372 8.877s-.514 17.919-8.861 21.378c-8.357 3.463-17.938-.509-21.394-8.868-3.457-8.359.522-17.937 8.883-21.387"/><path fill="#f1f1f1" d="M66.7 99.48c8.763-2.112 17.576 3.286 19.675 12.051s-3.312 17.57-12.08 19.656c-8.75 2.081-17.532-3.316-19.626-12.063S57.958 101.588 66.7 99.48M16.164 18.477c.605.21 3.886 1.594 4.116 1.955 15.249 23.936 29.884 48.487 43.906 73.157 1.618 2.847.899 2.9-.218 5.596-2.325-.688-3.504-.972-4.883-3.21C44.309 72.01 29.78 47.769 15.702 23.396c-1.234-2.135-.356-2.833.462-4.918M246.328 352.883c18.019-1.37 24.682 14.12 9.987 25.11-17.66 3.3-24.951-13.95-9.987-25.11M163.946 310.312c7.308 1.5 63.1 38.52 72.738 46.02 1.434 1.11.743 2.19.477 4.54-6.406-.33-62.725-38.07-71.605-44.77-2.078-1.57-1.553-3.21-1.61-5.79M49.602 215.163a9.762 9.762 0 1 1 4.913 18.897 9.762 9.762 0 0 1-4.913-18.897"/><path fill="#f1f1f1" d="M152.868 295.833c12.793.15 16.047 11.89 5.455 19.36-14.849-.34-18.637-12.52-5.455-19.36M263.447 392.272c5.124-1.17 10.253 1.94 11.57 7.03s-1.654 10.31-6.705 11.77a9.71 9.71 0 0 1-9.557-2.46 9.712 9.712 0 0 1 4.692-16.34M6.488.544a9.686 9.686 0 1 1 6.399 18.285A9.686 9.686 0 0 1 6.487.544M85.605 178.48a9.638 9.638 0 1 1 6.807 17.959 9.638 9.638 0 0 1-6.807-17.959M117.074 261.551c2.972.158 4.887-.253 7.038 2.401 5.473 6.751 23.943 26.121 24.183 33.921-1.854-.01-3.852.29-5.15-1.24-5.764-6.84-24.597-27.605-26.071-35.082M74.93 132.242c2.056.266 4.76.397 5.428 2.622 2.715 9.05 10.128 33.107 8.064 41.683-.953-.378-3.227-1.339-3.595-2.136-3.334-7.213-9.97-35.902-9.897-42.169M92.454 197.272c2.157.891 3.425.942 4.172 3.666 1.682 6.13 6.823 23.837 4.893 29.427l-3.151-.697c-3.563-4.352-8.69-27.104-5.914-32.396M61.488 229.409c6.75.24 19.065 6.826 24.77 11.069 2.347 1.744 1.644 3.483 1.45 5.958-4.955-.61-19.378-8.237-24.048-11.513-2.232-1.566-1.796-2.747-2.172-5.514M255.982 378.183c7.018 1.8 8.681 6.19 6.883 12.8-6.269-2.15-7.434-6.54-6.883-12.8"/></g><defs><clipPath id="a"><path fill="#fff" d="M0 0h276v412H0z"/></clipPath></defs></svg>