<svg width="46" height="36" viewBox="0 0 46 36" fill="none" xmlns="http://www.w3.org/2000/svg">
<path d="M5.0329 0.0616455C5.78671 -0.0735584 6.94579 0.0413916 7.68036 0.1427C12.2398 0.771179 14.0102 3.89679 16.3571 7.35461C17.4 8.85871 18.8939 10.3466 20.7975 10.587C22.2042 10.7646 24.1877 10.8161 25.5378 10.3585C28.1819 9.46232 29.4329 6.63817 30.9821 4.55286C31.7789 3.48034 32.6137 2.48487 33.7165 1.71106C36.1136 0.00640139 39.0689 -0.24964 41.9099 0.255005C43.4865 0.535052 45.6886 0.708515 45.3727 2.98254C45.3061 3.46186 44.9032 4.03613 44.487 4.30579C43.5613 4.90549 42.3403 4.40065 41.3561 4.23157C35.0678 2.96284 34.4434 7.46179 31.1052 11.255C30.6514 11.7705 30.0465 12.378 29.4645 12.757C31.9618 14.6312 33.56 16.5261 34.4792 19.59C34.6375 20.3821 34.8433 21.2935 34.9128 22.0929C35.5587 29.5276 29.013 36.0414 21.528 35.2286C18.2541 34.886 15.2488 33.2611 13.1706 30.7081C9.31599 25.8824 9.5914 18.8815 13.9557 14.4493C14.5661 13.8296 15.2255 13.3249 15.904 12.7843C14.7967 11.8463 14.0582 11.0566 13.1999 9.88C12.0692 8.32987 11.0295 6.27504 9.51044 5.1095C8.13827 4.05673 6.33792 3.79857 4.67548 4.13098C3.93496 4.28484 3.22515 4.41948 2.48016 4.5636C1.30149 4.87122 0.0865467 3.954 0.0055542 2.74817C-0.0955473 1.24035 1.19444 0.635151 2.44208 0.439575C3.37725 0.293071 4.12964 0.146295 5.0329 0.0616455ZM30.9059 22.3243C30.5255 17.8017 26.5553 14.4404 22.0319 14.8126C17.497 15.1859 14.1262 19.1691 14.5075 23.7032C14.889 28.2373 18.8775 31.6014 23.4108 31.212C27.9327 30.8234 31.2862 26.8469 30.9059 22.3243Z" fill="#FFFFFF"/>
</svg>
