<svg width="49" height="25" viewBox="0 0 49 25" fill="none" xmlns="http://www.w3.org/2000/svg">
<path d="M35.2076 12.7087C35.5619 12.5225 35.9451 12.5152 36.3267 12.6394C37.1696 12.9137 38.238 13.9227 39.0191 14.4392C40.3276 15.3042 48.2991 20.2386 48.6626 20.9772C48.7742 21.2041 48.8806 21.4272 48.9361 21.6755C49.0689 22.271 48.9376 22.9279 48.6079 23.4401C48.3427 23.8522 47.8073 24.1947 47.3286 24.2868C46.999 24.3501 46.7471 24.2554 46.4556 24.1091C44.9992 23.3783 43.5491 22.2343 42.1792 21.3229C40.165 19.9828 38.1086 18.7107 36.0982 17.3601C36.0715 17.3357 36.0447 17.3112 36.0181 17.2868C36.0077 17.2769 35.8558 17.2239 35.8511 17.2233C33.2531 18.8556 30.6484 20.7069 28.0347 22.3073C26.8042 23.0608 26.0087 23.8365 24.73 24.2897C24.5123 24.3668 24.0177 24.2479 23.8443 24.153C22.4883 23.4113 21.171 22.3814 19.8687 21.569C17.5825 20.143 15.3767 18.6898 13.1529 17.1696C12.9137 17.3575 12.6299 17.5341 12.3765 17.7058C10.4636 19.0021 8.55169 20.2778 6.5806 21.4851C5.26913 22.2498 3.72846 23.5554 2.37845 24.1843C0.840498 24.9006 -0.624154 22.4412 0.274938 21.1208C0.424953 20.8112 0.720584 20.5746 1.00541 20.3669C3.55645 18.5066 6.28363 16.893 8.91263 15.1599C9.54872 14.7434 10.1783 14.3167 10.8003 13.8796C11.4247 13.4337 12.0851 12.8618 12.7779 12.5847C14.3076 12.4859 14.9273 13.5766 16.1304 14.3337C18.9426 16.1032 21.7608 17.899 24.4849 19.8034C25.8242 18.9177 27.1463 18.0033 28.4947 17.1315C29.5506 16.4488 30.6309 15.8113 31.6783 15.113C32.7705 14.3847 34.1012 13.2902 35.2076 12.7087ZM35.5845 0.0153266C36.0345 -0.0668939 36.6836 0.197562 37.024 0.430366C39.1762 1.9023 41.3527 3.36359 43.5201 4.80732L46.5757 6.84443C47.6169 7.53923 48.5877 7.92544 48.9331 9.154C49.3335 10.5785 47.842 12.2881 46.4947 11.5827C45.0511 10.8269 43.7283 9.74536 42.3394 8.88642C40.2506 7.56949 38.1772 6.20666 36.1119 4.82685L35.9497 4.6999C35.5741 4.67418 29.3301 9.09989 28.4126 9.51923C27.259 10.0672 25.0135 12.4613 23.6558 11.5104C20.3235 9.17682 16.4284 7.0842 13.1988 4.64619C11.8449 5.44499 10.5502 6.40111 9.2388 7.27119C8.10965 8.02038 6.93888 8.70101 5.81107 9.45283C4.87381 10.0775 3.33193 11.3042 2.3433 11.653C1.94904 11.7919 1.4843 11.7319 1.11771 11.5427C0.621617 11.2865 0.260253 10.7898 0.106969 10.2595C-0.0517815 9.71013 -0.00358698 8.98639 0.301305 8.49091C0.866785 7.57242 6.9196 3.92245 8.2388 3.0456C9.52392 2.19135 11.4745 0.425324 12.9126 0.0211859C13.6942 0.000397046 14.2752 0.324245 14.8931 0.776069C18.0212 3.06319 21.3115 5.07465 24.5064 7.26923C26.5389 5.84015 28.5267 4.58875 30.6382 3.25361C32.1384 2.30509 33.8488 0.6735 35.5845 0.0153266Z" fill="#2269F5"/>
</svg>
