<svg xmlns="http://www.w3.org/2000/svg" width="298" height="471" fill="none" viewBox="0 0 298 471"><g clip-path="url(#a)"><path fill="#f1f1f1" d="M212.287 384.911c9.592-6.492 11.928-5.584 22.442-1.65 5.937 8.468 9.081 15.144 1.505 24.103-5.984 7.396-16.216 7.62-23.011 1.079a16.94 16.94 0 0 1-5.256-12.354c.073-4.776 1.416-7.597 4.32-11.178M141.571 235.59c8.631-2.347 17.547 2.674 20.015 11.271s-2.428 17.582-10.99 20.17a16.358 16.358 0 1 1-9.025-31.441M45.705 186.308c18.138-2.716 27.707 24.772 4.182 32.306-7.906.714-15.428-3.1-17.832-10.999a17.2 17.2 0 0 1 1.416-13.163c3.143-5.637 6.366-6.512 12.234-8.144M96.577 438.679c8.39-3.341 17.897.77 21.21 9.172 3.312 8.401-.832 17.894-9.244 21.178-8.372 3.268-17.81-.852-21.107-9.213-3.296-8.36.791-17.812 9.141-21.137M15.379 321.147c5.051 1.451 13.976 16.604 17.488 21.778l28.026 41.378 22.941 33.966c3.143 4.674 6.551 9.669 9.59 14.418 1.745 2.727.773 3.414-.278 6.277-2.922-.728-3.486-1.32-5.283-3.953-17.656-25.872-35.03-51.689-52.596-77.642-6.237-9.214-14.07-20.383-20.064-29.942-.738-1.178-.081-4.743.176-6.28M275.409 15.77c2.446.713 1.543.307 3.553 2.08l.008 2.121c-6.294 8.376-91.138 70.412-105.299 81.173-2.052-1.347-1.428-.895-3.039-2.848l.402-2.275c28.269-24.334 77.759-56.976 104.375-80.25M143.656 117.722c3.225.071 1.978-.534 4.047 1.439-.582 2.72-1.088 3.759-3.376 5.599-26.143 21.031-54.938 41.995-80.48 63.597-2.97.713-1.57.788-4.353-.011l-.498-1.838c2.218-5.952 73.294-59.976 84.66-68.786M116.37 374.719a13.16 13.16 0 0 1 13.178 1.868 13.16 13.16 0 0 1 4.805 12.412 13.15 13.15 0 0 1-8.484 10.253c-6.731 2.452-14.186-.931-16.773-7.612-2.586-6.68.647-14.201 7.274-16.921M154.012 96.566c6.753-2.686 14.401.639 17.041 7.409 2.641 6.771-.736 14.396-7.524 16.991-6.723 2.57-14.261-.768-16.876-7.474-2.616-6.705.671-14.265 7.359-16.926M9.43 261.585c6.642-2.034 13.715 1.482 16.104 8.006 2.39 6.523-.74 13.775-7.124 16.513a13.075 13.075 0 1 1-8.98-24.519"/><path fill="#f1f1f1" d="M63.917 207.698c8.993.679 51.026 27.666 61.442 33.686 3.081 1.78 2.863 3.571 3.332 6.454-8.023-.505-52.898-28.64-62.749-34.826-2.334-1.466-1.773-2.599-2.025-5.314M217.538 234.944c2.62.269 2.433.312 4.553 1.933l-1.235 2.281c-5.939 3.71-44.433 10.982-53.382 12.568-2.126-.272-1.112-.052-3.133-1.819l.149-1.952c4.115-4.038 42.669-10.117 52.023-12.718z"/><path fill="#2269f5" d="M283.973.67a9.803 9.803 0 0 1 13.18 11.002A9.802 9.802 0 1 1 283.973.669"/><path fill="#f1f1f1" d="M231.935 225.565a9.775 9.775 0 0 1 11.447 7.266 9.775 9.775 0 1 1-11.447-7.266M259.696 428.048a9.7 9.7 0 1 1 16.804 9.693 9.7 9.7 0 0 1-16.804-9.693M182.545 365.442c4.738-2.571 10.663-.785 13.19 3.977 2.528 4.762.687 10.67-4.098 13.154-4.723 2.451-10.539.639-13.033-4.061a9.697 9.697 0 0 1 3.941-13.07M44.665 257.994c14.855 1.017 16.825 12.225 5.416 19.825-13.249-1.714-17.233-12.317-5.416-19.825M7.612 303.274c3.96.456 7.984 1.52 10.354 4.976a8.99 8.99 0 0 1 1.3 7.502c-1.064 3.881-3.744 5.654-7.016 7.497-14.196-1.883-16.468-12.844-4.638-19.975M170.186 371.285c2.673-.265 3.471.067 4.915 2.156l-.801 1.798c-5.326 3.701-26.68 4.922-34.068 5.658-3.485.124-2.009.654-4.609-1.55l-.092-2.047c4.367-3.477 27.951-5.267 34.655-6.015M114.686 401.114c1.558.473 4.026.787 4.203 1.957 1.121 7.383-4.559 28.188-6.645 34.665-2.016-.608-1.775-.589-3.646-1.607-2.214-5.698 4.265-27.556 6.088-35.015M42.971 219.914c1.878.457 1.967.596 3.745 1.401 2.202 4.725 3.284 28.93 2.463 34.852-1.81-.381-3.547-.291-4.088-1.481-2.878-6.333-3.42-29.552-2.12-34.772M236.234 407.363c6.897.548 23.153 13.25 23.462 20.684-6.915.213-22.28-13.056-23.462-20.684"/><path fill="#f1f1f1" d="M196.992 377.449c7.44.659 11.125 3.567 11.788 11.044-6.63-.73-11.32-4.203-11.788-11.044M9.694 288.361c3.659.622 2.201-.178 4.721 2.071.882 3.76-1.26 7.497-2.764 11.249-2.318-.378-1.466-.141-3.552-1.432-1.483-4.172.08-7.81 1.595-11.888"/></g><defs><clipPath id="a"><path fill="#fff" d="M0 0h298v471H0z"/></clipPath></defs></svg>